<?xml version="1.0" encoding="UTF-8"?>
<svg id="Layer_1" xmlns="http://www.w3.org/2000/svg" width="500" height="500" version="1.1" xmlns:xlink="http://www.w3.org/1999/xlink" viewBox="0 0 500 500">
  <!-- Generator: Adobe Illustrator 29.6.1, SVG Export Plug-In . SVG Version: 2.1.1 Build 9)  -->
  <defs>
    <linearGradient id="linear-gradient" x1="250" y1="370.352" x2="250" y2="90.296" gradientUnits="userSpaceOnUse">
      <stop offset="0" stop-color="#2484c6"/>
      <stop offset="1" stop-color="#2484c6" stop-opacity="0"/>
    </linearGradient>
  </defs>
  <g>
    <rect y="230.324" width="500" height="269.676" fill="#005d89"/>
    <rect width="500" height="233.872" fill="#9afff0"/>
    <path d="M500,333.481c-48.445-30.236-88.925-37.674-116.428-39.064-115.152-5.819-173.333,85.767-284.936,75.064-43.569-4.178-77.566-22.247-98.636-36V114.928c69.407,42.725,123.634,47.873,160.678,44.426,80.956-7.534,114.708-59.364,202.979-67.915,56.52-5.475,104.598,9.777,136.343,23.489v218.553Z" fill="url(#linear-gradient)"/>
  </g>
  <g>
    <path d="M420.363,330.189c7.063,2.557,12.933-1.292,21.141,3.862,5.908,3.709,12.111,11.311,10.603,17.662-2.573,10.833-26.198,12.179-29.685,12.378-14.039.8-39.614-2.387-46.737-18.836-.925-2.136-2.23-6.092.278-21.698.756-4.706,7.763-47.486,16.194-46.685,9.55.907,6.128,45.326,28.206,53.318Z" fill="#ffffef"/>
    <path d="M69.102,196.628c-.772.913-2.821,3.263-9.587,9.108-5.781,4.994-6.358,5.07-6.848,6.458-1.469,4.163,2.936,5.701,2.054,10.267-.895,4.64-5.821,5.014-6.848,9.803-.751,3.503,1.712,4.102,2.739,8.991,1.651,7.861-4.093,9.286-2.739,17.557.393,2.399,1.631,5.243,4.109,10.933,1.442,3.311,2.185,4.997,3.266,6.492,3.889,5.379,7.239,4.885,9.061,8.732,1.961,4.142-1.298,6.028.685,10.104,1.761,3.619,5.221,2.926,8.193,6.458,4.233,5.03-.528,8.357,3.002,13.256,3.307,4.589,12.392,8.481,19.622,7.515,2.601-.348,6.081-1.474,8.903,0,.515.269,1.336.796,2.273,2.164,2.477,3.617,1.734,7.235,1.836,8.28,1.133,11.564,53.991,9.687,53.991,9.687,44.241-1.57,82.273-4.222,134.037-20.131,22.48-6.909,52.195-16.041,56.452-33.149,1.678-6.741-.794-13.934,4.109-27.447,3.485-9.607,7.247-12.896,9.587-18.298,7.865-18.152-9.599-38.726-16.436-46.78-46.817-55.154-193.771-43.583-232.153-32.002-17.943,5.414-41.007,19.535-45.223,26.309-.347.557-1.669,2.838-4.084,5.693Z" fill="#ffffef"/>
    <path d="M217.191,281.839c-4.711,9.853-11.012,15.853-25.833,27.985-20.807,17.033-31.382,25.6-39.747,28.078-15.655,4.639-31.825,2.608-32.224,0-.321-2.096,9.672-3.743,25.329-10.498,19.593-8.453,37.491-16.034,48.506-33.008,3.388-5.222,9.961-15.35,8.002-27.046-1.726-10.306-9.132-12.44-11.84-22.466-2.496-9.245.998-17.174,8.611-32.829,16.439-33.807,24.658-50.71,27.396-50.157,11.558,2.336.468,83.326-3.178,103.863-.564,3.175-1.7,9.126-5.023,16.078Z" fill="#b99a90"/>
    <path d="M416.799,225.89c.036,1.222,2.192,1.293,2.747,3.118.42,1.38-.627,1.954-1.076,4.485-.534,3.01.713,3.51,0,5.382-1.008,2.645-3.906,2.716-3.947,4.485-.042,1.83,3.036,2.833,2.691,4.126-.31,1.162-2.951.929-3.229,2.153-.232,1.024,1.513,1.651,1.435,3.229-.034.696-.405,1.213-1.076,2.153-1.007,1.408-1.547,1.341-1.794,2.153-.376,1.236.771,1.742.538,3.05-.252,1.412-1.678,1.319-2.511,3.05-.792,1.645.214,2.313-.538,3.767-.957,1.851-2.903,1.382-3.588,3.05-.65,1.584.864,2.598.179,4.126-.719,1.603-2.67,1.123-3.408,2.691-.692,1.468.702,2.56.538,4.844-.11,1.523-.819,2.257-2.153,4.305-3.794,5.826-2.667,6.919-5.292,9.328-2.431,2.231-3.57,1.452-5.044,3.615-1.7,2.496-.682,4.264-2.472,6.014-1.913,1.87-4.184.931-4.863,2.391-.981,2.111,3.097,5.52,2.332,6.458-.696.853-4.468-1.474-5.023-.718-.582.792,3.463,3.477,2.87,6.099-.277,1.224-1.292,1.237-4.126,3.588-1.552,1.288-3.455,2.867-4.933,5.292-1.558,2.557-.904,3.123-2.153,4.575-1.955,2.271-4.23,1.273-7.265,2.96-3.955,2.198-2.782,5.387-6.189,7.804-3.817,2.708-6.406-.505-13.454,1.076-7.162,1.606-7.021,5.491-13.185,5.92-5.027.35-5.978-2.174-11.571-1.345-3.691.547-4.639,1.848-8.342,2.153-3.657.301-6.724-.639-8.712-1.459-3.2,2.04-5.6,2.199-7.164,1.997-3.047-.393-3.804-2.267-8.073-3.229-2.75-.62-3.121.004-5.609-.624-3.21-.81-4.537-2.34-7.038-3.95-6.636-4.273-9.016-1.054-13.724-4.844-3.9-3.139-3.214-6.11-7.535-8.073-2.056-.934-3.588-.887-4.844-2.422-1.667-2.038-1.019-4.634-1.076-6.189-.378-10.164-32.345-15.107-32.919-25.474-.141-2.553,1.645-5.018,0-7.714-1.479-2.425-4.121-2.393-4.664-4.664-.461-1.928,1.291-2.579,1.376-5.538.054-1.881-.607-3.251-1.735-5.585-1.902-3.938-2.941-3.672-3.767-6.147-1.2-3.594.753-4.762-.359-7.935-1.075-3.067-3.096-2.208-5.561-5.92-2.674-4.026-.969-6.05-4.126-10.405-1.043-1.439-1.786-1.985-2.332-3.588-.514-1.507-.154-2.078-.359-5.92-.095-1.778-.25-3.208-.359-4.216-.183-1.688-.397-3.212-.538-4.216-.532-3.771-.602-3.785-.538-4.485.184-2.038,1.478-2.07,1.973-4.45.423-2.033-.481-2.205-.179-4.161.459-2.978,2.651-3.209,3.05-6.099.266-1.928-.687-1.992-.359-4.305.26-1.832.926-2.273,1.076-4.305.124-1.667-.305-1.626-.179-3.05.2-2.265,1.313-2.676,1.973-5.202.572-2.185-.175-2.205.359-4.126.825-2.969,2.633-3.012,3.05-5.382.44-2.499-1.445-3.159-.897-5.382.596-2.419,2.979-2.244,3.767-4.844.71-2.341-.842-3.734.179-5.023,1.092-1.379,3.309-.34,4.126-1.615.935-1.459-1.447-3.642-.538-5.023.914-1.39,3.963-.147,4.844-1.615.643-1.071-.655-2.275,0-3.229.899-1.311,3.882.178,4.844-1.076.993-1.295-1.403-3.908-.359-5.202.729-.904,2.136.077,3.588-.897,1.487-.998.723-2.508,2.153-4.485,1.639-2.266,3.4-1.331,5.023-3.588,1.438-2,.706-3.641,2.153-4.485,1.381-.805,2.539.403,3.588-.359,1.743-1.265-.061-5.616,1.256-6.279,1.023-.515,2.688,1.822,3.767,1.256,1.139-.598.427-3.802,1.076-3.947.459-.102.785,1.505,1.615,1.615,1.272.167,1.552-3.477,4.187-5.339,2.951-2.085,5.695.296,8.191-1.837,2.071-1.77.97-4.083,3.05-5.382,1.99-1.242,3.42.612,6.279-.359,3.094-1.05,2.714-3.66,5.741-4.664,2.901-.962,4.263,1.1,6.678-.179,2-1.06,1.54-2.726,3.727-3.767,1.974-.94,3.012.101,4.844-.897,1.865-1.016,1.51-2.488,2.87-3.588,2.194-1.773,5.544.095,14.43,2.577,4.587,1.281,6.878,1.956,9.609,2.177,5.12.414,6.491-.643,11.377-.331,6.26.4,5.775,2.248,11.811,2.842,7.913.779,11.703-2.106,14.967.718,1.676,1.45.965,2.46,3.106,4.305,2.848,2.455,4.919,1.367,7.893,3.588,2.674,1.997,1.656,3.369,4.305,5.741,3.222,2.885,5.455,1.507,9.328,3.947,4.214,2.655,2.679,4.985,6.817,8.252,5.143,4.06,9.785,2.255,11.84,6.099,1.252,2.343-.386,3.174.718,5.741,1.854,4.311,6.974,3.118,13.634,8.97,3.875,3.405,3.972,5.416,3.947,6.099-.042,1.14-.551,2.026-.359,3.831.028.268.204,1.78,1.076,3.345,2.081,3.731,5.892,3.747,6.01,5.741.084,1.416-1.833,1.518-2.512,3.588-.896,2.73,1.954,4.027,2.332,8.252.349,3.906-1.93,4.539-1.076,7.893.717,2.817,2.692,3.811,2.153,5.741-.474,1.696-2.325,2.096-2.153,3.229.196,1.287,2.65,1.205,3.05,2.691.367,1.361-1.52,2.07-1.435,3.947.083,1.819,1.905,2.229,1.794,3.767-.114,1.575-2.057,1.597-2.691,3.408-.838,2.397,1.996,3.983,1.256,6.279-.749,2.322-4.229,2.502-4.182,4.057Z" fill="#ffffef"/>
    <path d="M245.801,324.312c-.354,3.187-3.108,24.823-21.796,38.679-11.365,8.426-15.543.71-46.014,9.687-10.756,3.169-16.712,5.918-26.188,4.713-7.086-.901-13.618-3.692-20.989-6.842-7.218-3.084-10.827-4.627-11.302-6.458-1.935-7.457,19.056-23.773,42.334-29.355,10.451-2.506,15.077-1.907,22.604-6.458,6.837-4.134,8.418-9.484,15.338-22.604,5.287-10.023,6.601-14.896,12.649-23.001,4.914-6.586,7.371-9.879,10.359-10.097,9.994-.73,25.859,26.071,23.007,51.736Z" fill="#ffffef"/>
    <path d="M297.067,257.967c-.343-2.297,4.751-5.542,9.651-6.019,6.998-.68,14.067,4.243,13.524,6.761-.485,2.249-7.071,2.719-8.862,2.847-5.794.414-13.904-.853-14.312-3.589Z" fill="#000521"/>
    <g>
      <ellipse cx="295.523" cy="242.208" rx="21.929" ry="19.449" fill="#8f767e"/>
      <ellipse cx="323.365" cy="242.208" rx="21.929" ry="19.449" fill="#8f767e"/>
    </g>
    <path d="M296.371,221.281c-1.044,1.51-.976,3.703-.333,5.202.654,1.526,1.82,2.204,4.254,3.637,8.229,4.844,8.452,5.071,9.345,4.942,2.863-.412,2.59-2.712,7.464-4.812,3.062-1.319,4.519-.953,5.519-2.447,1.155-1.727.832-4.644-.598-6.411-1.439-1.776-3.458-1.723-12.569-1.797-9.464-.077-11.798-.171-13.081,1.685Z" fill="#000521"/>
    <path d="M374.457,187.04c2.931,5.569,3.797,13.614-.163,20.037-5.857,9.499-19.012,10.167-27.25,7.77-1.266-.368-16.736-5.1-17.731-17.731-.811-10.295,8.076-17.842,15.202-20.536,10.727-4.055,24.508.132,29.942,10.46Z" fill="#000521"/>
    <path d="M248.358,187.04c-3.155,6.547-3.349,15.934,2.156,22.548,8.435,10.135,23.596,5.766,25.257,5.258,1.927-.588,16.443-5.244,17.731-17.731,1.059-10.267-7.052-18.256-14.285-21.253-11.138-4.615-25.583.232-30.859,11.177Z" fill="#000521"/>
    <path d="M290.873,168.516c-.226,2.445-3.994,5-7.506,4.391-.336-.058-3.262-.617-4.515-3.315-1.22-2.627-.237-5.956,1.664-7.139,3.483-2.166,10.688,2.468,10.357,6.063Z" fill="#000521" opacity=".6"/>
    <path d="M330.708,170.569c.226,2.445,3.994,5,7.506,4.391.336-.058,3.262-.617,4.515-3.315,1.22-2.627.237-5.956-1.664-7.139-3.483-2.166-10.688,2.468-10.357,6.063Z" fill="#000521" opacity=".6"/>
    <path d="M265.448,180.392c-5.665-.377-11.568,5.025-10.943,8.611.226,1.297,1.367,2.699,2.691,2.87,2.439.316,3.211-3.839,7.355-5.741,4.136-1.898,7.867.174,8.271-.897.421-1.114-3.158-4.563-7.374-4.844Z" fill="#e4fff8"/>
    <path d="M267.421,191.891c-.166.933,1.648,2.217,2.449,1.777.667-.366.911-2.078,0-2.691-.873-.588-2.317.167-2.449.914Z" fill="#e4fff8"/>
    <path d="M340.558,185.037c-3.971,4.058-3.707,12.056-.577,13.913,1.133.672,2.939.717,3.93-.177,1.826-1.647-.827-4.936.424-9.321,1.248-4.376,5.249-5.862,4.699-6.866-.573-1.044-5.52-.569-8.476,2.451Z" fill="#e4fff8"/>
    <path d="M350.575,191.017c.601.733,2.756.19,2.943-.705.156-.745-.986-2.043-2.044-1.75-1.014.281-1.38,1.868-.899,2.455Z" fill="#e4fff8"/>
    <path d="M238,246.947c.305-.335,2.272,1.688,6.638,2.691,2.801.643,3.996.271,5.382,1.435,1.77,1.487.884,2.988,2.554,4.577,2.095,1.993,4.257.362,6.595,2.24,2.319,1.863,1.037,4.147,3.229,5.747,2.464,1.799,5.156-.303,7.355,1.608,1.466,1.274.551,2.451,1.794,4.305,2.41,3.593,7.031.936,13.052,4.664,2.796,1.731,4.09,3.723,6.322,3.319,1.585-.287,1.671-1.425,3.408-1.794,2.752-.585,3.768,2.008,6.817,1.794,2.464-.173,2.622-1.924,5.382-2.153,2.157-.179,2.843.826,5.202,1.256,3.258.594,4.464-.864,8.073-1.435,6.311-.999,7.371,2.706,12.378,1.525,4.389-1.036,4.276-4.049,9.149-5.023,3.395-.679,3.8.714,8.036.275,1.321-.137,3.096-.46,9.903-3.504,6.901-3.086,9.417-4.698,9.687-4.305.669.973-8.307,8.371-11.481,10.764-21.539,16.234-63.07,18.406-93.819-1.076-15.991-10.132-26.436-26.053-25.657-26.909Z" fill="#b99a90"/>
    <path d="M397.885,301.976c-1.377.007-3.06.706-3.711,2-.837,1.664,1.021,2.775.734,5.088-.229,1.852-1.181,2.769-6.412,8.325-3.91,4.152-4.694,5.037-4.861,6.65-.216,2.089.886,2.842.186,4.84-.718,2.049-2.564,3.243-3.444,3.813-.748.484-1.186.759-1.768.696-1.377-.147-2.416-2.059-2.565-3.671-.126-1.362.395-2.416.858-3.354,1.289-2.611,2.802-2.887,2.818-4.474.013-1.349-1.073-1.984-.673-2.691.518-.916,2.561-.244,2.96-1.076.369-.77-1.224-1.669-.984-2.712.317-1.381,3.331-.77,4.483-2.535,1.232-1.888-1.004-4.448.269-5.785,1.011-1.062,3.092-.156,3.633-1.211.288-.562-.215-.991-.354-1.975-.295-2.087,1.366-4.428,3.313-5.56.439-.255,2.183-1.268,4.305-.807,3.672.797,5.342,5.321,4.844,5.785-.304.283-1.506-1.357-3.633-1.345Z" fill="#b99a90"/>
  </g>
</svg>