<?xml version="1.0" encoding="UTF-8"?>
<svg id="Layer_1" data-name="Layer 1" xmlns="http://www.w3.org/2000/svg" viewBox="0 0 500 500">
  <defs>
    <style>
      .cls-1 {
        fill: #c96c1d;
      }

      .cls-2 {
        fill: #c95c1d;
      }

      .cls-3 {
        fill: #f7941d;
      }

      .cls-4 {
        fill: #ef4136;
      }

      .cls-5 {
        fill: #fff;
      }

      .cls-6 {
        fill: #231f20;
      }

      .cls-7 {
        fill: #f15a29;
      }

      .cls-8 {
        fill: #cbffff;
      }

      .cls-9 {
        fill: #67c0e1;
      }

      .cls-10 {
        fill: #67a9e1;
      }

      .cls-11 {
        fill: #fbb040;
      }
    </style>
  </defs>
  <path class="cls-9" d="M500,443.6c-38.67-7.36-96.97-14.52-166.72-6.89-66.2,7.24-93.48,22.41-153.96,27.57-42.08,3.6-103.03,2.59-179.32-20.68V128.73h500v314.87Z"/>
  <path class="cls-10" d="M500,500H0v-164.45c30.86,11.45,58.65,17.15,82.15,19.88,124.89,14.51,172.5-49.54,263.49-19.15,23.14,7.73,45.33,20.31,81.96,19.15,31.39-1,56.58-11.56,72.4-19.88v164.45Z"/>
  <path class="cls-8" d="M500,152.49c-91.28-25.35-160.37-20.41-207.32-10.72-52.54,10.84-79.15,27.99-136.34,32.94-65.1,5.63-119.89-8.87-156.34-22.21V0h500v152.49Z"/>
  <g>
    <path class="cls-2" d="M288.61,358.48c-.15,1.23-3.13,1.49-3.12,2.05.01.58,3.28.56,3.39,1.16.19,1.06-9.24,5.57-20.3,5.12-4.74-.19-15.97-.61-20.03-8.32-2.02-3.84-2.57-9.84.31-12.32,2.36-2.04,5.86-.7,39.67,11.85.26.1.08.47.08.47Z"/>
    <path class="cls-11" d="M408.41,316.78c-12.13,41.35-120.13,42.99-160.16,43.6-47.85.73-93.94,1.43-137.93-28.6-50.86-34.71-79.07-96.96-70.6-104.59,3.72-3.36,13.14,5.11,26.15,10.46,59.15,24.31,113.71-48.26,182.38-52.79,82.71-5.45,172.85,88.65,160.16,131.92Z"/>
    <path class="cls-11" d="M440.76,190.83c.31,10.59-2.88,18.66-4.36,22.28-8.69,21.33-31.49,42-59.87,41.95-32.59-.06-64.23-27.45-64.23-64.23s28.76-64.23,64.23-64.23c39.67,0,63.42,37.02,64.23,64.23Z"/>
    <circle class="cls-6" cx="389.55" cy="172.97" r="13.01"/>
    <path class="cls-4" d="M461.49,199.7c.25,3.38-12.83,6.25-18.01,7.39-1.99.44-3.49.68-5.07,0-4.85-2.08-6.93-11.28-3.89-14.22,1.58-1.53,5.77-.44,14.07,1.8,8.52,2.29,12.78,3.47,12.9,5.03Z"/>
    <path class="cls-7" d="M464.61,196.03c.08,3.11-7.6,6.55-14.38,6.56-1.96,0-10.57.02-14.38-6.56-2.44-4.21-2.77-10.57,0-12.45,1.91-1.29,4.17.31,14.38,4.9,11.56,5.2,14.33,5.69,14.38,7.54Z"/>
    <circle class="cls-5" cx="396.86" cy="168.8" r="4.17"/>
    <g>
      <path class="cls-11" d="M436.75,157.77c1.04-.02,1.92,3.82,2.1,4.63,1.6,7.3,1.57,19.14-2.92,20.6-2.41.78-5.86-1.49-7.22-4.23-1.24-2.49-.56-5.02-.38-5.64.82-2.88,2.59-3.15,4.68-6.17,3.19-4.61,2.62-9.17,3.75-9.19Z"/>
      <path class="cls-3" d="M282.85,224.15c33.78-1.52,72.77,28.31,71.47,55.35-.86,17.83-19.05,30.3-25.71,34.86-12.62,8.65-33.43,17.58-80.62,12.64-57.68-6.03-118.49-28.99-116.36-40.97,1.42-8,28.91.35,69.73-15.55,46.97-18.3,50.57-44.94,81.49-46.33Z"/>
      <path class="cls-3" d="M162.93,306.76c.65.83,4.37-.59,5.14-.9,7.02-2.76,16.7-9.3,15.02-13.64-.9-2.33-4.98-3.8-8.09-3.36-2.84.4-4.48,2.32-4.87,2.8-1.84,2.23-.92,3.78-2.06,7.08-1.74,5.05-5.84,7.11-5.14,8.01Z"/>
      <path class="cls-3" d="M151.69,309.3c.65.83,4.37-.59,5.14-.9,7.02-2.76,16.7-9.3,15.02-13.64-.9-2.33-4.98-3.8-8.09-3.36-2.84.4-4.48,2.32-4.87,2.8-1.84,2.23-.92,3.78-2.06,7.08-1.74,5.05-5.84,7.11-5.14,8.01Z"/>
      <path class="cls-3" d="M137.48,304.46c.21.99,4.32,1.2,5.18,1.24,7.78.34,19.79-1.6,20.24-6.09.24-2.41-2.85-5.31-5.94-6.16-2.82-.77-5.23.28-5.81.55-2.74,1.24-2.61,2.96-5.19,5.43-3.96,3.76-8.71,3.96-8.47,5.04Z"/>
      <path class="cls-3" d="M127.77,301.4c.33.97,4.41.77,5.27.73,7.73-.43,19.38-3.56,19.31-8.09-.04-2.43-3.43-5.03-6.59-5.57-2.87-.49-5.13.8-5.68,1.12-2.56,1.51-2.23,3.22-4.5,5.94-3.47,4.15-8.15,4.82-7.79,5.88Z"/>
      <path class="cls-3" d="M115.84,295.33c-.01,1,4.01,1.99,4.85,2.19,7.62,1.82,19.94,2.23,21.39-2.03.78-2.28-1.63-5.69-4.5-7.09-2.61-1.28-5.23-.73-5.88-.58-2.99.68-3.24,2.37-6.35,4.26-4.76,2.89-9.5,2.17-9.51,3.26Z"/>
      <path class="cls-3" d="M205.51,322.65c.59.88,4.4-.28,5.19-.53,7.2-2.25,17.33-8.08,15.96-12.53-.73-2.38-4.69-4.15-7.83-3.93-2.86.19-4.63,2-5.06,2.45-1.99,2.1-1.19,3.7-2.56,6.92-2.1,4.91-6.33,6.67-5.69,7.63Z"/>
      <path class="cls-3" d="M194.12,324.39c.59.88,4.4-.28,5.19-.53,7.2-2.25,17.33-8.08,15.96-12.53-.73-2.38-4.69-4.15-7.83-3.93-2.86.19-4.63,2-5.06,2.45-1.99,2.1-1.19,3.7-2.56,6.92-2.1,4.91-6.33,6.67-5.69,7.63Z"/>
      <path class="cls-3" d="M180.3,318.54c.14,1,4.23,1.51,5.08,1.61,7.74.9,19.85-.18,20.63-4.63.41-2.38-2.46-5.5-5.49-6.57-2.75-.97-5.23-.09-5.84.13-2.82,1.04-2.81,2.77-5.57,5.04-4.21,3.47-8.97,3.33-8.81,4.42Z"/>
      <path class="cls-3" d="M170.83,314.8c.26.99,4.35,1.09,5.2,1.1,7.74.12,19.58-2.16,19.83-6.7.13-2.43-3.07-5.26-6.18-6.03-2.83-.7-5.18.43-5.75.71-2.67,1.33-2.46,3.05-4.92,5.6-3.76,3.9-8.47,4.23-8.19,5.3Z"/>
      <path class="cls-3" d="M159.36,307.89c-.08,1,3.86,2.27,4.68,2.53,7.47,2.35,19.73,3.65,21.48-.5.94-2.22-1.22-5.79-3.98-7.4-2.52-1.47-5.17-1.1-5.82-1-3.03.46-3.4,2.13-6.64,3.8-4.95,2.54-9.63,1.49-9.72,2.57Z"/>
      <path class="cls-3" d="M244.87,332.92c.53.97,4.5-.36,5.32-.65,7.5-2.58,18.25-9.18,17.21-14.1-.56-2.64-4.45-4.54-7.67-4.27-2.93.25-4.87,2.27-5.34,2.78-2.19,2.35-1.5,4.12-3.14,7.7-2.51,5.47-6.96,7.48-6.38,8.53Z"/>
      <path class="cls-3" d="M233.14,334.99c.53.97,4.5-.36,5.32-.65,7.5-2.58,18.25-9.18,17.21-14.1-.56-2.64-4.45-4.54-7.67-4.27-2.93.25-4.87,2.27-5.34,2.78-2.19,2.35-1.5,4.12-3.14,7.7-2.51,5.47-6.96,7.48-6.38,8.53Z"/>
      <path class="cls-3" d="M219.53,328.67c.07,1.11,4.18,1.62,5.04,1.72,7.8.9,20.22-.44,21.35-5.39.61-2.65-2.08-6.08-5.08-7.22-2.73-1.04-5.32-.04-5.95.22-2.95,1.19-3.07,3.11-6.05,5.66-4.56,3.9-9.38,3.8-9.31,5.01Z"/>
      <path class="cls-3" d="M210.18,324.64c.18,1.1,4.34,1.15,5.21,1.16,7.87.04,20.1-2.64,20.7-7.67.32-2.69-2.72-5.8-5.82-6.61-2.83-.74-5.3.54-5.91.86-2.82,1.5-2.73,3.42-5.43,6.28-4.13,4.37-8.95,4.79-8.75,5.98Z"/>
      <path class="cls-3" d="M199.04,317.11c-.16,1.11,3.75,2.47,4.57,2.75,7.42,2.52,19.8,3.8,21.9-.82,1.13-2.47-.8-6.41-3.48-8.16-2.45-1.59-5.18-1.15-5.85-1.04-3.12.55-3.63,2.41-7.05,4.29-5.23,2.88-9.92,1.77-10.09,2.97Z"/>
      <path class="cls-3" d="M299.69,331.4c.83.65,4.09-1.65,4.76-2.14,6.12-4.4,13.89-13.13,11.19-16.93-1.45-2.03-5.76-2.45-8.67-1.26-2.65,1.09-3.76,3.36-4.03,3.92-1.23,2.62.04,3.89-.25,7.37-.44,5.32-3.9,8.33-3,9.03Z"/>
      <path class="cls-3" d="M289.43,336.63c.83.65,4.09-1.65,4.76-2.14,6.12-4.4,13.89-13.13,11.19-16.93-1.45-2.03-5.76-2.45-8.67-1.26-2.65,1.09-3.76,3.36-4.03,3.92-1.23,2.62.04,3.89-.25,7.37-.44,5.32-3.9,8.33-3,9.03Z"/>
      <path class="cls-3" d="M274.47,335.45c.45.91,4.49.1,5.33-.08,7.63-1.59,18.78-6.43,18.11-10.9-.36-2.39-4.07-4.45-7.28-4.5-2.92-.05-5,1.56-5.5,1.97-2.35,1.88-1.79,3.52-3.69,6.54-2.9,4.62-7.46,5.99-6.97,6.97Z"/>
      <path class="cls-3" d="M264.3,334.88c.56.86,4.47-.34,5.28-.6,7.39-2.32,17.9-8.23,16.71-12.61-.64-2.35-4.57-4.03-7.76-3.77-2.91.23-4.78,2.04-5.23,2.49-2.11,2.1-1.37,3.67-2.9,6.87-2.34,4.88-6.7,6.68-6.1,7.62Z"/>
      <path class="cls-3" d="M251.24,331.94c.24.97,4.37.94,5.24.92,7.83-.12,19.87-2.76,20.23-7.25.19-2.4-2.98-5.11-6.11-5.76-2.85-.6-5.25.59-5.84.89-2.73,1.4-2.56,3.1-5.1,5.7-3.9,3.97-8.67,4.45-8.41,5.5Z"/>
      <path class="cls-3" d="M348.08,304.33c1.06,0,2.2-3.82,2.44-4.62,2.11-7.24,2.87-18.9-1.6-20.23-2.39-.71-6.05,1.61-7.61,4.34-1.42,2.49-.9,4.96-.76,5.57.64,2.82,2.42,3.04,4.34,5.96,2.93,4.47,2.05,8.97,3.2,8.97Z"/>
      <path class="cls-3" d="M343.21,314.78c1.06,0,2.2-3.82,2.44-4.62,2.11-7.24,2.87-18.9-1.6-20.23-2.39-.71-6.05,1.61-7.61,4.34-1.42,2.49-.9,4.96-.76,5.57.64,2.82,2.42,3.04,4.34,5.96,2.93,4.47,2.05,8.97,3.2,8.97Z"/>
      <path class="cls-3" d="M330.69,323.05c.92.44,3.6-2.68,4.15-3.34,5.03-5.95,10.85-16.63,7.57-19.74-1.75-1.66-5.95-1-8.51.93-2.33,1.76-2.98,4.31-3.12,4.93-.69,2.93.75,3.87,1.11,7.43.56,5.43-2.19,9.31-1.2,9.78Z"/>
      <path class="cls-3" d="M322.33,328.86c.97.34,3.31-3.02,3.8-3.72,4.39-6.38,9.04-17.5,5.41-20.22-1.95-1.46-6.08-.36-8.44,1.8-2.15,1.97-2.51,4.55-2.59,5.18-.37,2.95,1.18,3.74,1.94,7.2,1.16,5.29-1.17,9.39-.12,9.76Z"/>
      <path class="cls-3" d="M310.22,334.58c.78.62,4.02-1.95,4.7-2.5,6.1-4.92,13.96-14.41,11.48-18.17-1.33-2.01-5.49-2.19-8.36-.78-2.61,1.28-3.78,3.7-4.05,4.29-1.29,2.78-.11,4.01-.52,7.63-.63,5.53-4.1,8.84-3.24,9.52Z"/>
      <path class="cls-11" d="M432.64,147.27c1.04-.02,1.92,3.82,2.1,4.63,1.6,7.3,1.57,19.14-2.92,20.6-2.41.78-5.86-1.49-7.22-4.23-1.24-2.49-.56-5.02-.38-5.64.82-2.88,2.59-3.15,4.68-6.17,3.19-4.61,2.62-9.17,3.75-9.19Z"/>
      <path class="cls-11" d="M420.83,139.18c.93-.47,3.37,2.64,3.87,3.29,4.57,5.92,9.6,16.63,6.16,19.87-1.84,1.74-5.94,1.16-8.34-.73-2.18-1.73-2.65-4.3-2.76-4.94-.49-2.96,1-3.96,1.59-7.58.91-5.53-1.55-9.41-.53-9.91Z"/>
      <path class="cls-11" d="M412.97,133.48c.98-.37,3.07,2.98,3.5,3.69,3.91,6.37,7.76,17.56,3.99,20.42-2.02,1.53-6.03.52-8.21-1.62-1.99-1.95-2.17-4.56-2.21-5.2-.17-2.99,1.42-3.83,2.4-7.36,1.5-5.4-.53-9.52.53-9.92Z"/>
      <path class="cls-11" d="M401.4,127.97c.82-.65,3.84,1.89,4.47,2.42,5.69,4.85,12.82,14.29,10.12,18.18-1.44,2.08-5.57,2.36-8.31,1-2.49-1.24-3.48-3.66-3.71-4.26-1.09-2.79.16-4.08,0-7.74-.25-5.6-3.45-8.89-2.57-9.59Z"/>
      <path class="cls-11" d="M391.32,125.28c.75-.73,4.01,1.49,4.69,1.95,6.16,4.24,14.21,12.92,11.92,17.05-1.23,2.21-5.3,2.92-8.16,1.84-2.61-.98-3.84-3.29-4.13-3.86-1.37-2.67-.25-4.07-.79-7.7-.82-5.55-4.34-8.49-3.53-9.28Z"/>
      <path class="cls-11" d="M381.15,120.42c.75-.73,4.01,1.49,4.69,1.95,6.16,4.24,14.21,12.92,11.92,17.05-1.23,2.21-5.3,2.92-8.16,1.84-2.61-.98-3.84-3.29-4.13-3.86-1.37-2.67-.25-4.07-.79-7.7-.82-5.55-4.34-8.49-3.53-9.28Z"/>
      <path class="cls-11" d="M367,122.56c.36-.98,4.26-.37,5.08-.24,7.38,1.21,18.37,5.61,18.06,10.32-.16,2.53-3.55,4.9-6.59,5.15-2.78.23-4.87-1.34-5.38-1.73-2.38-1.83-1.97-3.57-4.01-6.63-3.11-4.67-7.55-5.82-7.16-6.88Z"/>
      <path class="cls-11" d="M357.36,123.76c.46-.93,4.28.09,5.07.31,7.21,1.99,17.66,7.54,16.85,12.2-.43,2.49-4.05,4.49-7.11,4.42-2.78-.07-4.7-1.85-5.17-2.29-2.17-2.07-1.58-3.76-3.27-7.02-2.59-4.97-6.88-6.6-6.38-7.61Z"/>
      <path class="cls-11" d="M345.14,127.63c.15-1.03,4.1-1.24,4.92-1.28,7.47-.34,19.13,1.7,19.8,6.38.36,2.51-2.46,5.53-5.39,6.4-2.67.8-5.04-.3-5.62-.58-2.7-1.3-2.67-3.09-5.29-5.66-4.01-3.92-8.59-4.14-8.42-5.26Z"/>
      <path class="cls-11" d="M328.89,137.51c-.29-1,3.2-2.84,3.93-3.22,6.64-3.44,18.08-6.46,20.65-2.49,1.38,2.12.08,6.05-2.22,8.07-2.09,1.84-4.71,1.84-5.35,1.83-3-.05-3.71-1.69-7.17-2.93-5.28-1.89-9.53-.17-9.85-1.25Z"/>
      <path class="cls-11" d="M319.81,144.19c-.29-1,3.2-2.84,3.93-3.22,6.64-3.44,18.08-6.46,20.65-2.49,1.38,2.12.08,6.05-2.22,8.07-2.09,1.84-4.71,1.84-5.35,1.83-3-.05-3.71-1.69-7.17-2.93-5.28-1.89-9.53-.17-9.85-1.25Z"/>
      <path class="cls-11" d="M315.04,157.68c-.69-.78,1.68-3.94,2.18-4.59,4.54-5.94,13.59-13.57,17.61-11.08,2.15,1.33,2.66,5.44,1.44,8.24-1.1,2.56-3.47,3.67-4.06,3.94-2.73,1.24-4.08.06-7.73.42-5.58.55-8.69,3.92-9.44,3.08Z"/>
      <path class="cls-11" d="M311.56,166.75c-.61-.85,2.09-3.73,2.66-4.33,5.15-5.42,14.97-12.03,18.7-9.13,2,1.55,2.06,5.69.55,8.35-1.37,2.42-3.84,3.28-4.46,3.48-2.85.94-4.06-.38-7.73-.42-5.61-.05-9.06,2.97-9.72,2.05Z"/>
      <path class="cls-11" d="M309.22,179.35c-.84-.62.83-4.2,1.18-4.94,3.21-6.75,10.5-16.08,14.95-14.47,2.38.86,3.72,4.77,3.11,7.77-.55,2.73-2.64,4.31-3.16,4.69-2.42,1.77-3.98.9-7.48,2-5.35,1.69-7.69,5.63-8.6,4.96Z"/>
      <path class="cls-11" d="M303.69,181.44c.8-.67,3.89,1.79,4.53,2.31,5.81,4.71,13.16,13.99,10.55,17.93-1.4,2.11-5.51,2.49-8.28,1.2-2.52-1.18-3.57-3.58-3.81-4.17-1.16-2.77.06-4.08-.19-7.74-.38-5.59-3.66-8.8-2.79-9.53Z"/>
      <path class="cls-11" d="M293.94,175.79c.8-.67,3.89,1.79,4.53,2.31,5.81,4.71,13.16,13.99,10.55,17.93-1.4,2.11-5.51,2.49-8.28,1.2-2.52-1.18-3.57-3.58-3.81-4.17-1.16-2.77.06-4.08-.19-7.74-.38-5.59-3.66-8.8-2.79-9.53Z"/>
      <path class="cls-11" d="M279.66,176.82c.44-.95,4.28-.04,5.08.16,7.26,1.78,17.87,7.02,17.2,11.7-.36,2.51-3.92,4.61-6.98,4.62-2.78.01-4.75-1.71-5.23-2.14-2.23-2.01-1.68-3.72-3.48-6.92-2.74-4.89-7.07-6.39-6.6-7.42Z"/>
      <path class="cls-11" d="M269.96,177.26c.54-.89,4.26.42,5.03.7,7.03,2.55,17.02,8.9,15.85,13.48-.63,2.45-4.39,4.16-7.43,3.85-2.77-.29-4.54-2.21-4.97-2.69-2-2.23-1.28-3.88-2.71-7.25-2.2-5.16-6.35-7.11-5.76-8.08Z"/>
      <path class="cls-11" d="M257.48,180.16c.23-1.02,4.18-.92,5-.89,7.47.24,18.94,3.19,19.24,7.9.17,2.53-2.88,5.32-5.87,5.96-2.72.59-5-.69-5.56-1.02-2.59-1.5-2.42-3.29-4.83-6.05-3.69-4.22-8.24-4.8-7.99-5.9Z"/>
      <path class="cls-11" d="M252.54,181.37c.58-.86,4.23.65,4.99.97,6.88,2.92,16.51,9.8,15.1,14.31-.76,2.42-4.61,3.92-7.63,3.44-2.75-.44-4.42-2.45-4.82-2.96-1.88-2.34-1.07-3.94-2.32-7.39-1.91-5.27-5.95-7.45-5.32-8.38Z"/>
      <path class="cls-11" d="M241.61,178.64c.58-.86,4.23.65,4.99.97,6.88,2.92,16.51,9.8,15.1,14.31-.76,2.42-4.61,3.92-7.63,3.44-2.75-.44-4.42-2.45-4.82-2.96-1.88-2.34-1.07-3.94-2.32-7.39-1.91-5.27-5.95-7.45-5.32-8.38Z"/>
      <path class="cls-11" d="M228.17,183.58c.16-1.03,4.1-1.22,4.93-1.25,7.47-.3,19.12,1.81,19.77,6.49.35,2.51-2.49,5.51-5.43,6.37-2.67.78-5.04-.33-5.62-.61-2.7-1.31-2.65-3.11-5.25-5.69-3.98-3.95-8.56-4.19-8.39-5.31Z"/>
      <path class="cls-11" d="M218.97,186.69c.27-1.01,4.21-.77,5.03-.72,7.46.5,18.81,3.85,18.96,8.57.08,2.53-3.07,5.21-6.08,5.75-2.74.49-4.98-.87-5.52-1.21-2.54-1.59-2.3-3.37-4.61-6.22-3.54-4.35-8.07-5.08-7.77-6.18Z"/>
      <path class="cls-11" d="M207.78,192.93c-.06-1.04,3.76-2.04,4.56-2.24,7.25-1.83,19.08-2.17,20.68,2.27.86,2.38-1.3,5.91-4,7.35-2.45,1.32-5,.72-5.63.56-2.91-.73-3.23-2.49-6.31-4.48-4.71-3.04-9.24-2.33-9.31-3.46Z"/>
      <path class="cls-11" d="M199.68,198.53c.41-.96,4.28-.15,5.08.02,7.31,1.58,18.05,6.55,17.51,11.24-.29,2.51-3.79,4.71-6.85,4.81-2.78.09-4.8-1.58-5.29-2-2.28-1.95-1.78-3.67-3.66-6.82-2.87-4.82-7.24-6.2-6.79-7.24Z"/>
      <path class="cls-11" d="M188.43,197.89c.41-.96,4.28-.15,5.08.02,7.31,1.58,18.05,6.55,17.51,11.24-.29,2.51-3.79,4.71-6.85,4.81-2.78.09-4.8-1.58-5.29-2-2.28-1.95-1.78-3.67-3.66-6.82-2.87-4.82-7.24-6.2-6.79-7.24Z"/>
      <path class="cls-11" d="M176.15,205.25c-.04-1.04,3.8-1.96,4.61-2.15,7.28-1.69,19.12-1.8,20.63,2.68.81,2.4-1.42,5.88-4.14,7.27-2.48,1.27-5.01.62-5.64.45-2.89-.79-3.18-2.56-6.22-4.61-4.65-3.13-9.2-2.51-9.24-3.65Z"/>
      <path class="cls-11" d="M167.69,210.03c.08-1.04,3.99-1.55,4.81-1.65,7.42-.9,19.2.26,20.22,4.88.55,2.47-2.04,5.7-4.9,6.79-2.6.99-5.05.08-5.65-.16-2.79-1.09-2.89-2.88-5.69-5.25-4.29-3.61-8.87-3.48-8.79-4.61Z"/>
      <path class="cls-11" d="M157.86,218.25c-.25-1.01,3.32-2.71,4.06-3.05,6.78-3.16,18.34-5.7,20.74-1.63,1.29,2.18-.17,6.05-2.55,7.97-2.17,1.75-4.78,1.64-5.42,1.6-2.99-.17-3.64-1.85-7.04-3.22-5.2-2.11-9.52-.56-9.79-1.66Z"/>
      <path class="cls-11" d="M150.32,218.41c.52-.9,4.26.37,5.04.64,7.06,2.46,17.13,8.68,16.02,13.27-.59,2.46-4.34,4.22-7.38,3.94-2.77-.25-4.57-2.15-5.01-2.63-2.03-2.21-1.33-3.86-2.81-7.22-2.26-5.13-6.44-7.03-5.87-8.01Z"/>
      <path class="cls-11" d="M139.23,216.42c.52-.9,4.26.37,5.04.64,7.06,2.46,17.13,8.68,16.02,13.27-.59,2.46-4.34,4.22-7.38,3.94-2.77-.25-4.57-2.15-5.01-2.63-2.03-2.21-1.33-3.86-2.81-7.22-2.26-5.13-6.44-7.03-5.87-8.01Z"/>
      <path class="cls-11" d="M126.15,222.24c.09-1.04,4.01-1.49,4.83-1.58,7.43-.8,19.2.53,20.16,5.16.51,2.48-2.12,5.67-4.99,6.72-2.61.96-5.05,0-5.65-.24-2.78-1.13-2.85-2.92-5.62-5.33-4.24-3.67-8.82-3.61-8.73-4.74Z"/>
      <path class="cls-11" d="M117.18,225.96c.2-1.02,4.15-1.05,4.97-1.05,7.48,0,19.03,2.58,19.49,7.29.25,2.52-2.71,5.41-5.68,6.15-2.7.67-5.02-.54-5.59-.84-2.64-1.42-2.52-3.21-5.02-5.9-3.82-4.11-8.39-4.53-8.17-5.64Z"/>
      <path class="cls-11" d="M106.43,232.93c-.13-1.04,3.62-2.29,4.4-2.54,7.11-2.31,18.89-3.44,20.79.89,1.01,2.32-.9,5.98-3.5,7.6-2.36,1.48-4.94,1.05-5.58.93-2.95-.53-3.39-2.27-6.6-4.05-4.9-2.72-9.38-1.71-9.52-2.83Z"/>
      <path class="cls-11" d="M102.85,234.41c.58-.8,4.23.65,4.99.96,6.88,2.8,16.49,9.34,15.07,13.54-.76,2.25-4.61,3.62-7.63,3.14-2.75-.44-4.41-2.34-4.81-2.81-1.87-2.21-1.06-3.69-2.31-6.93-1.91-4.95-5.94-7.02-5.31-7.89Z"/>
      <path class="cls-11" d="M91.92,231.74c.58-.8,4.23.65,4.99.96,6.88,2.8,16.49,9.34,15.07,13.54-.76,2.25-4.61,3.62-7.63,3.14-2.75-.44-4.41-2.34-4.81-2.81-1.87-2.21-1.06-3.69-2.31-6.93-1.91-4.95-5.94-7.02-5.31-7.89Z"/>
      <path class="cls-11" d="M78.48,236.21c.16-.96,4.1-1.1,4.93-1.12,7.47-.2,19.11,1.89,19.75,6.28.34,2.35-2.5,5.13-5.43,5.9-2.67.7-5.04-.36-5.62-.63-2.69-1.26-2.64-2.93-5.24-5.37-3.98-3.73-8.56-4.01-8.38-5.05Z"/>
      <path class="cls-11" d="M62.3,230.58c.45-.87,4.26.18,5.05.41,7.19,2.04,17.65,7.5,16.9,11.86-.4,2.33-3.99,4.12-7.03,3.98-2.77-.13-4.7-1.85-5.17-2.28-2.18-2-1.61-3.57-3.33-6.67-2.63-4.73-6.92-6.36-6.42-7.3Z"/>
      <path class="cls-11" d="M51.83,226.59c.67-.71,3.93,1.48,4.61,1.94,6.14,4.18,14.35,12.7,12.38,16.71-1.05,2.15-4.92,2.8-7.73,1.73-2.56-.97-3.86-3.24-4.18-3.8-1.46-2.61-.47-3.97-1.19-7.51-1.09-5.41-4.64-8.31-3.9-9.07Z"/>
      <path class="cls-11" d="M49.59,285.18c-.39.98,2.72,3.47,3.37,3.99,5.92,4.67,16.45,9.73,19.35,6.09,1.55-1.95.77-6.21-1.18-8.68-1.78-2.25-4.26-2.69-4.88-2.79-2.86-.46-3.73,1.11-7.15,1.79-5.24,1.04-9.08-1.46-9.51-.39Z"/>
      <path class="cls-11" d="M41.73,276.76c-.39.98,2.72,3.47,3.37,3.99,5.92,4.67,16.45,9.73,19.35,6.09,1.55-1.95.77-6.21-1.18-8.68-1.78-2.25-4.26-2.69-4.88-2.79-2.86-.46-3.73,1.11-7.15,1.79-5.24,1.04-9.08-1.46-9.51-.39Z"/>
      <path class="cls-11" d="M38.74,262.05c-.75.68,1.14,4.34,1.54,5.1,3.63,6.89,11.36,16.28,15.47,14.41,2.2-1,3.15-5.14,2.32-8.24-.76-2.82-2.88-4.37-3.41-4.74-2.45-1.74-3.87-.75-7.31-1.75-5.24-1.52-7.81-5.52-8.62-4.78Z"/>
      <path class="cls-11" d="M36.48,252.12c-.67.77,1.56,4.2,2.03,4.91,4.27,6.46,12.85,14.94,16.73,12.59,2.08-1.26,2.61-5.5,1.49-8.5-1.02-2.73-3.28-4.03-3.84-4.34-2.6-1.45-3.91-.3-7.4-.89-5.34-.9-8.27-4.6-9-3.76Z"/>
      <path class="cls-11" d="M35.71,238.75c-.87.5.31,4.46.56,5.29,2.28,7.5,8.13,18.34,12.55,17.45,2.36-.48,4.09-4.28,3.85-7.46-.21-2.9-2.01-4.89-2.46-5.37-2.09-2.24-3.68-1.6-6.88-3.34-4.89-2.65-6.67-7.11-7.61-6.57Z"/>
      <path class="cls-11" d="M88.96,327.34c.11,1.05,4.03,1.78,4.85,1.93,7.42,1.33,19.1.84,19.94-3.74.45-2.45-2.24-5.84-5.13-7.11-2.63-1.15-5.03-.37-5.62-.17-2.74.94-2.77,2.73-5.47,4.95-4.13,3.39-8.7,2.99-8.58,4.13Z"/>
      <path class="cls-11" d="M78.05,323.61c.11,1.05,4.03,1.78,4.85,1.93,7.42,1.33,19.1.84,19.94-3.74.45-2.45-2.24-5.84-5.13-7.11-2.63-1.15-5.03-.37-5.62-.17-2.74.94-2.77,2.73-5.47,4.95-4.13,3.39-8.7,2.99-8.58,4.13Z"/>
      <path class="cls-11" d="M68.49,312.04c-.34.96,3.05,3.29,3.76,3.77,6.45,4.37,17.69,9.02,20.43,5.43,1.47-1.92.36-6.02-1.83-8.36-1.99-2.13-4.6-2.5-5.24-2.58-2.98-.38-3.77,1.16-7.27,1.9-5.34,1.13-9.49-1.19-9.86-.15Z"/>
      <path class="cls-11" d="M61.83,304.35c-.23,1,3.35,2.97,4.1,3.38,6.81,3.69,18.37,7.13,20.68,3.23,1.24-2.09-.29-6.09-2.69-8.2-2.19-1.92-4.79-2.01-5.43-2.02-2.98-.06-3.59,1.57-6.95,2.7-5.13,1.72-9.47-.17-9.72.92Z"/>
      <path class="cls-11" d="M54.85,292.92c-.53.85,2.37,3.79,2.98,4.4,5.54,5.54,15.81,12.35,19.28,9.49,1.86-1.53,1.59-5.7-.11-8.4-1.55-2.46-4.08-3.36-4.7-3.57-2.9-.99-4,.32-7.64.3-5.56-.04-9.23-3.13-9.81-2.21Z"/>
      <path class="cls-11" d="M138.52,356.74c.38.99,4.35.7,5.18.64,7.52-.59,18.69-4.03,18.34-8.68-.18-2.49-3.65-5.08-6.76-5.57-2.83-.45-4.96.92-5.48,1.26-2.41,1.6-1.98,3.34-4.03,6.17-3.14,4.32-7.66,5.1-7.25,6.17Z"/>
      <path class="cls-11" d="M127.02,355.9c.38.99,4.35.7,5.18.64,7.52-.59,18.69-4.03,18.34-8.68-.18-2.49-3.65-5.08-6.76-5.57-2.83-.45-4.96.92-5.48,1.26-2.41,1.6-1.98,3.34-4.03,6.17-3.14,4.32-7.66,5.1-7.25,6.17Z"/>
      <path class="cls-11" d="M114.84,347.13c-.08,1.01,3.79,2.41,4.6,2.69,7.34,2.59,19.4,4.23,21.14.07.93-2.23-1.18-5.91-3.89-7.62-2.47-1.56-5.08-1.25-5.72-1.17-2.98.39-3.36,2.08-6.55,3.68-4.88,2.45-9.48,1.25-9.57,2.35Z"/>
      <path class="cls-11" d="M106.44,341.38c.03,1.02,4,2.03,4.83,2.23,7.52,1.84,19.57,2.24,20.83-2.12.67-2.34-1.82-5.81-4.68-7.25-2.61-1.31-5.14-.73-5.77-.58-2.89.7-3.07,2.43-6.04,4.37-4.53,2.96-9.2,2.24-9.17,3.35Z"/>
      <path class="cls-11" d="M96.8,332.09c-.3.95,3.26,3.07,4,3.5,6.76,3.96,18.43,7.94,21.06,4.28,1.41-1.96.09-5.91-2.24-8.1-2.13-1.99-4.8-2.22-5.45-2.26-3.06-.22-3.79,1.33-7.32,2.23-5.39,1.38-9.72-.69-10.05.35Z"/>
      <path class="cls-11" d="M190.12,368.25c.69.8,4.33-.81,5.09-1.15,6.87-3.1,16.22-10.12,14.32-14.37-1.02-2.28-5.16-3.55-8.25-2.96-2.82.54-4.36,2.54-4.73,3.04-1.73,2.32-.73,3.82-1.71,7.17-1.49,5.13-5.48,7.39-4.73,8.26Z"/>
      <path class="cls-11" d="M179.02,371.35c.69.8,4.33-.81,5.09-1.15,6.87-3.1,16.22-10.12,14.32-14.37-1.02-2.28-5.16-3.55-8.25-2.96-2.82.54-4.36,2.54-4.73,3.04-1.73,2.32-.73,3.82-1.71,7.17-1.49,5.13-5.48,7.39-4.73,8.26Z"/>
      <path class="cls-11" d="M164.59,367.22c.26.98,4.38.99,5.24.98,7.79-.05,19.69-2.58,19.92-7.09.12-2.42-3.11-5.17-6.24-5.86-2.85-.63-5.21.54-5.78.84-2.67,1.38-2.45,3.09-4.92,5.68-3.76,3.95-8.5,4.39-8.21,5.45Z"/>
      <path class="cls-11" d="M154.74,364.65c.37.95,4.45.55,5.29.46,7.7-.81,19.18-4.52,18.88-9.05-.16-2.43-3.68-4.85-6.86-5.24-2.89-.35-5.09,1.05-5.62,1.4-2.49,1.64-2.07,3.33-4.2,6.16-3.26,4.32-7.9,5.22-7.49,6.26Z"/>
      <path class="cls-11" d="M142.52,359.18c.04,1,4.1,1.79,4.95,1.94,7.7,1.43,20.03,1.23,21.27-3.1.66-2.32-1.91-5.6-4.85-6.86-2.67-1.15-5.26-.46-5.9-.29-2.95.83-3.12,2.53-6.13,4.57-4.61,3.12-9.38,2.64-9.34,3.73Z"/>
      <path class="cls-11" d="M404.65,265.65c.68-.81-1.49-4.15-1.95-4.84-4.16-6.29-12.57-14.41-16.46-11.86-2.09,1.36-2.68,5.66-1.61,8.62.98,2.69,3.2,3.9,3.76,4.18,2.57,1.34,3.89.12,7.35.55,5.3.65,8.17,4.23,8.91,3.36Z"/>
      <path class="cls-11" d="M409.48,276.12c.68-.81-1.49-4.15-1.95-4.84-4.16-6.29-12.57-14.41-16.46-11.86-2.09,1.36-2.68,5.66-1.61,8.62.98,2.69,3.2,3.9,3.76,4.18,2.57,1.34,3.89.12,7.35.55,5.3.65,8.17,4.23,8.91,3.36Z"/>
      <path class="cls-11" d="M407.69,291.02c.93-.41.28-4.48.14-5.32-1.28-7.68-5.68-19.03-10.17-18.54-2.4.26-4.61,3.89-4.79,7.09-.17,2.91,1.36,5.05,1.74,5.57,1.78,2.42,3.44,1.93,6.39,3.95,4.5,3.09,5.68,7.69,6.69,7.24Z"/>
      <path class="cls-11" d="M406.73,301.15c.88-.52-.16-4.48-.38-5.3-2.03-7.47-7.51-18.22-11.93-17.2-2.37.54-4.21,4.41-4.08,7.6.12,2.91,1.85,4.86,2.28,5.33,2.01,2.19,3.62,1.51,6.75,3.17,4.78,2.53,6.41,6.97,7.37,6.4Z"/>
      <path class="cls-11" d="M403.26,314.09c.98-.2,1.11-4.33,1.13-5.2.19-7.83-1.96-19.97-6.44-20.5-2.39-.29-5.22,2.78-6,5.88-.71,2.82.38,5.27.65,5.87,1.29,2.78,2.99,2.68,5.49,5.33,3.81,4.05,4.1,8.84,5.16,8.63Z"/>
      <path class="cls-11" d="M241.51,370.94c.83.65,4.09-1.63,4.77-2.11,6.14-4.37,13.96-13.06,11.28-16.87-1.44-2.04-5.75-2.48-8.67-1.3-2.66,1.07-3.78,3.34-4.05,3.9-1.24,2.61.02,3.89-.29,7.37-.47,5.32-3.95,8.31-3.04,9.02Z"/>
      <path class="cls-11" d="M231.22,371.03c.83.65,4.09-1.63,4.77-2.11,6.14-4.37,13.96-13.06,11.28-16.87-1.44-2.04-5.75-2.48-8.67-1.3-2.66,1.07-3.78,3.34-4.05,3.9-1.24,2.61.02,3.89-.29,7.37-.47,5.32-3.95,8.31-3.04,9.02Z"/>
      <path class="cls-11" d="M216.26,369.77c.45.91,4.48.12,5.33-.05,7.63-1.55,18.82-6.34,18.17-10.81-.35-2.39-4.05-4.47-7.26-4.54-2.92-.07-5,1.54-5.51,1.94-2.36,1.87-1.81,3.51-3.73,6.52-2.93,4.61-7.49,5.95-7,6.94Z"/>
      <path class="cls-11" d="M206.1,369.15c.55.86,4.47-.32,5.28-.57,7.4-2.29,17.94-8.14,16.77-12.52-.63-2.35-4.55-4.05-7.74-3.81-2.91.22-4.79,2.02-5.24,2.46-2.12,2.09-1.39,3.67-2.93,6.85-2.36,4.87-6.74,6.65-6.14,7.59Z"/>
      <path class="cls-11" d="M193.05,366.14c.23.97,4.37.96,5.23.95,7.84-.08,19.89-2.66,20.27-7.15.2-2.4-2.96-5.12-6.08-5.79-2.85-.61-5.25.56-5.84.86-2.74,1.38-2.57,3.09-5.13,5.67-3.92,3.95-8.69,4.4-8.44,5.46Z"/>
      <path class="cls-11" d="M297.1,364.4c.79.7,4.19-1.37,4.9-1.81,6.41-3.97,14.76-12.15,12.32-16.12-1.3-2.13-5.58-2.84-8.57-1.85-2.72.9-3.99,3.09-4.29,3.63-1.41,2.53-.23,3.88-.76,7.34-.81,5.28-4.47,8.04-3.61,8.81Z"/>
      <path class="cls-11" d="M286.5,368.92c.79.7,4.19-1.37,4.9-1.81,6.41-3.97,14.76-12.15,12.32-16.12-1.3-2.13-5.58-2.84-8.57-1.85-2.72.9-3.99,3.09-4.29,3.63-1.41,2.53-.23,3.88-.76,7.34-.81,5.28-4.47,8.04-3.61,8.81Z"/>
      <path class="cls-11" d="M271.65,366.71c.39.94,4.47.41,5.32.29,7.72-1.06,19.18-5.13,18.82-9.63-.19-2.41-3.76-4.72-6.95-4.99-2.91-.25-5.09,1.22-5.62,1.58-2.47,1.71-2.03,3.38-4.13,6.27-3.21,4.41-7.85,5.46-7.43,6.48Z"/>
      <path class="cls-11" d="M261.55,365.45c.5.9,4.48-.03,5.31-.23,7.53-1.81,18.42-6.98,17.54-11.43-.48-2.38-4.28-4.33-7.48-4.3-2.91.03-4.91,1.71-5.39,2.13-2.25,1.95-1.62,3.57-3.36,6.65-2.67,4.71-7.15,6.21-6.61,7.18Z"/>
      <path class="cls-11" d="M248.72,361.62c.17.99,4.3,1.23,5.16,1.28,7.82.41,20.01-1.39,20.68-5.85.36-2.38-2.63-5.3-5.7-6.17-2.8-.79-5.28.23-5.88.49-2.82,1.21-2.76,2.92-5.48,5.33-4.16,3.69-8.96,3.84-8.77,4.91Z"/>
      <path class="cls-11" d="M346.63,352.82c1.02.28,3.15-3.08,3.6-3.78,3.99-6.39,7.88-17.42,3.94-19.9-2.11-1.33-6.26-.09-8.5,2.12-2.04,2.01-2.21,4.53-2.24,5.15-.15,2.89,1.51,3.58,2.56,6.92,1.61,5.09-.46,9.19.65,9.5Z"/>
      <path class="cls-11" d="M339.12,361.56c1.02.28,3.15-3.08,3.6-3.78,3.99-6.39,7.88-17.42,3.94-19.9-2.11-1.33-6.26-.09-8.5,2.12-2.04,2.01-2.21,4.53-2.24,5.15-.15,2.89,1.51,3.58,2.56,6.92,1.61,5.09-.46,9.19.65,9.5Z"/>
      <path class="cls-11" d="M324.82,366.13c.76.67,4.19-1.61,4.9-2.09,6.45-4.36,14.95-13.07,12.63-16.95-1.24-2.08-5.46-2.57-8.44-1.41-2.72,1.06-4.03,3.34-4.34,3.9-1.46,2.63-.33,3.93-.94,7.45-.94,5.38-4.63,8.37-3.81,9.09Z"/>
      <path class="cls-11" d="M315.2,369.46c.84.59,4.01-2.01,4.66-2.55,5.96-4.95,13.45-14.4,10.68-18-1.48-1.93-5.76-2-8.61-.55-2.6,1.32-3.65,3.7-3.9,4.29-1.16,2.74.13,3.92-.08,7.45-.31,5.4-3.67,8.73-2.76,9.36Z"/>
      <path class="cls-11" d="M302,371.69c.59.81,4.4-.79,5.2-1.13,7.2-3.08,17.34-10.09,15.97-14.38-.73-2.3-4.7-3.6-7.84-3.02-2.86.53-4.64,2.54-5.06,3.03-2,2.33-1.19,3.84-2.57,7.21-2.1,5.15-6.34,7.4-5.7,8.28Z"/>
      <path class="cls-11" d="M387.62,339.76c1.05.15,2.74-3.45,3.09-4.2,3.16-6.84,5.63-18.27,1.42-20.24-2.26-1.06-6.22.7-8.17,3.17-1.77,2.25-1.63,4.77-1.58,5.39.22,2.89,1.95,3.37,3.41,6.54,2.23,4.85.7,9.17,1.83,9.34Z"/>
      <path class="cls-11" d="M381.26,349.37c1.05.15,2.74-3.45,3.09-4.2,3.16-6.84,5.63-18.27,1.42-20.24-2.26-1.06-6.22.7-8.17,3.17-1.77,2.25-1.63,4.77-1.58,5.39.22,2.89,1.95,3.37,3.41,6.54,2.23,4.85.7,9.17,1.83,9.34Z"/>
      <path class="cls-11" d="M367.65,355.7c.84.57,3.95-2.12,4.6-2.69,5.86-5.14,13.19-14.84,10.41-18.4-1.49-1.91-5.73-1.87-8.55-.34-2.57,1.39-3.58,3.82-3.82,4.42-1.12,2.79.17,3.94,0,7.51-.25,5.45-3.55,8.88-2.64,9.5Z"/>
      <path class="cls-11" d="M358.52,360.21c.91.48,3.72-2.49,4.31-3.12,5.29-5.66,11.54-15.97,8.34-19.2-1.71-1.73-5.96-1.26-8.61.53-2.41,1.63-3.16,4.13-3.33,4.74-.81,2.87.62,3.87.86,7.41.37,5.4-2.55,9.12-1.56,9.63Z"/>
      <path class="cls-11" d="M345.7,364.07c.68.73,4.27-1.34,5.01-1.77,6.76-3.96,15.94-12.18,14.05-16.26-1.02-2.19-5.11-2.98-8.16-2.01-2.77.88-4.28,3.1-4.64,3.65-1.69,2.56-.7,3.95-1.64,7.47-1.44,5.37-5.36,8.14-4.62,8.93Z"/>
      <path class="cls-11" d="M410.99,310.65c.97-.41.54-4.37.44-5.2-.88-7.49-4.75-18.52-9.38-17.99-2.48.28-4.94,3.85-5.31,6.97-.34,2.85,1.11,4.92,1.47,5.42,1.69,2.35,3.42,1.85,6.32,3.79,4.44,2.97,5.39,7.45,6.45,7Z"/>
      <path class="cls-11" d="M410.59,322.16c.97-.41.54-4.37.44-5.2-.88-7.49-4.75-18.52-9.38-17.99-2.48.28-4.94,3.85-5.31,6.97-.34,2.85,1.11,4.92,1.47,5.42,1.69,2.35,3.42,1.85,6.32,3.79,4.44,2.97,5.39,7.45,6.45,7Z"/>
      <path class="cls-11" d="M402.3,334.67c1.01.05,2.26-3.88,2.51-4.7,2.31-7.44,3.48-19.55-.75-21.13-2.27-.85-5.86,1.41-7.47,4.18-1.46,2.53-1.06,5.13-.95,5.76.51,2.97,2.21,3.27,3.93,6.4,2.63,4.78,1.62,9.43,2.72,9.48Z"/>
      <path class="cls-11" d="M396.88,343.29c1.02-.07,1.87-4.07,2.04-4.91,1.55-7.59,1.48-19.65-2.93-20.73-2.36-.58-5.74,2.05-7.06,4.96-1.2,2.65-.53,5.17-.36,5.78.81,2.86,2.55,2.98,4.6,5.86,3.14,4.41,2.6,9.1,3.7,9.03Z"/>
      <path class="cls-11" d="M387.97,353.29c.96.26,2.94-3.37,3.35-4.13,3.69-6.91,7.22-18.72,3.47-21.21-2.01-1.33-5.91.13-8,2.55-1.9,2.2-2.03,4.88-2.05,5.54-.1,3.06,1.47,3.74,2.51,7.23,1.58,5.33-.31,9.74.74,10.03Z"/>
    </g>
    <path class="cls-1" d="M272.46,370.13c-.18,1.41-3.6,1.71-3.59,2.35.01.67,3.77.64,3.9,1.33.22,1.22-10.62,6.4-23.33,5.88-5.45-.22-18.35-.7-23.02-9.56-2.32-4.41-2.95-11.31.35-14.17,2.71-2.34,6.73-.81,45.6,13.62.3.11.09.54.09.54Z"/>
  </g>
</svg>