<?xml version="1.0" encoding="UTF-8"?>
<svg id="Layer_1" xmlns="http://www.w3.org/2000/svg" width="500" height="500" version="1.1" xmlns:xlink="http://www.w3.org/1999/xlink" viewBox="0 0 500 500">
  <!-- Generator: Adobe Illustrator 29.6.1, SVG Export Plug-In . SVG Version: 2.1.1 Build 9)  -->
  <defs>
    <linearGradient id="linear-gradient" x1="250" y1="370.352" x2="250" y2="90.296" gradientUnits="userSpaceOnUse">
      <stop offset="0" stop-color="#2484c6"/>
      <stop offset="1" stop-color="#2484c6" stop-opacity="0"/>
    </linearGradient>
  </defs>
  <g>
    <rect y="230.324" width="500" height="269.676" fill="#005d89"/>
    <rect width="500" height="233.872" fill="#9afff0"/>
    <path d="M500,333.481c-48.445-30.236-88.925-37.674-116.428-39.064-115.152-5.819-173.333,85.767-284.936,75.064C55.067,365.303,21.07,347.234,0,333.481V114.928c69.407,42.725,123.634,47.873,160.678,44.426,80.956-7.534,114.708-59.364,202.979-67.915,56.52-5.475,104.598,9.777,136.343,23.489v218.553Z" fill="url(#linear-gradient)"/>
  </g>
  <g>
    <path d="M364.274,320.407c2.602-.428,3.368.825,17.954,9.884,11.412,7.088,13.397,7.792,17.924,11.681,5.371,4.614,13.302,11.426,11.735,15.275-1.754,4.307-12.183,2.1-32.326,1.797-19.069-.287-22.077,1.105-25.347-1.797-9.511-8.441-.779-35.059,10.06-36.84Z" fill="#00497b"/>
    <path d="M141.297,324.13c-2.602-.428-3.368.825-17.954,9.884-11.412,7.088-13.397,7.792-17.924,11.681-5.371,4.614-13.302,11.426-11.735,15.275,1.754,4.307,12.183,2.1,32.326,1.797,19.069-.287,22.077,1.105,25.347-1.797,9.511-8.441.779-35.059-10.06-36.84Z" fill="#00497b"/>
    <path d="M425.536,264.073c7.535,27.854-24.044,65.246-49.84,84.335-37.48,27.736-77.825,27.993-126.862,28.304-52.811.335-92.555.588-127.873-27.293-28.643-22.611-54.768-64.035-45.854-91.219,1.061-3.236,2.265-5.192,5.42-13.91,9.058-25.033,11.88-44.136,12.551-47.64,5.524-28.846,73.177-86.006,155.756-84.782,86.579,1.283,145.867,66.095,154.239,90.622.552,1.619,3.838,11.718,9.016,26.058,9.068,25.113,11.989,30.131,13.448,35.525Z" fill="#008589"/>
    <path d="M176.656,160.339c-8.353,24.633-40.093,31.588-51.652,34.121-13.506,2.96-22.265,4.879-27.387,0-11.8-11.241-1.72-56.116,27.387-68.233,17.657-7.35,43.832-3.276,51.554,11.923,4.571,8.998,1.189,18.972.098,22.188Z" fill="#009389"/>
    <path d="M313.647,160.339c8.353,24.633,40.093,31.588,51.652,34.121,13.506,2.96,22.265,4.879,27.387,0,11.8-11.241,1.72-56.116-27.387-68.233-17.657-7.35-43.832-3.276-51.554,11.923-4.571,8.998-1.189,18.972-.098,22.188Z" fill="#009389"/>
    <path d="M273.928,169.902c-2.199-4.123-10.893-4.233-28.191-4.283-18.214-.053-27.766.011-30.205,4.521-1.708,3.159.402,7.889,4.027,10.232,5.681,3.672,11.466-.85,26.178-.491,12.797.313,17.177,3.949,22.726.967,4.357-2.342,7.254-7.593,5.466-10.946Z" fill="#00193d"/>
    <path d="M288.256,109.117" fill="#00193d"/>
    <path d="M330.771,322.355c3.437,9.085,8.31,21.962,2.704,33.448-9.689,19.851-43.186,20.195-89.182,20.666-43.832.449-67.687.605-77.499-15.724-8.786-14.622-2.59-32.825,0-40.434,10.083-29.623,41.39-54.57,77.499-56.159,41.983-1.847,75.286,28.623,86.478,58.203Z" fill="#9affcd"/>
    <path d="M196.97,364.245c-1.354,9.046-6.966,18.76-15.837,23.587-5.773,3.141-12.272,3.105-25.271,3.033-10.565-.059-15.847-.088-18.532-2.696-5.553-5.393.079-13.662-.674-31.673-.814-19.477-8.024-24.71-3.769-31.184,5.722-8.707,24.622-8.153,37.465-2.511,14.716,6.466,29.368,23.08,26.619,41.445Z" fill="#007789"/>
    <path d="M302.159,364.245c1.354,9.046,6.966,18.76,15.837,23.587,5.773,3.141,12.272,3.105,25.271,3.033,10.565-.059,15.847-.088,18.532-2.696,5.553-5.393-.079-13.662.674-31.673.814-19.477,8.024-24.71,3.769-31.184-5.722-8.707-24.622-8.153-37.465-2.511-14.716,6.466-29.368,23.08-26.619,41.445Z" fill="#007789"/>
    <g>
      <circle cx="132.697" cy="149.101" r="19.206" fill="#00193d"/>
      <circle cx="358.904" cy="149.101" r="19.206" fill="#00193d"/>
      <path d="M138.65,134.431c0,2.867-4.667,4.197-6.928,4.535-.831.124-4.17.624-6.087-.705-1.795-1.243-1.071-3.205-.84-3.831.1-.272,1.774-4.535,6.928-4.535,3.826,0,6.928,2.031,6.928,4.535Z" fill="#e3ffff"/>
      <path d="M361.565,134.431c0,2.867-4.667,4.197-6.928,4.535-.831.124-4.17.624-6.087-.705-1.795-1.243-1.071-3.205-.84-3.831.1-.272,1.774-4.535,6.928-4.535,3.826,0,6.928,2.031,6.928,4.535Z" fill="#e3ffff"/>
    </g>
    <g display="none">
      <circle cx="239.739" cy="168.308" r="4.457" fill="#007789"/>
      <circle cx="253.232" cy="168.308" r="4.457" fill="#007789"/>
    </g>
    <path d="M121.613,200.157c-10.728,7.25-17.808,22.521-13.094,29.76,6.768,10.392,40.219,7.876,46.425-8.333,3.047-7.958-.137-20.098-8.874-24.998-10.478-5.876-22.521,2.263-24.457,3.571Z" fill="#c78589"/>
    <path d="M377.515,200.157c10.728,7.25,17.808,22.521,13.094,29.76-6.768,10.392-40.219,7.876-46.425-8.333-3.047-7.958.137-20.098,8.874-24.998,10.478-5.876,22.521,2.263,24.457,3.571Z" fill="#c78589"/>
  </g>
</svg>