<?xml version="1.0" encoding="UTF-8"?>
<svg id="Layer_1" xmlns="http://www.w3.org/2000/svg" width="500" height="500" version="1.1" xmlns:xlink="http://www.w3.org/1999/xlink" viewBox="0 0 500 500">
  <!-- Generator: Adobe Illustrator 29.6.1, SVG Export Plug-In . SVG Version: 2.1.1 Build 9)  -->
  <defs>
    <linearGradient id="linear-gradient" x1="250" y1="370.218" x2="250" y2="90.162" gradientUnits="userSpaceOnUse">
      <stop offset="0" stop-color="#2484c6"/>
      <stop offset="1" stop-color="#2484c6" stop-opacity="0"/>
    </linearGradient>
    <linearGradient id="linear-gradient1" x1="273.203" y1="230.461" x2="342.548" y2="230.461" gradientTransform="translate(546.252 512.006) rotate(-172.149)" gradientUnits="userSpaceOnUse">
      <stop offset="0" stop-color="#fff"/>
      <stop offset=".182" stop-color="#799aff"/>
      <stop offset=".338" stop-color="#90e5ff"/>
      <stop offset=".495" stop-color="#bbf0ff"/>
      <stop offset=".66" stop-color="#e2faff"/>
      <stop offset=".746" stop-color="#f2ffff"/>
    </linearGradient>
    <linearGradient id="linear-gradient2" x1="313.261" y1="247.233" x2="235.947" y2="236.572" gradientUnits="userSpaceOnUse">
      <stop offset="0" stop-color="#fff"/>
      <stop offset=".086" stop-color="#ddeaf4"/>
      <stop offset=".276" stop-color="#87b4d8"/>
      <stop offset=".556" stop-color="#0060ac"/>
      <stop offset="1" stop-color="#3d6eff"/>
    </linearGradient>
    <linearGradient id="linear-gradient3" x1="247.732" y1="227.816" x2="322.89" y2="227.816" gradientTransform="translate(272.219 606.831) rotate(-51.221) scale(1 -1)" xlink:href="#linear-gradient1"/>
    <linearGradient id="linear-gradient4" x1="316.176" y1="247.628" x2="226.969" y2="235.327" gradientUnits="userSpaceOnUse">
      <stop offset="0" stop-color="#fff"/>
      <stop offset=".147" stop-color="#f2ddee"/>
      <stop offset=".468" stop-color="#d489c6"/>
      <stop offset=".556" stop-color="#cc71bb"/>
      <stop offset="1" stop-color="#3d6eff"/>
    </linearGradient>
    <linearGradient id="linear-gradient5" x1="297.568" y1="232.612" x2="368.139" y2="232.612" gradientTransform="translate(494.361 578.453) rotate(-161.011)" xlink:href="#linear-gradient1"/>
    <linearGradient id="linear-gradient6" x1="292.779" y1="263.081" x2="218.005" y2="237.351" xlink:href="#linear-gradient2"/>
    <linearGradient id="linear-gradient7" x1="226.808" y1="250.42" x2="321.56" y2="250.42" gradientTransform="translate(207.172 618.559) rotate(-40.083) scale(1 -1)" xlink:href="#linear-gradient1"/>
    <linearGradient id="linear-gradient8" x1="295.752" y1="264.186" x2="215.354" y2="236.52" xlink:href="#linear-gradient4"/>
    <linearGradient id="linear-gradient9" x1="260.011" y1="245.953" x2="329.357" y2="245.953" gradientTransform="translate(616.264 421.172) rotate(170.027)" xlink:href="#linear-gradient1"/>
    <linearGradient id="linear-gradient10" x1="323.719" y1="222.884" x2="246.853" y2="236.401" xlink:href="#linear-gradient2"/>
    <linearGradient id="linear-gradient11" x1="267.802" y1="224.462" x2="342.959" y2="224.462" gradientTransform="translate(384.411 595.327) rotate(-69.045) scale(1 -1)" xlink:href="#linear-gradient1"/>
    <linearGradient id="linear-gradient12" x1="326.616" y1="222.368" x2="237.925" y2="237.963" xlink:href="#linear-gradient4"/>
    <linearGradient id="linear-gradient13" x1="419.576" y1="118.444" x2="459.63" y2="118.444" gradientTransform="translate(467.95 642.413) rotate(-151.705)" xlink:href="#linear-gradient1"/>
    <linearGradient id="linear-gradient14" x1="160.828" y1="342.476" x2="117.241" y2="319.011" xlink:href="#linear-gradient2"/>
    <linearGradient id="linear-gradient15" x1="99.687" y1="283.451" x2="143.098" y2="283.451" gradientTransform="translate(178.055 635.549) rotate(-30.777) scale(1 -1)" xlink:href="#linear-gradient1"/>
    <linearGradient id="linear-gradient16" x1="162.293" y1="343.34" x2="110.543" y2="315.482" xlink:href="#linear-gradient4"/>
    <linearGradient id="linear-gradient17" x1="414.293" y1="103.069" x2="455.053" y2="103.069" gradientTransform="translate(396.118 686.551) rotate(-140.567)" xlink:href="#linear-gradient1"/>
    <linearGradient id="linear-gradient18" x1="144.951" y1="346.547" x2="106.899" y2="315.254" xlink:href="#linear-gradient2"/>
    <linearGradient id="linear-gradient19" x1="83.296" y1="271.362" x2="138.024" y2="271.362" gradientTransform="translate(113.009 623.819) rotate(-19.639) scale(1 -1)" xlink:href="#linear-gradient1"/>
    <linearGradient id="linear-gradient20" x1="147.533" y1="348.727" x2="104.382" y2="313.241" xlink:href="#linear-gradient4"/>
    <linearGradient id="linear-gradient21" x1="439.653" y1="175.558" x2="479.707" y2="175.558" gradientTransform="translate(565.279 581.755) rotate(-169.529)" xlink:href="#linear-gradient1"/>
    <linearGradient id="linear-gradient22" x1="171.726" y1="330.412" x2="123.048" y2="321.416" xlink:href="#linear-gradient2"/>
    <linearGradient id="linear-gradient23" x1="138.362" y1="330.027" x2="181.772" y2="330.027" gradientTransform="translate(287.199 663.957) rotate(-48.601) scale(1 -1)" xlink:href="#linear-gradient1"/>
    <linearGradient id="linear-gradient24" x1="173.385" y1="330.787" x2="115.592" y2="320.107" xlink:href="#linear-gradient4"/>
    <linearGradient id="linear-gradient25" x1="211.99" y1="248.676" x2="256.671" y2="248.676" gradientTransform="translate(243.206 638.417) rotate(-22.999) scale(1 -1)" xlink:href="#linear-gradient1"/>
    <linearGradient id="linear-gradient26" x1="334.853" y1="329.318" x2="384.572" y2="308.215" xlink:href="#linear-gradient2"/>
    <linearGradient id="linear-gradient27" x1="314.417" y1="174.266" x2="362.842" y2="174.266" gradientTransform="translate(532.496 658.341) rotate(-143.927)" xlink:href="#linear-gradient1"/>
    <linearGradient id="linear-gradient28" x1="333.122" y1="330.091" x2="391.771" y2="305.197" xlink:href="#linear-gradient4"/>
    <linearGradient id="linear-gradient29" x1="236.602" y1="269.582" x2="282.072" y2="269.582" gradientTransform="translate(310.656 688.996) rotate(-34.137) scale(1 -1)" xlink:href="#linear-gradient1"/>
    <linearGradient id="linear-gradient30" x1="351.618" y1="335.518" x2="396.295" y2="305.228" xlink:href="#linear-gradient2"/>
    <linearGradient id="linear-gradient31" x1="313.098" y1="206.509" x2="374.149" y2="206.509" gradientTransform="translate(598.347 652.664) rotate(-155.065)" xlink:href="#linear-gradient1"/>
    <linearGradient id="linear-gradient32" x1="348.876" y1="337.436" x2="398.931" y2="303.5" xlink:href="#linear-gradient4"/>
    <linearGradient id="linear-gradient33" x1="201.218" y1="237.349" x2="245.899" y2="237.349" gradientTransform="translate(151.89 569.033) rotate(-5.175) scale(1 -1)" xlink:href="#linear-gradient1"/>
    <linearGradient id="linear-gradient34" x1="324.048" y1="315.077" x2="377.839" y2="310.206" xlink:href="#linear-gradient2"/>
    <linearGradient id="linear-gradient35" x1="310.236" y1="159.204" x2="358.662" y2="159.204" gradientTransform="translate(421.196 676.552) rotate(-126.103)" xlink:href="#linear-gradient1"/>
    <linearGradient id="linear-gradient36" x1="322.163" y1="315.283" x2="385.616" y2="309.537" xlink:href="#linear-gradient4"/>
  </defs>
  <g>
    <rect y="230.19" width="500" height="269.676" fill="#313d97"/>
    <rect y="-.134" width="500" height="233.872" fill="#58c7f0"/>
    <path d="M500,333.347c-48.445-30.236-88.925-37.674-116.428-39.064-115.152-5.819-173.333,85.767-284.936,75.064C55.067,365.169,21.07,347.1,0,333.347V114.794c69.407,42.725,123.634,47.873,160.678,44.426,80.956-7.534,114.708-59.364,202.979-67.915,56.52-5.475,104.598,9.777,136.343,23.489v218.553Z" fill="url(#linear-gradient)"/>
  </g>
  <g>
    <g opacity=".83">
      <g>
        <path d="M298.505,308.655c-9.328-4.811-21.652-12.681-21.289-22.037.529-13.63,27.584-20.065,26.56-30.331-1.124-11.266-34.578-12.274-35.406-23.336-.627-8.38,18.241-12.209,19.705-22.859,1.07-7.784-7.185-19.016-41.092-35.451" fill="url(#linear-gradient1)"/>
        <path d="M298.139,309.366c-4.572-.579-8.932-1.922-13.19-3.941-2.116-1.042-4.192-2.291-6.203-3.834-1.982-1.578-3.932-3.495-5.529-6.035-1.623-2.492-2.788-5.836-2.782-9.431.039-3.581,1.332-7.061,2.991-9.597,1.668-2.585,3.582-4.573,5.537-6.196,1.96-1.626,3.961-2.901,5.966-3.991,3.961-2.216,8.041-3.63,11.422-5.435,1.656-.872,3.153-1.894,3.906-2.892.377-.495.579-.962.659-1.513.061-.545-.113-1.14-.465-1.775-.77-1.275-2.335-2.479-4.095-3.357-1.749-.928-3.698-1.641-5.699-2.247-4.016-1.246-8.292-1.882-12.747-2.872-2.239-.502-4.542-1.055-6.978-2.079-.61-.254-1.227-.526-1.866-.875-.624-.302-1.288-.73-1.936-1.16-.318-.196-.66-.51-.985-.769-.33-.282-.653-.526-.984-.895-.328-.344-.652-.698-.968-1.06-.308-.418-.605-.866-.889-1.315-1.118-1.875-1.849-4.307-1.688-6.74.069-1.219.317-2.429.695-3.483.193-.525.403-1.059.638-1.499.232-.465.477-.93.728-1.312,1.011-1.631,2.094-2.818,3.113-3.849,1.022-1.019,1.996-1.859,2.936-2.651l5.087-4.13c1.504-1.233,2.761-2.441,3.602-3.434.833-1.017,1.109-1.736,1.109-1.938.013-.13.016-.198.01-.362.018-.152-.049-.423-.123-.798-.138-.747-.854-1.99-1.63-3.246-.891-1.282-1.945-2.66-3.199-4.029-2.483-2.734-5.409-5.508-8.512-8.217-1.515-1.387-3.142-2.717-4.722-4.11-1.602-1.378-3.248-2.735-4.863-4.162-1.652-1.381-3.298-2.797-4.935-4.264-1.65-1.45-3.307-2.91-4.913-4.509l.698-1.44c2.24.318,4.429.774,6.625,1.242,2.175.514,4.318,1.129,6.467,1.751,2.122.696,4.245,1.403,6.342,2.212,2.079.859,4.184,1.666,6.223,2.699,4.118,1.944,8.155,4.261,12.051,7.288,1.958,1.485,3.872,3.232,5.698,5.278.461.48.895,1.108,1.338,1.664.439.587.876,1.118,1.275,1.819.404.668.805,1.342,1.188,2.024.351.771.688,1.556,1.008,2.345.604,1.659,1.044,3.491,1.172,5.49.104,1.972-.08,4.078-.664,6.01-.275.983-.649,1.885-1.05,2.777-.43.839-.886,1.672-1.385,2.395-.985,1.471-2.092,2.709-3.166,3.738-2.158,2.089-4.319,3.519-6.302,4.791-1.989,1.251-3.868,2.303-5.455,3.29-.786.488-1.515.961-2.092,1.38-.57.412-.99.783-1.191.928-.205.171-.159-.023-.251-.356-.073-.287-.263-.552-.431-.518-.188.012-.036.44.246.902.187.245.34.518.623.795.233.281.535.564.855.849,1.279,1.14,2.93,2.306,4.681,3.393,3.541,2.168,7.464,4.136,11.464,5.994,2.002.95,4.023,1.907,6.058,3.017,2.004,1.151,4.105,2.394,5.943,4.566.874,1.112,1.684,2.5,1.979,4.109.337,1.587.159,3.296-.297,4.778-.971,2.977-2.631,5.061-4.167,7.018-3.184,3.759-6.445,6.876-9.479,9.644-2.991,2.764-5.839,5.223-7.342,7.202-.776.999-1.042,1.688-1.272,2.4-.199.718-.163,1.65.228,2.937.42,1.253,1.166,2.741,2.198,4.22,1.035,1.489,2.257,3.009,3.589,4.532,1.346,1.52,2.786,3.038,4.272,4.598,1.497,1.545,3.029,3.133,4.559,4.822l-.733,1.422Z" fill="url(#linear-gradient2)"/>
      </g>
      <g>
        <path d="M297.538,309.39c3.7-10.353,7.618-25.133,1.357-31.671-9.122-9.524-32.924,5.676-38.76-2.543-6.404-9.02,17.28-34.335,10.791-42.989-4.916-6.556-21.093,4.525-28.985-2.145-5.768-4.875-6.964-19.11,7.16-55.978" fill="url(#linear-gradient3)"/>
        <path d="M296.785,309.121c-.027-2.305.026-4.539.094-6.722.033-2.188.115-4.318.094-6.394-.024-1.034,0-2.056-.072-3.05l-.065-1.477-.134-1.428c-.189-1.861-.529-3.599-.99-4.975-.519-1.361-1.122-2.203-1.663-2.533-.092-.149-.274-.143-.368-.25-.169-.026-.233-.136-.423-.161-.267-.122-.725-.2-1.215-.303-1.079-.166-2.612-.179-4.352-.118-1.749.067-3.706.223-5.776.337-2.071.133-4.262.253-6.561.28-2.298.019-4.699.025-7.278-.246-1.286-.136-2.623-.347-4.05-.746-1.398-.415-2.93-.969-4.308-2.095-1.382-1.098-2.376-2.631-2.847-4.172-.532-1.562-.487-3.027-.398-4.357.281-2.646,1.035-4.881,1.772-7.064.783-2.163,1.618-4.241,2.432-6.311,1.653-4.111,3.12-8.289,4.204-12.36.526-2.026.934-4.043,1.116-5.819.2-1.728-.051-3.426-.407-3.409-.156.026-.14.407.125.794.055.111.165.18.216.274.078.082.161.143.192.197.023.024.061.041.079.056,0,.019.004.035.009.047.034.017-.02.04-.06.054-.182.052-.75.097-1.456.232-.714.131-1.56.322-2.497.567-1.865.476-3.986,1.107-6.363,1.659-2.393.525-5.065,1.066-8.355.97-1.638-.054-3.485-.279-5.407-.898-1.917-.607-3.919-1.633-5.613-3.041-.8-.714-1.603-1.484-2.274-2.291-.603-.811-1.261-1.672-1.727-2.512-.427-.833-.878-1.707-1.212-2.542-.288-.81-.555-1.63-.796-2.454-.341-1.54-.68-3.141-.73-4.537-.044-.712-.123-1.45-.122-2.139l.051-2.02c.105-2.67.482-5.146.977-7.532.995-4.754,2.436-9.185,4.182-13.409.834-2.133,1.838-4.167,2.785-6.224,1.033-2.012,2.073-4.014,3.189-5.971,1.156-1.938,2.304-3.871,3.56-5.748,1.291-1.863,2.585-3.714,4.011-5.501l1.494.572c-.525,9.073-1.91,17.689-2.808,26.069-.101,1.046-.213,2.085-.345,3.116-.119,1.031-.164,2.054-.269,3.07l-.148,1.519-.076,1.494c-.033.991-.161,1.991-.143,2.939-.049,1.925-.028,3.794.119,5.469l.112,1.24c.051.397.131.737.186,1.106.055.366.109.738.212,1.005.087.285.144.611.227.864.107.206.188.416.248.635.082.166.169.243.213.388.052.113.107.088.109.177.03.017.035-.014.002.037-.022-.012-.074-.002.064.088.138.074.45.231.981.304,1.058.154,2.732.16,4.619-.036,1.909-.178,4.034-.49,6.452-.765,1.203-.136,2.512-.256,3.964-.295,1.457-.029,3.081-.008,5.043.416.495.111.977.224,1.527.419l.79.28c.272.111.556.246.829.376.542.247,1.091.587,1.627.963.536.348,1.031.81,1.509,1.261,1.901,1.84,2.9,4.274,3.248,6.392.381,2.178.064,3.88-.239,5.429-.193.734-.393,1.481-.646,2.115l-.367.978-.402.906c-1.077,2.387-2.362,4.387-3.64,6.313-2.548,3.831-5.204,7.315-7.314,11.043-1.063,1.85-2.03,3.734-2.749,5.653-.745,1.892-1.227,3.883-1.166,5.589.052.825.212,1.593.556,2.039.347.462.715.733,1.159.833.429.113,1.061.125,1.797.032.345-.027.779-.118,1.165-.194.438-.12.833-.201,1.29-.35,3.562-1.039,7.478-3.027,11.857-4.334,2.201-.687,4.54-1.248,7.126-1.523,2.588-.265,5.449-.242,8.628.509,1.602.452,3.259.988,4.864,1.989.803.43,1.559,1.059,2.295,1.631.673.66,1.409,1.29,1.937,2.045,1.186,1.455,1.999,3.059,2.602,4.623.249.773.529,1.564.701,2.325.133.752.254,1.503.363,2.248.5,5.818-.855,10.584-2.587,14.966-1.815,4.354-4.117,8.327-7.079,11.915l-1.507-.538Z" fill="url(#linear-gradient4)"/>
      </g>
    </g>
    <g opacity=".54">
      <g>
        <path d="M264.269,332.598c-5.974-7.599-13.654-19.372-12.083-29.986,2.29-15.463,22.478-16.731,23.189-28.698.78-13.133-22.925-21.815-21.963-34.648.729-9.722,14.716-9.852,17.254-21.698,1.855-8.659-2.453-23.358-24.316-49.779" fill="url(#linear-gradient5)"/>
        <path d="M263.64,333.093c-3.828-2.311-7.146-5.245-10.105-8.665-1.469-1.719-2.801-3.597-4.021-5.61-1.165-2.05-2.224-4.243-2.996-6.648-.776-2.418-1.226-5.04-1.319-7.814,0-2.78.423-5.706,1.495-8.491,1.074-2.768,2.696-5.288,4.57-7.281,1.875-1.994,3.928-3.505,5.95-4.706,4.01-2.418,8.001-3.619,11.001-5.309,1.51-.826,2.724-1.745,3.491-2.942.417-.589.629-1.29.815-2.038.131-.755.17-1.549.03-2.356-.229-1.621-1.074-3.273-2.184-4.775-1.095-1.528-2.495-2.924-4.005-4.239-3.015-2.671-6.582-4.845-10.163-7.603-1.795-1.383-3.639-2.918-5.319-4.991-.852-1.004-1.642-2.214-2.349-3.534-.642-1.377-1.258-2.882-1.503-4.567-.173-.825-.197-1.684-.243-2.543.002-.87.123-1.768.228-2.656.038-.445.161-.89.292-1.337.128-.446.261-.895.411-1.337l.235-.659.299-.608c.203-.405.415-.807.634-1.207.883-1.542,1.959-2.837,2.978-3.88.536-.589,1.008-.985,1.511-1.455.515-.481.969-.855,1.429-1.239,1.839-1.527,3.38-2.731,4.541-3.833,1.153-1.081,1.798-2.033,2.223-2.829.074-.211.243-.379.273-.598.051-.21.115-.409.207-.596.058-.211.074-.451.135-.665l.097-.326.038-.384c.118-1.018.194-2.229.018-3.674-.008-.343-.06-.711-.132-1.091l-.154-1.135c-.2-.794-.301-1.582-.521-2.409-.409-1.648-.913-3.363-1.494-5.113-1.173-3.494-2.682-7.104-4.27-10.756-1.565-3.669-3.332-7.356-5.014-11.163-.856-1.898-1.746-3.794-2.562-5.761-.851-1.946-1.705-3.905-2.455-5.969l1.233-1.02c1.859,1.163,3.617,2.431,5.374,3.714,1.706,1.33,3.378,2.7,5.009,4.125,3.217,2.892,6.306,5.948,9.115,9.339,2.828,3.371,5.484,6.968,7.724,11.047,1.135,2.029,2.176,4.171,3.066,6.467.454,1.136.82,2.375,1.2,3.573.298,1.294.661,2.51.83,3.896.457,2.657.51,5.65-.012,8.725l-.209,1.153c-.098.389-.213.782-.327,1.171-.243.777-.465,1.553-.765,2.313-.335.758-.7,1.505-1.077,2.24-.358.748-.863,1.392-1.306,2.078-1.851,2.674-4.18,4.694-6.276,6.189-2.101,1.469-4.036,2.542-5.543,3.471-1.529.914-2.512,1.682-2.94,2.066-.226.2-.36.322-.55.544-.049.137-.153.257-.246.418-.044.177-.164.36-.18.565-.12.394-.134.898-.104,1.478.076.599.169,1.279.45,2.016.499,1.464,1.349,3.119,2.394,4.758,2.11,3.292,4.828,6.566,7.621,9.828,1.39,1.652,2.791,3.338,4.095,5.201,1.26,1.883,2.51,3.913,3.242,6.346.725,2.416.982,5.135.313,7.859-.639,2.729-2.094,5.149-3.604,7.143-1.532,2.021-3.172,3.675-4.699,5.255l-4.29,4.258c-1.276,1.313-2.401,2.503-3.294,3.607-.873,1.114-1.57,2.101-2.093,3.169-.53,1.059-.841,2.27-1.089,3.629-.209,1.381-.194,2.904-.115,4.547.158,1.643.43,3.391.822,5.189.422,1.8.911,3.656,1.494,5.547,1.141,3.801,2.61,7.678,3.9,11.901l-1.258.989Z" fill="url(#linear-gradient6)"/>
      </g>
      <g>
        <path d="M263.476,333.221c4.09-11.003,8.957-27.019,5.412-35.902-5.166-12.942-24.265-.921-27.272-11.631-3.299-11.753,17.136-35.364,13.725-46.718-2.584-8.601-15.671.425-20.36-8.977-3.428-6.872-2.283-23.416,12.959-62.386" fill="url(#linear-gradient7)"/>
        <path d="M262.727,332.942c-.003-4.589.404-8.933.643-13.177.268-4.224.515-8.344.374-12.105-.005-.475-.032-.938-.085-1.383-.038-.447-.045-.906-.094-1.336l-.169-1.259c-.04-.427-.175-.774-.232-1.163-.325-1.469-.802-2.701-1.235-3.207-.086-.17-.202-.208-.269-.323-.1-.049-.158-.135-.249-.179-.178-.106-.342-.264-.758-.433-.401-.166-.952-.372-1.655-.543-.718-.165-1.549-.342-2.473-.489-1.87-.293-4.06-.54-6.542-1.022-1.253-.256-2.591-.562-4.036-1.064-1.43-.503-3.037-1.239-4.488-2.495-1.461-1.239-2.52-3.001-2.996-4.608-.446-1.609-.537-3.097-.458-4.488.11-1.373.316-2.655.653-3.842.145-.601.317-1.185.5-1.749.169-.576.368-1.127.56-1.675,1.573-4.361,3.348-8.363,4.95-12.444,1.617-4.051,2.957-8.217,3.914-12.283.465-2.028.809-4.038.978-5.868.047-.461.073-.907.07-1.33.025-.439-.011-.833-.031-1.219.008-.404-.088-.708-.112-1.053-.033-.154-.082-.283-.115-.422-.03-.139-.054-.277-.112-.363-.047-.099-.088-.195-.122-.291-.054-.067-.11-.114-.149-.17-.036-.072-.077-.083-.109-.081-.026-.03-.05.021-.051.077-.061.217.475.898.706,1.049.249.186-.061.128-.702.164-.635.022-1.551.091-2.631.17-1.085.075-2.343.158-3.805.131-1.459-.035-3.149-.163-5.054-.69-1.895-.521-4.012-1.526-5.783-2.996-1.788-1.453-3.126-3.273-4.042-4.983-1.822-3.466-2.345-6.567-2.591-9.362-.18-1.457-.106-2.728-.135-4.084.065-1.291.137-2.56.269-3.812.564-4.94,1.73-9.456,3.168-13.803.66-2.203,1.52-4.289,2.304-6.411.875-2.076,1.72-4.154,2.686-6.174,1.9-4.047,3.987-7.983,6.299-11.795,2.313-3.812,4.819-7.516,7.675-11.048l1.49.583c-.247,4.536-.831,8.906-1.421,13.237-.605,4.324-1.281,8.581-1.972,12.78-.664,4.199-1.356,8.349-1.926,12.402-.572,4.055-1.066,8.049-1.27,11.723l-.093,2.66c.024.804-.02,1.7.055,2.393.019.784.131,1.379.186,1.99.068.229.107.465.132.711.054.159.091.306.107.463.059.217.019.174-.14.142-.145-.043-.313-.016-.15.117.32.291,1.859.59,3.992.704,1.081.078,2.328.136,3.848.331,1.504.214,3.369.501,5.575,1.627,1.072.526,2.195,1.358,3.141,2.303.916.98,1.667,2.1,2.139,3.159.25.536.465,1.071.6,1.559.162.507.297,1.007.358,1.468.078.471.154.949.204,1.412l.045,1.321c-.012,3.481-1.006,6.049-1.998,8.396-1.015,2.328-2.231,4.358-3.453,6.308-2.435,3.887-5.008,7.436-7.119,11.183-1.067,1.862-2.059,3.749-2.891,5.678-.859,1.915-1.55,3.888-1.964,5.852-.417,1.945-.517,3.944-.124,5.51.211.765.532,1.422.9,1.819.377.379.706.38,1.033.36.618-.034,2.077-.14,3.898-.506,1.84-.35,3.972-.785,6.424-.995,1.237-.098,2.565-.146,3.993-.051,1.439.112,3.01.366,4.652.905,1.636.513,3.385,1.431,4.906,2.651,1.552,1.207,2.82,2.777,3.731,4.34.955,1.595,1.497,3.16,1.902,4.685.246.785.337,1.498.459,2.235l.162,1.099c.034.355.048.699.07,1.048.169,2.819-.063,5.364-.519,7.799-.882,4.858-2.506,9.217-4.52,13.323-2.033,4.097-4.422,7.943-7.413,11.463l-1.5-.558Z" fill="url(#linear-gradient8)"/>
      </g>
    </g>
    <g opacity=".83">
      <g>
        <path d="M328.473,285.875c-10.353-1.724-24.494-5.445-27.013-14.462-3.669-13.137,20.118-27.545,16.001-37.005-4.519-10.381-36.675-1.101-40.849-11.378-3.162-7.786,13.629-17.207,11.762-27.793-1.364-7.738-12.661-15.904-49.971-21.171" fill="url(#linear-gradient9)"/>
        <path d="M328.342,286.664c-4.53.848-9.091.904-13.763.285-2.334-.344-4.692-.898-7.079-1.751-2.37-.895-4.813-2.123-7.111-4.053-2.308-1.876-4.44-4.703-5.535-8.126-1.06-3.421-.893-7.13-.091-10.052.797-2.971,2.01-5.45,3.375-7.594,1.368-2.148,2.883-3.974,4.457-5.626,3.093-3.322,6.544-5.917,9.21-8.671,1.309-1.337,2.422-2.768,2.833-3.949.208-.586.257-1.094.164-1.642-.108-.538-.456-1.051-.985-1.547-1.123-.978-2.982-1.645-4.926-1.943-1.949-.348-4.023-.43-6.114-.395-4.205.043-8.47.746-13.014,1.168-2.285.208-4.646.386-7.279.157-.658-.055-1.329-.126-2.044-.262-.687-.096-1.449-.301-2.198-.512-.363-.089-.784-.283-1.174-.431-.4-.167-.783-.301-1.211-.551-.418-.227-.834-.465-1.246-.713-.421-.303-.841-.639-1.249-.98-1.638-1.443-3.078-3.534-3.67-5.9-.308-1.181-.442-2.41-.404-3.529.023-.559.06-1.132.148-1.622.078-.514.17-1.032.292-1.472.464-1.862,1.131-3.324,1.785-4.617.661-1.283,1.331-2.381,1.984-3.422l3.578-5.489c1.054-1.634,1.881-3.169,2.378-4.372.482-1.223.524-1.992.463-2.185-.028-.128-.045-.193-.102-.348-.03-.15-.176-.387-.362-.722-.36-.669-1.422-1.633-2.545-2.591-1.241-.948-2.666-1.937-4.279-2.856-3.201-1.843-6.835-3.587-10.619-5.217-1.867-.857-3.823-1.625-5.754-2.468-1.946-.821-3.93-1.609-5.904-2.473-1.996-.809-3.996-1.653-6.004-2.549-2.015-.875-4.039-1.758-6.058-2.789l.224-1.584c2.23-.383,4.454-.619,6.687-.846,2.228-.176,4.456-.247,6.693-.312,2.233.013,4.471.036,6.715.165,2.242.181,4.493.306,6.75.665,4.515.59,9.068,1.561,13.703,3.25,2.318.815,4.676,1.891,7.04,3.28.586.315,1.191.781,1.783,1.174.597.424,1.176.796,1.77,1.342.589.512,1.177,1.031,1.751,1.564.57.627,1.131,1.27,1.677,1.924,1.082,1.395,2.062,3.004,2.797,4.868.703,1.845,1.172,3.907,1.208,5.925.039,1.02-.041,1.994-.15,2.965-.153.931-.332,1.863-.585,2.704-.487,1.701-1.162,3.219-1.87,4.527-1.415,2.65-3.035,4.672-4.533,6.49-1.511,1.8-2.978,3.377-4.186,4.802-.599.705-1.149,1.379-1.569,1.954-.416.567-.702,1.048-.85,1.248-.143.225-.158.027-.348-.262-.158-.251-.419-.445-.569-.361-.176.069.1.43.51.783.253.176.482.389.837.566.308.196.682.373,1.074.547,1.567.693,3.495,1.298,5.495,1.797,4.035.98,8.372,1.653,12.748,2.198,2.197.292,4.413.584,6.691,1.018,2.26.482,4.641,1.023,7.055,2.527,1.172.792,2.368,1.865,3.142,3.306.807,1.407,1.161,3.089,1.18,4.639-.013,3.131-.955,5.624-1.819,7.957-1.88,4.553-4.031,8.518-6.072,12.082-2.002,3.547-3.96,6.76-4.785,9.104-.433,1.189-.475,1.926-.476,2.674.031.744.35,1.621,1.116,2.726.783,1.064,1.949,2.253,3.385,3.345,1.441,1.1,3.07,2.173,4.804,3.216,1.746,1.035,3.582,2.039,5.475,3.069,1.898,1.012,3.842,2.055,5.816,3.196l-.263,1.578Z" fill="url(#linear-gradient10)"/>
      </g>
      <g>
        <path d="M327.777,286.871c.354-10.989-.441-26.259-8.403-30.566-11.599-6.275-29.606,15.482-37.678,9.444-8.858-6.626,5.94-37.976-2.886-44.228-6.687-4.736-18.696,10.764-28.25,6.83-6.984-2.876-12.48-16.061-10.319-55.483" fill="url(#linear-gradient11)"/>
        <path d="M326.978,286.845c-.731-2.186-1.365-4.329-1.968-6.428-.638-2.093-1.212-4.146-1.868-6.116-.339-.977-.629-1.957-1.003-2.882l-.514-1.386-.565-1.318c-.75-1.714-1.605-3.265-2.466-4.433-.91-1.137-1.743-1.754-2.358-1.902-.134-.113-.305-.053-.427-.125-.168.027-.264-.058-.452-.024-.292-.034-.751.031-1.25.084-1.078.172-2.541.629-4.179,1.219-1.645.6-3.46,1.347-5.396,2.089-1.931.76-3.98,1.545-6.16,2.275-2.182.721-4.466,1.462-7.004,1.994-1.266.265-2.603.472-4.084.53-1.458.033-3.086-.026-4.742-.676-1.652-.622-3.067-1.777-3.987-3.1-.984-1.324-1.391-2.732-1.713-4.026-.542-2.605-.508-4.964-.476-7.268.083-2.299.242-4.532.383-6.753.315-4.42.433-8.847.219-13.054-.12-2.09-.348-4.135-.719-5.881-.338-1.707-1.098-3.246-1.431-3.12-.141.072-.009.43.362.718.086.089.213.121.29.194.099.054.197.086.243.129.029.016.071.02.093.029.007.018.015.032.023.042.038.006-.007.045-.041.069-.157.106-.684.322-1.316.666-.64.344-1.387.784-2.203,1.304-1.63,1.024-3.456,2.274-5.55,3.528-2.118,1.232-4.496,2.565-7.657,3.481-1.576.45-3.404.801-5.422.8-2.011.009-4.231-.355-6.274-1.177-.98-.435-1.98-.922-2.867-1.485-.823-.588-1.712-1.205-2.413-1.863-.661-.663-1.359-1.356-1.932-2.049-.522-.683-1.027-1.382-1.509-2.092-.796-1.362-1.609-2.782-2.084-4.095-.26-.665-.561-1.343-.771-1.999l-.57-1.939c-.717-2.575-1.116-5.046-1.375-7.469-.508-4.83-.493-9.49-.123-14.045.141-2.286.475-4.529.746-6.778.368-2.232.744-4.456,1.209-6.66.507-2.199,1.008-4.391,1.63-6.562.659-2.168,1.324-4.327,2.135-6.464l1.598.088c2.278,8.798,3.596,17.425,5.307,25.677.223,1.026.435,2.05.625,3.072.202,1.018.472,2.005.683,3.005l.324,1.492.385,1.446c.272.954.457,1.945.763,2.841.543,1.848,1.135,3.62,1.787,5.17l.486,1.146c.17.362.35.661.516.996.165.332.329.67.509.892.17.244.324.538.481.753.165.163.306.338.431.528.129.133.235.18.321.304.084.091.129.051.158.135.034.007.029-.023.013.034-.025-.005-.071.02.088.064.154.028.499.082,1.027-.011,1.054-.177,2.649-.684,4.387-1.448,1.763-.753,3.691-1.701,5.908-2.703,1.104-.498,2.313-1.013,3.684-1.495,1.379-.473,2.931-.951,4.928-1.147.505-.045.999-.086,1.582-.069l.838.025c.293.022.604.064.904.104.591.069,1.218.225,1.843.419.617.167,1.23.455,1.823.738,2.373,1.17,4.069,3.181,5.049,5.091,1.029,1.956,1.249,3.674,1.434,5.242.041.757.08,1.53.032,2.211l-.05,1.044-.106.985c-.295,2.602-.906,4.9-1.533,7.125-1.252,4.427-2.716,8.557-3.582,12.751-.446,2.086-.789,4.176-.887,6.223-.13,2.029.02,4.072.601,5.678.303.77.689,1.451,1.153,1.771.472.334.905.479,1.358.438.443-.024,1.049-.206,1.721-.52.321-.131.705-.35,1.05-.541.38-.249.732-.447,1.121-.728,3.073-2.08,6.192-5.171,9.961-7.755,1.885-1.328,3.94-2.578,6.318-3.631,2.383-1.044,5.114-1.898,8.37-2.157,1.664-.06,3.405-.057,5.239.405.897.164,1.809.531,2.684.85.843.422,1.737.797,2.47,1.354,1.575,1.022,2.839,2.3,3.892,3.604.473.66.983,1.327,1.379,1.999.357.675.702,1.353,1.034,2.029,2.257,5.385,2.425,10.337,2.118,15.039-.395,4.701-1.37,9.187-3.092,13.51l-1.599-.051Z" fill="url(#linear-gradient12)"/>
      </g>
    </g>
    <g opacity=".53">
      <path d="M204.439,215.401c-.729,7.358-1.704,15.016-1.068,22.24.482,6.862,2.697,12.977,5.115,19.306,1.234,3.169,2.659,6.483,4.531,9.715,5.733,10.399,15.99,16.761,25.277,23.833,23.882,17.54,26.725,48.968,13.907,74.613-2.617,5.484-5.849,10.657-9.704,15.358,0,0-1.291-.54-1.291-.54.135-2.036.38-4.006.627-5.96,2.396-19.569,5.599-39.973.244-59.067-3.535-10.183-8.877-20.173-16.538-28.052-5.521-5.76-11.897-10.153-18.319-15.08-6.785-5.105-12.525-12.674-14.13-21.267-2.909-12.654,1.154-26.48,10.083-35.694,0,0,1.267.595,1.267.595h0Z" fill="#9fd2ff"/>
      <path d="M279.712,187.077c4.977,3.88,8.82,8.556,12.424,13.549,3.377,4.954,6.724,9.996,8.522,15.758,1.879,5.862,2.119,12.209,3.752,18.14,2.234,8.686,6.921,16.639,10.935,24.651,2.706,5.733,5.212,11.334,10.126,15.1,9.322,8.074,20.701,9.891,32.808,13.028,0,0,.185,1.388.185,1.388-5.678,3.148-11.931,4.851-18.466,5.107-25.177.535-35.9-17.483-36.143-40.545-.317-7.506-1.773-14.81-5.791-21.085-3.116-4.993-7.422-9.173-10.199-14.331-3.563-6.562-6.229-13.534-7.999-20.824-.68-2.98-1.259-6.014-1.394-9.284l1.24-.651h0Z" fill="#90cfff"/>
      <path d="M230.625,211.622c7.732,7.551,13.575,16.445,18.911,25.703,4.346,6.99,8.162,13.893,12.284,21.186,4.861,8.522,11.186,16.203,16.212,24.642,5.231,8.637,9.39,17.889,11.166,27.903,1.608,7.282,2.039,16.005,2.269,23.024.42,9.76,4.598,20.15,9.341,29.22,1.699,3.348,3.617,6.655,5.43,10.217,0,0-.981.999-.981.999-16.431-8.449-29.547-26.139-29.031-45.272.158-9.242.034-18.107-1.157-27.279-.925-11.288-2.277-22.143-10.483-30.805-4.974-5.582-12.033-9.425-17.619-15.454-4.233-4.382-7.16-9.908-9.488-15.499-2.218-5.346-4.173-10.743-5.72-16.36-1.016-3.761-1.929-7.572-2.389-11.604,0,0,1.254-.622,1.254-.622h0Z" fill="#1589ff"/>
    </g>
    <g opacity=".74">
      <path d="M231.776,183.473c3.559,16.712,5.371,33.498,6.98,50.471.435,8.419-.051,17.237.121,25.656.466,14.969-1.141,25.938-14.722,34.601-3.717,2.401-7.528,4.263-10.985,6.429-14.691,8.667-20.924,23.852-22.383,40.244-.782,8.244-.589,16.679-.153,25.199l-.591.103c-5.962-20.437-6.989-46.411,9.353-62.511,6.236-6.323,14.742-9.842,22.336-13.625,7.312-3.504,13.4-9.653,14.717-17.852,1.669-10.333-.374-21.177-1.743-31.489-1.67-10.427-3.067-21.01-3.378-31.619-.331-8.496-.571-17-.151-25.556,0,0,.598-.05.598-.05h0Z" fill="#15d4ff"/>
    </g>
    <path d="M236.237,158.754c-4.605,2.537-20.98,12.586-22.546,30.482-1.651,18.861,13.876,38.413,30.928,41.025,9.045,1.385,17.168-2.203,20.234,1.146,3.876,4.235-6.842,12.455-3.758,15.713,5.212,5.506,44.11-9.211,42.49-13.88-.996-2.871-16.449.573-20.812-5.271-2.858-3.829,1.827-9.597,5.492-16.96,1.414-2.842,14.375-29.452,7.501-43.676-7.204-14.908-38.188-20.337-59.53-8.579Z" fill="#9db2f0" opacity=".72"/>
    <g opacity=".23">
      <path d="M244.557,197.235c6.354,6.459,11.523,13.694,16.4,21.205,4.885,7.265,8.804,15.601,11.379,23.873,2.003,5.541,4.749,11.08,9.076,15.223,4.921,4.472,11.193,7.426,15.927,12.409,6.982,6.231,11.876,15.75,13.701,24.851,1.789,8.385,2.372,16.531,5.74,24.04,4.473,10.778,12.333,19.507,21.761,26.477,6.589,5.036,14.084,9.34,21.79,14.108,0,0-.389,1.345-.389,1.345-4.566-.11-9.124-.619-13.611-1.622-25.484-5.471-44.695-22.885-46.048-49.682-1.415-12.577,2.195-25.948-6.408-36.324-3.959-5.349-10.003-7.876-15.798-10.942-4.197-2.287-8.206-5.311-11.562-8.748-6.71-6.659-9.077-15.995-12.69-23.974-4.42-10.218-8.439-20.535-10.507-31.588,0,0,1.24-.651,1.24-.651h0Z" fill="#15d4ff"/>
    </g>
    <path d="M181.305,218.211c-4.989-14.274-23.166-13.058-28.849-26.488-6.266-14.808,8.278-34.135,12.588-39.863,40.465-53.775,154.154-59.039,169.157-28.062,9.224,19.045-21.278,46.783-6.556,70.023,7.317,11.551,22.253,16.381,21.505,17.834-1.228,2.385-36.79-19.787-51.141-8.13-5.521,4.484-3.238,10.187-11.277,17.309-1.399,1.239-11.13,9.619-22.817,8.13-11.966-1.525-16.249-12.155-22.292-9.966-5.844,2.117-3.434,12.636-10.228,16.26-6.481,3.457-12.095-4.291-22.292-4.458-18.251-.3-30.954,24.017-34.356,21.768-3.093-2.046,11.85-19.211,6.556-34.356Z" fill="#d9dcf0" opacity=".38"/>
    <g opacity=".49">
      <path d="M306.235,176.894c-4.178,27.446,2.574,41.065,24.093,57.868,7.452,6.079,16.03,11.14,22.52,18.416,6.875,7.659,11.022,18.06,9.794,28.484-.499,5.255-2.154,10.118-3.534,14.596-1.946,6.49-3.497,11.669-1.418,17.54,2.062,5.849,6.801,9.917,11.613,13.884,3.838,3.15,7.734,6.925,10.569,11.152,5.57,8.413,8.151,18.87,7.217,28.812,0,0-.996.085-.996.085-2.428-8.943-6.252-17.252-12.444-24.027-4.563-5.002-10.809-8.291-16.296-12.739-6.597-5.294-11.534-13.74-11.125-22.473.536-12.306,8.881-22.484,9.511-34.468.802-11.889-5.777-21.827-15.754-27.924-12.288-7.623-28.026-11.476-35.876-25.717-8.052-13.36-6.771-30.846,1.183-43.823,0,0,.943.332.943.332h0Z" fill="#5b69ff"/>
    </g>
    <path d="M347.17,188.576" fill="#d9dcf0"/>
    <path d="M197.004,205.804c-3.322-8.656-19.575-4.471-25.168-11.776-8.936-11.672,8.767-51.342,41.031-69.443,37.515-21.048,90.569-10.607,98.696,10.379,4.225,10.91-6.721,21.768.378,40.48,3.782,9.969,10.48,16.548,8.741,18.377-3.071,3.231-26.365-14.754-31.634-9.525-1.166,1.157-1.601,2.822-4.256,7.281-.681,1.144-1.69,2.399-3.363,3.815-1.018.861-8.119,6.715-17.573,7.189-9.68.485-13.954-5.064-18.606-3.14-4.498,1.861-1.73,7.559-6.866,10.382-5.292,2.909-9.751-.5-18.164-.014-14.595.844-23.318,14.296-25.946,12.072-2.149-1.818,5.263-9.478,2.731-16.079Z" fill="#ffdcf0" opacity=".38"/>
    <g opacity=".32">
      <path d="M162.719,162.404c39.314-1.176,78.235-9.619,113.846-26.38,11.855-5.521,23.324-11.896,34.569-18.838-40.447,34.255-95.743,51.076-148.415,45.218h0Z" fill="#f2b6ff"/>
    </g>
    <g opacity=".32">
      <path d="M151.044,176.728c39.602,3.672,79.954-1.09,116.559-16.889,22.051-9.249,42.188-22.137,60.882-37.172-11.1,11.576-23.77,21.746-37.552,30.175-41.243,25.468-92.569,34.3-139.889,23.886h0Z" fill="#8db6ff"/>
    </g>
  </g>
  <g>
    <g opacity=".83">
      <g>
        <path d="M137.44,371.205c-4.078-4.485-9.16-11.232-7.076-16.222,3.036-7.27,18.977-5.294,20.494-11.057,1.664-6.324-16.238-13.619-14.454-19.773,1.351-4.662,12.336-2.927,15.276-8.396,2.15-3.997-.052-11.741-15.087-27.477" fill="url(#linear-gradient13)"/>
        <path d="M136.848,371.743c-2.863-.795-5.324-2.169-7.61-4.031-1.126-.953-2.186-2.058-3.153-3.381-.953-1.337-1.804-2.949-2.311-4.985-.508-2.007-.547-4.617.381-7.14.917-2.513,2.728-4.611,4.426-5.888,3.474-2.601,6.583-3.259,9.323-3.483,2.737-.21,5.264.236,7.354.345,1.016.085,1.921.033,2.341.02.383.02.697.103.727-.493-.011-.592-.522-1.503-1.256-2.273-.724-.792-1.631-1.523-2.62-2.186-1.985-1.348-4.315-2.346-6.807-3.599-1.25-.643-2.559-1.334-3.908-2.442-.339-.276-.681-.569-1.032-.93-.343-.32-.705-.753-1.047-1.188-.659-.968-1.397-2.088-1.733-3.844-.345-1.7-.234-3.765.563-5.581.388-.915.916-1.773,1.484-2.463.286-.342.594-.684.878-.945.293-.282.6-.556.872-.765,1.146-.913,2.163-1.45,3.057-1.891.891-.431,1.663-.744,2.385-1.032,1.429-.56,2.607-.987,3.575-1.403.964-.393,1.696-.81,2.003-1.072.327-.26.055-.319-.407.233-.213.247-.384.601-.468.875-.067.298-.09.474-.044.549.096.165.096-.357.062-.939-.095-.653-.244-1.476-.516-2.394-.534-1.818-1.305-3.918-2.18-6.087-.844-2.182-1.804-4.452-2.681-6.856-.461-1.194-.909-2.414-1.322-3.688-.42-1.272-.843-2.556-1.17-3.952l1.157-1.105c1.368.418,2.64.946,3.915,1.488,1.25.568,2.443,1.211,3.635,1.868,2.339,1.375,4.568,2.916,6.647,4.748,2.094,1.806,4.065,3.867,5.821,6.453.89,1.274,1.717,2.742,2.422,4.438.182.399.329.914.488,1.372.153.482.303.917.409,1.487.111.543.218,1.089.304,1.639.053.619.088,1.244.106,1.869.002,1.313-.171,2.73-.612,4.214-.455,1.453-1.166,2.946-2.118,4.188-1.918,2.583-4.333,3.94-6.227,4.75-1.938.801-3.588,1.122-5.016,1.381-1.426.239-2.668.365-3.627.486l-1.149.135c-.257.019-.368.022-.236-.175.118-.172.556-.672.785-1.426.237-.702.204-1.485-.012-1.96-.222-.51-.425-.477-.526-.347-.086.181-.085.53.037.939.225.812.709,1.85,1.298,2.871,1.198,2.069,2.78,4.136,4.507,6.084.864.988,1.768,1.961,2.681,3.036.894,1.087,1.874,2.24,2.579,4.04.316.911.542,2.03.37,3.197-.145,1.157-.662,2.296-1.294,3.199-1.315,1.791-2.745,2.782-4.028,3.755-2.586,1.796-4.945,3.213-7,4.29-2.028,1.062-3.777,1.852-4.385,2.126-.334.145-.207-.012-.301-.256-.052-.231-.304-.284-.485.161-.181.424-.259,1.199-.197,2.124.071.932.237,1.992.459,3.122.445,2.286,1.143,4.761,1.612,7.643l-1.184,1.076Z" fill="url(#linear-gradient14)"/>
      </g>
      <g>
        <path d="M136.768,371.408c4.091-4.857,9.193-12.066,7.124-16.867-3.015-6.995-18.964-3.57-20.464-9.196-1.646-6.174,16.279-15.096,14.513-21.089-1.338-4.54-12.329-1.807-15.254-7.009-2.138-3.802.086-11.748,15.168-28.852" fill="url(#linear-gradient15)"/>
        <path d="M136.156,370.893c.381-2.923,1.032-5.45,1.473-7.807.1-.585.236-1.145.299-1.697.095-.547.17-1.062.208-1.562.081-.979.081-1.849-.055-2.398-.143-.553-.437-.599-.474-.238-.004.145.044.382.095.518.08.153.052.197,0,.194-.178-.037-.743-.253-1.514-.549-.78-.295-1.764-.662-2.841-1.112-1.08-.456-2.268-.967-3.525-1.596-1.255-.633-2.602-1.296-4.045-2.181-.719-.442-1.465-.946-2.262-1.593-.766-.656-1.622-1.439-2.253-2.597-.635-1.143-.884-2.468-.787-3.617.073-1.187.484-2.094.866-2.885.826-1.533,1.747-2.628,2.62-3.707l2.572-3.081c1.647-2.017,3.125-4.181,4.247-6.335.552-1.066,1.007-2.143,1.242-3.012.248-.82.086-1.699-.385-.888-.21.421-.285,1.262.045,2.126.151.435.425.854.629,1.132l.309.349c.115.101.156.161.212.219.208.217.096.218-.173.224l-1.195-.035c-1.011-.038-2.309-.061-3.827-.202-1.526-.17-3.316-.387-5.53-1.242-1.098-.437-2.344-1.071-3.572-2.031-1.229-.949-2.437-2.261-3.304-3.772-.405-.741-.783-1.537-1.052-2.313-.228-.748-.465-1.566-.576-2.289-.088-.702-.169-1.45-.182-2.121.006-.63.035-1.263.09-1.889.154-1.109.351-2.267.659-3.152.147-.461.283-.956.454-1.382l.525-1.225c.719-1.602,1.546-2.957,2.417-4.206,1.731-2.486,3.647-4.578,5.696-6.429,1.007-.95,2.093-1.781,3.159-2.635,1.103-.803,2.215-1.589,3.369-2.317,1.173-.706,2.346-1.404,3.586-2.023,1.26-.6,2.519-1.187,3.879-1.669l1.2,1.058c-.596,2.81-1.427,5.346-2.27,7.807-.421,1.228-.842,2.43-1.293,3.6-.412,1.176-.871,2.326-1.285,3.447-.859,2.244-1.625,4.409-2.253,6.356-.292.974-.535,1.898-.67,2.657l-.1.551-.033.437c-.017.141-.037.286-.008.343.014.07-.003.17.008.208.035.001.045-.004.032-.007.01-.045.028-.17-.002-.247-.023-.103-.042-.325-.125-.464-.056-.189-.146-.421-.289-.594-.244-.418-.606-.777-.863-.933-.254-.17-.408-.161-.358-.091.089.158.759.528,1.695.831.949.329,2.139.652,3.598,1.071.723.21,1.542.457,2.476.802.935.355,2.014.784,3.307,1.635.326.218.639.435.997.736l.505.435c.173.161.352.345.52.523.667.702,1.306,1.643,1.751,2.631.922,1.98.965,4.131.606,5.785-.354,1.714-1.054,2.772-1.678,3.708-.324.42-.666.847-.991,1.165-.332.355-.659.66-.981.935-1.287,1.13-2.558,1.885-3.78,2.594-2.438,1.39-4.738,2.54-6.708,4.007-.984.723-1.892,1.506-2.646,2.349-.751.827-1.352,1.771-1.523,2.548-.073.368-.05.692.092.769.136.1.26.025.372-.101.185-.232.852-.209,1.839-.385,1.939-.26,4.461-.928,7.218-.957,1.397-.022,2.882.09,4.518.484,1.637.401,3.443,1.091,5.385,2.409.97.719,1.962,1.522,2.829,2.661.44.521.82,1.167,1.175,1.775.305.645.639,1.302.814,1.969.862,2.715.61,5.272.044,7.185-.59,1.925-1.449,3.431-2.39,4.743-.945,1.31-1.999,2.372-3.1,3.348-2.241,1.892-4.662,3.353-7.51,4.274l-1.224-1.031Z" fill="url(#linear-gradient16)"/>
      </g>
    </g>
    <g opacity=".54">
      <g>
        <path d="M114.08,377.257c-1.7-5.318-3.482-13.239-.49-18.666,4.359-7.907,15.541-4.52,18.34-10.854,3.071-6.95-8.006-16.432-4.896-23.183,2.356-5.114,9.952-2.363,13.716-8.263,2.751-4.312,3.385-13.136-3.117-31.847" fill="url(#linear-gradient17)"/>
        <path d="M113.318,377.5c-2.249-1.832-3.888-4.039-5.188-6.545-1.263-2.515-2.12-5.382-2.154-8.699.009-1.666.252-3.435.83-5.245.341-.904.672-1.811,1.219-2.686.252-.441.515-.879.792-1.306.289-.422.64-.814.972-1.215,1.345-1.62,3.038-2.816,4.717-3.67,1.649-.76,3.316-1.221,4.76-1.363,1.508-.184,2.77-.127,4.005-.022l3.106.34c.877.08,1.622.129,2.149-.072.075-.021.166-.036.237-.069l.182-.131c.117-.095.28-.173.394-.3.223-.255.418-.561.524-.929.245-.728.162-1.684-.119-2.64-.278-.964-.767-1.947-1.37-2.905-1.2-1.944-2.908-3.701-4.638-5.91-.86-1.116-1.753-2.369-2.433-4.038-.352-.811-.633-1.782-.821-2.828-.13-1.078-.211-2.262.02-3.505.081-.618.264-1.232.445-1.848.213-.617.519-1.232.823-1.836.3-.603.757-1.182,1.186-1.747.443-.58.954-.997,1.469-1.473,1.017-.873,2.085-1.501,2.999-1.957.51-.27.877-.415,1.307-.606.445-.196.787-.329,1.142-.469,1.412-.549,2.42-.944,3.056-1.303.624-.341.756-.634.716-.725-.002-.027-.087-.084-.1-.062-.015-.013-.038-.047-.039-.053,0-.006.006,0,.011-.007,0-.022.003-.042.008-.06.037-.151.217-.428.379-.986.389-1.017.707-2.793.966-4.705.238-1.933.378-4.109.521-6.37.16-2.264.255-4.644.485-7.111.108-1.237.202-2.488.381-3.778.161-1.289.323-2.592.62-3.957l1.511-.525c1.058.908,1.983,1.879,2.903,2.863.878,1.003,1.7,2.036,2.484,3.099,1.529,2.147,2.892,4.396,3.995,6.834,1.117,2.43,2.056,4.995,2.614,7.848.294,1.423.5,2.917.566,4.501.04.784.008,1.637-.022,2.456-.093.885-.143,1.712-.351,2.646-.322,1.79-1.003,3.783-2.136,5.719-.524.964-1.322,1.932-2.083,2.817-.853.876-1.761,1.696-2.761,2.344-1.971,1.329-4.047,2.046-5.702,2.443-1.647.375-2.98.511-3.874.616-.914.082-1.259.17-1.09-.146.072-.152.204-.409.194-.63.013-.08-.006-.188-.055-.268-.026-.054-.108-.124-.149-.153-.122-.094-.281-.068-.445.048-.151.15-.337.38-.428.74-.214.685-.294,1.702-.228,2.794.128,2.212.723,4.672,1.469,7.11.701,2.467,1.711,4.993,1.691,8.31-.023.824-.137,1.687-.367,2.541-.109.429-.299.845-.463,1.277l-.266.649-.355.606c-.25.394-.503.84-.801,1.189-.302.342-.603.705-.93,1.055-.324.353-.646.592-.979.907l-.508.445-.485.374c-1.362,1.05-2.57,1.758-3.742,2.511-.514.358-1.129.668-1.582.986l-.727.431c-.232.147-.42.286-.635.412-.864.515-1.425.956-1.925,1.259-.382.347-.741.469-.959.681-.062.049-.155.069-.219.129-.052.073-.119.135-.197.195-.172.092-.302.299-.488.47-.323.414-.664.983-1.012,1.687-.329.723-.631,1.579-.935,2.523-.277.958-.552,1.995-.806,3.104-.537,2.229-.96,4.673-1.757,7.409l-1.524.487Z" fill="url(#linear-gradient18)"/>
      </g>
      <g>
        <path d="M113.526,377.434c4.434-5.13,10.299-12.816,10.172-18.339-.185-8.046-12.947-5.394-12.413-11.797.586-7.027,16.409-15.683,16.853-22.516.337-5.176-8.567-2.931-9.208-8.966-.469-4.411,3.489-13.133,19.6-31.15" fill="url(#linear-gradient19)"/>
        <path d="M112.92,376.911c.41-2.917,1.151-5.43,1.793-7.84.663-2.383,1.333-4.62,1.724-6.545.191-.95.344-1.835.32-2.45.001-.607-.133-1-.185-.726-.004.111.05.391.173.62.109.226.31.376.335.358.035-.005-.022-.143-.218-.334-.207-.202-.513-.455-.9-.752-.795-.605-1.895-1.31-3.204-2.285-.663-.502-1.395-1.061-2.186-1.794-.778-.73-1.665-1.685-2.325-2.991-.674-1.296-.909-2.867-.771-4.083.156-1.207.513-2.18.94-3.019.878-1.646,1.894-2.754,2.835-3.819,1.902-2.074,3.672-3.902,5.278-5.907,1.602-1.978,2.994-4.15,4.039-6.316.517-1.075.935-2.154,1.192-3.074.236-.901.275-1.772-.024-1.815-.092-.064-.382.19-.384.794.012.087-.006.352.03.573.033.225.095.449.19.652.062.228.159.453.285.659.063.103.133.201.208.293.06.085.083.147.133.218.09.136.199.261.321.368.097.095.073.129.129.183.014.041.14.105.077.104l-.103.018c-.16,0-.646-.108-1.234-.245l-1.044-.276c-.381-.109-.864-.279-1.292-.423-.476-.178-1.034-.432-1.542-.663-.576-.3-1.194-.674-1.769-1.055-.645-.504-1.268-1.014-1.858-1.629-.585-.677-1.174-1.394-1.623-2.168-.421-.773-.854-1.636-1.108-2.429-.229-.768-.418-1.561-.562-2.355-.387-2.975.039-5.143.527-6.975.232-.984.563-1.728.86-2.577.337-.765.663-1.512,1.034-2.223,1.466-2.784,3.18-5.046,5.028-7.102.893-1.066,1.881-1.988,2.833-2.955.999-.907,1.975-1.825,3.026-2.659,2.073-1.687,4.252-3.228,6.572-4.598,2.323-1.367,4.758-2.592,7.458-3.536l1.193,1.067c-.606,2.796-1.472,5.317-2.362,7.771-.9,2.445-1.869,4.78-2.861,7.033-.976,2.256-1.983,4.436-2.924,6.513-.935,2.085-1.836,4.093-2.523,5.817l-.467,1.206c-.109.33-.28.735-.344.966-.117.306-.142.452-.225.596.002.011-.023.018-.063.03-.008-.058-.028-.137-.081-.214-.019-.183-.083-.364-.186-.521-.085-.195-.208-.507-.396-.702-.167-.22-.328-.468-.564-.63-.171-.155-.309-.266-.505-.338-.52-.175-.057.324,1.055.86.58.301,1.269.621,2.235,1.159l.737.43c.223.127.594.392.875.592.312.231.569.411.902.709.349.321.686.659,1.004,1.009.161.181.309.339.466.545.161.223.316.452.464.685.296.467.564.953.796,1.442.19.501.345,1.022.472,1.545.124.519.236,1.076.228,1.48.102,1.845-.251,3.364-.738,4.493-.981,2.369-2.309,3.644-3.527,4.758-1.223,1.091-2.465,1.883-3.663,2.62-2.396,1.453-4.677,2.667-6.665,4.157-1.969,1.47-3.78,3.154-4.862,5.09-.523.946-.852,1.986-.732,2.726.063.354.212.626.405.668.198.031.361-.307.41-.583.057-.28.16-.432.438-.505.27-.075.673-.104,1.161-.126,1.003-.032,2.28.032,3.807.344.772.166,1.608.418,2.51.79.906.393,1.904.933,2.901,1.722.998.766,2.017,1.884,2.777,3.171.788,1.287,1.271,2.763,1.494,4.098.433,2.735-.023,4.88-.59,6.689-.593,1.819-1.389,3.259-2.258,4.564-1.749,2.59-3.801,4.563-6.054,6.228-2.271,1.646-4.695,3-7.538,3.869l-1.211-1.046Z" fill="url(#linear-gradient20)"/>
      </g>
    </g>
    <g opacity=".83">
      <g>
        <path d="M158.255,364.922c-5.255-3.022-12.158-7.889-11.702-13.277.665-7.85,16.445-10.849,16.125-16.8-.351-6.53-19.627-7.995-19.813-14.399-.141-4.852,10.847-6.563,11.973-12.669.823-4.463-3.644-11.162-22.774-21.54" fill="url(#linear-gradient21)"/>
        <path d="M157.856,365.616c-2.969.119-5.732-.435-8.479-1.508-1.364-.563-2.711-1.29-4.036-2.254-1.317-.981-2.62-2.256-3.726-4.038-1.098-1.755-1.934-4.228-1.823-6.914.104-2.673,1.186-5.225,2.411-6.961,2.511-3.54,5.269-5.118,7.809-6.17,2.541-1.038,5.084-1.387,7.107-1.922.993-.23,1.839-.557,2.235-.697.37-.098.695-.115.541-.692-.192-.56-.957-1.272-1.891-1.78-.932-.532-2.019-.951-3.163-1.279-2.302-.676-4.826-.912-7.582-1.342-1.387-.23-2.845-.487-4.468-1.129-.407-.159-.822-.333-1.267-.57-.424-.199-.902-.501-1.36-.81-.924-.72-1.969-1.56-2.826-3.129-.849-1.513-1.375-3.513-1.173-5.485.089-.99.33-1.968.659-2.799.167-.413.356-.833.546-1.168.193-.358.401-.714.596-.996.812-1.22,1.616-2.043,2.331-2.736.717-.684,1.356-1.217,1.954-1.712,1.189-.97,2.179-1.738,2.975-2.43.797-.669,1.367-1.29,1.579-1.634.232-.348-.045-.321-.316.346-.127.3-.181.69-.177.977.027.304.059.479.126.537.142.128-.018-.37-.228-.913-.29-.593-.684-1.33-1.224-2.121-1.065-1.568-2.441-3.331-3.939-5.128-1.472-1.819-3.08-3.686-4.651-5.706-.805-.996-1.604-2.02-2.388-3.106-.789-1.082-1.585-2.175-2.323-3.404l.763-1.406c1.43-.021,2.803.093,4.182.219,1.364.158,2.697.405,4.033.666,2.648.593,5.241,1.378,7.781,2.485,2.546,1.079,5.053,2.437,7.516,4.362,1.238.94,2.474,2.084,3.664,3.483.295.324.593.769.884,1.156.293.412.569.78.844,1.29.272.483.541.97.792,1.467.24.573.465,1.157.673,1.747.404,1.249.673,2.651.708,4.199.011,1.523-.208,3.162-.734,4.636-1.035,3.046-2.919,5.077-4.474,6.428-1.6,1.356-3.073,2.166-4.353,2.85-1.284.664-2.428,1.164-3.304,1.573l-1.053.481c-.239.097-.343.134-.278-.094.06-.2.323-.81.311-1.597.01-.741-.26-1.476-.612-1.862-.368-.418-.551-.324-.607-.17-.027.199.081.53.323.883.463.705,1.241,1.544,2.114,2.336,1.774,1.603,3.913,3.086,6.153,4.413,1.125.676,2.284,1.325,3.482,2.07,1.184.762,2.47,1.559,3.691,3.056.58.771,1.137,1.766,1.33,2.93.216,1.146.072,2.389-.253,3.441-.704,2.108-1.761,3.489-2.685,4.807-1.912,2.502-3.724,4.573-5.351,6.226-1.606,1.632-3.029,2.919-3.523,3.367-.273.24-.201.052-.365-.151-.12-.204-.377-.177-.413.301-.042.459.12,1.22.462,2.083.353.866.835,1.824,1.393,2.832,1.124,2.04,2.546,4.183,3.875,6.782l-.798,1.387Z" fill="url(#linear-gradient22)"/>
      </g>
      <g>
        <path d="M157.677,365.321c2.408-5.876,5.059-14.3,1.619-18.238-5.012-5.736-19.147,2.406-22.297-2.49-3.457-5.373,10.877-19.355,7.361-24.519-2.663-3.912-12.29,2.054-16.667-2.003-3.199-2.965-3.514-11.21,5.609-32.11" fill="url(#linear-gradient23)"/>
        <path d="M156.937,365.017c-.532-2.899-.686-5.504-.988-7.883-.084-.588-.126-1.162-.234-1.707-.077-.55-.163-1.063-.281-1.551-.222-.957-.489-1.785-.786-2.266-.305-.482-.599-.436-.524-.081.04.14.159.35.249.464.123.121.11.172.06.184-.181.019-.784-.014-1.609-.06-.833-.042-1.882-.09-3.045-.189-1.168-.104-2.455-.227-3.844-.44-1.388-.219-2.874-.437-4.519-.838-.82-.2-1.684-.452-2.641-.825-.93-.39-1.984-.873-2.94-1.782-.955-.893-1.597-2.079-1.856-3.203-.294-1.152-.18-2.142-.059-3.012.317-1.713.859-3.036,1.359-4.331l1.506-3.72c.951-2.424,1.695-4.937,2.104-7.331.199-1.184.303-2.349.26-3.248-.015-.857-.438-1.643-.638-.727-.071.465.115,1.289.693,2.01.277.368.666.683.945.885l.401.238c.14.061.198.106.269.143.265.143.158.178-.096.266l-1.148.332c-.974.273-2.217.648-3.705.979-1.505.306-3.275.646-5.645.51-1.179-.08-2.559-.302-4.023-.84-1.46-.527-3.012-1.406-4.3-2.58-.612-.581-1.215-1.223-1.709-1.88-.447-.642-.922-1.348-1.249-2.003-.298-.641-.605-1.329-.822-1.963-.187-.602-.353-1.213-.493-1.826-.193-1.103-.36-2.266-.337-3.202,0-.484-.023-.996.009-1.454l.125-1.327c.194-1.746.567-3.288,1.014-4.745.887-2.896,2.071-5.475,3.454-7.864.668-1.212,1.448-2.336,2.2-3.476.804-1.102,1.623-2.191,2.498-3.237.901-1.032,1.803-2.054,2.794-3.023,1.016-.956,2.034-1.901,3.182-2.776l1.466.64c.293,2.857.278,5.526.229,8.127-.025,1.298-.058,2.571-.129,3.823-.032,1.245-.117,2.481-.168,3.675-.131,2.399-.197,4.695-.199,6.741.02,1.017.072,1.971.175,2.734l.074.555.102.426c.026.139.053.284.097.329.034.062.049.162.071.195.034-.01.042-.017.028-.016-.004-.046-.025-.171-.077-.235-.054-.091-.14-.296-.261-.403-.111-.163-.268-.356-.457-.476-.361-.324-.814-.554-1.108-.624-.294-.084-.438-.028-.368.022.133.123.884.27,1.868.273,1.004.023,2.236-.034,3.753-.082.753-.021,1.608-.037,2.602.006.999.052,2.157.13,3.649.545.377.108.742.218,1.175.396l.614.259c.214.101.441.221.656.339.85.464,1.747,1.165,2.472,1.969,1.484,1.603,2.183,3.637,2.348,5.322.187,1.74-.155,2.961-.462,4.044-.18.499-.374,1.01-.587,1.412-.207.44-.425.83-.648,1.19-.879,1.469-1.859,2.577-2.804,3.627-1.895,2.069-3.733,3.868-5.159,5.868-.715.989-1.34,2.013-1.799,3.046-.462,1.018-.745,2.1-.67,2.892.043.372.165.674.323.704.16.054.256-.056.323-.209.105-.278.747-.46,1.633-.93,1.766-.841,3.963-2.249,6.578-3.12,1.323-.448,2.771-.796,4.449-.922,1.681-.119,3.612-.015,5.863.645,1.144.388,2.334.848,3.507,1.667.578.361,1.138.86,1.662,1.33.488.521,1.007,1.044,1.378,1.625,1.652,2.321,2.195,4.832,2.241,6.826.028,2.013-.329,3.71-.823,5.247-.498,1.536-1.177,2.87-1.926,4.136-1.554,2.487-3.412,4.619-5.841,6.368l-1.48-.607Z" fill="url(#linear-gradient24)"/>
      </g>
    </g>
    <g opacity=".53">
      <path d="M105.55,301.969c-1.092,4.447-2.471,8.341-3.135,12.493-.749,3.994-.324,7.645-.971,11.615-2.814,20.773,17.223,19.806,14.697,45.043-.865,7.808-5.153,14.814-10.775,20.083-3.628,3.404-7.76,6.105-12.51,7.771,0,0-1.021-.958-1.021-.958.6-2.484,1.405-4.683,2.145-6.856,3.276-9.351,7.092-18.405,8.867-27.887.317-3.872.385-7.791.089-11.693-.427-5.524-3.072-10.886-6.65-15.251-1.418-1.789-3.423-4.179-4.536-6.193-3.766-5.97-2.957-13.995.575-19.85,2.816-4.593,7.025-8.028,12.247-9.317,0,0,.98,1,.98,1h0Z" fill="#9fd2ff"/>
      <path d="M152.09,301.577c4.812,4.827,8.362,13.147,7.588,19.89-.544,3.716-2.665,7.358-3.135,10.821-.924,5.201,1.119,10.6,2.367,15.697.405,1.594.549,3.132.906,4.37.601,2.383,1.592,3.494,2.688,5.44,3.092,5.418,7.046,8.481,11.659,13.625,0,0-.311,1.365-.311,1.365-1.956.781-3.938,1.197-5.947,1.315-7.044.481-14.468-2.764-18.467-8.818-4.52-7.053-3.373-16.218.462-23.124,2.485-4.635,3.197-10.138.467-14.865-1.197-2.376-2.549-4.51-2.995-7.069-.674-4.347-.304-8.727.931-13.005.557-1.79,1.228-3.595,2.398-5.466,0,0,1.389-.177,1.389-.177h0Z" fill="#90cfff"/>
      <path d="M120.572,304.965c3.658,4.807,5.622,10.164,6.984,15.86.604,2.861,1.382,5.77,1.52,8.744.171,3.994-.074,8.925.95,13.403,2.06,9.282,6.24,18.571,4.616,28.277-.399,4.207-1.754,9.54-3.091,13.122-1.129,3.215-1.792,6.562-2.104,10.161-.404,4.305-.31,8.638-.641,13.213,0,0-1.268.593-1.268.593-8.292-6.27-12.8-17.528-10.431-27.873,1.215-4.933,3.044-7.822,4.634-12.161,1.281-3.883,2.817-7.812,4.273-11.721,1.482-3.975,1.539-8.339-.273-12.219-1.713-3.902-5.634-7.026-7.886-11.519-1.146-2.212-1.772-4.691-1.986-7.171-.474-7.035.318-14.008,3.31-20.564,0,0,1.393-.145,1.393-.145h0Z" fill="#1589ff"/>
    </g>
    <g opacity=".74">
      <path d="M127.087,290.135c1.237,5.228,1.148,10.28.648,15.444-.682,5.029-1.232,9.479-3.296,14.22-.847,2.085-2.753,4.832-4.001,6.746-3.088,4.346-4.718,8.835-6.653,13.835-2.157,5.554-7.327,10.488-12.948,12.184-2.738.962-5.138,1.36-7.117,1.989-5.523,1.774-9.256,4.937-13.226,9.034-4.642,5.094-8.264,11.421-12.502,17.029,0,0-1.376-.258-1.376-.258-.706-2.627-1.06-5.3-1.102-8.012-.304-15.698,9.381-30.035,25.958-30.833,2.853-.222,5.356-.18,7.452-.051,3.123.214,5.89.391,8.511-1.297,2.839-1.765,4.143-5.152,4.966-8.438,1.55-7.196-.522-14.947,2.097-22.071,2.434-7.365,5.794-14.184,11.24-19.898,0,0,1.348.377,1.348.377h0Z" fill="#15d4ff"/>
    </g>
    <path d="M133.981,277.515c-3.004.444-13.894,2.579-18.352,11.949-4.698,9.875-.24,23.589,8.462,28.443,4.616,2.574,9.736,2.271,10.719,4.702,1.244,3.074-6.216,5.36-5.204,7.746,1.71,4.032,25.731,3.914,25.797,1.06.04-1.755-9.018-3.008-10.2-7.052-.774-2.649,2.925-4.825,6.394-8.071,1.339-1.253,13.722-13.04,12.871-22.125-.891-9.522-16.565-18.711-30.488-16.653Z" fill="#9db2f0" opacity=".72"/>
    <g opacity=".23">
      <path d="M131.014,299.982c4.568,6.781,7.157,14.414,8.184,22.414.976,6.904-2.576,14.145,1.992,20.263,5.054,6.984,9.048,15.201,8.141,24.138-.179,2.792-.678,5.25-.909,7.495-.745,8.345,1.335,15.889,5.084,23.335,2.042,4.16,4.736,8.359,7.329,13.29,0,0-.834,1.124-.834,1.124-14.408-2.984-27.433-16.314-26.302-31.698.368-5.773,2.444-11.365,4.686-16.213,1.986-4.125,4.186-8.067,2.792-12.705-.81-3.66-3.705-6.201-6.425-8.81-2.094-2.069-4.065-4.575-5.505-7.179-3.137-5.536-2.429-11.948-2.512-17.673.097-6.005.703-11.826,2.89-17.605,0,0,1.389-.177,1.389-.177h0Z" fill="#15d4ff"/>
    </g>
    <path d="M92.256,298.611c.18-8.732-9.903-11.741-10.269-20.156-.404-9.278,11.367-16.804,14.855-19.035,32.749-20.94,95.341-.853,97.211,18.939,1.15,12.169-20.955,21.027-17.675,36.575,1.63,7.728,8.739,13.355,8.041,13.99-1.146,1.043-15.919-18.131-26.038-14.718-3.893,1.313-3.807,4.86-9.595,7.093-1.007.389-7.964,2.96-13.989-.203-6.168-3.239-6.342-9.857-10.054-9.891-3.59-.033-4.408,6.146-8.816,6.737-4.205.563-5.68-4.762-11.165-6.91-9.817-3.844-21.598,6.754-22.985,4.85-1.261-1.731,10.289-8.006,10.48-17.271Z" fill="#85dcd0" opacity=".38"/>
    <path d="M168.214,301.461c-10.013,17.693-4.396,27.515,5.855,43.174,3.124,4.757,5.785,10.183,5.645,16.096.288,5.956-3.303,11.773-6.891,16.056-1.881,2.437-3.282,4.489-3.976,6.907-1.727,7.513,5.275,13.146,6.617,20.238,1.321,5.95.518,11.998-1.973,17.075,0,0-.578-.161-.578-.161.226-2.766.236-5.464-.076-8.075-.591-5.351-2.531-9.627-5.763-13.934-3.877-4.934-6.573-11.962-3.856-18.115,2.985-6.889,9.189-10.251,12.117-16.736,2.809-6.233,1.327-12.974-2.858-18.249-3.226-4.35-7.754-7.744-10.989-12.749-6.99-10.506-3.346-24.619,6.265-31.91,0,0,.46.384.46.384h0Z" fill="#4589ff"/>
    <path d="M188.003,316.035" fill="#d9dcf0"/>
    <path d="M103.255,295.064c-.051-5.355-9.692-6.369-11.245-11.451-2.482-8.12,15.103-26.018,36.216-29.306,24.55-3.823,51.157,12.531,51.322,25.529.086,6.757-8.029,10.425-7.962,21.985.036,6.158,2.333,11.07,1.023,11.709-2.314,1.129-11.293-13.304-15.199-11.537-.865.391-1.436,1.205-3.773,3.082-.6.482-1.398.957-2.59,1.386-.725.261-5.749,1.996-10.961.346-5.337-1.69-6.531-5.556-9.436-5.453-2.81.1-2.461,3.742-5.811,4.234-3.451.507-5.176-2.238-9.828-3.672-8.069-2.488-15.504,3.033-16.478,1.299-.796-1.418,4.761-4.068,4.722-8.151Z" fill="#cbdcf0" opacity=".38"/>
    <g opacity=".32">
      <path d="M93.456,264.658c29.895,8.595,58.731,10.331,89.447,5.469-28.384,11.868-62.714,9.742-89.447-5.469h0Z" fill="#f2b6ff"/>
    </g>
    <g opacity=".32">
      <path d="M84.248,270.055c35.061,15.363,70.274,17.488,106.94,6.539-33.057,17.93-76.307,15.259-106.94-6.539h0Z" fill="#8db6ff"/>
    </g>
  </g>
  <g>
    <g opacity=".83">
      <g>
        <path d="M357.008,363.962c4.991-4.562,11.331-11.532,9.53-17.29-2.624-8.388-20.534-7.835-21.625-14.392-1.198-7.196,19.439-13.455,18.091-20.475-1.021-5.317-13.4-4.522-16.104-10.899-1.976-4.661,1.267-13.037,19.588-28.967" fill="url(#linear-gradient25)"/>
        <path d="M356.468,363.371c.944-3.02,2.07-5.624,2.904-8.084.415-1.218.76-2.375.988-3.421.218-1.041.268-1.952.159-2.531-.107-.599-.362-.717-.479-.629-.163.098-.138.145-.566-.123-.799-.517-2.739-1.574-4.928-2.918-2.215-1.361-4.71-3.072-7.379-5.221-1.315-1.15-2.776-2.342-4.01-4.359-.59-1.013-1.031-2.262-1.079-3.499-.075-1.25.267-2.415.69-3.36.922-1.861,2.101-3.029,3.195-4.127,1.112-1.085,2.216-2.059,3.283-3.048,2.13-1.951,4.138-4.018,5.752-6.139.795-1.049,1.485-2.127,1.885-3.017.211-.447.29-.849.262-1.096-.05-.199-.212-.314-.467.103-.245.383-.351,1.085-.207,1.739.133.704.476,1.185.524,1.321.058.162-.113.111-.431.036l-1.329-.327c-1.077-.261-2.439-.547-3.971-.966-1.532-.44-3.279-.967-5.258-2.017-.977-.52-2.051-1.21-3.102-2.116-1.052-.894-2.12-2.066-2.971-3.479-.87-1.386-1.465-3.007-1.8-4.565-.317-1.589-.36-3.088-.233-4.466.08-.656.177-1.311.291-1.958.146-.574.311-1.143.48-1.708.165-.593.369-1.045.578-1.545.213-.474.417-1.009.651-1.421.916-1.755,1.944-3.266,3.026-4.572,2.142-2.654,4.475-4.749,6.918-6.567,2.429-1.847,4.994-3.378,7.655-4.732,1.352-.642,2.704-1.271,4.107-1.818,1.426-.517,2.849-1.022,4.357-1.406l1.05,1.207c-.561,1.455-1.208,2.79-1.851,4.113-.635,1.327-1.297,2.599-1.972,3.843-1.301,2.513-2.669,4.887-3.901,7.197-1.264,2.292-2.405,4.536-3.26,6.539-.434,1.009-.727,1.941-.94,2.714-.14.709-.239,1.366-.135,1.355.048,0,.044-.105.02-.337-.043-.211-.156-.511-.308-.715-.337-.467-.497-.341-.073.022.405.363,1.228.901,2.286,1.431,1.061.554,2.33,1.133,3.835,1.874.758.379,1.565.789,2.476,1.333.913.555,1.938,1.22,3.05,2.282.266.244.559.559.837.88.271.298.557.682.821,1.063.524.768.988,1.702,1.303,2.682.651,1.949.573,4.09.059,5.821-.51,1.788-1.385,2.899-2.169,3.862-.402.43-.822.858-1.217,1.171-.405.355-.798.642-1.186.91-1.547,1.081-3.026,1.738-4.445,2.349-2.827,1.189-5.48,2.122-7.813,3.452-1.161.653-2.245,1.386-3.143,2.206-.905.797-1.595,1.769-1.714,2.49-.081.729.261.836.737.963.507.164,1.533.373,2.679.445,2.351.206,5.184.077,8.159.638,1.499.274,3.053.699,4.683,1.42,1.627.719,3.33,1.746,5.037,3.304,1.682,1.521,3.378,3.899,4.105,6.621.736,2.735.455,5.479-.269,7.569-.725,2.12-1.778,3.78-2.921,5.148-1.156,1.353-2.396,2.472-3.694,3.43-2.627,1.867-5.406,3.213-8.542,3.934l-1.079-1.181Z" fill="url(#linear-gradient26)"/>
      </g>
      <g>
        <path d="M357.733,364.256c-4.044-5.816-8.969-14.349-6.176-19.469,4.07-7.459,21.432-2.013,23.678-8.107,2.464-6.688-16.528-18.445-13.949-24.919,1.954-4.905,13.88-.737,17.666-6.214,2.767-4.003,1.114-13.058-13.878-33.609" fill="url(#linear-gradient27)"/>
        <path d="M357.076,364.713c-2.916-1.419-5.347-3.342-7.536-5.692-1.07-1.203-2.083-2.49-2.95-4.019-.862-1.53-1.616-3.251-2.038-5.366-.399-2.101-.397-4.819.776-7.574.248-.683.665-1.333,1.046-1.979.433-.599.892-1.239,1.406-1.74,1.018-1.106,2.143-1.853,3.238-2.515,2.184-1.2,4.188-1.759,5.996-2.035,1.808-.268,3.441-.257,4.975-.118,3.031.259,5.773,1.155,7.964,1.536,1.107.237,1.919.229,2.182.369.147.081.293.097.446-.062.158-.136.196-.53.137-.972-.143-.928-.731-2.049-1.486-3.06-.757-1.028-1.681-2.003-2.689-2.923-2.016-1.862-4.399-3.431-6.884-5.262-1.243-.931-2.529-1.915-3.783-3.281-.315-.334-.631-.699-.945-1.115-.313-.378-.628-.868-.926-1.349-.56-1.057-1.183-2.245-1.379-4.057-.207-1.752.048-3.965,1.189-5.912.287-.482.596-.972.951-1.382.354-.431.728-.833,1.108-1.157.191-.167.393-.34.588-.49l.566-.4c.399-.277.748-.472,1.109-.667,1.432-.759,2.617-1.105,3.652-1.386,1.032-.271,1.943-.449,2.755-.599,1.635-.296,2.995-.514,4.115-.768,1.104-.23,1.95-.557,2.191-.752.126-.087.039-.142-.169-.036-.211.092-.55.365-.79.7-.141.127-.233.319-.29.469-.083.096-.107.282-.131.348-.03.038-.015.13-.004.139-.011-.035,0-.065.038-.099.014-.073.003-.21.022-.315.033-.09.021-.273.011-.45l-.011-.545-.075-.664c-.101-.908-.307-1.988-.563-3.118-.557-2.264-1.252-4.75-2.045-7.315l-1.184-3.924c-.42-1.328-.806-2.687-1.192-4.069-.398-1.379-.772-2.785-1.115-4.232-.345-1.448-.689-2.908-.923-4.465l1.293-.943c1.394.723,2.678,1.542,3.961,2.374,1.26.85,2.444,1.773,3.629,2.704,1.162.952,2.275,1.96,3.378,2.983,1.056,1.074,2.14,2.124,3.125,3.289,2.014,2.283,3.861,4.802,5.467,7.705.808,1.459,1.555,3.021,2.16,4.823l.436,1.374c.139.475.233,1.016.343,1.525.24.981.329,2.225.384,3.416-.006.665-.037,1.333-.092,1.998-.079.702-.239,1.475-.397,2.201-.186.745-.512,1.571-.821,2.329-.355.781-.825,1.569-1.314,2.301-1.045,1.484-2.422,2.73-3.794,3.601-1.372.883-2.738,1.43-3.94,1.787-2.421.693-4.368.765-6.048.807-1.669.014-3.109-.077-4.263-.118l-1.409-.047c-.338-.018-.521-.01-.359-.177.045-.044.075-.093.183-.173.043-.038.083-.079.12-.124.053-.048.122-.105.176-.164.2-.236.487-.6.658-.989.368-.769.357-1.539.189-1.905-.387-.704-.559.289-.313,1.251.23,1.01.674,2.24,1.218,3.463,1.104,2.472,2.576,4.974,4.219,7.354l2.548,3.645c.852,1.274,1.745,2.574,2.471,4.315.327.892.669,1.906.621,3.167-.018,1.225-.416,2.592-1.203,3.725-.783,1.15-1.772,1.888-2.662,2.499-.919.601-1.779,1.053-2.607,1.441-1.661.777-3.209,1.327-4.661,1.852-1.454.521-2.829.927-4.091,1.293l-5.333,1.438c-.113.035-.2.027-.157-.066.011-.081.037-.253.016-.332-.067-.232-.381-.064-.563.617-.172.679-.217,1.686-.18,2.806l.044.869c.027.299.077.598.098.908.04.623.157,1.257.234,1.914.353,2.646.923,5.468,1.198,8.652l-1.314.913Z" fill="url(#linear-gradient28)"/>
      </g>
    </g>
    <g opacity=".54">
      <g>
        <path d="M382.332,373.089c2.436-5.732,5.231-14.347,2.466-20.683-4.027-9.232-16.797-6.621-19.254-13.944-2.696-8.036,10.585-17.427,7.826-25.247-2.09-5.924-10.811-3.65-14.384-10.59-2.612-5.073-2.407-14.94,6.742-35.053" fill="url(#linear-gradient29)"/>
        <path d="M381.595,372.776c-.434-3.053-.534-5.788-.794-8.325-.115-1.262-.267-2.457-.435-3.573-.198-1.106-.412-2.125-.678-3.013-.288-.872-.597-1.607-.921-2.182-.359-.548-.658-.96-.992-1.258-.331-.31-.701-.587-1.219-1.028-.531-.428-1.256-.971-2.151-1.618l-3.171-2.234c-1.193-.875-2.513-1.788-3.868-2.99-1.329-1.186-2.753-2.693-3.659-4.552-.911-1.859-1.188-3.799-1.09-5.589.098-1.798.574-3.358,1.065-4.808.509-1.448,1.091-2.78,1.639-4.094,1.103-2.601,2.077-5.226,2.54-7.662.233-1.204.307-2.351.196-3.186-.036-.434-.187-.749-.315-.981-.147-.2-.302-.311-.446-.297-.048-.01-.147.02-.188.038-.068.042-.114.117-.122.167-.064.158.001.371.007.483.037.239-.426.061-1.456-.154-1.008-.237-2.454-.538-4.187-1.117-1.738-.603-3.86-1.577-5.804-3.173-.99-.782-1.862-1.735-2.674-2.74-.712-1.01-1.46-2.104-1.918-3.177-1.007-2.159-1.539-4.342-1.71-6.292-.134-1.018-.106-1.915-.124-2.875.047-.887.091-1.809.207-2.655.219-1.711.578-3.317,1.025-4.843.863-3.064,2.106-5.799,3.524-8.381,1.403-2.591,3.065-4.965,4.885-7.22.929-1.115,1.898-2.196,2.917-3.242,1.063-1.022,2.13-2.03,3.323-2.963l1.456.662c.113,1.513.099,2.952.084,4.378.006,1.429-.069,2.812-.127,4.182-.098,2.737-.321,5.374-.45,7.909-.147,2.53-.28,4.978-.265,7.198.038,2.201.163,4.278.496,5.601.126.708.316,1.136.396,1.415.01.034.018.07.023.108.013.021.029.032.037.052.016.035.007.098.011.137.033.032-.014.135.035.206.055.179.283.553,1,1.005.729.47,1.828,1.001,3.314,1.728.372.184.735.361,1.191.612.441.244.827.437,1.34.77.929.57,1.994,1.334,2.977,2.345.492.548.992,1.03,1.396,1.68.393.631.82,1.276,1.074,1.936.26.661.525,1.332.69,1.999.133.663.269,1.324.297,1.982.128,1.327-.063,2.569-.298,3.698-.293,1.093-.675,2.102-1.122,2.942-.87,1.731-1.935,3.022-2.959,4.175-2.058,2.285-4.075,4.107-5.585,6.173-.757,1.019-1.396,2.077-1.81,3.141-.413,1.055-.621,2.137-.438,3.022.164.877.658,1.615,1.304,1.942.629.346,1.428.467,2.452.526,2.027.159,4.747-.088,7.889.628,1.579.362,3.286.964,4.998,1.997,1.714,1.029,3.377,2.543,4.684,4.35,1.309,1.822,2.163,3.86,2.655,5.845.449,1.989.548,3.911.412,5.709-.328,3.577-1.489,6.63-3.047,9.286-1.595,2.644-3.525,4.952-6.041,6.824l-1.473-.626Z" fill="url(#linear-gradient30)"/>
      </g>
      <g>
        <path d="M382.929,373.343c-4.397-6.155-10.12-15.296-9.41-21.418,1.034-8.919,14.936-4.658,15.003-11.826.073-7.865-16.611-19.109-16.402-26.745.159-5.784,9.818-2.374,11.151-9.011.975-4.851-2.523-14.947-18.564-36.618" fill="url(#linear-gradient31)"/>
        <path d="M382.278,373.808c-2.917-1.363-5.368-3.175-7.623-5.272-2.236-2.115-4.231-4.526-5.833-7.538-.794-1.516-1.496-3.163-1.938-5.172-.417-1.995-.678-4.322.048-7.145.366-1.378,1.015-2.871,1.963-4.136.92-1.268,2.089-2.337,3.214-3.048,1.126-.733,2.233-1.211,3.238-1.547.999-.314,1.923-.51,2.776-.625,1.687-.21,3.106-.188,4.238-.105,1.13.109,1.808.11,1.904.571.07.226.231.507.442.423.205-.097.373-.428.454-.845.154-.868-.143-2.064-.65-3.178-1.05-2.274-2.886-4.339-4.898-6.204-2.031-1.885-4.384-3.52-6.814-5.415-1.214-.958-2.463-1.979-3.655-3.302-1.182-1.347-2.455-2.869-3.237-5.467-.091-.331-.177-.665-.256-1.002-.066-.363-.115-.749-.159-1.128-.053-.365-.06-.787-.046-1.223,0-.409.049-.888.129-1.377.142-.956.498-2.056,1.034-3.072.56-1,1.309-1.941,2.055-2.609,1.543-1.411,2.91-2.015,3.946-2.484,1.054-.456,1.871-.74,2.523-.997,1.291-.466,1.942-.959,1.522-.908-.2.037-.656.322-.997.723-.356.393-.531.807-.614.958-.056.034-.078.076-.087.099-.039-.051-.062-.097-.059-.144-.075-.222-.091-.441-.196-.827-.053-.308-.208-.795-.304-1.203l-.422-1.449c-.625-2.05-1.465-4.392-2.341-6.808-.882-2.409-1.833-4.92-2.751-7.5-.936-2.578-1.846-5.232-2.681-7.987-.824-2.763-1.624-5.586-2.14-8.66l1.286-.952c2.773,1.422,5.254,3.1,7.605,4.912,2.349,1.815,4.537,3.79,6.601,5.905,1.047,1.049,2.008,2.176,2.995,3.295.931,1.176,1.904,2.308,2.762,3.581,1.788,2.471,3.414,5.142,4.717,8.32.328.811.607,1.652.893,2.515.235.943.518,1.784.669,2.857.344,2.011.581,4.357-.108,7.426-.364,1.514-1.047,3.252-2.178,4.803-1.112,1.561-2.607,2.817-3.977,3.607-1.377.799-2.619,1.212-3.656,1.5-1.041.281-1.906.43-2.602.541-.692.106-1.222.18-1.479.195-.268.003-.195-.021.289-.518.197-.236.52-.615.695-1.037.206-.406.28-.86.292-1.13.005-.149-.013-.286-.026-.346-.021-.09-.052-.164-.076-.181-.027-.032-.071-.068-.112-.085l-.088.028c-.278.153-.252,1.156-.028,2.197.245,1.063.646,2.293,1.151,3.524,1.019,2.48,2.398,4.985,3.999,7.321,1.602,2.364,3.383,4.568,5.236,7.055.913,1.27,1.888,2.598,2.643,4.458.362.946.634,2.018.671,3.306.015,1.295-.39,2.906-1.227,4.191-.824,1.296-1.857,2.208-2.763,2.896-.92.69-1.769,1.204-2.544,1.665-1.533.893-2.835,1.526-3.821,2.095-.482.28-.88.526-1.171.736-.279.2-.414.366-.44.415-.037.06.124-.019.211-.176.099-.16.149-.367.136-.409-.067-.14-.232.387-.267,1.133-.062.753.052,1.788.203,2.886.311,2.224.906,4.771,1.492,7.453.563,2.708,1.23,5.519,1.536,8.696l-1.302.93Z" fill="url(#linear-gradient32)"/>
      </g>
    </g>
    <g opacity=".83">
      <g>
        <path d="M334.534,354.839c6.148-2.815,14.317-7.51,14.365-13.543.07-8.788-17.15-13.744-16.182-20.321,1.063-7.217,22.624-6.859,23.49-13.954.656-5.375-11.373-8.407-11.995-15.305-.454-5.042,5.197-12.023,27.514-21.581" fill="url(#linear-gradient33)"/>
        <path d="M334.201,354.112c1.823-2.586,3.692-4.721,5.239-6.807.768-1.032,1.45-2.029,1.988-2.954.526-.924.853-1.777.926-2.361.081-.603-.125-.793-.264-.746-.185.044-.175.096-.501-.29-.603-.737-2.126-2.337-3.799-4.286-1.692-1.974-3.543-4.366-5.426-7.229-.9-1.497-1.926-3.079-2.483-5.378-.251-1.145-.289-2.469.044-3.661.311-1.213.993-2.217,1.686-2.987,1.447-1.489,2.927-2.24,4.305-2.951,1.391-.692,2.74-1.281,4.058-1.896,2.625-1.205,5.169-2.558,7.355-4.083,1.078-.755,2.065-1.57,2.718-2.295.337-.361.536-.719.585-.963.013-.205-.106-.364-.476-.045-.351.29-.667.926-.729,1.592-.089.711.091,1.274.094,1.418.006.172-.142.071-.422-.098l-1.165-.718c-.945-.578-2.155-1.267-3.485-2.135-1.324-.888-2.825-1.924-4.389-3.529-.771-.794-1.582-1.78-2.305-2.964-.728-1.174-1.385-2.616-1.763-4.221-.404-1.586-.475-3.311-.316-4.897.184-1.61.602-3.05,1.145-4.323.277-.6.57-1.194.877-1.775.314-.502.646-.993.98-1.479.338-.515.671-.882,1.023-1.294.348-.386.706-.833,1.055-1.154,1.409-1.39,2.85-2.514,4.281-3.426,2.852-1.871,5.714-3.151,8.596-4.134,2.878-1.015,5.788-1.687,8.736-2.161,1.484-.197,2.963-.382,4.466-.474,1.516-.056,3.025-.101,4.578-.005l.63,1.471c-.98,1.213-2.004,2.287-3.021,3.349-1.01,1.069-2.03,2.077-3.053,3.055-2.008,1.995-4.037,3.836-5.917,5.657-1.905,1.795-3.678,3.583-5.105,5.227-.722.828-1.286,1.625-1.726,2.295-.35.632-.645,1.227-.544,1.248.046.015.074-.086.122-.315.023-.214.008-.535-.074-.775-.177-.548-.369-.477-.076-.002.275.469.894,1.233,1.738,2.062.84.852,1.872,1.792,3.077,2.958.606.593,1.248,1.23,1.949,2.027.699.808,1.471,1.755,2.205,3.106.178.314.361.703.528,1.094.167.367.322.819.457,1.263.264.891.419,1.922.419,2.953.023,2.055-.706,4.069-1.726,5.559-1.033,1.546-2.206,2.336-3.247,3.013-.514.286-1.046.565-1.517.742-.495.214-.956.367-1.407.504-1.803.556-3.413.728-4.951.876-3.055.267-5.867.343-8.494.895-1.305.267-2.562.633-3.668,1.138-1.106.482-2.06,1.196-2.394,1.846-.3.67-.008.876.406,1.143.432.312,1.345.824,2.415,1.244,2.175.916,4.912,1.66,7.572,3.105,1.343.72,2.693,1.6,4.023,2.785,1.329,1.183,2.636,2.682,3.784,4.688,1.135,1.963,2.022,4.745,1.882,7.56-.137,2.829-1.244,5.355-2.573,7.124-1.339,1.796-2.849,3.054-4.356,4.007-1.515.934-3.038,1.62-4.566,2.135-3.073.974-6.13,1.404-9.336,1.13l-.666-1.455Z" fill="url(#linear-gradient34)"/>
      </g>
      <g>
        <path d="M335.135,355.342c-2.07-6.775-4.147-16.405.08-20.425,6.158-5.855,21.02,4.644,25.023-.47,4.393-5.612-10.088-22.619-5.652-27.993,3.361-4.071,13.44,3.547,18.72-.509,3.859-2.964,5.057-12.09-2.924-36.244" fill="url(#linear-gradient35)"/>
        <path d="M334.37,355.575c-2.342-2.243-4.068-4.818-5.432-7.725-.65-1.473-1.221-3.008-1.578-4.729-.353-1.72-.543-3.589-.298-5.733.264-2.123,1.098-4.709,3.058-6.973.445-.574,1.041-1.066,1.602-1.564.596-.438,1.228-.906,1.871-1.226,1.308-.742,2.607-1.108,3.853-1.403,2.446-.474,4.525-.393,6.332-.102,1.803.298,3.355.808,4.772,1.41,2.806,1.174,5.142,2.867,7.112,3.9.981.564,1.757.806,1.964,1.019.116.122.249.182.444.078.192-.081.348-.444.428-.883.148-.928-.069-2.174-.478-3.368-.406-1.21-.987-2.421-1.665-3.606-1.349-2.39-3.138-4.613-4.943-7.117-.899-1.267-1.822-2.597-2.597-4.282-.198-.414-.387-.858-.558-1.351-.182-.455-.332-1.018-.469-1.568-.21-1.178-.439-2.499-.071-4.285.339-1.732,1.259-3.76,2.942-5.265.42-.371.865-.743,1.329-1.024.469-.302.948-.571,1.409-.762.233-.101.479-.203.709-.286l.662-.208c.465-.142.856-.22,1.26-.295,1.596-.284,2.829-.251,3.901-.201,1.066.058,1.987.167,2.806.273,1.647.219,3.009.427,4.152.528,1.122.119,2.027.067,2.316-.045.147-.045.08-.123-.15-.087-.229.023-.635.179-.966.424-.173.078-.319.233-.42.358-.109.066-.188.236-.231.291-.041.027-.054.119-.047.131,0-.036.021-.062.066-.082.036-.065.067-.199.117-.293.059-.076.104-.253.148-.425l.156-.522.132-.655c.181-.895.316-1.986.419-3.141.162-2.326.262-4.906.292-7.59l.074-4.098c.007-1.393.055-2.805.111-4.239.043-1.435.118-2.888.233-4.37.115-1.484.234-2.98.488-4.533l1.519-.502c1.106,1.115,2.077,2.288,3.044,3.472.94,1.195,1.784,2.436,2.627,3.685.815,1.262,1.565,2.562,2.302,3.874.677,1.346,1.387,2.677,1.968,4.088,1.219,2.79,2.206,5.754,2.846,9.008.322,1.636.556,3.352.58,5.252l-.006,1.442c-.013.495-.09,1.039-.14,1.557-.072,1.007-.367,2.219-.68,3.369-.209.631-.444,1.258-.699,1.874-.29.644-.679,1.331-1.052,1.974-.405.653-.969,1.339-1.494,1.966-.577.634-1.265,1.241-1.955,1.788-1.449,1.093-3.142,1.857-4.714,2.267-1.576.421-3.044.523-4.298.495-2.517-.082-4.393-.609-6.004-1.083-1.593-.498-2.936-1.024-4.022-1.418l-1.327-.476c-.316-.12-.493-.169-.288-.278.057-.028.099-.065.228-.108.053-.023.103-.05.152-.081.065-.029.148-.063.218-.103.263-.164.647-.422.929-.74.585-.619.811-1.356.763-1.756-.153-.789-.621.104-.681,1.095-.09,1.032-.044,2.338.099,3.67.294,2.691.929,5.523,1.765,8.292l1.31,4.25c.421,1.474.874,2.984,1.032,4.864.038.949.053,2.019-.379,3.205-.393,1.16-1.19,2.34-2.285,3.178-1.098.855-2.265,1.255-3.299,1.565-1.059.29-2.016.458-2.923.574-1.819.232-3.461.281-5.004.337-1.544.05-2.977.017-4.291-.021l-5.518-.263c-.119-.002-.198-.036-.129-.111.036-.073.112-.229.117-.311.007-.242-.343-.177-.725.415-.372.594-.723,1.539-1.03,2.616l-.224.841c-.066.293-.11.592-.185.895-.152.605-.235,1.245-.363,1.894-.474,2.627-.795,5.488-1.508,8.603l-1.53.468Z" fill="url(#linear-gradient36)"/>
      </g>
    </g>
    <g opacity=".53">
      <path d="M400.688,289.382c11.831,4.61,18.106,20.245,11.963,31.586-1.663,2.949-4.331,5.859-6.626,8.324-4.296,4.572-7.821,10.183-9.062,16.214-.883,4.325-1.366,8.731-1.474,13.116.049,4.09,1.048,7.996,1.909,12.115,1.216,6.053,3.639,13.809,5.483,20.096.68,2.448,1.434,4.919,1.958,7.654,0,0-1.105.859-1.105.859-4.903-2.512-9.067-6.019-12.601-10.181-5.49-6.452-9.404-14.556-9.614-23.181-.132-6.604,1.291-13.451,4.798-19.1,5.34-7.906,14.424-13.919,15.547-24.039.311-2.271.375-4.451.368-6.696.051-4.064.623-7.692.124-11.797-.446-4.669-1.748-9.112-2.737-14.065,0,0,1.068-.905,1.068-.905h0Z" fill="#9fd2ff"/>
      <path d="M349.35,285.434c2.41,5.83,2.588,11.883,1.743,17.929-.411,3.893-2.341,7.097-4.365,10.433-2.593,4.18-3.149,9.093-1.866,13.782.766,2.907,1.971,5.723,2.602,8.672,1.053,5.695.654,12.508-2.709,17.695-5.825,9.214-18.671,12.267-28.366,7.942,0,0-.184-1.388-.184-1.388,6.784-5.493,12.559-9.191,16.968-16.183,2.11-3.03,2.503-7.445,3.906-11.093,1.666-4.663,3.253-9.568,2.976-14.436-.117-3.885-1.842-8.099-1.964-12.237-.153-3.957,1.264-7.664,2.792-11.262,1.769-3.779,3.847-7.204,7.1-10.158,0,0,1.367.304,1.367.304h0Z" fill="#90cfff"/>
      <path d="M384.017,292.409c2.109,6.943,2.099,13.943,1.287,20.993-.483,3.391-1.392,6.795-3.222,9.718-2.842,4.741-7.289,7.934-9.557,12.129-2.368,4.162-2.842,9.014-1.763,13.617,1.063,4.542,2.246,9.11,3.223,13.59,1.234,4.981,2.949,8.508,3.801,14.032.433,3.087.312,6.212-.263,9.143-1.59,8.349-6.536,15.849-13.411,20.555,0,0-1.208-.707-1.208-.707.488-7.094,1.687-13.992,1.05-20.878-.404-4.591-1.566-7.467-2.347-12.373-.404-2.605-.656-5.33-.739-8.03-1.156-13.548,7.233-25.219,9.28-38.203.726-4.762,1.155-9.128,2.684-13.526,1.372-4.686,2.981-9.384,5.36-13.704,1.244-2.255,2.601-4.489,4.452-6.628,0,0,1.373.273,1.373.273h0Z" fill="#1589ff"/>
    </g>
    <g opacity=".74">
      <path d="M378.312,274.712c3.508,4.738,5.719,9.9,7.604,15.312,1.683,5.109,3.19,10.886,3.04,16.253-.129,8.662-2.76,19.94,4.309,26.507,2.715,2.256,5.875,2.555,9.419,2.733,2.373.139,5.149.375,8.242.934,17.981,2.715,26.892,19.182,25.448,36.259-.238,2.969-.804,5.88-1.721,8.718,0,0-1.394.129-1.394.129-.778-1.29-1.408-2.573-2.063-3.831-3.937-7.562-7.63-15.689-13.634-21.628-3.058-3.003-5.894-5.231-10.079-6.871-5.175-1.81-12.032-3.845-16.012-8.696-4.275-4.607-5.436-11.102-7.222-16.742-.872-2.655-2.035-5.229-3.32-7.773-1.099-2.263-2.827-5.516-3.519-7.922-.906-2.784-1.322-5.361-1.613-8.024-.623-5.398-.914-10.98-.406-16.491.275-2.828.662-5.677,1.545-8.618l1.377-.251h0Z" fill="#15d4ff"/>
    </g>
    <path d="M370.496,260.249c3.291.802,15.167,4.295,19.154,15.162,4.202,11.452-2.162,26.227-12.328,30.722-5.392,2.384-11.048,1.52-12.391,4.119-1.698,3.287,6.352,6.594,4.983,9.14-2.314,4.302-28.984,1.698-28.763-1.478.136-1.954,10.327-2.413,12.056-6.782,1.133-2.863-2.752-5.661-6.271-9.623-1.358-1.529-13.899-15.897-12.019-25.901,1.97-10.485,20.326-19.078,35.579-15.358Z" fill="#9db2f0" opacity=".72"/>
    <g opacity=".23">
      <path d="M372.924,285.833c2.007,8.573,1.168,17.144.208,25.714-.306,2.941-.583,5.587-1.594,8.609-1.085,3.296-3.05,6.104-5.323,8.679-2.078,2.364-4.692,4.373-6.98,6.316-4.07,3.359-6.28,8.622-5.322,13.707,1.072,5.303,3.393,9.918,4.46,15.603,2.497,10.028.494,21.046-6.496,28.933-6.207,7.271-14.831,12.024-24.176,13.534,0,0-.727-1.197-.727-1.197,5.122-7.161,10.01-12.749,13.683-20.038,3.016-6.333,4.732-12.428,4.592-19.533-.314-5.681-.879-12.198,1.039-18.094.958-3.228,2.479-6.188,4.185-8.764,2.266-3.896,5.722-6.837,7.77-10.657,2.304-4.623,1.634-9.535,1.935-14.565.343-4.363,1.532-8.863,3.09-12.962,2.124-5.524,4.56-10.792,8.29-15.59,0,0,1.367.304,1.367.304h0Z" fill="#15d4ff"/>
    </g>
    <path d="M414.671,287.979c.7-9.717,12.209-12.021,13.482-21.331,1.404-10.264-10.896-19.836-14.541-22.673-34.221-26.632-105.814-10.764-109.929,11.028-2.53,13.398,21.11,25.514,15.867,42.446-2.606,8.416-11.082,13.935-10.372,14.712,1.165,1.277,19.55-18.501,30.437-13.667,4.188,1.86,3.729,5.79,9.928,8.866,1.079.535,8.542,4.109,15.559,1.215,7.185-2.963,8.059-10.296,12.186-9.951,3.991.333,4.263,7.281,9.099,8.391,4.613,1.059,6.8-4.705,13.114-6.526,11.301-3.259,23.295,9.726,25.032,7.754,1.579-1.793-10.604-9.953-9.862-20.263Z" fill="#d9dcf0" opacity=".68"/>
    <path d="M330.694,282.85c11.255,8.559,14.04,25.912,4.677,36.96-6.471,7.573-15.594,10.651-18.973,19.925-1.734,4.576-.997,9.596,1.209,13.797,2.714,5.165,7.646,9.58,10.341,15.067,3.39,6.4,2.03,14.579-2.247,20.164-2.697,3.647-6.087,6.57-8.231,10.196-2.948,5.025-4.222,10.54-4.813,16.459,0,0-.984.178-.984.178-4.499-9.06-2.996-20.659,3.135-28.931,2.068-3.14,4.022-6.03,4.324-9.667.27-3.569-1.147-5.891-3.288-9.593-1.541-2.566-3.409-5.45-4.574-8.838-1.213-3.361-1.569-7.16-1.045-10.593.715-6.639,4.484-12.542,8.428-17.638,5.51-7.319,10.019-14.312,12.984-22.36,2.74-8.134.799-16.434-1.765-24.559,0,0,.824-.567.824-.567h0Z" fill="#4589ff"/>
    <path d="M306.524,297.474" fill="#d9dcf0"/>
    <path d="M402.819,282.906c.608-5.943,11.421-6.077,13.67-11.562,3.593-8.764-14.097-30.455-37.21-36.281-26.876-6.774-58.114,8.652-59.635,23.072-.791,7.497,7.845,12.407,6.58,25.24-.674,6.837-3.732,12.056-2.342,12.901,2.454,1.492,13.913-13.615,18.071-11.25.92.523,1.471,1.486,3.873,3.812.616.597,1.455,1.207,2.734,1.806.778.364,6.18,2.81,12.14,1.513,6.102-1.328,7.826-5.499,11.043-5.085,3.111.4,2.348,4.41,6.018,5.301,3.781.918,5.98-1.953,11.294-3.067,9.219-1.933,16.909,4.965,18.169,3.14,1.03-1.493-4.869-5.009-4.405-9.54Z" fill="#ffdc81" opacity=".38"/>
    <g opacity=".32">
      <path d="M416.834,250.142c-31.393,13.743-69.454,12.575-99.918-3.134,33.162,8.935,66.264,10,99.918,3.134h0Z" fill="#f2b6ff"/>
    </g>
    <g opacity=".32">
      <path d="M426.507,257.084c-36.432,20.661-84.401,19.183-119.459-3.748,39.294,16.316,79.229,17.592,119.459,3.748h0Z" fill="#8db6ff"/>
    </g>
  </g>
</svg>