<?xml version="1.0" encoding="UTF-8"?>
<svg id="Layer_1" xmlns="http://www.w3.org/2000/svg" width="500" height="500" version="1.1" xmlns:xlink="http://www.w3.org/1999/xlink" viewBox="0 0 500 500">
  <!-- Generator: Adobe Illustrator 29.6.1, SVG Export Plug-In . SVG Version: 2.1.1 Build 9)  -->
  <defs>
    <linearGradient id="linear-gradient" x1="250" y1="370.191" x2="250" y2="90.135" gradientUnits="userSpaceOnUse">
      <stop offset="0" stop-color="#2484c6"/>
      <stop offset="1" stop-color="#2484c6" stop-opacity="0"/>
    </linearGradient>
    <linearGradient id="linear-gradient1" x1="251.252" y1="500.607" x2="251.252" y2="220.551" xlink:href="#linear-gradient"/>
  </defs>
  <g>
    <rect y="230.163" width="500" height="269.676" fill="#006989"/>
    <rect y="-.161" width="500" height="233.872" fill="#8cd19b"/>
    <path d="M500,333.32c-48.445-30.236-88.925-37.674-116.428-39.064-115.152-5.819-173.333,85.767-284.936,75.064-43.569-4.178-77.566-22.247-98.636-36V114.767c69.407,42.725,123.634,47.873,160.678,44.426,80.956-7.534,114.708-59.364,202.979-67.915,56.52-5.475,104.598,9.777,136.343,23.489v218.553Z" fill="url(#linear-gradient)"/>
  </g>
  <g>
    <g>
      <path d="M298.054,160.676c5.129,9.445,19.547,8.302,22.072,8.101,8.685-.689,20.784-5.528,21.416-12.973.465-5.481-5.484-10.022-10.842-14.112-6.136-4.683-13.164-10.048-20.665-7.965-9.872,2.742-17.146,17.437-11.981,26.948Z" fill="#bb917b"/>
      <path d="M308.288,149.382c-1.693,4.189,4.387,11.925,11.775,13.806,7.41,1.886,16.433-2.04,16.984-6.387.632-4.989-9.769-11.531-19.086-11.263-1.303.037-8.215.236-9.673,3.845Z" fill="#977d7b"/>
    </g>
    <g>
      <path d="M187.85,163.352c-6.089,8.856-20.308,6.211-22.798,5.748-8.565-1.593-20.092-7.672-19.942-15.143.111-5.5,6.503-9.393,12.259-12.9,6.592-4.016,14.143-8.616,21.385-5.759,9.531,3.759,15.228,19.135,9.096,28.054Z" fill="#bb917b"/>
      <path d="M178.854,151.049c1.245,4.343-5.61,11.401-13.155,12.498-7.567,1.101-16.13-3.748-16.223-8.129-.107-5.028,10.922-10.445,20.16-9.205,1.292.173,8.145,1.094,9.218,4.836Z" fill="#977d7b"/>
    </g>
    <path d="M179.001,261.175c-10.124,2.527-18.797,4.692-25.198,10.954-13.45,13.158-9.246,36.952-5.055,60.666,4.728,26.761,7.464,42.245,20.222,57.296,18.618,21.964,45.009,26.996,68.038,31.386,19.578,3.732,33.555,2.905,61.508,1.249,48.025-2.844,72.037-4.266,81.73-18.944,13.331-20.186-1.166-52.383-3.16-56.664-7.897-16.959-15.779-17.164-26.12-37.074-13.218-25.45-4.264-32.672-13.893-44.262-19.869-23.916-65.613-2.328-125.133-7.135-3.894-.315-16.909-1.474-32.94,2.528Z" fill="#97737b"/>
    <path d="M197.319,271.286c-17.116,21.627-16.114,57.35,0,72.673,6.636,6.31,29.542,9.137,75.083,14.535.153.018,4.972.433,14.61,1.264,10.022.864,15.154,1.271,21.04.085,5.661-1.14,8.418-2.821,9.092-3.245,3.164-1.99,5.465-4.6,8.457-9.479,3.494-5.698,7.471-12.182,8.645-18.921,3.006-17.259-12.821-33.614-26.194-47.433-6.571-6.79-11.374-11.754-18.416-16.153-23.054-14.404-69.378-22.311-92.318,6.674Z" fill="#9d6951"/>
    <path d="M161.572,212.606c-4.751,4.079-8.822,8.353-8.822,8.354-5.797,6.769-11.28,16.361-15.166,37.055-4.713,25.094-7.069,37.641-1.264,49.712,8.69,18.069,27.648,24.827,31.432,26.176,23.592,8.409,35.403-5.261,62.786-3.005,2.229.184,8.02.759,11.118-2.701,3.2-3.573,2.286-10.09.828-13.729-7.206-17.99-48.96-11.407-50.768-21.907-.865-5.023,7.788-11.311,12.716-13.82,4.67-2.378,8.958-2.87,12.159-3.064,19.393-1.173,24.23,7.093,38.224,6.128,14.424-.995,15.219-10.186,31.288-10.553,8.341-.191,20.496,2.003,21.898,7.759,1.262,5.179-6.462,12.13-13.182,15.656-14.794,7.763-27.881.03-33.169,7.583-3.279,4.683-.815,11.323-.632,11.796,2.447,6.328,9.114,8.803,12.121,9.869,9.551,3.386,16.67.432,32.295-3.128,27.689-6.308,28.401-2.286,36.131-7.583,11.208-7.681,17.865-21.725,18.036-34.193.05-3.651-.479-5.53-7.583-28.579-4.711-15.283-7.066-22.924-7.162-23.171-14.966-38.458-145.28-47.282-183.286-14.655Z" fill="#bb917b"/>
    <path d="M186.731,218.826c-4.206,2.865-15.7,10.87-14.298,18.383.671,3.596,3.609,3.399,17.963,14.465,5.284,4.074,10.054,8.085,12.605,6.574,1.633-.968.949-3.364,2.354-3.966,3.553-1.524,11.382,12.337,15.078,10.843,1.833-.741,1.029-4.6,2.723-5.106,2.937-.877,6.609,10.344,12.262,10.213,3.344-.078,4.678-4.065,7.142-3.404,3.193.856,2.262,7.897,5.384,8.851,3.001.917,5.271-5.16,11.793-5.787,2.976-.286,2.783.953,5.765.681,6.372-.581,7.968-6.302,13.18-5.959,2.944.194,3.425,2.084,5.507,1.534,3.664-.969,2.928-7.026,6.712-8.511,3.461-1.358,6.185,2.883,9.532,1.362,2.565-1.166,1.562-3.928,5.004-7.322,3.011-2.968,4.662-1.725,6.911-4.366,3.161-3.711,1.249-7.75,4.085-9.418,2.277-1.34,4.383.748,6.106-.681,1.942-1.611,1.299-5.953,0-8.851-2.058-4.589-6.321-6.803-7.467-7.399-5.286-2.746-77.782-36.579-128.34-2.133Z" fill="#9d6951"/>
    <path d="M205.355,180.655c-13.501-7.062-35.973.164-42.283,13.745-2.758,5.936-1.376,13.348,1.433,18.27,4.605,8.069,13.201,9.718,25.811,14.327,22.683,8.291,20.698,12.394,35.108,16.852,27.339,8.456,52.61-.708,64.598-5.055,11.847-4.296,42.585-15.443,42.845-32.58.104-6.851-5.038-12.259-8.299-15.728-7.669-8.16-22.09-15.694-32.018-11.184-12.876,5.85-4.944,25.941-20.222,39.832-10.336,9.397-28.739,13.634-40.725,7.022-17.738-9.786-8.953-36.453-26.247-45.499Z" fill="#c3a391"/>
    <path d="M339.382,199.894c-.262,1.091-.325,1.1-1.404,4.494-1.4,4.404-1.413,4.767-1.966,5.898-.551,1.127-1.052,1.818-3.146,4.424-3.485,4.335-5.227,6.503-6.122,7.373-3.453,3.356-3.778,2.307-6.951,5.547-2.672,2.729-3.086,4.132-5.687,5.687-1.616.966-2.388.983-4.985,1.896-4.299,1.512-5.777,2.521-8.988,4.213-2.908,1.532-5.816,2.166-11.515,3.37-20.097,4.247-30.145,6.371-40.766,6.53-22.79.342-34.282-8.162-83.585-32.159-1.278-.622-3.275-1.592-5.266-3.581-1.608-1.606-1.593-2.415-3.792-4.845-1.93-2.132-2.399-2.066-3.367-3.511-.948-1.414-1.252-2.603-1.899-5.336-1.291-5.456-1.937-8.184-1.919-8.707.039-1.177,3.816-12.684,2.582-8.988h0c-.729-5.268-.752-6.248-.752-6.248-.076-3.299.866-5.842,1.423-7.303,1.874-4.914,3.846-4.604,5.617-9.549.934-2.608.623-3.359,1.896-5.978.674-1.387,1.511-2.621,3.16-5.033.8-1.171,1.732-2.496,3.37-4.718,2.99-4.055,4.485-6.083,5.547-7.12,1.532-1.495,1.582-1.185,5.336-4.325,2.369-1.981,2.621-2.332,4.494-3.932,4.083-3.487,4.674-3.348,10.181-7.653,3.964-3.1,4.219-3.61,5.898-4.213,2.413-.866,3.243-.297,7.715-.772,3.945-.42,6.959-1.251,8.505-1.685,3.93-1.103,4.319-1.717,8.496-2.879,2.238-.623,4.147-1.154,6.46-1.404,4.084-.442,5.594.407,13.13,1.475,6.105.865,5.478.359,9.83,1.123,6.317,1.109,7.034,2.068,11.199,2.494,5.354.547,5.719-.879,11.34-.879,5.028,0,9.157,1.404,17.413,4.213,8.696,2.958,10.891,4.886,11.796,5.758,1.036.998,1.924,2.098,4.022,3.862,3.067,2.579,3.802,2.441,6.089,4.424,3.044,2.639,2.324,3.388,5.668,6.599,3.285,3.155,4.212,2.656,5.566,4.917,1.505,2.513,1.757,5.464,1.896,7.092.247,2.894-.258,3.867.562,5.617.808,1.725,1.946,2.165,3.422,3.478,1.503,1.338,1.44,1.876,5.581,10.217,2.523,5.082,3.093,5.982,3.635,8.212.293,1.204.566,2.743.913,4.704.477,2.695.716,4.042.772,5.126.073,1.388-.139,3.12-.562,6.583-.328,2.69-.5,4.064-.843,5.494Z" fill="#ffe9c1"/>
    <path d="M258.964,212.395c-4.61,3.959-20.807,1.572-23.17-2.563-.567-.992-.533-2.427.383-3.459,1.112-1.252,2.691-.971,5.653-2.567,2.404-1.296,2.397-2.037,3.617-2.041,2.105-.007,2.552,2.202,6.133,3.683,3.698,1.53,6.302.449,7.952,1.819,1.549,1.285,1.058,3.732-.567,5.128Z" fill="#78505b"/>
    <path d="M218.992,154.374c4.717,3.7,7.036,11.341,4.956,17.153-2.217,6.194-7.772,5.68-18.594,14.886-7.111,6.049-11.182,9.512-11.458,14.324-.538,9.357,13.472,20.316,26.401,20.222,5.401-.039,14.738-2.263,21.065-8.988,3.197-3.398,4.69-6.966,7.724-6.951,3.301.016,4.217,4.254,8.426,7.583,5.486,4.339,14.631,5.369,22.048,1.896,7.652-3.584,12.427-11.514,12.639-18.919.322-11.288-9.966-21.138-15.728-24.053-.65-.329-3.498-1.71-6.46-4.494-2.672-2.512-4.553-4.28-4.494-6.408.158-5.703,10.22-9.885,10.954-10.169,1.809-.7,4.093-1.558,7.092-1.398,3.808.203,5.14,1.853,9.83,3.651,1.005.386,10.254,3.875,11.796,1.664,1.269-1.819-2.455-7.819-7.652-11.146-7.023-4.495-16.503-3.959-23.594-.91-8.957,3.85-8.202,8.151-15.728,12.056-7.702,3.997-16.985.392-26.12-3.156-14.413-5.598-14.48-11.027-22.86-13.113-19.675-4.898-47.232,18.075-44.546,29.49,1.288,5.474,9.902,9.864,15.166,7.897,7.736-2.89,4.129-17.969,14.043-23.063,4.743-2.438,10.773-1.66,15.337-1.072,4.197.541,7.074.912,9.759,3.018Z" fill="#ffe"/>
    <path d="M192.315,162.975c-1.325,4.437-.515,10.767,3.12,12.784,1.971,1.094,4.724.27,10.15-1.422,7.353-2.293,11.029-3.44,12.396-5.898,2.677-4.816-.177-13.344-5.968-16.198-7.422-3.658-17.42,3.112-19.697,10.735Z" fill="#08002b"/>
    <path d="M205.824,155.561c-2.77-.373-4.966,1.125-5.749,1.737-2.205,1.726-3.931,4.835-3.089,5.922.591.763,2.475.566,3.721-.19,1.648-1,1.249-2.41,2.738-3.792,2.266-2.101,5.67-1.137,5.785-1.941.085-.591-1.704-1.508-3.406-1.737Z" fill="#e4ffee"/>
    <path d="M294.223,162.213c1.325,4.437.515,10.767-3.12,12.784-1.971,1.094-4.724.27-10.15-1.422-7.353-2.293-11.029-3.44-12.396-5.898-2.677-4.816.177-13.344,5.968-16.198,7.422-3.658,17.42,3.112,19.697,10.735Z" fill="#08002b"/>
    <path d="M282.385,154.909c-2.227-.516-5.432-.025-6.59,2.154-.671,1.263-.66,3.104.072,3.494,1,.533,2.285-2.212,5.318-2.822,3.122-.628,5.515,1.526,5.843,1.004.325-.516-1.693-3.147-4.643-3.83Z" fill="#e4ffee"/>
    <path d="M236.963,179.467c4.735-6.281,20.948-3.915,23.216,2.109.544,1.445.473,3.6-.474,5.215-1.149,1.96-2.729,1.657-5.746,4.272-2.449,2.123-2.461,3.234-3.687,3.331-2.115.167-2.508-3.11-6.068-5.064-3.677-2.018-6.321-.202-7.944-2.132-1.523-1.811-.967-5.517.702-7.732Z" fill="#8c505b"/>
    <g>
      <ellipse cx="215.912" cy="190.996" rx="1.021" ry="1.031" fill="#c3a391"/>
      <ellipse cx="230.886" cy="198.674" rx="1.021" ry="1.031" fill="#c3a391"/>
      <ellipse cx="231.56" cy="203.313" rx="1.021" ry="1.031" fill="#c3a391"/>
      <ellipse cx="225.759" cy="197.928" rx="1.021" ry="1.031" fill="#c3a391"/>
      <ellipse cx="222.711" cy="202.282" rx="1.021" ry="1.031" fill="#c3a391"/>
      <ellipse cx="226.78" cy="203.456" rx="1.021" ry="1.031" fill="#c3a391"/>
      <ellipse cx="219.952" cy="207.953" rx="1.021" ry="1.031" fill="#c3a391"/>
      <ellipse cx="211.704" cy="195.58" rx="1.021" ry="1.031" fill="#c3a391"/>
      <ellipse cx="217.613" cy="200.22" rx="1.021" ry="1.031" fill="#c3a391"/>
      <ellipse cx="214.891" cy="206.351" rx="1.021" ry="1.031" fill="#c3a391"/>
      <ellipse cx="231.907" cy="207.953" rx="1.021" ry="1.031" fill="#c3a391"/>
      <ellipse cx="221.69" cy="196.217" rx="1.021" ry="1.031" fill="#c3a391"/>
      <ellipse cx="218.634" cy="193.781" rx="1.021" ry="1.031" fill="#c3a391"/>
      <ellipse cx="226.78" cy="208.984" rx="1.021" ry="1.031" fill="#c3a391"/>
      <ellipse cx="214.55" cy="198.674" rx="1.021" ry="1.031" fill="#c3a391"/>
      <ellipse cx="213.87" cy="187.229" rx="1.021" ry="1.031" fill="#c3a391"/>
      <ellipse cx="210.683" cy="204.158" rx="1.021" ry="1.031" fill="#c3a391"/>
      <ellipse cx="207.874" cy="201.767" rx="1.021" ry="1.031" fill="#c3a391"/>
      <ellipse cx="209.662" cy="192.75" rx="1.021" ry="1.031" fill="#c3a391"/>
      <ellipse cx="205.832" cy="199.189" rx="1.021" ry="1.031" fill="#c3a391"/>
      <ellipse cx="204.811" cy="196.217" rx="1.021" ry="1.031" fill="#c3a391"/>
    </g>
    <g>
      <ellipse cx="275.694" cy="189.707" rx=".957" ry=".994" fill="#c3a391"/>
      <ellipse cx="261.652" cy="197.112" rx=".957" ry=".994" fill="#c3a391"/>
      <ellipse cx="261.02" cy="201.587" rx=".957" ry=".994" fill="#c3a391"/>
      <ellipse cx="266.46" cy="196.393" rx=".957" ry=".994" fill="#c3a391"/>
      <ellipse cx="269.319" cy="200.593" rx=".957" ry=".994" fill="#c3a391"/>
      <ellipse cx="265.502" cy="201.725" rx=".957" ry=".994" fill="#c3a391"/>
      <ellipse cx="271.906" cy="206.062" rx=".957" ry=".994" fill="#c3a391"/>
      <ellipse cx="279.64" cy="194.129" rx=".957" ry=".994" fill="#c3a391"/>
      <ellipse cx="274.099" cy="198.604" rx=".957" ry=".994" fill="#c3a391"/>
      <ellipse cx="276.651" cy="204.517" rx=".957" ry=".994" fill="#c3a391"/>
      <ellipse cx="260.694" cy="206.062" rx=".957" ry=".994" fill="#c3a391"/>
      <ellipse cx="270.276" cy="194.742" rx=".957" ry=".994" fill="#c3a391"/>
      <ellipse cx="273.141" cy="192.394" rx=".957" ry=".994" fill="#c3a391"/>
      <ellipse cx="265.502" cy="207.057" rx=".957" ry=".994" fill="#c3a391"/>
      <ellipse cx="276.971" cy="197.112" rx=".957" ry=".994" fill="#c3a391"/>
      <ellipse cx="277.609" cy="186.074" rx=".957" ry=".994" fill="#c3a391"/>
      <ellipse cx="280.597" cy="202.402" rx=".957" ry=".994" fill="#c3a391"/>
      <ellipse cx="283.232" cy="200.096" rx=".957" ry=".994" fill="#c3a391"/>
      <ellipse cx="281.555" cy="191.399" rx=".957" ry=".994" fill="#c3a391"/>
      <ellipse cx="285.147" cy="197.609" rx=".957" ry=".994" fill="#c3a391"/>
      <ellipse cx="286.104" cy="194.742" rx=".957" ry=".994" fill="#c3a391"/>
    </g>
    <path d="M305.706,368.167c-1.378,7.5,2.626,13.282,10.006,27.076,8.624,16.12,13.058,24.221,19.032,26.202,10.75,3.566,25.589-3.389,30.39-13.772,3.297-7.132-3.458-19.526-16.969-44.315-1.44-2.641-5.426-9.795-9.451-9.3-3.609.443-4.352,6.678-8.119,6.995-4.436.373-7.651-7.914-10.032-7.053-2.27.82-.698,8.835-2.823,9.467-1.766.525-3.657-4.769-6.413-4.616-2.652.147-4.876,5.27-5.619,9.316Z" fill="#bb917b"/>
    <path d="M248.507,343.144c4.72,8.106,2.496,16.468-.297,35.509-3.264,22.252-5.02,33.476-11.109,38.259-10.956,8.607-31.03,6.741-40.914-3.275-12.173-12.337,6.356-43.038,1.172-58.364-.364-1.076-1.881-5.177-.163-8.997,1.137-2.528,3.863-5.314,7.226-5.706,5.652-.658,8.602,5.968,12.313,4.712,3.612-1.222,2.834-8.182,5.975-8.866,3.428-.747,6.497,7.078,9.911,6.303,2.98-.677,2.44-7.102,5.499-8.016,3.13-.935,7.84,4.068,10.387,8.441Z" fill="#bb917b"/>
  </g>
  <path d="M501.252,463.736c-48.445-30.236-88.925-37.674-116.428-39.064-115.152-5.819-173.333,85.767-284.936,75.064-43.569-4.178-77.566-22.247-98.636-36v-218.553c69.407,42.725,123.634,47.873,160.678,44.426,80.956-7.534,114.708-59.364,202.979-67.915,56.52-5.475,104.598,9.777,136.343,23.489v218.553Z" fill="url(#linear-gradient1)"/>
</svg>