<?xml version="1.0" encoding="UTF-8"?>
<svg id="Layer_1" xmlns="http://www.w3.org/2000/svg" width="500" height="500" version="1.1" xmlns:xlink="http://www.w3.org/1999/xlink" viewBox="0 0 500 500">
  <!-- Generator: Adobe Illustrator 29.6.1, SVG Export Plug-In . SVG Version: 2.1.1 Build 9)  -->
  <defs>
    <linearGradient id="linear-gradient" x1="0" y1="365.162" x2="500" y2="365.162" gradientUnits="userSpaceOnUse">
      <stop offset="0" stop-color="#14b0ff"/>
      <stop offset="1" stop-color="#000142"/>
    </linearGradient>
    <linearGradient id="linear-gradient1" x1="0" y1="116.936" x2="500" y2="116.936" gradientUnits="userSpaceOnUse">
      <stop offset="0" stop-color="#542dff"/>
      <stop offset="1" stop-color="#910da2"/>
    </linearGradient>
    <linearGradient id="linear-gradient2" x1="250" y1="370.352" x2="250" y2="90.296" gradientUnits="userSpaceOnUse">
      <stop offset="0" stop-color="#2484c6"/>
      <stop offset="1" stop-color="#2484c6" stop-opacity="0"/>
    </linearGradient>
  </defs>
  <g>
    <rect y="230.324" width="500" height="269.676" fill="url(#linear-gradient)"/>
    <rect width="500" height="233.872" fill="url(#linear-gradient1)"/>
    <path d="M500,333.481c-48.445-30.236-88.925-37.674-116.428-39.064-115.152-5.819-173.333,85.767-284.936,75.064-43.569-4.178-77.566-22.247-98.636-36V114.928c69.407,42.725,123.634,47.873,160.678,44.426,80.956-7.534,114.708-59.364,202.979-67.915,56.52-5.475,104.598,9.777,136.343,23.489v218.553Z" fill="url(#linear-gradient2)"/>
  </g>
  <g>
    <path d="M364.782,138.365c3.215,5.573,1.794,10.859.536,20.678-2.288,17.861-1.153,36.025-3.034,53.933-5.797,55.188,46.875,102.122,27.215,136.52-13.025,22.789-53.58,32.7-72.158,18.357-12.095-9.338-18.809-31.995-8.828-44.363,6.195-7.677,17.658-9.947,26.484-8.414,2.329.405,12.448,2.163,18.04,11.091,1.224,1.954,5.606,8.952,2.687,16.445-2.482,6.369-9.578,11.394-16.793,10.326-.444-.066-7.918-1.295-10.458-7.649-2.347-5.87.48-13.706,5.373-15.297,2.141-.696,4.723-.212,6.525,1.147,3.777,2.849,3.1,8.765,2.936,8.796-.13.025.004-3.615-2.552-5.737-1.505-1.249-3.937-1.967-5.757-1.147-3.326,1.497-4.255,7.963-1.535,11.473,3.047,3.933,10.271,3.632,13.818,0,4.329-4.433,1.158-11.755.768-12.62-2.431-5.393-7.599-7.415-9.172-8.031-6.366-2.491-16.062-2.2-21.533,4.207-6.163,7.217-3.229,17.816,0,23.329,6.873,11.736,24.253,16.087,37.614,10.708,9.73-3.917,19.121-13.716,19.191-25.241.063-10.356-8.488-17.433-19.959-27.153-10.446-8.851-17.325-11.65-24.181-16.062-15.706-10.109-32.578-29.52-35.695-47.805-6.546-38.393,45.945-81.264,43.372-83.371-.179-.146-.422.069-4.606,1.53,0,0-2.605.91-6.909,2.295-5.924,1.907-13.32-2.423-22.262-3.059-9.315-.663-7.887,3.7-27.251,7.266-3.716.684-8.659,1.422-11.898,5.354-2.192,2.66-2.324,5.231-3.838,5.354-2.756.225-6.46-7.953-4.743-9.561.964-.903,2.878.201,5.511.765,1.585.339,5.701.958,21.11-6.884,9.309-4.737,14.006-7.185,16.12-11.091,2-3.694.968-5.215,3.071-9.943,0,0,2.964-6.686,10.363-12.185,15.604-11.598,44.45-7.795,52.431,6.04Z" fill="#ffd1fd"/>
    <path d="M311.584,241.267c3.194,24.89,14.997,38.433,12.437,40.156-2.968,1.997-23.494-13.054-27.406-35.184-4.385-24.807,13.934-48.186,17.272-47.04,2.661.914-5.526,16.955-2.303,42.068Z" fill="#c9ffff"/>
    <path d="M413.68,225.376c-1.495,15.938-18.648,27.652-32.049,26.217-3.369-.361-10.242-5.595-23.989-16.062-4.656-3.545-8.473-6.643-8.06-10.155.348-2.958,3.521-4.697,6.141-6.29,16.743-10.18,14.909-16.834,25.908-19.927,2.421-.681,11.664-3.28,20.151,1.57,8.861,5.065,12.722,15.865,11.898,24.647Z" fill="#ffd1fd"/>
    <path d="M321.51,147.791c.199,2.313-1.134,4.82-2.148,4.769-1.085-.055-1.709-3.037-1.876-3.832-.405-1.935-.65-5.385.43-5.747,1.033-.346,3.36,2.107,3.593,4.81Z" fill="#000742"/>
  </g>
  <g>
    <path d="M229.468,84.277c-.62.014-1.039,2.306-1.149,2.936-.909,5.214-.147,8.483-1.447,9.065-.672.301-1.394-.34-1.66,0-.378.483,1.163,1.675,1.787,3.829.516,1.778.388,4.145-.766,4.851-.875.536-2.03-.075-2.17.255-.151.354,1.212.975,2.17,2.043,2.166,2.414,2.014,6.834.766,7.404-.891.407-2.251-1.188-2.553-.894-.334.325,1.273,2.326,2.17,3.83,1.932,3.237,1.951,6.478,1.971,9.818.071,11.89-7.923,24.866-10.524,24.139-.491-.137-.983-.816-1.277-.638-.383.232.254,1.502.383,2.936.264,2.947-1.666,6.074-2.936,6-.924-.054-1.388-1.793-1.787-1.66-.365.122-.106,1.62,0,2.936.279,3.466-.351,7.547-1.538,7.787-.809.164-1.647-1.5-2.036-1.277-.304.175.154,1.226.383,2.936.109.814.476,3.555-.383,3.957-.787.368-2.117-1.456-2.553-1.149-.368.259.502,1.618.845,3.721.263,1.611.334,4.387-.845,4.96-.913.444-2.026-.702-2.499-.255-.393.371.186,1.345.711,3.064.422,1.382,1.382,4.522.255,5.489-.746.641-1.989-.03-2.298.511-.342.6.913,1.91,1.277,2.298,2.895,3.089,3.645,5.756,4.857,7.343,3.15,4.127,25.17,21.58,38.486,12.71,6.923-4.611,11.429-16.659,6.479-23.754-3.072-4.404-9.211-6.072-14.062-5.575-1.28.131-6.842.702-10.217,5.337-.739,1.014-3.385,4.648-2.084,8.828,1.106,3.553,4.768,6.551,8.727,6.245.244-.019,4.349-.402,5.97-3.756,1.497-3.098.26-7.461-2.337-8.511-1.136-.459-2.556-.295-3.587.375-2.159,1.404-2.017,4.642-1.929,4.665.07.018.135-1.963,1.604-3.018.865-.621,2.212-.918,3.17-.404,1.749.939,2.008,4.486.398,6.288-1.804,2.02-5.715,1.582-7.503-.525-2.182-2.571-.182-6.427.063-6.882,1.525-2.836,4.408-3.738,5.286-4.013,3.552-1.111,8.805-.584,11.533,3.102,3.073,4.153,1.076,9.797-.886,12.668-4.178,6.112-13.781,7.814-20.832,4.386-5.135-2.497-9.862-8.175-9.462-14.435.359-5.626,5.271-9.144,11.87-13.986,6.009-4.41,9.851-5.668,13.741-7.804,8.913-4.893,18.812-14.792,21.2-24.603,5.013-20.6-21.862-45.874-20.384-46.92.103-.073.227.054,2.443,1.006,0,0,1.38.593,3.664,1.509,3.145,1.26,7.325-.81,12.205-.816,5.083-.006,4.142,2.309,14.522,4.981,1.992.513,4.648,1.101,6.258,3.359,1.089,1.528,1.063,2.929,1.881,3.053,1.488.227,3.81-4.073,2.939-5.012-.489-.527-1.571,0-3.022.206-.874.124-3.132.303-11.202-4.54-4.875-2.926-7.333-4.434-8.332-6.635-.946-2.082-.328-2.869-1.29-5.516-1.62-3.423-3.644-5.644-5.164-7.011-7.556-6.788-20.305-8.288-24.448-3.665-1.106,1.234-2.616,4.041-3.702,3.702-.618-.193-.719-1.286-1.149-1.277Z" fill="#32ccff"/>
    <path d="M255.045,144.703c-2.68,13.394-9.604,20.3-8.279,21.333,1.536,1.197,13.254-6.196,16.219-18.065,3.324-13.304-5.736-26.695-7.592-26.2-1.48.395,2.356,9.417-.348,22.931Z" fill="#c9c9ff"/>
    <path d="M200.208,132.195c.206,8.711,9.076,15.724,16.407,15.454,1.843-.068,5.774-2.649,13.637-7.811,2.663-1.748,4.854-3.286,4.763-5.208-.077-1.62-1.733-2.684-3.096-3.649-8.705-6.164-7.456-9.708-13.311-11.805-1.289-.462-6.209-2.224-11.002.087-5.004,2.413-7.511,8.132-7.398,12.932Z" fill="#32ccff"/>
    <path d="M250.037,93.566c-.151.989.144,2.415.985,2.671.89.271,2.095-.859,2.404-2.046.338-1.302-.329-2.96-1.255-3.101-.917-.14-1.943,1.227-2.134,2.475Z" fill="#000742"/>
  </g>
  <g>
    <path d="M151.778,198.166c-2.33,3.814-1.435,7.509-.734,14.349,1.276,12.442.171,25.035,1.164,37.503,3.061,38.422-34.334,70.091-21.284,94.32,8.645,16.052,36.633,23.643,49.784,14.008,8.562-6.273,13.62-21.887,6.905-30.65-4.168-5.439-12.087-7.216-18.242-6.305-1.624.24-8.682,1.284-12.72,7.386-.884,1.335-4.049,6.118-2.153,11.372,1.612,4.466,6.451,8.079,11.48,7.464.31-.038,5.521-.761,7.396-5.128,1.732-4.035-.094-9.525-3.464-10.716-1.474-.521-3.276-.23-4.551.683-2.673,1.912-2.306,6.032-2.193,6.056.09.019.06-2.51,1.873-3.939,1.067-.841,2.768-1.297,4.018-.696,2.283,1.098,2.815,5.604.865,7.993-2.185,2.677-7.195,2.342-9.594-.242-2.928-3.154-.599-8.182-.312-8.777,1.782-3.702,5.406-5.016,6.509-5.416,4.464-1.619,11.191-1.247,14.879,3.298,4.154,5.119,1.93,12.427-.408,16.199-4.978,8.029-17.122,10.747-26.306,6.778-6.688-2.89-13.037-9.858-12.884-17.862.137-7.192,6.198-11.957,14.333-18.505,7.408-5.964,12.234-7.786,17.071-10.73,11.082-6.745,23.137-19.929,25.622-32.57,5.217-26.545-30.482-57.231-28.659-58.649.127-.099.292.055,3.171,1.143,0,0,1.793.677,4.757,1.714,4.08,1.428,9.291-1.45,15.511-1.735,1.443-.066,2.511.031,3.449.254,2.355.559,3.501,1.281,6.055,2.556,4.476,2.234,4.322,1.346,8.606,3.51,3.021,1.526,4,2.422,5.019,1.915,1.434-.714,1.886-3.68.861-4.596-.75-.67-1.866.137-3.965.128-1.378-.006-2.641-.361-5.407-1.804-6.069-3.167-9.299-4.643-11-7.983-1.324-2.6-.581-3.638-1.958-6.958,0,0-1.941-4.694-6.983-8.642-10.632-8.326-30.729-6.19-36.512,3.277Z" fill="#ffd171"/>
    <path d="M186.919,270.549c-2.653,17.227-11.085,26.425-9.338,27.666,2.026,1.438,16.542-8.654,19.645-23.952,3.478-17.149-8.833-33.702-11.171-32.965-1.864.588,3.541,11.87.864,29.251Z" fill="#c9bdd3"/>
    <path d="M116.304,257.73c.759,11.093,12.465,19.527,21.796,18.765,2.346-.192,7.21-3.706,16.938-10.734,3.295-2.38,6-4.465,5.774-6.91-.19-2.06-2.363-3.323-4.154-4.475-11.448-7.361-10.058-11.95-17.641-14.29-1.669-.515-8.042-2.482-14.019.738-6.241,3.362-9.111,10.794-8.693,16.906Z" fill="#ffd171"/>
    <path d="M181.66,205.468c-.179,1.603.703,3.367,1.408,3.349.754-.019,1.24-2.079,1.369-2.628.315-1.337.546-3.728-.198-3.998-.711-.258-2.37,1.404-2.579,3.277Z" fill="#000742"/>
    <path d="M216.915,221c-.67-.054-1.639,1.276-1.234,2.213.198.459.742.859,1.234.766.666-.127.981-1.111.851-1.83-.084-.464-.406-1.113-.851-1.149Z" fill="#630071"/>
    <path d="M287.681,109.5c-.298-.219-1.772,1.071-2.585,2.649-.163.315-.591,1.147-.398,1.301.242.193,1.423-.709,2.185-1.844.508-.756,1.039-1.929.798-2.106Z" fill="#630071"/>
    <path d="M257.043,172.34c.985-.545,2.908.641,3.766,2.106,1.184,2.022.591,5.005-.447,5.298-1.05.296-2.52-2.171-3.128-3.191-1.142-1.917-.95-2.87-.83-3.255.081-.259.228-.731.638-.957Z" fill="#630071"/>
  </g>
  <path d="M364.855,218.054c-1.202-3.364,16.858-17.458,29.061-12.255,2.771,1.181,6.345,3.829,6.002,6.128-.586,3.932-12.393,5.262-20.085,6.128-9.239,1.04-14.399,1.621-14.979,0Z" fill="#bb9da7"/>
  <path d="M365.952,226.677c-.206,3.566,21.095,11.999,31.337,3.568,2.325-1.914,5.009-5.462,4.032-7.571-1.67-3.607-13.374-1.555-20.998-.219-9.158,1.606-14.272,2.502-14.372,4.221Z" fill="#bb9da7"/>
  <path d="M370.061,239.24c-.845,1.359,11.848,7.051,20.424,4.949,1.947-.477,4.459-1.546,4.218-2.475-.412-1.588-8.71-2.125-14.115-2.475-6.493-.42-10.119-.655-10.527,0Z" fill="#bb9da7"/>
  <path d="M219.169,130.473c.526-1.471-7.375-7.637-12.713-5.361-1.212.517-2.776,1.675-2.626,2.68.256,1.72,5.421,2.302,8.786,2.68,4.042.455,6.299.709,6.552,0Z" fill="#ffd171"/>
  <path d="M218.689,134.245c.09,1.56-9.228,5.249-13.708,1.561-1.017-.837-2.191-2.389-1.764-3.312.731-1.578,5.85-.68,9.185-.096,4.006.702,6.243,1.095,6.287,1.847Z" fill="#ffd171"/>
  <path d="M216.892,139.74c.37.594-5.183,3.084-8.934,2.165-.852-.209-1.951-.676-1.845-1.083.18-.695,3.81-.93,6.175-1.083,2.84-.184,4.427-.286,4.605,0Z" fill="#ffd171"/>
  <path d="M148.704,252.721c.842-2.356-11.806-12.225-20.351-8.582-1.94.827-4.443,2.681-4.203,4.291.41,2.753,8.679,3.684,14.065,4.291,6.47.729,10.083,1.135,10.489,0Z" fill="#b3d171"/>
  <path d="M147.936,258.759c.144,2.497-14.772,8.403-21.945,2.499-1.628-1.34-3.508-3.825-2.824-5.302,1.17-2.526,9.365-1.089,14.704-.153,6.413,1.124,9.995,1.752,10.064,2.956Z" fill="#b3d171"/>
  <path d="M145.059,267.556c.592.951-8.297,4.937-14.302,3.466-1.363-.334-3.123-1.083-2.954-1.733.288-1.112,6.099-1.488,9.885-1.733,4.547-.294,7.086-.459,7.372,0Z" fill="#b3d171"/>
  <path d="M229.213,93.679c1.383-.405,5.386,6.658,4.34,7.619-.601.552-3.198-.61-4.34-2.809-1.028-1.979-.767-4.586,0-4.81Z" fill="#3283e5"/>
  <path d="M228.536,102.574c.949-.514,3.157,4.588,8.336,7.66,4.888,2.899,9.749,2.403,9.726,3.242-.017.619-2.669,1.319-5.258,1.226-6.014-.216-11.552-4.705-12.804-9.702-.093-.372-.535-2.136,0-2.426Z" fill="#3283e5"/>
  <path d="M229.723,115.34c1.156-.642,5.961,10.585,13.404,10.979,2.797.148,5.048-1.283,5.234-.864.227.509-2.774,3.351-6.383,3.545-5.518.297-9.85-5.738-11.489-9.702-.621-1.501-1.26-3.683-.766-3.957Z" fill="#3283e5"/>
  <path d="M242.234,138.702c-3.767-1.493-6.775-4.241-8.509-5.825-2.945-2.69-4.019-4.502-4.178-4.388-.32.231,2.642,8.65,9.751,11.745,6.803,2.962,14.258-.322,14.217-.672-.034-.293-5.323,1.502-11.281-.86Z" fill="#3283e5"/>
  <path d="M229.524,138.957c1.014-.545,3.609,7.422,10.029,9.064,6.694,1.712,12.972-4.622,13.962-3.319.673.886-1.646,4.592-5.141,6.383-5.179,2.655-11.898.574-15.587-3.429-3.2-3.473-4.024-8.29-3.263-8.699Z" fill="#3283e5"/>
  <path d="M225.667,151.374c.42,1.277,1.102,3.352,1.375,4.051,1.801,4.608,8.188,6.591,9.574,7.021,5.52,1.714,9.943.525,9.982.894.039.365-4.246,2.074-9.161,1.277-5.882-.955-11.696-5.343-13.204-10.979-.79-2.955-.368-6.145,0-6.193.204-.027.439.904,1.433,3.929Z" fill="#3283e5"/>
  <path d="M218.69,156.957c.761-.072.153,6.531,4.14,10.596,4.62,4.711,12.886,3.437,12.894,4.652.004.579-1.871,1.208-3.574,1.348-6.206.508-12.945-5.253-13.99-11.617-.407-2.479.069-4.935.531-4.979Z" fill="#3283e5"/>
  <path d="M215.17,165.255c.873,2.154,2.441,6.021,4.851,9.319,2.431,3.326,4.768,4.774,4.468,5.195-.251.352-2.103-.362-3.574-1.365-3.122-2.127-4.339-5.419-5.362-8.298-1.322-3.723-1.804-7.461-1.532-7.532.144-.038.453.965,1.149,2.681Z" fill="#3283e5"/>
  <path d="M211.507,172.205c-.376.055-.529,2.335,0,4.412.155.609.525,1.816,1.493,3.243,2.311,3.409,5.992,5.072,6.194,4.799.17-.23-2.362-1.507-4.534-4.799-2.607-3.951-2.666-7.726-3.152-7.655Z" fill="#3283e5"/>
  <path d="M209.809,177.383c-.505.153-.003,3.786,1.1,6.638,1.307,3.379,3.788,6.518,4.275,6.255.909-.49-4.393-13.191-5.375-12.894Z" fill="#3283e5"/>
  <path d="M207.638,184.689c-.414.228.2,3.056,1.973,5.014.719.794,1.122.885,2.838,2.489,1.57,1.467,2.131,2.23,2.21,2.17.277-.21-6.167-10.143-7.021-9.673Z" fill="#3283e5"/>
  <path d="M206.105,191.809c-.551.327,1.348,5.783,4.425,6.894.312.113.878.268,1.448.383.409.083,3.107.629,3.31.128.236-.585-3.241-1.812-7.139-5.489-1.475-1.391-1.844-2.033-2.044-1.915Z" fill="#3283e5"/>
  <path d="M358.489,156.136c-5.784.398-7.544,6.78-15.319,15.63-12.765,14.53-26.727,18.621-26.028,20.029.512,1.029,7.47-2.188,32.409-11.934,16.21-6.335,21.394-8.15,21.874-12.18.614-5.148-6.677-11.976-12.936-11.545Z" fill="#c9c9ff"/>
  <path d="M329.894,195.936c11.624-4.846,16.63-2.212,30.638-5.644,3.301-.809,4.988-1.437,5.419-.773,1.032,1.59-5.69,9.791-14.61,13.226-12.24,4.714-26.878-.218-26.959-3.323-.03-1.151,1.943-1.998,5.513-3.486Z" fill="#c9c9ff"/>
  <path d="M321.53,211.861c.208-1.409,9.956.63,22.76-1.264,12.419-1.837,18.957-6.079,20.509-3.835,1.211,1.752-1.298,6.473-4.947,8.942-4.235,2.865-6.286.182-21.447.317-2.499.022-6.92.135-12.255-1.702-1.462-.504-4.741-1.633-4.619-2.458Z" fill="#c9c9ff"/>
  <path d="M342.147,230.324c13.664,3.024,22.576,1.806,22.81,3.739.203,1.675-6.289,4.224-11.915,5.106-14.996,2.351-26.245-6.767-28.662-8.846-.963-.828-5.826-5.012-5.044-6.332.967-1.634,9.273,3.336,22.811,6.332Z" fill="#c9c9ff"/>
  <path d="M320.702,247.34c1.267-1.86,15.334,11.358,32.681,9.191,8.956-1.119,15.808-5.966,16.638-4.596.636,1.05-2.791,4.884-6.766,7.319-10.045,6.155-24.291,3.811-34.034-2.737-5.005-3.364-9.241-8.119-8.519-9.178Z" fill="#c9c9ff"/>
  <path d="M326.489,270.489c6.489,1.667,15.533,3.05,25.872,1.362,13.142-2.146,22.281-8.26,23.149-6.809.699,1.169-4.486,6.371-10.712,9.532-11.414,5.794-22.854,2.964-26.054,2.043-5.671-1.634-9.806-4.291-12.255-6.128Z" fill="#c9c9ff"/>
  <path d="M335.681,286.149c.278-.926,14.302,6.466,25.872.681,2-1,4.399-2.63,9.909-5.229,4.989-2.354,9.47-4.468,10.208-3.478.758,1.018-2.535,5.191-6.096,8.026-1.433,1.142-7.162,5.453-16.853,6.128-12.912.899-23.281-5.324-23.04-6.128Z" fill="#c9c9ff"/>
  <path d="M356.106,299.766c.289-.954,4.831-.636,13.915,0,4.743.332,5.571.525,7.192,0,5.595-1.812,7.357-7.87,8.511-7.401,1.041.424,1.175,5.995-1.984,9.726-5.498,6.494-17.419,3.22-18.941,2.781-4.649-1.341-9.01-4.058-8.692-5.106Z" fill="#c9c9ff"/>
  <path d="M371.238,315.085c.453-1.176,9.515,4.058,16.528,0,3.656-2.116,4.75-5.596,6.151-5.106,1.562.546,2.254,5.585,0,8.511-2.932,3.806-9.691,2.531-12.279,2.043-5.994-1.131-10.736-4.577-10.4-5.447Z" fill="#c9c9ff"/>
  <path d="M381.78,329.128c1.559-1.69,6.157,2.179,9.986,0,2.288-1.302,2.448-3.708,3.593-3.574,1.483.173,3.104,4.431,1.768,7.404-1.882,4.192-9.639,5.841-13.389,2.553-2.031-1.781-3.074-5.175-1.96-6.383Z" fill="#c9c9ff"/>
  <path d="M381.325,345.723c.087-2.15,12.116-4.527,13.394-2.043.577,1.123-1.094,3.134-2.443,4.085-4.225,2.979-11.018-.404-10.952-2.043Z" fill="#c9c9ff"/>
  <path d="M377.979,353.894c.785-2.41,10.489-2.635,11.496,0,.518,1.357-1.268,3.479-3.088,4.34-2.621,1.24-5.411-.087-6.876-1.532-.641-.632-1.852-1.826-1.532-2.809Z" fill="#c9c9ff"/>
  <path d="M371.462,361.809c2.685-1.601,7.759,1.63,7.538,3.354-.139,1.087-2.397,1.677-3.769,1.753-2.118.116-4.962-.839-5.21-2.553-.142-.981.589-2.046,1.441-2.553Z" fill="#c9c9ff"/>
  <path d="M361.553,366.924c2.502-.522,6.444,5.554,5.447,6.799-.616.769-3.164-.243-4.596-1.191-.872-.577-2.68-1.775-2.553-3.404.073-.938.786-2.012,1.702-2.203Z" fill="#c9c9ff"/>
  <path d="M355,371.298c-.732.302-1.13,2.757.34,4.085,1.102.995,2.928,1.063,3.319.426.677-1.104-2.557-4.965-3.66-4.511Z" fill="#c9c9ff"/>
  <path d="M349.043,371.979c-.929-.223-2.865,2.576-2.213,3.574.39.597,1.774.657,2.553,0,1.228-1.035.416-3.393-.34-3.574Z" fill="#c9c9ff"/>
  <path d="M337.468,373.742c-.882.407-2.391,1.105-2.298,1.727.094.627,1.81,1.123,3.234.754,1.983-.514,3.38-2.702,2.979-3.307-.488-.737-3.721.737-3.915.827Z" fill="#c9c9ff"/>
  <path d="M332.191,372.319c-3.502-1.204-7.737-.54-7.83.39-.07.702,2.219,1.563,3.915,1.82,2.694.408,5.602-.449,5.617-1.189.009-.433-.977-.772-1.702-1.021Z" fill="#c9c9ff"/>
  <path d="M319.766,368.064c-2.613-1.717-6.522-2.407-6.894-1.532-.312.735,1.823,2.696,4.17,3.234,1.652.379,3.691.117,3.83-.511.017-.076.064-.422-1.106-1.191Z" fill="#c9c9ff"/>
  <path d="M306.83,360.404c.631.748,1.623.769,2.723.851,4.149.309,5.193,1.138,5.532.596.526-.841-1.409-3.754-4.128-4.426-1.705-.421-4.104-.057-4.553,1.191-.215.598.041,1.331.426,1.787Z" fill="#c9c9ff"/>
  <path d="M302.319,351.553c.022,1.496,5.526,3.097,6.128,2.128.361-.583-1.089-2.026-1.191-2.128-.453-.451-1.712-1.703-3.234-1.362-.713.16-1.711.72-1.702,1.362Z" fill="#c9c9ff"/>
  <path d="M302.319,344.757c.904,1.402,2.566,2.58,3.093,2.201.454-.327.074-1.815-.625-2.809-.942-1.34-2.707-2.123-3.149-1.702-.394.376.285,1.696.681,2.31Z" fill="#c9c9ff"/>
  <path d="M302.319,334.702c-.147,1.982,1.101,3.946,1.702,3.83.442-.085.544-1.296.596-1.915.169-2.01-.46-4.368-1.149-4.383-.529-.011-1.067,1.36-1.149,2.468Z" fill="#c9c9ff"/>
  <path d="M304.021,326.277" fill="#ffd1fd"/>
  <path d="M306.574,329c.244-1.886-.631-3.874-1.163-3.83-.499.041-.729,1.875-.767,2.809-.058,1.441.238,3.356.767,3.404.448.041,1.017-1.261,1.163-2.383Z" fill="#c9c9ff"/>
  <path d="M309.468,320.66c-1.063,1.304-1.432,3.205-.964,3.489.457.278,1.713-.983,2.325-1.745.914-1.136,1.792-2.897,1.362-3.277-.39-.344-1.845.454-2.723,1.532Z" fill="#c9c9ff"/>
  <path d="M317.298,315.638" fill="#c9c9ff"/>
  <path d="M316.617,315.638c-1.631,1.014-2.418,3.083-2.043,3.409.27.234,1.169-.405,2.043-1.026,1.037-.737,3.021-2.368,2.723-2.894-.22-.388-1.67-.144-2.723.511Z" fill="#c9c9ff"/>
  <path d="M324.021,314.021c-1.765.503-3.385,1.945-3.149,2.468.221.491,2.12.277,3.509-.511.964-.547,1.974-1.535,1.768-1.957-.195-.4-1.434-.198-2.128,0Z" fill="#c9c9ff"/>
  <path d="M334.064,313.791c-2.568-.648-5.612,1.25-5.447,1.847.135.487,2.437.225,3.574,0,1.13-.223,2.93-.769,2.894-1.277-.023-.319-.762-.505-1.021-.571Z" fill="#c9c9ff"/>
  <path d="M341.723,315.914c-1.678-.327-3.744-.126-3.83.405-.079.487,1.504,1.276,2.979,1.447,1.511.175,3.205-.264,3.234-.747.028-.466-1.493-.932-2.383-1.105Z" fill="#c9c9ff"/>
  <path d="M347.511,319.047c-2.023-.638-4.265-.435-4.34,0-.097.561,3.407,1.543,3.66,1.613.294.081,3.627.992,3.83.475.151-.384-1.424-1.543-3.149-2.088Z" fill="#c9c9ff"/>
  <path d="M353.638,324.745c-1.312-.923-3.094-1.407-3.319-1.021-.194.333.766,1.314,1.66,1.872,1.231.769,2.836,1.048,3.021.681.168-.331-.834-1.161-1.362-1.532Z" fill="#c9c9ff"/>
  <path d="M357.211,332.191c-.605-2.579-3.689-4.41-4.143-3.989-.37.343.92,2.267,1.643,3.175.718.901,2.029,2.249,2.464,1.983.273-.167.099-.908.037-1.169Z" fill="#c9c9ff"/>
  <path d="M358.382,338.828c-.481-1.64-1.609-3.383-2.12-3.215-.469.154-.442,1.922.084,3.31.539,1.422,1.707,2.725,2.149,2.529.427-.189.142-1.755-.113-2.624Z" fill="#c9c9ff"/>
  <path d="M355.861,346.675c.638-2.023.435-4.265,0-4.34-.561-.097-1.543,3.407-1.613,3.66-.081.294-.992,3.627-.475,3.83.384.151,1.543-1.424,2.088-3.149Z" fill="#c9c9ff"/>
  <path d="M349.602,351.826c1.089-1.178,1.805-2.881,1.452-3.155-.304-.236-1.404.586-2.075,1.397-.925,1.118-1.414,2.672-1.075,2.905.306.21,1.261-.673,1.699-1.147Z" fill="#c9c9ff"/>
  <path d="M363.596,147.445c-1.072-5.141.696-11.161,2.459-11.211,1.215-.034,2.313,2.771,2.647,4.601.88,4.814-2.251,9.861-3.74,9.612-.767-.128-1.087-1.66-1.366-3.002Z" fill="#c9c9ff"/>
  <path d="M358.66,133.426" fill="#c9c9ff"/>
  <path d="M355.596,125.455c-1.293.562-1.205,5.005.851,7.971,1.13,1.631,3.228,3.353,4.255,2.808,1.083-.574.681-3.511,0-5.389-1.095-3.019-3.868-5.928-5.106-5.389Z" fill="#c9c9ff"/>
  <path d="M347.085,129c-.973.978-8.699-4.17-8.17-5.447.29-.701,3.183-.523,5.277.851,2.144,1.407,3.431,4.055,2.894,4.596Z" fill="#c9c9ff"/>
  <ellipse cx="159.232" cy="221.851" rx="1.593" ry="4.426" fill="#c9c9ff"/>
  <ellipse cx="175.95" cy="239.723" rx="2.795" ry="5.277" fill="#c9c9ff"/>
  <ellipse cx="159.232" cy="242.787" rx="1.593" ry="3.064" fill="#c9c9ff"/>
  <ellipse cx="173.298" cy="257.98" rx="1.702" ry="4.552" fill="#c9c9ff"/>
  <ellipse cx="182.412" cy="260.356" rx=".775" ry="3.441" fill="#c9c9ff"/>
  <ellipse cx="160.362" cy="272.984" rx="1.191" ry="3.676" fill="#c9c9ff"/>
  <ellipse cx="175.236" cy="282.787" rx="2.109" ry="4.596" fill="#c9c9ff"/>
  <ellipse cx="155.596" cy="293.255" rx=".681" ry="3.489" fill="#c9c9ff"/>
  <ellipse cx="148.617" cy="308.319" rx=".851" ry="4.596" fill="#c9c9ff"/>
  <ellipse cx="163.17" cy="307.128" rx=".426" ry="3.404" fill="#c9c9ff"/>
  <ellipse cx="138.149" cy="323.043" rx=".936" ry="1.617" fill="#c9c9ff"/>
  <circle cx="135.298" cy="333.809" r="2.511" fill="#c9c9ff"/>
  <ellipse cx="139.128" cy="348.66" rx=".979" ry="2.894" fill="#c9c9ff"/>
  <circle cx="146.426" cy="352.893" r="1.34" fill="#c9c9ff"/>
  <ellipse cx="156.277" cy="359.553" rx="1.362" ry=".681" fill="#c9c9ff"/>
  <circle cx="170.404" cy="360.064" r="1.191" fill="#c9c9ff"/>
  <ellipse cx="179.851" cy="355.616" rx="1.106" ry="1.384" fill="#c9c9ff"/>
  <ellipse cx="186.745" cy="341.851" rx="2.043" ry=".851" fill="#c9c9ff"/>
  <circle cx="187.468" cy="330.149" r=".723" fill="#c9c9ff"/>
  <ellipse cx="173.831" cy="325.317" rx=".703" ry="1.509" fill="#c9c9ff"/>
  <circle cx="180.605" cy="326.071" r=".754" fill="#c9c9ff"/>
  <ellipse cx="162.21" cy="327.841" rx="1.385" ry="1.015" fill="#c9c9ff"/>
  <ellipse cx="169.043" cy="325.34" rx=".851" ry=".681" fill="#c9c9ff"/>
  <ellipse cx="158.234" cy="337.213" rx=".596" ry=".894" fill="#c9c9ff"/>
  <ellipse cx="162.887" cy="346.722" rx="2.062" ry=".956" fill="#c9c9ff"/>
  <ellipse cx="168.617" cy="345.426" rx=".426" ry=".511" fill="#c9c9ff"/>
  <circle cx="172.617" cy="339.979" r="1.021" fill="#c9c9ff"/>
  <ellipse cx="171.255" cy="334.17" rx=".851" ry=".362" fill="#c9c9ff"/>
  <circle cx="165.059" cy="261.483" r="2.314" fill="#c9c9ff"/>
</svg>