<?xml version="1.0" encoding="UTF-8"?>
<svg id="Layer_1" xmlns="http://www.w3.org/2000/svg" width="500" height="500" version="1.1" xmlns:xlink="http://www.w3.org/1999/xlink" viewBox="0 0 500 500">
  <!-- Generator: Adobe Illustrator 29.6.1, SVG Export Plug-In . SVG Version: 2.1.1 Build 9)  -->
  <defs>
    <linearGradient id="linear-gradient" x1="250" y1="370.352" x2="250" y2="90.296" gradientUnits="userSpaceOnUse">
      <stop offset="0" stop-color="#2484c6"/>
      <stop offset="1" stop-color="#2484c6" stop-opacity="0"/>
    </linearGradient>
  </defs>
  <g>
    <rect y="230.324" width="500" height="269.676" fill="#1b357b"/>
    <rect y="0" width="500" height="233.872" fill="#d7ffe6"/>
    <path d="M500,333.481c-48.445-30.236-88.925-37.674-116.428-39.064-115.152-5.819-173.333,85.767-284.936,75.064C55.067,365.303,21.07,347.234,0,333.481V114.928c69.407,42.725,123.634,47.873,160.678,44.426,80.956-7.534,114.708-59.364,202.979-67.915,56.52-5.475,104.598,9.777,136.343,23.489v218.553Z" fill="url(#linear-gradient)"/>
  </g>
  <g>
    <path d="M412.229,281.038c-37.93,82.773-150.976,82.541-167.829,82.541-86.826,0-140.243-45.617-143.693-39.872-2.931,4.88,40.407,29.318,35.884,52.934-1.686,8.802-10.029,17.535-18.731,19.485-10.973,2.459-15.715-7.391-28.132-5.501-11.497,1.751-11.58,10.826-22.846,13.251-13.379,2.879-28.483-6.644-36.319-18.115-8.162-11.948-7.806-25.082-7.615-29.794,1.415-34.926,35.803-61.928,53.624-74.93,61.193-44.645,100.463-47.298,167.829-82.541,90.993-47.605,114.873-80.937,143.346-67.598,36.305,17.007,49.492,95.564,24.483,150.139Z" fill="#00475d"/>
    <path d="M330.511,342.146c-25.608,28.892-60.419,31.323-58.872,39.674,1.059,5.717,17.813,6.942,35.147,8.209,18.684,1.365,29.103-1.468,35.147-3.648,1.063-.383,5.263-1.927,10.105-4.56,6.356-3.457,32.485-17.667,38.223-42.867,6.276-27.562-13.652-60.319-26.361-59.284-12.379,1.008-7.464,33.225-33.39,62.476Z" fill="#00133e"/>
    <path d="M431.537,153.931c14.938,38.217,7.401,87.433-8.709,91.828-10.184,2.778-14.346-14.933-61.147-61.473-14.741-14.659-21.014-20.041-22.406-30.354-2.598-19.237,17.897-47.883,46.131-47.883,27.706,0,41.648,36.413,46.131,47.883Z" fill="#003f5d"/>
    <path d="M441.491,127.146c17.635,34.519,8.939,84.222-9.37,90.037-13.086,4.157-29.578-14.583-43.233-30.098-15.51-17.623-27.413-31.148-25.598-49.644,2.049-20.875,21.036-42.635,41.609-41.815,20.915.834,33.051,24.59,36.591,31.519Z" fill="#004775"/>
    <path d="M462.958,139.645c-1.946,19.392-16.639,44.855-39.101,44.835-22.925-.02-36.667-26.569-39.101-44.835-.538-4.038-3.155-23.668,9.216-35.589,9.498-9.152,22.501-8.626,31.126-8.278,7.936.321,18.216.736,26.672,8.31,12.901,11.556,11.655,30.911,11.189,35.556Z" fill="#006591"/>
    <path d="M437.906,139.645c-.694,2.97-7.939,3.309-8.982,3.358-3.523.165-10.279-.457-10.935-3.358-.641-2.834,4.55-7.787,9.96-7.789,5.436-.002,10.61,4.995,9.957,7.789Z" fill="#003f5d"/>
    <path d="M429.388,150.79c-.533,5.93-5.083,12.42-11.621,13.348-8.508,1.208-16.747-7.517-15.691-14.979.836-5.907,7.264-9.371,11.643-10.337.649-.143,9.625-1.983,13.839,3.952,2.264,3.189,1.931,6.898,1.831,8.015Z" fill="#008fab"/>
    <path d="M454.247,148.353c1.217,6.82-8.23,16.879-17.293,15.019-8.894-1.826-14.089-14.447-10.569-20.369,2.94-4.946,11.48-4.413,15.45-3.572.915.194,11.267,2.51,12.411,8.923Z" fill="#008fab"/>
    <path d="M419.163,131.872c-1.349,4.245-10.272,3.645-11.557,3.558-4.339-.292-12.502-2.226-12.816-6.575-.307-4.248,6.879-10.717,13.499-9.901,6.653.82,12.144,8.924,10.874,12.918Z" fill="#00012d"/>
    <path d="M458.112,128.198c-.253,3.989-8.533,5.701-9.725,5.947-4.026.832-11.92,1.206-13.209-2.456-1.259-3.578,3.807-10.938,10.036-11.889,6.259-.956,13.137,4.645,12.899,8.398Z" fill="#00012d"/>
    <path d="M414.952,127.196c.01,2.595-2.609,4.962-4.6,4.774-1.223-.116-1.52-1.131-3.176-2.521-3.649-3.062-7.082-2.221-7.249-3.42-.222-1.593,5.522-5.342,10.425-3.607.203.072,4.587,1.686,4.6,4.774Z" fill="#0e2b57"/>
    <path d="M455.012,126.536c.01,2.595-2.609,4.962-4.6,4.774-1.223-.116-1.52-1.131-3.176-2.521-3.649-3.062-7.082-2.221-7.249-3.42-.222-1.593,5.522-5.342,10.425-3.607.203.072,4.587,1.686,4.6,4.774Z" fill="#0e2b57"/>
    <path d="M34.078,356.779c-3.035,1.371-.684,27.249,14.84,36.077,5.057,2.875,12.204,4.336,13.668,2.027,1.345-2.121-2.718-6.453-18.745-26.754-8.294-10.506-9.045-11.674-9.763-11.35Z" fill="#00354d"/>
    <path d="M53.311,346.239c-3.381,1.453-.661,32.588,15.859,39.771,5.323,2.314,12.424,2.291,13.799-.485,1.532-3.092-4.851-7.951-17.356-23.781-9.819-12.429-11.091-16.025-12.302-15.505Z" fill="#00354d"/>
    <path d="M89.45,344.358c-3.227.764-5.531,26.647,8.151,38.305,4.457,3.797,11.22,6.605,13.071,4.618,1.7-1.826-1.52-6.864-13.651-29.893-6.278-11.918-6.807-13.21-7.571-13.03Z" fill="#00354d"/>
    <path d="M99.295,337.423c-1.846,1.502,6.71,9.81,11.13,28.274,1.419,5.929,1.825,10.454,5.727,13.803,4.216,3.619,11.323,4.843,13.668,2.027,4.503-5.406-9.487-24.558-10.901-26.471-7.389-9.992-17.642-19.245-19.624-17.633Z" fill="#00354d"/>
    <path d="M274.424,380.576c-.825-.713,8.079-7.889,17.16-8.789,2.958-.293,6.34.04,6.233.856-.099.75-3.095,1.565-15.903,5.704-6.628,2.142-7.295,2.398-7.49,2.229Z" fill="#002b5d"/>
    <path d="M277.548,382.488c-.129-.689,6.552-1.111,15.648-4.685,2.921-1.147,4.883-2.146,7.755-2.234,3.103-.096,6.391.898,6.194,1.988-.378,2.093-13.52,4.101-14.839,4.299-6.892,1.031-14.618,1.371-14.757.631Z" fill="#002b5d"/>
    <path d="M284.686,385.099c-.958,1.553,12.731,4.534,25.244-.949,4.076-1.786,8.586-4.715,8.256-5.72-.303-.923-4.549.198-22.844,4.121-9.468,2.03-10.429,2.18-10.656,2.548Z" fill="#002b5d"/>
    <path d="M300.309,388.01c-.231-.948,8.852-.957,20.982-5.05,3.895-1.314,6.494-2.506,10.405-2.383,4.227.132,8.791,1.762,8.608,3.229-.352,2.816-18.125,4.436-19.91,4.593-9.323.82-19.838.629-20.086-.389Z" fill="#002b5d"/>
    <path d="M340.31,171.783c-24.448-20.498-79.137,29.238-182.386,72.964-9.168,3.883-27.344,11.371-49.792,25.538-32.354,20.418-57.334,44.455-56.094,46.211.844,1.195,12.955-9.188,31.155-17.633,33.076-15.348,63.357-13.668,75.316-13.377,84.486,2.059,234.049-41.307,232.945-62.02-.339-6.361-14.666-6.422-33.777-27.362-12.723-13.94-10.999-18.982-17.368-24.321Z" fill="#215965"/>
    <path d="M459.207,115.614c-.21,2.283-21.551,3.122-21.95.855-.198-1.128,4.762-3.19,8.795-3.782,6.6-.969,13.274,1.626,13.155,2.927Z" fill="#212349"/>
    <path d="M394.792,116.861c.567,2.217,21.753-.585,21.788-2.888.018-1.147-5.201-2.338-9.273-2.236-6.664.167-12.839,3.86-12.515,5.124Z" fill="#212349"/>
    <g>
      <ellipse cx="413.8" cy="146.829" rx="1.152" ry=".988" fill="#003f5d"/>
      <g>
        <ellipse cx="420.498" cy="145.106" rx="1.152" ry=".988" fill="#003f5d"/>
        <ellipse cx="416.876" cy="149.499" rx="1.152" ry=".988" fill="#003f5d"/>
        <ellipse cx="415.724" cy="154.48" rx="1.152" ry=".988" fill="#003f5d"/>
        <ellipse cx="416.733" cy="158.737" rx="1.152" ry=".988" fill="#003f5d"/>
        <ellipse cx="410.352" cy="152.54" rx="1.152" ry=".988" fill="#003f5d"/>
        <ellipse cx="408.223" cy="147.523" rx="1.152" ry=".988" fill="#003f5d"/>
        <ellipse cx="411.504" cy="158.027" rx="1.152" ry=".988" fill="#003f5d"/>
      </g>
    </g>
    <g>
      <path d="M420.897,145.205c-11.578-2.332-23.502-2.266-35.047.228-.057.02-.094-.078-.03-.096,11.17-3.614,24.216-3.887,35.078-.133h0Z" fill="#231f20"/>
      <path d="M417.87,149.546c-12.374-2.856-25.445-1.532-37.015,3.693-.053.032-.107-.058-.049-.087,10.985-6.307,25.402-7.928,37.064-3.605h0Z" fill="#231f20"/>
      <path d="M415.236,154.326c-10.843-1.917-22.07-.253-31.889,4.731-.05.034-.111-.051-.054-.084,9.181-6.04,21.743-8.057,31.943-4.646h0Z" fill="#231f20"/>
      <path d="M416.372,158.787c-10.385.536-20.62,2.301-30.588,5.266-.055.024-.1-.069-.039-.092,9.494-4.012,20.621-6.161,30.626-5.174h0Z" fill="#231f20"/>
    </g>
    <g>
      <ellipse cx="443.738" cy="148.029" rx="1.152" ry=".988" fill="#003f5d"/>
      <g>
        <ellipse cx="437.04" cy="146.306" rx="1.152" ry=".988" fill="#003f5d"/>
        <ellipse cx="440.662" cy="150.699" rx="1.152" ry=".988" fill="#003f5d"/>
        <ellipse cx="441.814" cy="155.68" rx="1.152" ry=".988" fill="#003f5d"/>
        <ellipse cx="440.805" cy="159.937" rx="1.152" ry=".988" fill="#003f5d"/>
        <ellipse cx="447.186" cy="153.74" rx="1.152" ry=".988" fill="#003f5d"/>
        <ellipse cx="449.315" cy="148.723" rx="1.152" ry=".988" fill="#003f5d"/>
        <ellipse cx="446.034" cy="159.227" rx="1.152" ry=".988" fill="#003f5d"/>
      </g>
    </g>
    <path d="M474.686,109.358c-.814,1.142-3.552-1.377-10.59-2.108-8.143-.846-12.885,1.652-14.134-.551-.954-1.683,1.02-4.54,1.713-5.543,2.196-3.178,5.972-5.135,9.51-5.169,8.649-.083,14.953,11.333,13.501,13.371Z" fill="#006591"/>
    <path d="M367.221,106.756c.557,1.297,3.755-.548,10.779.314,8.127.998,12.238,4.5,13.916,2.629,1.282-1.429-.052-4.662-.52-5.796-1.483-3.595-4.764-6.352-8.211-7.178-8.428-2.019-16.957,7.715-15.963,10.03Z" fill="#006591"/>
    <g>
      <path d="M437.025,146.536c11.05-4.621,24.117-4.532,35.107.228.057.018.033.116-.03.095-11.268-3.71-24.006-3.407-35.076-.324h0Z" fill="#231f20"/>
      <path d="M440.051,150.877c11.869-5.204,26.477-3.706,37.095,3.7.054.03.007.12-.049.087-11.108-6.409-25.163-7.429-37.046-3.788h0Z" fill="#231f20"/>
      <path d="M442.689,155.656c10.433-4.284,23.224-2.373,31.97,4.743.051.033.001.12-.054.084-9.451-6.182-21.375-7.539-31.916-4.827h0Z" fill="#231f20"/>
      <path d="M441.574,160.113c10.367-1.788,21.454.14,30.632,5.273.056.024.021.119-.039.092-9.552-4.122-20.543-5.658-30.593-5.366h0Z" fill="#231f20"/>
    </g>
  </g>
</svg>