<?xml version="1.0" encoding="UTF-8"?>
<svg id="Layer_1" xmlns="http://www.w3.org/2000/svg" width="500" height="500" version="1.1" xmlns:xlink="http://www.w3.org/1999/xlink" viewBox="0 0 500 500">
  <!-- Generator: Adobe Illustrator 29.6.1, SVG Export Plug-In . SVG Version: 2.1.1 Build 9)  -->
  <defs>
    <linearGradient id="linear-gradient" x1="250" y1="370.352" x2="250" y2="90.296" gradientUnits="userSpaceOnUse">
      <stop offset="0" stop-color="#2484c6"/>
      <stop offset="1" stop-color="#2484c6" stop-opacity="0"/>
    </linearGradient>
  </defs>
  <g>
    <rect y="230.324" width="500" height="269.676" fill="#00696b"/>
    <rect width="500" height="233.872" fill="#bad19b"/>
    <path d="M500,333.481c-48.445-30.236-88.925-37.674-116.428-39.064-115.152-5.819-173.333,85.767-284.936,75.064-43.569-4.178-77.566-22.247-98.636-36V114.928c69.407,42.725,123.634,47.873,160.678,44.426,80.956-7.534,114.708-59.364,202.979-67.915,56.52-5.475,104.598,9.777,136.343,23.489v218.553Z" fill="url(#linear-gradient)"/>
  </g>
  <path d="M69.683,387.137c25.785-19.654,35.218-40.748,39.236-55.398,18.689-68.142-45.541-121.651-32.022-208.25,7.025-45.002,32.148-80.375,33.497-79.484.998.659-9.728,22.013-16.215,48.788-20.709,85.49,23.482,136.761,8.336,217.656-3.416,18.246-11.337,45.937-32.832,76.689Z" fill="#629f4c"/>
  <path d="M216.642,12.941c23.014,23.513,29.616,46.458,31.689,62.076,9.64,72.641-61.07,119.771-58.969,210.802,1.092,47.305,21.395,86.951,22.85,86.201,1.076-.554-6.776-23.93-9.714-52.365-9.379-90.791,41.159-138.129,36.699-223.48-1.006-19.251-5.248-48.811-22.555-83.234Z" fill="#9bd34c"/>
  <path d="M132.613,394.766c25.371-21.029,35.012-41.555,39.236-55.398,12.123-39.731-2.349-83.487-29.585-165.838-5.434-16.431-14.602-34.525-9.651-56.721,3.867-17.335,12.664-22.975,15.586-42.818,3.486-23.674-4.713-45.009-6.894-44.72-3.754.498,1.829,66.211,4.212,90.444,10.917,111,32.189,139.563,19.927,198.364-4,19.181-12.515,46.122-32.832,76.689Z" fill="#628f8d"/>
  <path d="M330.804,356.173c23.005-21.293,33.825-42.117,39.236-55.398,21.556-52.911,15.599-129.303-17.77-176.947-6.864-9.801-14.926-18.439-14.252-31.303,1.138-21.724,25.89-30.647,32.186-62.927,1.735-8.897,1.478-16.54,1.311-16.557-.298-.031-2.011,24.292-8.24,54.855-2.849,13.98-5.431,23.316-6.31,26.809-12.755,50.712,21.398,110.602,17.617,166.979-1.571,23.418-10.357,56.217-43.778,94.491Z" fill="#849f4c"/>
  <path d="M322.956,24.816c-24.428,20.919-34.5,41.235-39.236,55.398-22.886,68.443,34.29,126.405,5.395,194.657-3.457,8.165-8.02,16.181-10.185,30.068-6.985,44.808,21.636,82.493,22.689,82.049.789-.332-13.535-22.209-8.559-50.553,1.587-9.041,4.539-15.325,5.4-17.276,18.711-42.371-22.939-139.66-8.336-217.656,3.416-18.246,11.337-45.937,32.832-76.689Z" fill="#2a938a"/>
  <path d="M76.654,342.875c25.808-62.505,45.782-110.881,95.713-144.305,6.751-4.519,87.746-56.869,176.202-24.505,81.948,29.983,143.378,122.823,122.553,173.872-4.078,9.997-10.425,16.221-13.787,19.31-84.313,77.449-371.209,93.089-392.17,18.988-2.556-9.034,2.091-20.599,11.489-43.361Z" fill="#64678b"/>
  <path d="M468.872,337.255c-14.836,70.253-189.348,85.7-216,88.06-61.606,5.453-123.182.732-123.824-7.045-.469-5.68,39.417-14.962,119.191-33.525,28.099-6.539,43.473-9.753,71.847-17.287,71.911-19.092,86.564-28.553,97.123-41.047,19.736-23.352,17.409-48.12,27.153-48.435,11.221-.363,30.278,31.966,24.511,59.279Z" fill="#324957"/>
  <path d="M159.779,229.103c-15.834,16.343-26.589,34.058-40.377,56.769-14.869,24.492-34.495,56.82-26.554,67.468,5.14,6.893,19.853,2.051,25.867,0,50.155-17.106,53.527-66.712,92.757-94.273,56.413-39.634,126.089,9.127,138.987-19.458,6.875-15.237-7.347-41.451-23.556-55.002-44.074-36.848-125.189,1.215-167.124,44.496Z" fill="#00734c"/>
  <path d="M177.921,218.532c-9.596,7.289-21.091,16.263-25.742,31.678-.707,2.344-4.445,15.406,0,18.218,3.687,2.333,10.006-4.285,24.268-14.066,26.17-17.947,36.787-17.536,40.666-29.405,2.565-7.848,1.279-18.297-4.24-21.778-5.811-3.665-15.819,2.409-23.632,7.053-2.326,1.382-5.568,3.932-11.319,8.301Z" fill="#62734c"/>
  <path d="M224.872,263.327c-5.633,8.875-3.552,18.933-3.246,20.311,4.517,20.32,34.075,32.09,57.432,31.205,3.844-.146,11.374-.78,20.366-4.175,20.419-7.708,42.863-27.566,39.831-40.817-5.438-23.767-95.216-36.721-114.383-6.524Z" fill="#00734c"/>
  <path d="M339.532,184.607c-11.273,4.498-20.988,17.387-18.829,27.409,2.111,9.798,14.002,9.578,37.446,23.387,26.833,15.805,28.982,26.534,50.553,32.738,5.576,1.604,25.618,7.368,30.769,0,7.248-10.368-18.618-41.551-41.492-60.078-15.805-12.801-38.693-31.339-58.447-23.457Z" fill="#00734c"/>
  <path d="M418.404,240.19c5.386,5.309,12.648,14.417,10.723,16.827-1.882,2.356-12.165-2.165-19.404-7.401-11.167-8.076-19.756-21.229-17.362-23.897,2.435-2.712,16.519,5.082,26.043,14.471Z" fill="#80a14c"/>
  <path d="M207.511,186.617c1.492,4.256,33.83-3.065,42.263-4.974,7.55-1.709,12.529-3.203,18.046-4.859,15.868-4.761,23.802-7.141,23.638-9.061-.273-3.208-21.694-6.656-43.34-2.079-22.488,4.755-41.839,17.458-40.607,20.972Z" fill="#629f4c"/>
  <path d="M325.2,171.119c-1.338,3.157,21.714,13.853,27.726,16.642,5.382,2.497,9.123,3.932,13.268,5.521,11.922,4.571,17.883,6.857,18.79,5.669,1.515-1.986-9.417-13.881-24.678-21.228-15.855-7.633-34-9.21-35.105-6.603Z" fill="#629f4c"/>
  <path d="M137.809,235.079c1.631,1.118,10.705-4.692,28.784-16.359,11.993-7.738,17.372-11.475,17.652-17.237.159-3.273-1.319-7.378-4.614-9.203-7.354-4.072-20.568,4.981-26.655,10.381-12.974,11.511-19.507,29.444-15.167,32.417Z" fill="#629f4c"/>
  <g>
    <path d="M337.564,334.724c-15.775-14.279-31.55-28.559-47.325-42.838-19.653,10.478-39.307,20.957-58.96,31.435-13.548,5.858-21.245,7.505-23.089,4.941-2.207-3.067,3.96-12.161,18.503-27.282,3.353-19.127,6.705-38.254,10.058-57.381-15.144-13.06-30.289-26.121-45.433-39.181-20.873-13.095-22.757-18.349-21.912-20.657,2.044-5.581,23.341-2.938,40.578.131,19.114,1.15,38.227,2.301,57.341,3.451,10.589-17.378,21.178-34.756,31.767-52.134,2.501-2.774,5.861-6.581,9.724-11.206,8.335-9.981,9.864-12.819,11.732-12.551,2.81.403,5.488,7.702,6.045,34.43,2.448,18.64,4.896,37.279,7.344,55.919,22.049,3.365,44.099,6.73,66.148,10.095,2.403.175,38.931,2.979,39.383,10.014.311,4.831-16.451,10.737-39.697,15.251-16.399,7.472-32.798,14.945-49.198,22.417,4.085,21.07,8.17,42.14,12.255,63.211,1.482,6.084,3.845,15.167,7.297,26.157,2.907,9.253,4.304,12.593,3.067,13.606-1.864,1.526-9.483-2.418-35.628-27.827Z" fill="#ffb564"/>
    <line x1="309.03" y1="203.179" x2="309.393" y2="204.054" fill="none"/>
    <line x1="335.688" y1="231.641" x2="336.156" y2="234.012" fill="none"/>
    <path d="M321.662,258.478c-2.088,2.814-7.454,9.235-16.836,12.612-13.586,4.89-25.429-.26-27.965-1.433-24.978-11.749-36.062-32.983-30.952-45.48,6.215-15.197,35.224-14.647,36.528-14.608,5.982.178,26.337.784,36.382,17.256,8.384,13.75,3.724,28.944,2.843,31.652Z" fill="none"/>
    <path d="M298.929,177.95c-6.918,14.001-22.401,19.388-25.398,20.43-26.72,9.296-51.909-8.307-54.728-3.335-2.499,4.407,19.916,13.616,28.697,34.629,13.719,32.829-15.746,70.771-7.833,76.082,7.303,4.902,27.186-30.922,53.299-29.393,32.144,1.881,52.165,59.099,57.982,56.169,3.326-1.675-2.443-20.767-6.145-33.021-8.728-28.885-14.445-33.907-11.593-42.051,6.666-19.037,47.301-18.44,47.028-24.767-.254-5.878-35.03.178-55.601-19.902-20.003-19.524-17.6-54.996-20.897-54.614-1.735.201.153,9.731-4.81,19.773Z" fill="#ff9764"/>
    <path d="M301.115,189.014c-5.326-.732-6.495,14.405-18.678,20.555-14.335,7.238-31.235-4.309-33.943.201-2.341,3.899,12.071,10.905,15.86,25.922,4.74,18.788-10.762,35.782-6.871,38.751,4.161,3.176,17.949-19.271,35.577-18.146,19.731,1.259,33.122,31.337,36.147,29.494,2.732-1.665-13.016-23.276-5.361-36.082,5.763-9.64,21.186-8.26,21.364-13.033.201-5.381-19.702-4.525-31.432-18.693-10.384-12.542-7.196-28.217-12.662-28.969Z" fill="#ffdfca"/>
    <path d="M173.595,184.692c2.404-.535,4.76,1.623,5.504,2.281,5.767,5.101,40.34,31.213,53.169,39.774,2.433,1.623,7.166,4.672,9.827,10.523,2.339,5.142,1.936,9.937,1.572,13.712-2.278,23.676-3.533,35.769-9.202,48.265-3.227,7.113-5.984,10.95-8.218,13.604-6.407,7.611-14.612,12.737-15.526,11.784-.709-.739,3.245-5.831,11.153-16.016,5.929-7.636,6.549-7.882,7.989-10.716,2.165-4.261,2.919-8.722,4.339-17.47,1.154-7.113.728-6.958,2.255-16.721,1.186-7.586,1.779-11.378,2.228-12.378.815-1.813,2.036-3.906,1.367-6.209-.642-2.209-2.671-3.404-3.276-3.773-10.748-6.548-18.882-16.671-28.838-24.368-24.724-19.114-23.43-21.564-30.615-24.944-1.378-.648-6.493-2.941-6.235-5.185.12-1.043,1.383-1.913,2.509-2.164Z" fill="#cfa3b0"/>
    <path d="M246.979,312.818c.726.989,7.662-2.654,21.533-9.939,9.907-5.203,14.861-7.805,16.087-9.053,1.689-1.719,3.68-4.175,6.231-3.947,2.442.218,3.871,2.756,5.457,4.922,2.837,3.874,3.985,3.569,12.359,10.444,13.325,10.938,25.562,24.142,27.72,26.484,4.8,5.211,7.119,8.141,7.662,7.771,1.048-.712-6.016-12.634-11.349-21.634,0,0-18.72-31.593-28.32-34.956-1.899-.665-5.812-1.005-8.669-3.593-.411-.372-1.301-1.245-2.591-1.334-1.609-.11-2.818,1.069-3.595,1.672-2.936,2.277-6.583,1.668-8.968,1.846-2.957.221-7.072,1.884-26.1,22.074-6.765,7.179-7.866,8.689-7.459,9.243Z" fill="#cfa3b0"/>
    <path d="M328.756,176.205c-1.761-.117-7.1,16.343-.818,22.396,1.053,1.015,2.912,2.198,3.922,1.625,1.362-.773.404-4.31-1.124-13.042-1.697-9.697-1.497-10.946-1.98-10.979Z" fill="#cfa3b0"/>
    <g>
      <polygon points="287.37 224.957 283.906 224.845 282.27 221.789 284.099 218.844 287.564 218.956 289.199 222.012 287.37 224.957" fill="#cfffff" stroke="#231f20" stroke-miterlimit="10" stroke-width=".25"/>
      <polygon points="308.249 236.045 304.785 235.933 303.149 232.877 304.978 229.932 308.442 230.044 310.078 233.1 308.249 236.045" fill="#cfffff" stroke="#231f20" stroke-miterlimit="10" stroke-width=".25"/>
      <polygon points="319.348 232.507 315.884 232.395 314.248 229.339 316.077 226.395 319.541 226.506 321.177 229.562 319.348 232.507" fill="#cfffff" stroke="#231f20" stroke-miterlimit="10" stroke-width=".25"/>
      <polygon points="297.238 233.187 293.774 233.075 292.138 230.019 293.967 227.074 297.432 227.186 299.067 230.242 297.238 233.187" fill="#cfffff" stroke="#231f20" stroke-miterlimit="10" stroke-width=".25"/>
      <polygon points="277.229 243.246 273.765 243.134 272.129 240.078 273.958 237.134 277.423 237.245 279.058 240.302 277.229 243.246" fill="#cfffff" stroke="#231f20" stroke-miterlimit="10" stroke-width=".25"/>
      <polygon points="285.321 235.215 281.857 235.103 280.221 232.047 282.05 229.103 285.514 229.214 287.15 232.271 285.321 235.215" fill="#cfffff" stroke="#231f20" stroke-miterlimit="10" stroke-width=".25"/>
      <polygon points="305.07 215.563 301.605 215.451 299.97 212.395 301.798 209.451 305.263 209.562 306.898 212.618 305.07 215.563" fill="#cfffff" stroke="#231f20" stroke-miterlimit="10" stroke-width=".25"/>
      <polygon points="274.815 221.588 271.35 221.476 269.715 218.42 271.544 215.476 275.008 215.587 276.644 218.643 274.815 221.588" fill="#cfffff" stroke="#231f20" stroke-miterlimit="10" stroke-width=".25"/>
      <polygon points="298.94 223.389 295.476 223.278 293.84 220.222 295.669 217.277 299.134 217.389 300.769 220.445 298.94 223.389" fill="#cfffff" stroke="#231f20" stroke-miterlimit="10" stroke-width=".25"/>
      <polygon points="311.707 225.719 308.243 225.608 306.607 222.551 308.436 219.607 311.901 219.719 313.536 222.775 311.707 225.719" fill="#cfffff" stroke="#231f20" stroke-miterlimit="10" stroke-width=".25"/>
      <polygon points="272.551 232.162 269.087 232.051 267.451 228.994 269.28 226.05 272.744 226.162 274.38 229.218 272.551 232.162" fill="#cfffff" stroke="#231f20" stroke-miterlimit="10" stroke-width=".25"/>
      <polygon points="262.253 219.35 258.789 219.238 257.153 216.182 258.982 213.237 262.447 213.349 264.082 216.405 262.253 219.35" fill="#cfffff" stroke="#231f20" stroke-miterlimit="10" stroke-width=".25"/>
      <polygon points="334.968 240.381 331.503 240.269 329.868 237.213 331.697 234.269 335.161 234.38 336.797 237.437 334.968 240.381" fill="#cfffff" stroke="#231f20" stroke-miterlimit="10" stroke-width=".25"/>
      <polygon points="317.16 243.073 314.087 241.469 313.94 238.006 316.865 236.146 319.938 237.75 320.086 241.213 317.16 243.073" fill="#cfffff" stroke="#231f20" stroke-miterlimit="10" stroke-width=".25"/>
      <polygon points="300.66 203.56 297.196 203.449 295.56 200.393 297.389 197.448 300.854 197.56 302.489 200.616 300.66 203.56" fill="#cfffff" stroke="#231f20" stroke-miterlimit="10" stroke-width=".25"/>
      <polygon points="293.645 212.017 290.18 211.905 288.545 208.849 290.374 205.904 293.838 206.016 295.474 209.072 293.645 212.017" fill="#cfffff" stroke="#231f20" stroke-miterlimit="10" stroke-width=".25"/>
      <polygon points="299.438 247.309 295.974 247.198 294.338 244.141 296.167 241.197 299.632 241.309 301.267 244.365 299.438 247.309" fill="#cfffff" stroke="#231f20" stroke-miterlimit="10" stroke-width=".25"/>
      <polygon points="285.357 243.444 285.457 239.979 288.508 238.334 291.458 240.153 291.358 243.618 288.307 245.263 285.357 243.444" fill="#cfffff" stroke="#231f20" stroke-miterlimit="10" stroke-width=".25"/>
      <polygon points="308.364 247.851 304.9 247.74 303.264 244.683 305.093 241.739 308.558 241.851 310.193 244.907 308.364 247.851" fill="#cfffff" stroke="#231f20" stroke-miterlimit="10" stroke-width=".25"/>
      <polygon points="319.995 252.672 316.531 252.56 314.895 249.504 316.724 246.56 320.189 246.671 321.824 249.728 319.995 252.672" fill="#cfffff" stroke="#231f20" stroke-miterlimit="10" stroke-width=".25"/>
      <polygon points="274.941 253.635 271.476 253.524 269.841 250.467 271.67 247.523 275.134 247.635 276.77 250.691 274.941 253.635" fill="#cfffff" stroke="#231f20" stroke-miterlimit="10" stroke-width=".25"/>
      <polygon points="269.265 264.662 265.801 264.55 264.165 261.494 265.994 258.55 269.459 258.661 271.094 261.718 269.265 264.662" fill="#cfffff" stroke="#231f20" stroke-miterlimit="10" stroke-width=".25"/>
      <polygon points="281.978 253.243 282.273 249.79 285.411 248.318 288.255 250.301 287.96 253.754 284.821 255.226 281.978 253.243" fill="#cfffff" stroke="#231f20" stroke-miterlimit="10" stroke-width=".25"/>
      <polygon points="299.844 256.322 296.38 256.211 294.744 253.154 296.573 250.21 300.038 250.322 301.673 253.378 299.844 256.322" fill="#cfffff" stroke="#231f20" stroke-miterlimit="10" stroke-width=".25"/>
      <polygon points="313.417 260.073 309.953 259.961 308.317 256.905 310.146 253.96 313.611 254.072 315.246 257.128 313.417 260.073" fill="#cfffff" stroke="#231f20" stroke-miterlimit="10" stroke-width=".25"/>
      <polygon points="318.874 268.142 315.409 268.031 313.774 264.974 315.603 262.03 319.067 262.142 320.703 265.198 318.874 268.142" fill="#cfffff" stroke="#231f20" stroke-miterlimit="10" stroke-width=".25"/>
    </g>
  </g>
  <path d="M456.645,60.65c-24.428,20.919-34.5,41.235-39.236,55.398-22.886,68.443,34.29,126.405,5.395,194.657-3.457,8.165-8.02,16.181-10.185,30.068-6.985,44.808,21.636,82.493,22.689,82.049.789-.332-13.535-22.209-8.559-50.553,1.587-9.041,4.539-15.325,5.4-17.276,18.711-42.371-22.939-139.66-8.336-217.656,3.416-18.246,11.337-45.937,32.832-76.689Z" fill="#2a938a"/>
  <path d="M176.482,216.796" fill="#28001b"/>
  <path d="M208.832,162.167" fill="#6467ff"/>
  <path d="M352.232,190.702c12.985-1.207,25.54,7.022,24.81,9.674-.661,2.4-12.421,1.008-20.936,0-6.931-.82-16.403-1.942-16.574-4.335-.147-2.054,6.575-4.77,12.7-5.339Z" fill="#62734c"/>
  <path d="M157.876,239.017c-8.404,5.04-8.738,4.826-10.581,6.638-2.48,2.439-4.484,4.409-4.34,7.085.135,2.513,2.13,4.969,4.468,6,6.155,2.714,14.391-4.569,19.979-9.511,5.082-4.494,5.45-6.083,5.298-7.149-.437-3.06-5.107-5.402-9-5.234-1.481.064-3.08.525-5.824,2.17Z" fill="#80a14c"/>
  <g>
    <path d="M159.184,234.014c1.789,5.837,4.166,13.402,7.112,22.275-7.629,7.105-14.395,11.81-19.42,14.897-2.867,1.761-6.224,3.644-5.881,4.796.445,1.49,6.83.925,12.635.119,6.886,1.781,13.773,3.562,20.659,5.344,2.06,7.03,4.12,14.06,6.179,21.09,1.203,8.946,2.669,10.37,3.567,10.438,2.171.165,4.518-7.338,6.107-13.551,2.514-6.548,5.027-13.096,7.541-19.645,7.4-.897,14.8-1.794,22.2-2.691,1.304-.414,3.083-.957,5.211-1.544,4.592-1.267,5.77-1.346,5.964-2.01.291-.998-1.737-2.998-10.565-7.235-5.845-3.642-11.689-7.283-17.534-10.925,7.339-22.741,9.753-34.684,7.243-35.829-1.427-.651-4.445,2.187-9.055,8.515-4.978,4.336-9.955,8.672-14.933,13.008-8.327-5.268-14.747-10.092-19.221-13.668-5.112-4.085-8.464-7.164-9.944-6.201-1.406.915-.281,4.937,2.134,12.816Z" fill="#4e00ae"/>
    <line x1="198.726" y1="263.468" x2="198.488" y2="263.215" fill="none"/>
    <line x1="193.275" y1="250.264" x2="192.555" y2="249.749" fill="none"/>
    <path d="M182.199,250.874c-1.255.27-4.209,1.086-6.758,3.703-3.69,3.789-3.768,8.519-3.761,9.543.132,10.111,5.533,17.025,10.475,17.215,6.01.231,10.223-9.526,10.408-9.967.847-2.022,3.731-8.902-.24-14.748-3.314-4.88-9.088-5.629-10.124-5.746Z" fill="none"/>
    <path d="M206.737,272.823c-6.616,1.333-9.924,2-11.793,3.211-7.32,4.743-4.898,18.551-7.183,18.756-1.848.165-1.522-8.705-7.198-14.819-8.868-9.551-25.987-5.477-26.559-8.92-.528-3.178,14.432-4.379,17.881-13.318,4.245-11.004-11.801-26.354-9.942-27.849,1.063-.855,6.555,3.963,10.08,7.055,8.31,7.289,9.117,9.956,12.266,10.24,4.008.361,8.154-4.298,15.388-11.928,1.466-1.546,3.172-3.459,3.743-3.11.669.409-.83,3.538-2.064,7.409-2.197,6.893-3.92,12.297-2.015,16.942,1.888,4.603,7.128,7.95,10.62,10.181,2.749,1.756,4.987,2.691,4.813,3.764-.191,1.18-3.119,1.396-8.037,2.387Z" fill="#6467ff"/>
    <path d="M202.249,268.255c-.563,1.887-5.788-.017-9.686,3.113-4.587,3.683-3.298,11.069-5.212,11.289-1.655.19-1.807-5.678-6.24-9.218-5.547-4.429-13.564-1.835-13.964-3.582-.428-1.869,9.147-3.064,11.444-9.113,2.571-6.77-5.429-15.795-4.356-16.524.969-.659,5.789,7.869,11.22,7.257,4.088-.461,5.966-5.813,7.584-5.149,1.825.749-1.478,7.256,1.469,13.315,2.609,5.364,8.319,6.677,7.741,8.614Z" fill="#f1aeff"/>
    <path d="M184.361,311.435c.358-.151.347-1.288.074-2.181-.827-2.696-4.294-18.183-5.204-23.759-.173-1.057-.472-3.098-2.019-4.872-1.36-1.559-3.02-2.152-4.334-2.603-8.241-2.829-12.463-4.244-17.49-4.247-1.298,0-2.791.276-5.782.679-2.477.333-6.236.839-6.215,1.09.024.302,5.51.139,7.313.085,3.275-.097,3.211-.204,4.435-.116,2.814.203,5.52.939,6.483,1.201,2.547.693,2.431.812,5.918,1.783,2.709.754,4.064,1.131,4.466,1.133.728.003,1.611-.087,2.278.485.639.549.73,1.407.761,1.664.554,4.577,2.697,8.823,3.755,13.311,2.206,9.361,3.274,10.815,3.582,12.765.039.246-.04.672.096,1.225.338,1.375,1.463,2.535,1.886,2.356Z" fill="#28001b"/>
    <path d="M152.758,267.542c-.107-.21.516-.736,5.89-4.616,1.905-1.375,3.578-3.108,5.651-4.214,1.243-.663,2.492-1.177,2.756-2.316.208-.897-.297-1.647-.814-2.566-.862-1.533-.586-1.87-1.609-5.705-.841-3.152-2.055-4.896-4.63-13.258-1.003-3.257-1.518-4.962-1.08-5.196.858-.459,4.695,5.107,6.771,8.463,2.692,4.352,5.181,9.447,5.738,14.806.219,2.108.138,4.244-1.084,6.11-.415.634-.93,1.17-2.057,2.048-3.34,2.602-10.248,4.992-11.317,5.357-3.812,1.303-4.152,1.206-4.213,1.086Z" fill="#28001b"/>
    <path d="M210.711,260.979c-.228.605-6.526-.11-7.592-3.122-.179-.505-.292-1.304.052-1.554.464-.337,1.498.519,4.179,2.352,2.976,2.036,3.423,2.158,3.361,2.324Z" fill="#28001b"/>
    <g>
      <polygon points="188.18 267.39 187.692 268.563 188.463 269.571 189.722 269.408 190.21 268.235 189.439 267.227 188.18 267.39" fill="#000e86" stroke="#231f20" stroke-miterlimit="10" stroke-width=".25"/>
      <polygon points="187.647 258.747 187.159 259.919 187.931 260.928 189.19 260.764 189.678 259.592 188.906 258.584 187.647 258.747" fill="#000e86" stroke="#231f20" stroke-miterlimit="10" stroke-width=".25"/>
      <polygon points="190.509 255.582 190.021 256.754 190.793 257.763 192.052 257.599 192.54 256.427 191.768 255.419 190.509 255.582" fill="#000e86" stroke="#231f20" stroke-miterlimit="10" stroke-width=".25"/>
      <polygon points="186.931 262.852 186.443 264.024 187.215 265.033 188.474 264.869 188.962 263.697 188.19 262.689 186.931 262.852" fill="#000e86" stroke="#231f20" stroke-miterlimit="10" stroke-width=".25"/>
      <polygon points="180.544 268 180.056 269.172 180.827 270.181 182.086 270.017 182.574 268.845 181.803 267.836 180.544 268" fill="#000e86" stroke="#231f20" stroke-miterlimit="10" stroke-width=".25"/>
      <polygon points="184.448 266.519 183.961 267.691 184.732 268.7 185.991 268.536 186.479 267.364 185.708 266.355 184.448 266.519" fill="#000e86" stroke="#231f20" stroke-miterlimit="10" stroke-width=".25"/>
      <polygon points="193.995 262.912 193.507 264.084 194.279 265.093 195.538 264.929 196.026 263.757 195.255 262.748 193.995 262.912" fill="#000e86" stroke="#231f20" stroke-miterlimit="10" stroke-width=".25"/>
      <polygon points="187.4 272.088 186.912 273.26 187.683 274.269 188.943 274.105 189.431 272.933 188.659 271.924 187.4 272.088" fill="#000e86" stroke="#231f20" stroke-miterlimit="10" stroke-width=".25"/>
      <polygon points="190.456 263.77 189.968 264.942 190.74 265.95 191.999 265.787 192.487 264.615 191.715 263.606 190.456 263.77" fill="#000e86" stroke="#231f20" stroke-miterlimit="10" stroke-width=".25"/>
      <polygon points="191.615 259.159 191.127 260.331 191.898 261.34 193.157 261.176 193.645 260.004 192.874 258.995 191.615 259.159" fill="#000e86" stroke="#231f20" stroke-miterlimit="10" stroke-width=".25"/>
      <polygon points="183.531 271.24 183.043 272.412 183.814 273.421 185.073 273.257 185.561 272.085 184.79 271.076 183.531 271.24" fill="#000e86" stroke="#231f20" stroke-miterlimit="10" stroke-width=".25"/>
      <polygon points="186.243 276.616 185.755 277.788 186.526 278.797 187.785 278.633 188.273 277.461 187.502 276.452 186.243 276.616" fill="#000e86" stroke="#231f20" stroke-miterlimit="10" stroke-width=".25"/>
      <polygon points="190.251 249.18 189.763 250.352 190.534 251.361 191.794 251.197 192.281 250.025 191.51 249.016 190.251 249.18" fill="#000e86" stroke="#231f20" stroke-miterlimit="10" stroke-width=".25"/>
      <polygon points="186.654 254.71 186.723 255.978 187.856 256.552 188.919 255.859 188.85 254.591 187.718 254.016 186.654 254.71" fill="#000e86" stroke="#231f20" stroke-miterlimit="10" stroke-width=".25"/>
      <polygon points="197.329 266.202 196.842 267.374 197.613 268.383 198.872 268.219 199.36 267.047 198.589 266.038 197.329 266.202" fill="#000e86" stroke="#231f20" stroke-miterlimit="10" stroke-width=".25"/>
      <polygon points="193.446 267.259 192.958 268.432 193.729 269.44 194.989 269.277 195.477 268.104 194.705 267.096 193.446 267.259" fill="#000e86" stroke="#231f20" stroke-miterlimit="10" stroke-width=".25"/>
      <polygon points="182.555 259.978 182.067 261.15 182.839 262.159 184.098 261.995 184.586 260.823 183.814 259.814 182.555 259.978" fill="#000e86" stroke="#231f20" stroke-miterlimit="10" stroke-width=".25"/>
      <polygon points="181.71 265.259 182.88 265.751 183.892 264.983 183.732 263.724 182.561 263.232 181.55 264 181.71 265.259" fill="#000e86" stroke="#231f20" stroke-miterlimit="10" stroke-width=".25"/>
      <polygon points="183.727 256.919 183.24 258.091 184.011 259.1 185.27 258.936 185.758 257.764 184.987 256.756 183.727 256.919" fill="#000e86" stroke="#231f20" stroke-miterlimit="10" stroke-width=".25"/>
      <polygon points="183.883 252.31 183.395 253.482 184.166 254.491 185.425 254.327 185.913 253.155 185.142 252.146 183.883 252.31" fill="#000e86" stroke="#231f20" stroke-miterlimit="10" stroke-width=".25"/>
      <polygon points="176.732 267.188 176.245 268.36 177.016 269.369 178.275 269.205 178.763 268.033 177.992 267.025 176.732 267.188" fill="#000e86" stroke="#231f20" stroke-miterlimit="10" stroke-width=".25"/>
      <polygon points="172.195 267.409 171.707 268.582 172.478 269.59 173.737 269.427 174.225 268.254 173.454 267.246 172.195 267.409" fill="#000e86" stroke="#231f20" stroke-miterlimit="10" stroke-width=".25"/>
      <polygon points="177.93 264.901 179.126 265.326 180.093 264.502 179.863 263.254 178.666 262.829 177.7 263.652 177.93 264.901" fill="#000e86" stroke="#231f20" stroke-miterlimit="10" stroke-width=".25"/>
      <polygon points="179.611 258.476 179.123 259.648 179.895 260.657 181.154 260.494 181.642 259.321 180.87 258.313 179.611 258.476" fill="#000e86" stroke="#231f20" stroke-miterlimit="10" stroke-width=".25"/>
      <polygon points="180.418 253.382 179.93 254.554 180.701 255.562 181.96 255.399 182.448 254.227 181.677 253.218 180.418 253.382" fill="#000e86" stroke="#231f20" stroke-miterlimit="10" stroke-width=".25"/>
      <polygon points="178.554 250.339 178.066 251.511 178.837 252.52 180.097 252.356 180.584 251.184 179.813 250.175 178.554 250.339" fill="#000e86" stroke="#231f20" stroke-miterlimit="10" stroke-width=".25"/>
    </g>
  </g>
  <path d="M184.917,209.559" fill="#62734c"/>
  <path d="M189.489,205.904" fill="#62734c"/>
  <path d="M187.447,207.298" fill="#62734c"/>
  <path d="M58.19,400.438c12.445-20.919,17.576-41.235,19.989-55.398,11.659-68.443-17.469-126.405-2.748-194.657,1.761-8.165,4.086-16.181,5.188-30.068,3.558-44.808-11.022-82.493-11.559-82.049-.402.332,6.895,22.209,4.36,50.553-.809,9.041-2.312,15.325-2.751,17.276-9.532,42.371,11.686,139.66,4.247,217.656-1.74,18.246-5.776,45.937-16.726,76.689Z" fill="#2a938a"/>
  <path d="M437.058,398.649c25.785-19.654,35.218-40.748,39.236-55.398,18.689-68.142-45.541-121.651-32.022-208.25,7.025-45.002,32.148-80.375,33.497-79.484.998.659-9.728,22.013-16.215,48.788-20.709,85.49,23.482,136.761,8.336,217.656-3.416,18.246-11.337,45.937-32.832,76.689Z" fill="#629f4c"/>
  <path d="M86.178,75.234c17.014,20.919,24.029,41.235,27.327,55.398,15.939,68.443-23.883,126.405-3.757,194.657,2.408,8.165,5.586,16.181,7.093,30.068,4.865,44.808-15.069,82.493-15.802,82.049-.549-.332,9.427-22.209,5.961-50.553-1.105-9.041-3.161-15.325-3.761-17.276-13.032-42.371,15.977-139.66,5.806-217.656-2.379-18.246-7.896-45.937-22.867-76.689Z" fill="#2a938a"/>
  <path d="M384.257,432.199c-9.81-7.025-8.01-29.902,0-44.426,18.359-33.29,79.68-41.442,93.701-22.478,8.67,11.726-1.979,32.15-3.064,34.172-9.508,17.728-30.03,22.729-71.073,32.731-9.362,2.281-15.091,3.203-19.564,0Z" fill="#849f4c"/>
  <path d="M385.124,398.649c-7.338,7.64-6.427,23.241,0,29.019,4.895,4.4,16.416,1.38,39.259-4.84,17.944-4.886,25.789-8.511,32.262-12.295,13.906-8.13,17.239-14.517,18.566-17.872,2.685-6.789,2.879-15.64,0-16.851-3.531-1.485-7.661,10.212-17.637,17.362-24.182,17.33-58.216-9.342-72.451,5.479Z" fill="#4d7b71"/>
  <path d="M266.459,425.58c5.874-10.955-4.375-22.879-44.396-64.165-75.053-77.424-83.726-81.617-96.828-82.081-40.804-1.445-84.52,34.69-98.315,71.722-3.263,8.759-12.369,33.204,1.037,55.879,26.49,44.807,115.872,40.406,161.558,38.157,31.123-1.532,68.283-3.362,76.943-19.513Z" fill="#8c958b"/>
  <path d="M174.421,408.064c35.273,17.065,44.698,21.529,43.959,26.246-1.348,8.593-35.133,9.733-65.079,10.745-33.971,1.147-54.89-2.059-72.124-7.644-10.522-3.409-19.071-7.511-26.752-12.411-7.827-4.993-15.685-10.006-21.447-18.383-12.121-17.624-7.562-39.373-6.638-43.78,7.062-33.688,41.647-60.656,54.837-54.083,10.1,5.033-2.425,24.708,9.843,48.159,7.341,14.032,18.504,19.755,83.401,51.151Z" fill="#4d7b71"/>
  <path d="M81.177,451.283" fill="#849f4c"/>
</svg>