<?xml version="1.0" encoding="UTF-8"?>
<svg id="Layer_1" xmlns="http://www.w3.org/2000/svg" width="500" height="500" version="1.1" viewBox="0 0 500 500">
  <!-- Generator: Adobe Illustrator 29.6.1, SVG Export Plug-In . SVG Version: 2.1.1 Build 9)  -->
  <rect y="232.431" width="500" height="269.676" fill="#005dbb"/>
  <rect x="-.312" y=".312" width="500" height="233.872" fill="#51ccff"/>
  <path d="M499.688,333.794c-7.586-3.388-22.096-9.104-40.858-11.177-88.9-9.823-132.861,77.662-223.69,71.957-22.442-1.41-38.487-8.074-70.576-21.404-70.451-29.264-102.774-68.315-140.032-56.309-11.328,3.65-19.445,10.839-24.844,16.932V115.241c41.528,55.877,81.053,73.118,109.57,78.49,77.728,14.643,125.95-49.04,247.383-73.327,58.721-11.744,109.26-9.216,143.047-5.164v218.553Z" fill="#23bdff"/>
  <g>
    <path d="M467.079,217.854c5.447,6.708-7.606,33.599-29.957,42.487-22.424,8.916-50.36-1.817-50.952-10.319-.397-5.713,11.538-10.63,35.046-20.315,25.402-10.465,41.579-17.129,45.863-11.853Z" fill="#005277"/>
    <path d="M23.168,222.775c-5.447,6.708,7.606,33.599,29.957,42.487,22.424,8.916,50.36-1.817,50.952-10.319.397-5.713-11.538-10.63-35.046-20.315-25.402-10.465-41.579-17.129-45.863-11.853Z" fill="#005277"/>
    <path d="M416.998,252.303c9.309,14.89,10.138,17.839,10.239,21.088,1.145,36.91-92.699,80.36-178.969,84.71-101.533,5.119-195.745-43.764-193.703-69.53.346-4.367,3.19-4.708,15.295-24.873,10.885-18.134,13.74-26.445,19.95-37.522,0,0,12.997-23.181,36.839-44.848,43.555-39.583,103.43-41.937,115.513-42.178,20.031-.4,74.795,1.693,118.87,38.658,19.741,16.556,31.816,35.87,55.964,74.497Z" fill="#006c93"/>
    <path d="M371.174,273.45c5.905,22.72-55.325,74.735-123.421,75.322-65.619.565-127.061-46.715-122.392-71.252,3.365-17.682,38.598-10.607,77.325-47.209,26.799-25.328,29.428-47.145,45.09-47.209,18.393-.075,20.3,29.989,53.398,56.163,35.647,28.19,66.089,19.137,70,34.186Z" fill="#002857"/>
    <path d="M477.688,299.381c4.727,14.694-35.65,50.632-79.666,50.635-44.159.002-84.408-36.166-79.666-50.635,3.186-9.722,26.807-10.007,73.329-10.567,50.271-.606,82.284-.991,86.003,10.567Z" fill="#00bbb6"/>
    <path d="M21.939,329.416c-.516,14.65,39.211,35.843,76.707,30.681,43.417-5.977,80.722-46.859,76.345-60.834-3.439-10.981-32.966-6.48-65.065-1.587-22.967,3.501-87.338,13.313-87.987,31.739Z" fill="#00bbb6"/>
    <g>
      <path d="M331.14,287.089c-6.219,16.559-20.295,24.523-24.748,27.043-4.002,2.264-13.586,7.075-55.453,6.461-29.283-.429-44.217-.786-58.568-7.765-9.223-4.485-22.813-11.129-29.007-25.739-7.717-18.203.048-41.038,12.801-54.279,15.456-16.046,36.412-16.106,71.243-16.206,35.756-.103,57.114-.164,72.249,16.206,12.1,13.087,18.684,35.104,11.483,54.279Z" fill="#009299"/>
      <path d="M189.675,239.857c9.863-.322,17.437,14.016,20.155,22.214,2.133,6.434,5.053,15.241,0,22.214-6.124,8.452-21.059,10.21-29.702,5.049-13.67-8.162-11.15-33.361,0-44.428,1.612-1.6,4.935-4.898,9.547-5.049Z" fill="#000041"/>
      <path d="M308.429,239.094c-9.863-.322-17.437,14.016-20.155,22.214-2.133,6.434-5.053,15.241,0,22.214,6.124,8.452,21.059,10.21,29.702,5.049,13.67-8.162,11.15-33.361,0-44.428-1.612-1.6-4.935-4.898-9.547-5.049Z" fill="#000041"/>
      <g>
        <path d="M242.643,280.555c1.525-1.439,9.995,3.515,9.475,6.152-.263,1.332-2.828,2.112-4.737,1.793-4.196-.702-5.918-6.831-4.737-7.944Z"/>
        <path d="M259.546,280.555c-1.525-1.439-9.995,3.515-9.475,6.152.263,1.332,2.828,2.112,4.737,1.793,4.196-.702,5.918-6.831,4.737-7.944Z"/>
      </g>
    </g>
    <ellipse cx="315.702" cy="253.057" rx="9.31" ry="10.64" fill="#fff"/>
    <ellipse cx="201.022" cy="254.639" rx="9.31" ry="10.64" fill="#fff"/>
    <path d="M102.274,213.652c-2.942,1.87-2.52,3.304-7.527,10.388-5.037,7.126-7.765,8.929-7.003,11.226.879,2.649,5.522,3.303,7.59,3.595,5.844.824,17.712.122,22.337-8.799,2.534-4.887,3.38-13.179-1.437-16.939-4.013-3.132-10.281-1.81-13.96.529Z" fill="#007c93"/>
    <path d="M86.227,246.679c-2.942,1.87-2.52,3.304-7.527,10.388-5.037,7.126-7.765,8.929-7.003,11.226.879,2.649,5.522,3.303,7.59,3.595,5.844.824,17.712.122,22.337-8.799,2.534-4.887,3.38-13.179-1.437-16.939-4.013-3.132-10.281-1.81-13.96.529Z" fill="#005c93"/>
    <path d="M138.112,223.3c-2.942,1.87-2.52,3.304-7.527,10.388-5.037,7.126-7.765,8.929-7.003,11.226.879,2.649,5.522,3.303,7.59,3.595,5.844.824,17.712.122,22.337-8.799,2.534-4.887,3.38-13.179-1.437-16.939-4.013-3.132-10.281-1.81-13.96.529Z" fill="#007ea7"/>
    <path d="M111.101,259.787c-2.534,1.383-2.147,2.482-6.405,7.807-4.284,5.357-6.632,6.692-5.937,8.452.802,2.03,4.851,2.593,6.655,2.844,5.097.709,15.415.34,19.315-6.39,2.137-3.687,2.758-9.99-1.486-12.921-3.536-2.441-8.972-1.521-12.141.209Z" fill="#007c93"/>
    <path d="M79.547,276.427c-3.382.847-3.433,2.341-10.418,7.485-7.027,5.174-10.184,6.026-10.185,8.445-.001,2.791,4.198,4.876,6.069,5.805,5.286,2.624,16.77,5.7,23.971-1.308,3.945-3.839,7.363-11.441,3.977-16.528-2.821-4.238-9.186-4.959-13.415-3.899Z" fill="#005c93"/>
    <path d="M368.123,196.959c2.841.771,2.719,1.953,8.209,6.226,5.523,4.299,8.169,5.066,7.899,6.978-.311,2.205-4.191,3.726-5.919,4.403-4.883,1.914-15.199,4-20.669-1.753-2.996-3.151-5.114-9.26-1.605-13.177,2.924-3.263,8.531-3.642,12.084-2.678Z" fill="#00aac5"/>
    <path d="M391.97,223.193c3.02,1.741,2.661,3.192,7.971,10.051,5.342,6.9,8.145,8.583,7.484,10.911-.763,2.685-5.373,3.54-7.426,3.921-5.802,1.077-17.69.891-22.698-7.821-2.743-4.772-3.949-13.02.7-16.985,3.873-3.304,10.193-2.254,13.969-.078Z" fill="#005c93"/>
    <path d="M340.964,213.623c3.297,1.133,3.221,2.625,9.742,8.346,6.56,5.754,9.633,6.872,9.428,9.283-.237,2.781-4.599,4.5-6.542,5.266-5.49,2.164-17.195,4.25-23.773-3.346-3.604-4.161-6.361-12.027-2.554-16.807,3.172-3.982,9.575-4.158,13.698-2.742Z" fill="#005c93"/>
    <path d="M369.744,238.8c3.297,1.133,3.221,2.625,9.742,8.346,6.56,5.754,9.633,6.872,9.428,9.283-.237,2.781-4.599,4.5-6.542,5.266-5.49,2.164-17.195,4.25-23.773-3.346-3.604-4.161-6.361-12.027-2.554-16.807,3.172-3.982,9.575-4.158,13.698-2.742Z" fill="#00aac5"/>
    <path d="M403.478,257.731c3.297,1.133,3.221,2.625,9.742,8.346,6.56,5.754,9.633,6.872,9.428,9.283-.237,2.781-4.599,4.5-6.542,5.266-5.49,2.164-17.195,4.25-23.773-3.346-3.604-4.161-6.361-12.027-2.554-16.807,3.172-3.982,9.575-4.158,13.698-2.742Z" fill="#005c93"/>
    <path d="M197.496,147.068c-3.486-.025-3.909,1.409-11.959,4.642-8.097,3.253-11.367,3.288-11.973,5.63-.699,2.702,2.846,5.771,4.425,7.138,4.462,3.862,14.812,9.712,23.537,4.727,4.78-2.731,9.99-9.237,7.983-15.008-1.672-4.809-7.654-7.098-12.013-7.129Z" fill="#00aac5"/>
    <path d="M166.074,166.28c-3.486-.025-3.909,1.409-11.959,4.642-8.097,3.253-11.367,3.288-11.973,5.63-.699,2.702,2.846,5.771,4.425,7.138,4.462,3.862,14.812,9.712,23.537,4.727,4.78-2.731,9.99-9.237,7.983-15.008-1.672-4.809-7.654-7.098-12.013-7.129Z" fill="#007ea7"/>
    <path d="M212.511,176.722c-3.486-.025-3.909,1.409-11.959,4.642-8.097,3.253-11.367,3.288-11.973,5.63-.699,2.702,2.846,5.771,4.425,7.138,4.462,3.862,14.812,9.712,23.537,4.727,4.78-2.731,9.99-9.237,7.983-15.008-1.672-4.809-7.654-7.098-12.013-7.129Z" fill="#007ea7"/>
    <path d="M176.686,201.087c-3.486-.025-3.909,1.409-11.959,4.642-8.097,3.253-11.367,3.288-11.973,5.63-.699,2.702,2.846,5.771,4.425,7.138,4.462,3.862,14.812,9.712,23.537,4.727,4.78-2.731,9.99-9.237,7.983-15.008-1.672-4.809-7.654-7.098-12.013-7.129Z" fill="#00aac5"/>
    <path d="M138.321,188.752c-3.486-.025-3.909,1.409-11.959,4.642-8.097,3.253-11.367,3.288-11.973,5.63-.699,2.702,2.846,5.771,4.425,7.138,4.462,3.862,14.812,9.712,23.537,4.727,4.78-2.731,9.99-9.237,7.983-15.008-1.672-4.809-7.654-7.098-12.013-7.129Z" fill="#00aac5"/>
    <path d="M271.008,142.494c3.474-.285,4.004,1.113,12.272,3.737,8.317,2.64,11.581,2.43,12.36,4.721.899,2.642-2.407,5.967-3.88,7.448-4.161,4.185-14.046,10.79-23.119,6.471-4.97-2.366-10.651-8.466-9.081-14.371,1.308-4.92,7.103-7.649,11.448-8.006Z" fill="#007c93"/>
    <path d="M224.342,142.494c3.474-.285,4.004,1.113,12.272,3.737,8.317,2.64,11.581,2.43,12.36,4.721.899,2.642-2.407,5.967-3.88,7.448-4.161,4.185-14.046,10.79-23.119,6.471-4.97-2.366-10.651-8.466-9.081-14.371,1.308-4.92,7.103-7.649,11.448-8.006Z" fill="#00aac5"/>
    <path d="M303.74,159.133c3.474-.285,4.004,1.113,12.272,3.737,8.317,2.64,11.581,2.43,12.36,4.721.899,2.642-2.407,5.967-3.88,7.448-4.161,4.185-14.046,10.79-23.119,6.471-4.97-2.366-10.651-8.466-9.081-14.371,1.308-4.92,7.103-7.649,11.448-8.006Z" fill="#00aac5"/>
    <path d="M272.504,174.162c3.223-.139,3.767,1.184,11.558,3.934,7.838,2.766,10.867,2.691,11.676,4.855.933,2.497-2.022,5.475-3.338,6.802-3.719,3.749-12.677,9.546-21.279,5.186-4.712-2.388-10.223-8.284-8.978-13.732,1.037-4.539,6.331-6.872,10.361-7.045Z" fill="#007ea7"/>
    <path d="M303.74,192.473c3.474-.285,4.004,1.113,12.272,3.737,8.317,2.64,11.581,2.43,12.36,4.721.899,2.642-2.407,5.967-3.88,7.448-4.161,4.185-14.046,10.79-23.119,6.471-4.97-2.366-10.651-8.466-9.081-14.371,1.308-4.92,7.103-7.649,11.448-8.006Z" fill="#00aac5"/>
    <path d="M338.877,173.291c2.77.299,3.013,1.487,9.196,4.816,6.219,3.348,8.813,3.676,9.143,5.609.38,2.23-2.634,4.365-3.976,5.316-3.793,2.687-12.391,6.428-18.997,1.635-3.619-2.626-7.335-8.318-5.367-12.76,1.639-3.701,6.538-4.989,10.002-4.615Z" fill="#007ea7"/>
    <path d="M91.943,303.914c-2.478.084-2.931.72-9.003,2.348-6.107,1.638-8.438,1.742-9.118,2.779-.784,1.196,1.413,2.437,2.391,2.989,2.765,1.561,9.509,3.828,16.247,1.419,3.691-1.32,8.089-4.296,7.274-6.756-.679-2.049-4.693-2.884-7.792-2.779Z" fill="#007c93"/>
    <path d="M67.579,313.062c-2.478.084-2.931.72-9.003,2.348-6.107,1.638-8.438,1.742-9.118,2.779-.784,1.196,1.413,2.437,2.391,2.989,2.765,1.561,9.509,3.828,16.247,1.419,3.691-1.32,8.089-4.296,7.274-6.756-.679-2.049-4.693-2.884-7.792-2.779Z" fill="#005c93"/>
    <path d="M106.717,315.239c-2.478.084-2.931.72-9.003,2.348-6.107,1.638-8.438,1.742-9.118,2.779-.784,1.196,1.413,2.437,2.391,2.989,2.765,1.561,9.509,3.828,16.247,1.419,3.691-1.32,8.089-4.296,7.274-6.756-.679-2.049-4.693-2.884-7.792-2.779Z" fill="#007ea7"/>
    <path d="M49.833,322.962c-2.229-.399-2.967.159-9.185.626-6.255.47-8.365.12-9.515,1.041-1.327,1.062-.049,2.753.52,3.506,1.608,2.128,6.35,5.75,13.57,4.62,3.955-.619,9.415-2.784,10.003-5.444.49-2.216-2.605-3.849-5.393-4.348Z" fill="#005c93"/>
    <path d="M123.249,302.129c-1.871-.754-2.781-.298-8.666-.786-5.92-.49-7.703-1.175-9.143-.412-1.662.88-1.205,2.805-1.002,3.662.575,2.423,3.385,6.86,10.467,6.825,3.88-.019,9.786-1.384,11.445-4.01,1.382-2.188-.761-4.337-3.101-5.279Z" fill="#00aac5"/>
    <path d="M365.265,293.093c2.445-.414,3.016.119,9.291.499,6.311.382,8.616.018,9.489.898,1.008,1.015-.896,2.67-1.745,3.407-2.397,2.083-8.551,5.654-15.635,4.642-3.881-.554-8.785-2.59-8.479-5.163.255-2.144,4.021-3.765,7.078-4.282Z" fill="#007c93"/>
    <path d="M394.932,291.167c2.445-.414,3.016.119,9.291.499,6.311.382,8.616.018,9.489.898,1.008,1.015-.896,2.67-1.745,3.407-2.397,2.083-8.551,5.654-15.635,4.642-3.881-.554-8.785-2.59-8.479-5.163.255-2.144,4.021-3.765,7.078-4.282Z" fill="#005c93"/>
    <path d="M353.057,307.146c2.445-.414,3.016.119,9.291.499,6.311.382,8.616.018,9.489.898,1.008,1.015-.896,2.67-1.745,3.407-2.397,2.083-8.551,5.654-15.635,4.642-3.881-.554-8.785-2.59-8.479-5.163.255-2.144,4.021-3.765,7.078-4.282Z" fill="#007ea7"/>
    <path d="M419.799,297.35c2.104-.837,2.939-.439,9.124-1.225,6.222-.792,8.219-1.557,9.531-.884,1.513.775.599,2.687.192,3.539-1.15,2.406-5.07,6.905-12.371,7.242-3.999.185-9.781-.843-10.89-3.331-.924-2.073,1.782-4.293,4.414-5.34Z" fill="#005c93"/>
    <path d="M334.236,297.61c1.682-1.113,2.665-.849,8.334-2.504,5.702-1.665,7.312-2.693,8.876-2.234,1.804.529,1.742,2.507,1.715,3.388-.078,2.489-1.944,7.399-8.889,8.782-3.805.758-9.865.603-12.016-1.638-1.792-1.867-.122-4.401,1.982-5.793Z" fill="#00aac5"/>
    <path d="M56.063,247.334c1.498.66,1.278,1.092,3.817,3.422,2.554,2.344,3.942,2.977,3.547,3.666-.456.794-2.83.867-3.887.899-2.988.091-9.049-.457-11.387-3.344-1.281-1.582-1.691-4.169.781-5.196,2.059-.856,5.257-.272,7.13.554Z" fill="#005c93"/>
    <path d="M38.455,225.347c1.654.485,1.578.941,4.763,2.97,3.204,2.041,4.744,2.512,4.579,3.245-.19.846-2.459,1.194-3.469,1.349-2.856.439-8.88.596-12.047-2.013-1.735-1.429-2.946-3.963-.884-5.276,1.718-1.094,4.99-.883,7.058-.277Z" fill="#005c93"/>
    <path d="M52.514,234.282c1.654.485,1.578.941,4.763,2.97,3.204,2.041,4.744,2.512,4.579,3.245-.19.846-2.459,1.194-3.469,1.349-2.856.439-8.88.596-12.047-2.013-1.735-1.429-2.946-3.963-.884-5.276,1.718-1.094,4.99-.883,7.058-.277Z" fill="#00aac5"/>
    <path d="M69.256,241.501c1.654.485,1.578.941,4.763,2.97,3.204,2.041,4.744,2.512,4.579,3.245-.19.846-2.459,1.194-3.469,1.349-2.856.439-8.88.596-12.047-2.013-1.735-1.429-2.946-3.963-.884-5.276,1.718-1.094,4.99-.883,7.058-.277Z" fill="#005c93"/>
    <path d="M432.677,236.582c-1.472.45-1.314.755-3.942,2.368-2.643,1.622-4.01,2.055-3.716,2.542.339.561,2.548.633,3.532.665,2.78.09,8.502-.242,11.003-2.248,1.371-1.099,2.038-2.91-.157-3.653-1.829-.619-4.88-.236-6.72.327Z" fill="#005c93"/>
    <path d="M451.544,221.306c-1.598.326-1.578.647-4.776,2.043-3.217,1.405-4.708,1.722-4.634,2.238.084.595,2.165.859,3.092.977,2.619.333,8.228.495,11.473-1.308,1.778-.988,3.188-2.755,1.407-3.694-1.484-.782-4.563-.663-6.561-.256Z" fill="#005c93"/>
    <path d="M437.43,227.454c-1.598.326-1.578.647-4.776,2.043-3.217,1.405-4.708,1.722-4.634,2.238.084.595,2.165.859,3.092.977,2.619.333,8.228.495,11.473-1.308,1.778-.988,3.188-2.755,1.407-3.694-1.484-.782-4.563-.663-6.561-.256Z" fill="#00aac5"/>
    <path d="M420.999,232.374c-1.598.326-1.578.647-4.776,2.043-3.217,1.405-4.708,1.722-4.634,2.238.084.595,2.165.859,3.092.977,2.619.333,8.228.495,11.473-1.308,1.778-.988,3.188-2.755,1.407-3.694-1.484-.782-4.563-.663-6.561-.256Z" fill="#005c93"/>
    <path d="M228.305,220.658c-1.292.072-1.528.618-4.693,2.017-3.184,1.406-4.398,1.496-4.753,2.387-.409,1.027.736,2.093,1.246,2.567,1.441,1.341,4.957,3.287,8.469,1.218,1.924-1.133,4.217-3.689,3.792-5.802-.354-1.76-2.447-2.477-4.062-2.386Z" fill="#007c93"/>
    <path d="M236.006,230.384c-1.292.072-1.528.618-4.693,2.017-3.184,1.406-4.398,1.496-4.753,2.387-.409,1.027.736,2.093,1.246,2.567,1.441,1.341,4.957,3.287,8.469,1.218,1.924-1.133,4.217-3.689,3.792-5.802-.354-1.76-2.447-2.477-4.062-2.386Z" fill="#007ea7"/>
    <path d="M244.624,219.125c-.975-.647-1.45-.256-4.517-.675-3.086-.421-4.015-1.009-4.766-.354-.866.755-.628,2.409-.522,3.145.3,2.081,1.765,5.891,5.456,5.861,2.022-.016,5.101-1.189,5.966-3.444.721-1.879-.397-3.724-1.616-4.534Z" fill="#00aac5"/>
    <path d="M269.36,220.658c1.292.072,1.528.618,4.693,2.017,3.184,1.406,4.398,1.496,4.753,2.387.409,1.027-.736,2.093-1.246,2.567-1.441,1.341-4.957,3.287-8.469,1.218-1.924-1.133-4.217-3.689-3.792-5.802.354-1.76,2.447-2.477,4.062-2.386Z" fill="#007c93"/>
    <path d="M261.659,230.384c1.292.072,1.528.618,4.693,2.017,3.184,1.406,4.398,1.496,4.753,2.387.409,1.027-.736,2.093-1.246,2.567-1.441,1.341-4.957,3.287-8.469,1.218-1.924-1.133-4.217-3.689-3.792-5.802.354-1.76,2.447-2.477,4.062-2.386Z" fill="#007ea7"/>
    <path d="M253.041,219.125c.975-.647,1.45-.256,4.517-.675,3.086-.421,4.015-1.009,4.766-.354.866.755.628,2.409.522,3.145-.3,2.081-1.765,5.891-5.456,5.861-2.022-.016-5.101-1.189-5.966-3.444-.721-1.879.397-3.724,1.616-4.534Z" fill="#00aac5"/>
  </g>
</svg>