<?xml version="1.0" encoding="UTF-8"?>
<svg id="Layer_1" xmlns="http://www.w3.org/2000/svg" width="500" height="500" version="1.1" xmlns:xlink="http://www.w3.org/1999/xlink" viewBox="0 0 500 500">
  <!-- Generator: Adobe Illustrator 29.6.1, SVG Export Plug-In . SVG Version: 2.1.1 Build 9)  -->
  <defs>
    <linearGradient id="linear-gradient" x1="0" y1="365.162" x2="500" y2="365.162" gradientUnits="userSpaceOnUse">
      <stop offset="0" stop-color="#b7efff"/>
      <stop offset=".504" stop-color="#66f3ff"/>
      <stop offset=".826" stop-color="#0e82ff"/>
    </linearGradient>
    <linearGradient id="linear-gradient1" x1="0" y1="116.936" x2="500" y2="116.936" gradientUnits="userSpaceOnUse">
      <stop offset="0" stop-color="#fff"/>
      <stop offset=".424" stop-color="#66f3ff" stop-opacity=".3"/>
      <stop offset=".759" stop-color="#fff" stop-opacity=".4"/>
      <stop offset="1" stop-color="#0e82ff" stop-opacity=".2"/>
    </linearGradient>
    <linearGradient id="linear-gradient2" x1="250" y1="370.352" x2="250" y2="90.296" gradientUnits="userSpaceOnUse">
      <stop offset="0" stop-color="#2484c6"/>
      <stop offset="1" stop-color="#2484c6" stop-opacity="0"/>
    </linearGradient>
    <linearGradient id="linear-gradient3" x1="26.446" y1="499.583" x2="408.448" y2="117.581" xlink:href="#linear-gradient"/>
    <linearGradient id="linear-gradient4" x1="-6.973" y1="488.13" x2="431.676" y2="234.875" gradientUnits="userSpaceOnUse">
      <stop offset="0" stop-color="#ffefff"/>
      <stop offset=".504" stop-color="#4796ff"/>
      <stop offset=".916" stop-color="#0577ff"/>
    </linearGradient>
    <linearGradient id="linear-gradient5" x1="424.787" y1="276.872" x2="424.787" y2="276.872" xlink:href="#linear-gradient"/>
  </defs>
  <g>
    <rect x="0" y="230.324" width="500" height="269.676" fill="url(#linear-gradient)"/>
    <rect x="0" y="0" width="500" height="233.872" fill="url(#linear-gradient1)"/>
    <path d="M500,333.481c-48.445-30.236-88.925-37.674-116.428-39.064-115.152-5.819-173.333,85.767-284.936,75.064C55.067,365.303,21.07,347.234,0,333.481V114.928c69.407,42.725,123.634,47.873,160.678,44.426,80.956-7.534,114.708-59.364,202.979-67.915,56.52-5.475,104.598,9.777,136.343,23.489v218.553Z" fill="url(#linear-gradient2)"/>
  </g>
  <g>
    <path d="M500.12,473.257H.12c.457-132.023.914-264.046,1.371-396.069,10.244-2.341,25.47-5.838,43.915-10.138,67.317-15.694,79.244-19.182,90.894-21.591,71.787-14.845,138.911,10.697,160.13,17.77,0,0,79.567,28.759,118.679,85.523,3.475,5.044,9.404,14.347,12.255,27.574,6.535,30.322-5.578,69.793-24.511,74.553-32.041,8.055-65.578-87.838-101.106-79.66-15.602,3.591-24.467,25.613-25.532,40.851-2.315,33.124,30.473,59.293,50.043,68.426,40.075,18.702,82.597-3.157,105.628-14.64,34.973-17.438,56.691-41.941,67.989-56.849l.246,264.25Z" fill="url(#linear-gradient3)"/>
    <path d="M21.917,84.412c5.923.794,6.533,9.093,12.255,10.213,5.811,1.137,7.734-6.925,16.34-10.213,13.277-5.072,22.284,8.926,35.745,3.919,7.925-2.948,5.643-8.113,15.319-12.089,8.641-3.551,12.207-.15,25.532-4.085,6.162-1.82,6.414-2.846,12.255-4.085,4.475-.949,11.213-2.3,18.383,0,4.752,1.524,4.832,3.092,9.191,5.106,10.357,4.786,15.411-1.52,26.553,1.021,8.97,2.046,14.917,8.236,22.468,16.098,5.754,5.99,7.813,9.901,11.234,14.541,14.748,20,30.427,13.544,40.851,29.617,6.146,9.476,3.848,15.441,11.234,20.426,7.365,4.971,12.938.287,20.426,4.085,19.947,10.118,23.119,44.351,21.447,44.936-1.061.372-6.755-11.87-6.128-12.255.411-.252,7.044,31.077,30.638,54.128,15.234,14.882,28.641,18.156,34.723,19.149,4.617.754,12.618,1.959,21.447-1.532,4.032-1.595,9.729-4.759,18.383-16.085,6.305-8.252,24.961-32.669,17.617-42.894-4.146-5.772-11.653-.163-22.723-5.617-18.887-9.306-17.799-36.116-28.596-36.766-7.735-.465-8.859,12.745-20.426,16.34-16.659,5.179-43.507-13.151-49.021-34.723-3.335-13.047,2.83-20.643-3.064-26.553-8.732-8.756-27.521,2.648-34.723-6.128-4.709-5.738,2.321-11.838-2.043-20.668-4.666-9.443-18.098-13.384-37.787-19.162-9.592-2.815-13.41-3.099-16.34-7.149-5.407-7.474,1.474-14.968-3.064-23.088-5.484-9.813-23.867-13.778-34.723-7.551-7.777,4.461-6.033,10.907-12.255,13.277-12.797,4.872-26.206-20.091-40.851-16.252-10.29,2.698-7.449,16.013-19.404,20.337-10.376,3.753-20.163-3.512-39.83-3.064-2.293.052-6.854.258-11.234,3.064-4.21,2.697-5.006,5.717-7.149,8.17-8.352,9.562-26.051-2.208-37.787,6.128-9.657,6.859-10.164,23.702-7.149,25.289,2.303,1.212,6.256-6.689,12.255-5.885Z" fill="#fff"/>
    <path d="M413.066,333.603c-.014.321-52.32,7.305-119.489-14.553-45.82-14.911-84.61-27.534-109.277-66.128-29.955-46.867-27.943-114.567,0-147.064,6.548-7.615,15.861-14.921,15.319-15.562-.87-1.029-27.525,14.655-45.957,42.115-12.535,18.674-19.565,37.457-17.362,38.809,1.99,1.22,10.059-12.68,14.809-10.979,5.974,2.14-.916,26.24.766,46.723,2.911,35.456,31.521,60.242,47.745,74.298,77.214,66.895,213.47,51.822,213.447,52.34Z" fill="#fff" opacity=".82"/>
    <path d="M357.917,302.965c-.06.359-38.725-1.589-80.17-20.681-11.936-5.499-19.307-10.21-23.758-13.277-9.726-6.701-26.252-18.087-38.029-38.683-7.954-13.911-9.899-27.528-13.787-54.764-4.131-28.931-.929-36.551,2.553-41.362,7.574-10.465,21.413-15.241,22.468-13.787.71.979-4.658,4.434-9.191,11.165-7.137,10.596-7.128,21.768-6.894,38.367.205,14.508.381,26.999,6.894,41.635,3.813,8.569,7.989,13.792,16.34,24.237,6.217,7.775,15.164,19.345,30.128,30.638,17.34,13.087,32.985,20.114,39.83,22.979,30.033,12.571,53.664,13.252,53.617,13.532Z" fill="#fff" opacity=".76"/>
    <path d="M238.938,168.922c-9.16,28.15,2.924,54.86,6.128,61.402,7.549,15.414,17.624,24.686,24.511,31.023,16.556,15.236,33.032,22.219,33.191,21.957.153-.251-14.943-6.97-30.638-22.468-5.885-5.811-15.32-15.302-22.009-30.513-3.98-9.05-5.445-16.614-7.097-25.147-2.124-10.969-3.641-18.808-2.553-28.596,1.83-16.458,9.852-27.865,9.41-28.085-.387-.192-7.001,8.316-10.942,20.426Z" fill="#fff" opacity=".97"/>
    <path d="M58.442,180.552c9.183,27.575,24.236,45.429,52.347,78.325,8.415,9.847,15.658,17.164,21.783,22.841,4.908,4.549,8.364,7.776,13.168,11.417,3.973,3.011,18.362,13.512,41.113,20.298,18.589,5.545,31.194,5.16,31.149,5.617-.061.617-23.36,3.87-44.761-7.613-10.169-5.457-21.747-15.147-26.903-19.599-7.06-6.095-18.522-16.096-33.543-34.215-8.937-10.781-15.668-20.253-23.26-30.939-9.76-13.736-16.735-23.553-24.259-36.551-6.287-10.86-10.953-20.478-14.1-27.428-3.005-6.636-4.755-9.872-4.994-11.428-3.118-20.265,30.368-41.391,30.884-40.822.352.389-16.3,9.143-22.468,28.085-4.916,15.097-.584,28.715,3.844,42.013Z" fill="#fff" opacity=".24"/>
    <path d="M59.194,154.369c-.414,14.759,9.624,26.522,10.723,26.043,1-.436-5.922-10.769-5.362-26.043.583-15.89,8.858-26.036,7.915-26.553-1.046-.573-12.841,11.03-13.277,26.553Z" fill="#fff" opacity=".9"/>
    <path d="M144.981,239.646c-8.384-15.634-15.924-27.794-21.447-36.255-5.63-8.626-9.168-13.417-10.723-21.447-1.962-10.128.624-18.213,4.085-28.596,12.613-37.841,17.186-51.244,16.45-51.574-.786-.354-7.266,14.402-20.535,37.787-9.196,16.207-9.987,15.998-11.234,20.426-5.398,19.17,5.301,37.751,15.319,55.149,5.216,9.058,17.243,29.946,38.809,44.426,3.781,2.538,10.562,6.698,20.936,14.298,9.558,7.002,21.853,16.009,21.031,17.362-1.037,1.707-24.984-5.457-43.985-24-11.005-10.74-15.862-20.915-28.11-33.655-1.423-1.48-6.028-6.202-11.234-13.372-1.867-2.571-3.06-4.423-5.106-7.611-13.811-21.517-14.587-22.945-15.319-25.532-.64-2.26-1.548-6.472.511-19.915,2.56-16.712,8.808-41.825,12.255-41.362,2.59.348,4.029,15.19.511,71.489" fill="#fff" opacity=".63"/>
    <path d="M202.422,325.779c.186.309-16.636,10.034-44.611,6.664-8.057-.971-13.801-2.637-17.4-3.824-7.863-2.592-21.224-6.997-38.045-20.261-11.361-8.959-20.112-19.437-37.616-40.394-18.593-22.262-21.75-29.378-23.151-34.299-3.182-11.176.696-18.034,1.051-17.754.239.189-.777,3.896,1.025,10.592,1.635,6.073,5.08,12.718,6.29,13.092,1.759.543-1.954-12.403-.081-11.902,1.793.48,5.134,12.323,14.212,26.265,2.049,3.148,4.804,7.036,26.696,30.485,12.662,13.562,19.058,20.397,22.241,22.995,10.635,8.681,18.753,11.747,30.136,16.045,14.686,5.546,25.141,6.672,29.592,6.995,19.533,1.417,29.515-4.94,29.66-4.699Z" fill="#fff" opacity=".76"/>
    <path d="M500.12,500H-.12c.399-101.128.799-202.256,1.198-303.384,4.483-6.424,48.435-67.371,116.584-64.97,63.397,2.234,113.908,58.097,107.489,72.511-5.216,11.711-46.373-7.637-69.191,15.574-18.928,19.254-10.919,53.227-10.527,54.796,9.727,38.908,52.801,57.945,79.463,69.289,99.467,42.321,215.805,22.999,274.984,9.191.08,48.998.16,97.995.241,146.993Z" fill="url(#linear-gradient4)" opacity=".78"/>
    <path d="M23.449,187.56c12.34-4.643,17.436.604,29.106-3.064,15.009-4.717,14.342-15.836,24.511-16.085,10.418-.255,12.222,11.389,24.159,12.014,11.788.618,18.768-10.279,24.862-6.652,3.79,2.255,1.385,6.644,5.903,11.489,3.835,4.113,7.561,3.086,21.672,6.894,1.043.281,5.546,1.675,14.553,4.459,10.082,3.117,15.157,4.692,16.851,5.498,9.22,4.386,9.996,8.759,17.358,13.789,11.277,7.706,24.068,7.432,27.686,7.354,2.882-.062,31.569-1.113,40.744-22.675,6.162-14.482-.611-28.505-1.683-30.638-7.951-15.822-26.373-24.17-40.445-22.083-8.908,1.321-10.346,5.974-20.681,6.251-5.312.142-8.031-1.004-22.979-5.617-19.686-6.075-17.125-4.752-22.979-6.89-18.956-6.926-18.256-10.739-30.097-13.808-9.918-2.57-17.771-1.714-33.477,0-17.078,1.863-25.617,2.795-32.65,6.876-14.827,8.604-16.449,21.04-32.457,25.315-3.149.841-5.661,1.308-9.957,3.064-7.199,2.943-16.488,10.265-15.42,17.376.546,3.634,3.743,6.813,6.994,7.901,3.537,1.184,6.892-.189,8.426-.766Z" fill="#fff"/>
    <g>
      <path d="M413.066,383.241c.143.293-48.122,35.022-125.224,52.214-52.596,11.727-97.122,21.655-140.429.794-52.592-25.333-83.811-86.617-72.136-130.744,2.736-10.341,8.356-21.913,7.506-22.188-1.364-.441-20.013,28.037-24.76,62.5-3.228,23.437-.963,43.969,1.878,43.968,2.565,0,3.721-16.757,9.249-17.835,6.954-1.355,11.966,23.828,23.675,41.121,20.268,29.934,60.7,36.37,83.628,40.02,109.12,17.37,236.381-70.325,236.613-69.851Z" fill="#fff" opacity=".82"/>
      <path d="M341.024,397.336c.117.352-39.049,19.703-89.373,25.327-14.493,1.62-24.088,1.451-29.992,1.151-12.899-.654-34.815-1.766-56.557-13.655-14.684-8.03-23.285-19.076-40.488-41.169-18.273-23.469-18.846-31.988-17.765-38.164,2.455-14.027,14.984-24.76,15.441-24.508.308.17-4.421,5.578-6.089,14.019-1.513,7.656-.037,15.43,1.967,15.496,2.913.096,5.706-16.141,8.866-16.143,3.025-.002.366,14.872,6.958,30.507,1.488,3.53,3.748,7.808,27.357,31.687,13.655,13.811,20.565,20.765,24.613,23.135,13.523,7.917,26.544,9.122,44.802,10.811,23.556,2.179,42.464-.104,50.633-1.289,35.846-5.199,59.534-17.479,59.625-17.205Z" fill="#fff" opacity=".76"/>
      <path d="M129.617,274.169c3.994,44.547,30.801,78.884,37.637,87.202,16.108,19.596,31.928,29.271,42.742,35.884,25.997,15.898,47.76,19.792,47.805,19.351.044-.425-20.058-4.461-45.233-21.07-9.439-6.227-24.661-16.467-39.714-36.095-8.957-11.678-14.38-22.15-20.497-33.962-7.864-15.185-13.483-26.037-17.195-40.726-6.241-24.698-3.084-44.396-3.685-44.547-.526-.133-3.579,14.798-1.861,33.962Z" fill="#fff" opacity=".42"/>
      <path d="M102.042,445.885c-15.954-9.328-29.37-16.027-38.978-20.538-9.795-4.599-15.642-6.929-21.117-13.22-6.906-7.934-8.317-16.532-9.989-27.65-6.097-40.519-8.152-54.928-9.041-54.821-.951.114-.116,16.765-1.759,44.791-1.139,19.423-2.023,19.669-1.083,24.284,4.068,19.986,23.756,30.671,42.19,40.676,9.597,5.209,31.73,17.221,60.144,18.335,4.981.195,13.723.196,27.703,1.296,12.88,1.013,29.449,2.317,29.3,3.968-.188,2.083-27.367,8.771-55.241,2.646-16.144-3.547-25.934-9.945-44.288-14.594-2.132-.54-8.999-2.226-17.661-5.762-3.106-1.268-5.194-2.264-8.78-3.982-24.203-11.598-25.67-12.445-27.663-14.346-1.741-1.661-4.705-4.91-9.264-17.983-5.668-16.253-11.811-41.986-8.177-43.454,2.73-1.103,11.433,11.307,35.571,63.278" fill="#fff" opacity=".63"/>
    </g>
    <path d="M151.037,468.362c37.457,21.681,83.803,31.917,125.607,17.432,13.777-4.783,26.458-11.988,39.594-18.376,9.896-4.798,20.376-9.068,31.045-11.946,46.832-13.256,96.977-.248,138.932,22.006,0,0-.214.452-.214.452-13.52-5.597-27.265-10.532-41.264-14.415-30.411-8.491-62.725-11.275-93.65-4.181-11.41,2.682-22.491,6.752-33.139,11.7-13.254,6.174-26.266,13.254-40.27,17.841-28.188,9.191-59.11,7.69-87.046-1.644-13.977-4.552-27.27-10.955-39.847-18.438,0,0,.251-.432.251-.432h0Z" fill="#fff"/>
    <path d="M164.809,436.076c37.457,21.681,83.803,31.917,125.607,17.432,13.777-4.783,26.458-11.988,39.594-18.376,9.896-4.798,20.376-9.068,31.045-11.946,46.832-13.256,96.977-.248,138.932,22.006,0,0-.214.452-.214.452-13.52-5.597-27.265-10.532-41.264-14.415-30.411-8.491-62.725-11.275-93.65-4.181-11.41,2.682-22.491,6.752-33.139,11.7-13.254,6.174-26.266,13.254-40.27,17.841-28.188,9.191-59.11,7.69-87.046-1.644-13.977-4.552-27.27-10.955-39.847-18.438,0,0,.251-.432.251-.432h0Z" fill="#fff"/>
  </g>
  <path d="M193.899,187.436c-.682,1.742,12.299,12.827,30.113,15.548,7.118,1.087,28.759,4.393,34.945-8.834,4.428-9.469-.522-24.291-9.886-31.096-11.444-8.317-26.659-2.612-26.789,0-.166,3.355,24.502,2.657,28.064,15.195,1.435,5.05-.779,11.456-4.39,15.195-13.974,14.471-50.946-8.849-52.058-6.007Z" fill="#9ee1ff" stroke="#fff" stroke-miterlimit="10"/>
  <path d="M118.064,161.383c3.471-4.363,12.2-5.155,17.835-1.238,3.13,2.175,5.756,6.117,4.778,7.611-1.105,1.689-5.578-1.637-14.712-1.522-4.927.062-8.243,1.088-9.178-.511-.904-1.545,1.187-4.228,1.277-4.34Z" fill="#9ee1ff" stroke="#fff" stroke-miterlimit="10"/>
  <path d="M62.149,164.532c-5.714,3.075-5.977,4.255-9.191,4.766-5.528.878-7.892-2.114-11.915-.34-3.161,1.393-2.546,3.613-6.128,6.128-5.333,3.745-12.779,3.094-13.277,1.532-.495-1.553,5.989-3.676,5.617-6.809-.2-1.686-2.32-3.1-4.085-3.064-3.188.066-6.033,4.883-5.277,8.17,1.055,4.589,9.456,7.628,15.149,5.511,5.118-1.903,4.707-6.729,9.872-8.234,4.661-1.358,6.298,2.193,11.915,1.191,3.996-.713,3.967-2.652,11.033-6.638,3.746-2.113,7.765-4.38,12.967-5.106,7.498-1.047,12.973,1.733,13.106,1.286.147-.492-6.241-4.665-14.128-4.18-5.54.341-10.268,2.886-15.66,5.787Z" fill="#9ee1ff" stroke="#fff" stroke-miterlimit="10"/>
  <path d="M352.617,196.277c3.036,1.189,14.278,5.59,22.128.681,7.942-4.967,6.801-15.959,11.234-16.34,3.673-.316,4.527,7.222,11.915,14.638,10.77,10.811,24.802,10.7,24.511,14.638-.145,1.965-3.777,3.887-7.149,4.085-9.854.578-12.9-13.847-24.17-15.66-6.677-1.074-7.155,3.74-18.723,6.128-1.595.329-22.188,4.305-32.34-7.059-4.041-4.524-5.72-10.686-4.426-11.664,1.598-1.207,6.48,6.426,17.021,10.553Z" fill="#9ee1ff" stroke="#fff" stroke-miterlimit="10"/>
  <path d="M341.025,224.872c.922-.796,9.609,16.926,27.252,20.766,24.235,5.275,46.53-19.747,50.043-15.66,2.098,2.441-4.566,12.867-12.936,19.064-13.933,10.315-30,6.992-32.34,6.468-23.214-5.197-33.073-29.727-32.018-30.638Z" fill="#9ee1ff" stroke="#fff" stroke-miterlimit="10"/>
  <path d="M284.447,151c1.134-3.205,11.681-3.812,19.404-.766,14.533,5.732,19.051,24.394,18.128,24.938-.898.529-6.419-16.383-18.766-18.299-6.412-.995-12.443,2.397-16.723-1.532-.176-.162-2.688-2.517-2.043-4.34Z" fill="#9ee1ff" stroke="#fff" stroke-miterlimit="10"/>
  <path d="M235.571,106.83c-.649,1.023,5.858,7.832,14.429,11.745,3.765,1.719,5.206,1.636,8.404,3.83,5.201,3.567,6.678,7.411,8.426,6.894,1.708-.506,3.025-4.984,1.532-8.426-1.863-4.294-6.86-4.109-19.66-8.936-9.033-3.407-12.682-5.814-13.131-5.106Z" fill="#9ee1ff" stroke="#fff" stroke-miterlimit="10"/>
  <path d="M181.723,68.957c3.399-4.523,10.359-6.917,16.681-5.277,5.619,1.458,10.917,6.149,11.574,11.574.075.618.435,3.59-.851,4.255-2.213,1.145-5.333-6.6-12.426-8.511-7.707-2.076-15.152,4.072-16.511,2.043-.725-1.082,1.014-3.396,1.532-4.085Z" fill="#9ee1ff" stroke="#fff" stroke-miterlimit="10"/>
  <path d="M151.596,63.851c-3.478-.111-4.115,1.078-8,1.191-3.833.112-4.439-1.009-7.697-1.191-7.076-.396-10.917,4.517-12.048,3.404-1.796-1.767,6.293-15.726,11.915-14.638,2.894.56,2.929,4.681,6.638,5.617,3.969,1.002,6.062-3.179,10.043-2.383,4.783.956,7.875,8.215,6.638,9.532-.798.851-2.832-1.383-7.489-1.532Z" fill="#9ee1ff" stroke="#fff" stroke-miterlimit="10"/>
  <path d="M94.745,71.17c.898,2.883-4.79,8.124-10.723,9.872-9.768,2.878-19.933-3.791-19.574-5.277.209-.868,3.83.776,9.532-.851,6.959-1.986,8.288-6.353,13.957-6.468,2.571-.052,6.199.767,6.809,2.723Z" fill="#9ee1ff" stroke="#fff" stroke-miterlimit="10"/>
  <path d="M45.977,79.681c.809,2.022-3.047,7.605-7.913,6.809-3.405-.557-6.117-4.045-5.447-5.957,1.12-3.199,12.258-3.605,13.36-.851Z" fill="#9ee1ff" stroke="#fff" stroke-miterlimit="10"/>
  <path d="M15.936,73.213c-1.525,1.301-1.895,4.279-.681,5.787,2.348,2.917,10.532.217,10.723-2.043.187-2.205-7.049-6.298-10.043-3.745Z" fill="#9ee1ff" stroke="#fff" stroke-miterlimit="10"/>
  <path d="M335.166,120.156c9.824,10.738,14.974,25.007,15.919,27.704,2.774,7.919,3.585,13.97,4.426,13.854.986-.135,1.472-8.684-.681-17.012-.995-3.85-3.541-11.469-11.234-20.085-14.928-16.719-35.226-21.498-35.404-21.106-.151.334,14.767,3.301,26.975,16.645Z" fill="#9ee1ff"/>
  <path d="M393.4,142.937c10.775,20.982,12.951,45.435,17.6,44.999,1.155-.108,1.915-1.701,2.744-3.441,2.479-5.199,1.442-11.002-.681-17.012-4.196-11.879-10.927-19.733-11.234-20.085-19.196-21.988-47.789-46.343-48.361-45.631-.488.607,25.131,12.348,39.932,41.17Z" fill="#9ee1ff"/>
  <path d="M284.341,208.957c8.905,3.659,13.434,15.752,10.744,18.538-1.539,1.594-4.194-1.151-16.014-2.649-3.043-.385-4.377-.395-5.661-1.567-3.343-3.052-3.327-11.232,1.072-14.322,3.639-2.555,8.66-.492,9.859,0Z" fill="#fff"/>
  <path d="M145.433,204.156c-1.157,3.358,10.644,7.359,10.527,15.574-.083,5.837-6.106,8.39-5.048,10.594,1.986,4.138,26.478,1.902,28.77-8.601,1.428-6.544-6.474-13.044-7.66-14.019-10.027-8.248-25.357-7.123-26.589-3.548Z" fill="#fff"/>
  <path d="M156.702,241.128c-.917,2.203,1.588,6.329,5.106,7.149,5.114,1.192,9.604-5.248,8.681-7.636-1.164-3.011-12.296-3.096-13.787.487Z" fill="#fff"/>
  <path d="M202.424,233.872c-2.517,2.612-2.404,8.179,0,10.369,2.379,2.168,6.12.225,13.512-.826,12.49-1.776,19.274,1.286,19.635,0,.726-2.589-26.297-16.653-33.147-9.543Z" fill="#fff"/>
  <path d="M443.17,235.511" fill="#fff"/>
  <path d="M437.553,245.224c.294-6.995,2.06-21.801,5.617-21.945,3.554-.144,9.734,14.312,5.106,25.143-2.01,4.704-6.385,9.489-8.759,8.655-2.426-.852-2.153-7.357-1.964-11.853Z" fill="#fff"/>
  <path d="M407.936,286.574c.673,3.664,14.24,7.739,21.957,1.532,9.082-7.305,5.004-24.782,1.532-25.532-1.921-.415-2.817,4.472-9.702,11.745-8.061,8.515-14.263,9.664-13.787,12.255Z" fill="#fff"/>
  <path d="M424.787,276.872" fill="url(#linear-gradient5)"/>
  <path d="M327.255,256.434c-2.294.677-3.509,5.525-2.553,9.316,2.031,8.059,13.691,10.621,16.246,11.182,8.173,1.796,16.793.227,16.968-1.592.193-1.999-10.082-1.489-19.938-9.59-6.064-4.984-8.138-10.079-10.723-9.316Z" fill="#fff"/>
  <path d="M378.788,273.809c-2.802,1.419-4.574,5.071-3.532,6.638,1.831,2.755,13.028.097,13.277-2.721.182-2.06-5.315-6.16-9.744-3.917Z" fill="#fff"/>
  <path d="M442.149,284.532c3.643,3.139,10.422.227,11.234-2.925.999-3.879-6.508-10.168-10.213-8.45-2.948,1.367-4.579,8.31-1.021,11.376Z" fill="#fff"/>
  <path d="M443.17,175.184c4.164,10.869,3.336,16.434,6.761,17.433,4.112,1.2,11.415-5.043,11.622-11.186.051-1.526-.28-4.684-16.851-18.431-10.555-8.756-11.508-8.377-11.745-8.17-1.234,1.076,5.335,7.621,10.213,20.354Z" fill="#fff"/>
  <path d="M467.17,197.302c-5.603-.266-13.114,16.227-9.191,20.337,2.596,2.72,11.996,1.897,15.319-5.057,3.425-7.167-2.349-15.101-6.128-15.28Z" fill="#fff"/>
  <path d="M179.413,141.043c-1.41-3.162,11.838-14.09,15.637-11.698,1.846,1.162,1.439,5.455,0,8.123-3.501,6.492-14.547,6.019-15.637,3.574Z" fill="#fff"/>
  <path d="M207.511,116.936c-2.449-.702-4.821,1.638-4.596,2.66.325,1.47,6.448,2.084,7.167.56.415-.881-.855-2.728-2.571-3.22Z" fill="#fff"/>
  <path d="M303.217,224.846c1.996-.715,3.107-1.113,3.74-.612,1.542,1.218.439,7.908-3.74,9.638-2.887,1.195-6.91-.114-7.361-1.986-.346-1.435,1.442-3.063,2.931-4.418.464-.423,1.987-1.747,4.43-2.622Z" fill="#fff"/>
</svg>