<?xml version="1.0" encoding="utf-8"?>
<!-- Generator: Adobe Illustrator 26.5.0, SVG Export Plug-In . SVG Version: 6.00 Build 0)  -->
<svg version="1.1" id="Layer_1" xmlns="http://www.w3.org/2000/svg" xmlns:xlink="http://www.w3.org/1999/xlink" x="0px" y="0px"
	 viewBox="0 0 220 80" style="enable-background:new 0 0 220 80;" xml:space="preserve">
<style type="text/css">
	.st0{opacity:0;}
	.st1{fill:#FFFFFF;}
	.st2{fill:#007C8A;}
	.st3{fill:#00A5B5;}
	.st4{fill:#6DBE4B;}
	.st5{fill:#E8E8E8;}
	.st6{fill:#035157;}
</style>
<g class="st0">
	<rect class="st1" width="220" height="80"/>
</g>
<g>
	<path class="st2" d="M52,32.1h2.6v9.5h4.6v2.2H52V32.1z"/>
	<path class="st2" d="M62.6,40.4c0.1,1.1,1.2,1.6,2.4,1.6c0.9,0,1.6-0.1,2.3-0.3l0.3,1.8c-0.9,0.3-1.9,0.5-3.1,0.5
		c-2.9,0-4.5-1.7-4.5-4.3c0-2.1,1.3-4.5,4.3-4.5c2.7,0,3.8,2.1,3.8,4.2c0,0.5-0.1,0.8-0.1,1H62.6z M65.7,38.6c0-0.6-0.3-1.7-1.5-1.7
		c-1.1,0-1.6,1-1.6,1.7H65.7z"/>
	<path class="st2" d="M74.5,43.8L74.4,43h-0.1c-0.6,0.7-1.4,1-2.4,1c-1.7,0-2.7-1.2-2.7-2.6c0-2.2,2-3.3,5-3.2v-0.1
		c0-0.5-0.2-1.1-1.5-1.1c-0.9,0-1.8,0.3-2.3,0.6l-0.5-1.7c0.6-0.3,1.7-0.7,3.3-0.7c2.8,0,3.7,1.7,3.7,3.7v2.9c0,0.8,0,1.6,0.1,2.1
		H74.5z M74.2,39.8c-1.4,0-2.5,0.3-2.5,1.3c0,0.7,0.5,1,1,1c0.7,0,1.2-0.4,1.4-1c0-0.1,0.1-0.3,0.1-0.5V39.8z"/>
	<path class="st2" d="M87.1,31.5v9.8c0,1,0,2,0.1,2.5h-2.3l-0.1-1.2h0c-0.5,1-1.6,1.4-2.6,1.4c-2,0-3.6-1.7-3.6-4.3
		c0-2.9,1.8-4.5,3.8-4.5c1,0,1.9,0.4,2.2,1h0v-4.6H87.1z M84.4,38.9c0-0.1,0-0.3,0-0.5c-0.2-0.7-0.7-1.3-1.5-1.3
		c-1.2,0-1.8,1.1-1.8,2.4c0,1.4,0.7,2.3,1.8,2.3c0.8,0,1.4-0.5,1.5-1.3c0.1-0.2,0.1-0.4,0.1-0.6V38.9z"/>
	<path class="st2" d="M94.3,34.4h-3.1v-2.2h9v2.2H97v9.5h-2.6V34.4z"/>
	<path class="st2" d="M102.1,40.4c0.1,1.1,1.2,1.6,2.4,1.6c0.9,0,1.6-0.1,2.3-0.3l0.3,1.8c-0.9,0.3-1.9,0.5-3.1,0.5
		c-2.9,0-4.5-1.7-4.5-4.3c0-2.1,1.3-4.5,4.3-4.5c2.7,0,3.8,2.1,3.8,4.2c0,0.5-0.1,0.8-0.1,1H102.1z M105.2,38.6
		c0-0.6-0.3-1.7-1.5-1.7c-1.1,0-1.6,1-1.6,1.7H105.2z"/>
	<path class="st2" d="M109.2,41.5c0.5,0.3,1.5,0.6,2.3,0.6c0.8,0,1.1-0.3,1.1-0.7c0-0.4-0.3-0.6-1.2-1c-1.7-0.6-2.4-1.5-2.4-2.5
		c0-1.6,1.4-2.8,3.4-2.8c1,0,1.9,0.2,2.4,0.5l-0.5,1.8c-0.4-0.2-1.1-0.5-1.8-0.5c-0.6,0-1,0.3-1,0.7c0,0.4,0.3,0.6,1.4,1
		c1.6,0.6,2.3,1.4,2.3,2.6c0,1.6-1.2,2.7-3.7,2.7c-1.1,0-2.1-0.2-2.7-0.6L109.2,41.5z"/>
	<path class="st2" d="M119.7,32.9v2.4h1.9v1.9h-1.9v3.1c0,1,0.2,1.5,1,1.5c0.3,0,0.6,0,0.8-0.1l0,2c-0.3,0.1-1,0.2-1.7,0.2
		c-0.8,0-1.6-0.3-2-0.7c-0.5-0.5-0.7-1.3-0.7-2.5v-3.5H116v-1.9h1.1v-1.8L119.7,32.9z"/>
	<path class="st2" d="M125.8,33c0,0.7-0.6,1.3-1.4,1.3c-0.8,0-1.4-0.6-1.4-1.3c0-0.8,0.5-1.3,1.4-1.3S125.8,32.2,125.8,33z
		 M123.1,43.8v-8.5h2.6v8.5H123.1z"/>
	<path class="st2" d="M127.9,38.1c0-1.1,0-2-0.1-2.7h2.3l0.1,1.2h0.1c0.3-0.5,1.2-1.4,2.6-1.4c1.7,0,3,1.1,3,3.6v5h-2.6v-4.7
		c0-1.1-0.4-1.8-1.3-1.8c-0.7,0-1.2,0.5-1.3,1c-0.1,0.2-0.1,0.4-0.1,0.7v4.9h-2.6V38.1z"/>
	<path class="st2" d="M146.1,35.4c0,0.5-0.1,1.2-0.1,2.5v4.7c0,1.6-0.3,3-1.3,3.8c-0.9,0.8-2.2,1-3.4,1c-1.1,0-2.3-0.2-3-0.7l0.5-2
		c0.5,0.3,1.5,0.6,2.5,0.6c1.2,0,2.2-0.7,2.2-2.2v-0.6h0c-0.5,0.7-1.3,1.1-2.3,1.1c-2.1,0-3.6-1.7-3.6-4.1c0-2.7,1.8-4.5,3.8-4.5
		c1.2,0,1.9,0.5,2.3,1.2h0l0.1-1H146.1z M143.4,38.8c0-0.2,0-0.3-0.1-0.5c-0.2-0.7-0.7-1.2-1.4-1.2c-1,0-1.7,0.9-1.7,2.4
		c0,1.3,0.6,2.3,1.7,2.3c0.7,0,1.2-0.5,1.4-1.1c0.1-0.2,0.1-0.5,0.1-0.7V38.8z"/>
	<path class="st2" d="M154.4,33c0,0.7-0.6,1.3-1.4,1.3c-0.8,0-1.4-0.6-1.4-1.3c0-0.8,0.5-1.3,1.4-1.3S154.4,32.2,154.4,33z
		 M151.7,43.8v-8.5h2.6v8.5H151.7z"/>
	<path class="st2" d="M156.4,38.1c0-1.1,0-2-0.1-2.7h2.3l0.1,1.2h0.1c0.3-0.5,1.2-1.4,2.6-1.4c1.7,0,3,1.1,3,3.6v5h-2.6v-4.7
		c0-1.1-0.4-1.8-1.3-1.8c-0.7,0-1.2,0.5-1.3,1c-0.1,0.2-0.1,0.4-0.1,0.7v4.9h-2.6V38.1z"/>
	<path class="st3" d="M60.6,60c-0.5,0.2-1.5,0.5-2.9,0.5c-4.4,0-6.3-2.7-6.3-5.8c0-4.1,3-6.2,6.5-6.2c1.4,0,2.4,0.3,2.9,0.5
		l-0.6,2.5C59.7,51.2,59,51,58,51c-1.8,0-3.4,1.1-3.4,3.4c0,2.1,1.3,3.4,3.4,3.4c0.8,0,1.6-0.2,2.1-0.3L60.6,60z"/>
	<path class="st3" d="M65,48.6v4.3h3.8v-4.3h3.1v11.7h-3.1v-4.6H65v4.6h-3.1V48.6H65z"/>
	<path class="st3" d="M76.8,48.6v11.7h-3.1V48.6H76.8z"/>
	<path class="st3" d="M78.5,48.6h3.1v9.1h4.5v2.6h-7.6V48.6z"/>
	<path class="st3" d="M87.2,48.7c1-0.2,2.3-0.2,3.7-0.2c2.2,0,3.6,0.4,4.8,1.2c1.3,0.9,2.1,2.3,2.1,4.5c0,2.4-0.9,3.9-2,4.8
		c-1.3,1-3.2,1.4-5.5,1.4c-1.5,0-2.5-0.1-3.1-0.2V48.7z M90.4,57.9c0.2,0,0.5,0,0.7,0c2,0,3.5-1.1,3.5-3.7c0-2.3-1.4-3.3-3.2-3.3
		c-0.5,0-0.8,0-1,0.1V57.9z"/>
	<path class="st3" d="M110.8,60c-0.5,0.2-1.5,0.5-2.9,0.5c-4.4,0-6.3-2.7-6.3-5.8c0-4.1,3-6.2,6.5-6.2c1.4,0,2.4,0.3,2.9,0.5
		l-0.6,2.5c-0.5-0.2-1.2-0.4-2.2-0.4c-1.8,0-3.4,1.1-3.4,3.4c0,2.1,1.3,3.4,3.4,3.4c0.8,0,1.6-0.2,2.1-0.3L110.8,60z"/>
	<path class="st3" d="M115.4,57.5l-0.7,2.7h-3.2l3.4-11.7h4.2l3.5,11.7h-3.4l-0.7-2.7H115.4z M117.9,55.2l-0.5-2.1
		c-0.2-0.7-0.4-1.6-0.6-2.3h0c-0.2,0.7-0.3,1.7-0.5,2.3l-0.5,2.1H117.9z"/>
	<path class="st3" d="M123.6,48.7c0.9-0.1,2.2-0.2,3.8-0.2c1.8,0,3.1,0.2,3.9,0.9c0.7,0.6,1.2,1.4,1.2,2.5c0,1.5-1.1,2.5-2,2.8v0.1
		c0.8,0.3,1.2,1.1,1.5,2.1c0.4,1.2,0.7,2.9,1,3.3h-3.2c-0.2-0.3-0.5-1.2-0.8-2.7c-0.3-1.4-0.7-1.7-1.7-1.7h-0.5v4.4h-3.1V48.7z
		 M126.7,53.6h0.8c1.2,0,1.9-0.6,1.9-1.5c0-0.9-0.6-1.4-1.6-1.4c-0.6,0-0.9,0-1.1,0.1V53.6z"/>
	<path class="st3" d="M141.1,55.5h-4.2v2.1h4.7v2.6h-7.8V48.6h7.6v2.5h-4.5V53h4.2V55.5z"/>
	<path class="st3" d="M154.7,60c-0.5,0.2-1.5,0.5-2.9,0.5c-4.4,0-6.3-2.7-6.3-5.8c0-4.1,3-6.2,6.5-6.2c1.4,0,2.4,0.3,2.9,0.5
		l-0.6,2.5c-0.5-0.2-1.2-0.4-2.2-0.4c-1.8,0-3.4,1.1-3.4,3.4c0,2.1,1.3,3.4,3.4,3.4c0.8,0,1.6-0.2,2.1-0.3L154.7,60z"/>
	<path class="st3" d="M163.3,55.5h-4.2v2.1h4.7v2.6h-7.8V48.6h7.6v2.5h-4.5V53h4.2V55.5z"/>
	<path class="st3" d="M165.1,60.3V48.6h3.7l1.9,3.6c0.6,1.2,1.3,2.7,1.8,4.1h0.1c-0.2-1.5-0.2-3.2-0.2-4.9v-2.8h2.9v11.7h-3.3
		l-2-3.9c-0.7-1.2-1.4-2.8-2-4.2h-0.1c0.1,1.6,0.1,3.3,0.1,5.2v2.9H165.1z"/>
	<path class="st3" d="M179.1,51.2h-3v-2.6h9.1v2.6h-3v9.1h-3.1V51.2z"/>
	<path class="st3" d="M193.6,55.5h-4.2v2.1h4.7v2.6h-7.8V48.6h7.6v2.5h-4.5V53h4.2V55.5z"/>
	<path class="st3" d="M195.4,48.7c0.9-0.1,2.2-0.2,3.8-0.2c1.8,0,3.1,0.2,3.9,0.9c0.7,0.6,1.2,1.4,1.2,2.5c0,1.5-1.1,2.5-2,2.8v0.1
		c0.8,0.3,1.2,1.1,1.5,2.1c0.4,1.2,0.7,2.9,1,3.3h-3.2c-0.2-0.3-0.5-1.2-0.8-2.7c-0.3-1.4-0.7-1.7-1.7-1.7h-0.5v4.4h-3.1V48.7z
		 M198.5,53.6h0.8c1.2,0,1.9-0.6,1.9-1.5c0-0.9-0.6-1.4-1.6-1.4c-0.6,0-0.9,0-1.1,0.1V53.6z"/>
	<path class="st3" d="M205.9,57.1c0.7,0.4,1.9,0.7,3,0.7c1.1,0,1.6-0.4,1.6-1c0-0.6-0.5-0.9-1.8-1.4c-2-0.7-3.3-1.8-3.3-3.5
		c0-2.1,1.7-3.7,4.7-3.7c1.4,0,2.4,0.3,3.2,0.6l-0.7,2.5c-0.5-0.2-1.4-0.6-2.5-0.6c-1,0-1.5,0.3-1.5,0.9c0,0.6,0.6,0.8,2.1,1.4
		c2.1,0.8,3,1.9,3,3.5c0,2-1.6,3.7-5,3.7c-1.4,0-2.8-0.4-3.4-0.7L205.9,57.1z"/>
</g>
<g>
	<g>
		<path class="st2" d="M47.1,20.2c0.4,0,0.7,0,1,0.1c1,0.2,1.4,0.7,1.5,1.7c0,1.4,0,2.9,0,4.3c0,1.1-0.5,1.6-1.6,1.8
			c-0.2,0-0.4,0.1-0.6,0.1c0,0.6,0.1,1.1,0,1.6c-0.1,1.1-0.9,1.8-2,1.8c-1.9,0-3.7,0-5.6,0c-1.2,0-1.7-0.6-1.8-1.8c0-0.5,0-1,0-1.5
			c-0.4-0.4-0.8-0.2-1.3-0.2c-0.4,0-0.9,0-1.3,0c-0.7-0.1-1.1-0.7-1.1-1.4c0-1.3,0.1-2.6,0.1-3.9c0-1.3,0.2-2.2,1.6-2.5
			c-0.7-3.1-3.2-4.9-6.3-4.6c-3,0.3-5,3.1-5,5.7c0,10.9,0,21.8,0,32.7c0,2.2-0.1,1.9-1.9,1.9c-0.2,0-0.4,0-0.6,0
			c-1.4,0-1.4,0-1.4-1.5c0-8.9,0-17.8,0-26.6c0-2.1,0-4.2,0-6.3c0-2.7,0.9-5,2.8-6.9c2.6-2.5,5.7-3.5,9.3-2.5c3.6,1,5.9,3.3,7,7
			c0.1,0.2,0.1,0.4,0.2,0.7c0,0.2,0.1,0.4,0.1,0.6c1,0,1.9,0,3,0c-0.2-0.7-0.3-1.3-0.5-1.9c-1.6-4.7-4.6-7.9-9.5-9
			c-6.9-1.6-12.5,2.7-14.2,8.2c-0.6,1.8-0.7,3.7-0.7,5.6c0,10.2,0,20.5,0,30.7c0,0.5-0.1,1-0.2,1.5c0,0.3-0.3,0.5-0.6,0.5
			c-0.8,0-1.5,0-2.3,0c-0.5,0-0.7-0.3-0.7-0.7c0-0.3-0.1-0.7-0.1-1c0-10.9-0.1-21.7,0-32.6c0.1-5.5,2.3-10,6.7-13.3
			C26.9,3.8,35.1,4,41.1,9.1c3.1,2.6,4.9,5.9,5.7,9.8C46.9,19.3,47,19.7,47.1,20.2z M42,22.8c-1.5,0-3,0-4.5,0
			c-0.5,0-0.7,0.2-0.7,0.7c0,0.3,0,0.6,0,0.9c0,1.2,0,1.2,1.2,1.2c2.4,0,4.8,0,7.2,0c2.2,0,1.9,0.4,1.9-2c0-0.8,0-0.8-0.9-0.8
			C44.8,22.8,43.4,22.8,42,22.8z M44.7,28.1c-1.3,0-2.5,0-3.7,0c-0.1,0-0.3,0.3-0.4,0.4c0,0.5,0.1,0.7,0.7,0.7c0.8,0,1.7,0,2.5,0
			C44.7,29.3,44.7,29.3,44.7,28.1z"/>
	</g>
	<g>
		<path class="st4" d="M31.7,74.9c-8,0-16,0-24.1,0c-0.6,0-1.2-0.1-1.7-0.2c-0.8-0.2-1.3-0.9-1.2-1.8c0-0.8,0.5-1.5,1.3-1.7
			C6.6,71.1,7.2,71,7.8,71c14.1,0,28.2,0,42.3,0c1.9,0,3.8,0,5.7,0c0.5,0,0.9,0.1,1.4,0.2c0.8,0.2,1.2,0.9,1.3,1.6
			c0.1,0.9-0.3,1.6-1.1,1.8c-0.5,0.2-1,0.2-1.5,0.2C47.8,74.9,39.8,74.9,31.7,74.9C31.7,74.9,31.7,74.9,31.7,74.9z"/>
	</g>
	<g>
		<path class="st2" d="M15.3,65c0.1-1.1,0.1-2.3,0-3.4c-1.2-0.1-2.2-0.3-3.3,0.3c-1.2,0.6-2.6-0.1-3.2-1c-0.6-1-0.5-2.3,0.3-3.2
			c0.8-0.9,2.2-1.1,3.3-0.4c0.7,0.5,1.3,0.6,2,0.6c1,0,2,0,3,0c0.5,0,0.9,0,1-0.7c0.1-0.6,0.5-1,1.2-1c0.6,0,1,0.4,1.2,0.9
			c0.1,0.5,0.5,0.6,1,0.6c1.2,0,2.3,0,3.5,0c0.7,0,1.3-0.1,1.8-0.5c1.4-1,3.7-0.1,4,1.9c0.2,1.8-1.5,3.3-3.2,2.8
			c-0.4-0.1-0.9-0.4-1.3-0.4c-0.8-0.1-1.7,0-2.5,0c-0.1,0.5-0.3,2.7-0.1,3.1c0.1,0.2,0.3,0.4,0.4,0.4c0.4,0.1,0.8,0,1.3,0
			c0.5,0,0.9,0,1.4,0.1c1,0.2,1.5,0.9,1.5,1.8c0,1-0.6,1.7-1.5,1.9c-0.3,0.1-0.6,0.1-0.9,0.1c-4.4,0-8.8,0-13.2,0
			c-0.5,0-0.9-0.1-1.4-0.2c-0.9-0.3-1.3-1-1.2-1.9c0.1-0.8,0.6-1.5,1.5-1.6c0.8-0.1,1.7-0.1,2.5-0.1C14.6,65,14.9,65,15.3,65z
			 M11,60.8c0.7,0,1.4-0.6,1.4-1.3c0-0.7-0.6-1.5-1.3-1.5c-0.7,0-1.5,0.7-1.5,1.4C9.6,60.1,10.2,60.8,11,60.8z M29.9,59.4
			c0-0.7-0.6-1.4-1.3-1.4c-0.7,0-1.5,0.7-1.5,1.5c0,0.7,0.7,1.3,1.4,1.3C29.3,60.8,29.9,60.2,29.9,59.4z M21.7,58.9
			c0,0.5,0,0.9,0.1,1.3c1.5,0.1,2.8,0.1,4.2,0c0-0.5-0.1-0.9-0.1-1.4C24.4,58.9,23.1,58.9,21.7,58.9z M13.6,60.3c1.3,0,2.5,0,3.6,0
			c0.4,0,0.5-0.2,0.5-0.6c0-0.4,0-0.7-0.5-0.7c-1,0-2.1,0-3.1,0c-0.3,0-0.5,0.2-0.5,0.5C13.6,59.7,13.6,59.9,13.6,60.3z M21.2,63.2
			c-1,0-1.8,0-2.7,0c-0.4,0-0.6,0.2-0.6,0.6c0,0.2,0,0.5,0,0.7c0.1,0.2,0.3,0.4,0.4,0.4c0.9,0,1.9,0.1,2.8-0.1
			C21.2,64.4,21.2,63.9,21.2,63.2z"/>
	</g>
	<g>
		<path class="st3" d="M45.2,38.4c0,1.1,0,2.2,0,3.2c0,0.2,0,0.5,0,0.7c-0.1,0.5-0.4,0.8-0.8,0.9c-0.4,0.1-0.8-0.2-1-0.7
			c0-0.1-0.1-0.3-0.1-0.5c0-2.5,0-4.9,0-7.4c0-0.2,0-0.3,0.1-0.5c0.2-0.5,0.5-0.8,1-0.7c0.5,0.1,0.7,0.3,0.7,1
			C45.2,35.8,45.2,37.1,45.2,38.4z"/>
	</g>
	<g>
		<path class="st3" d="M41.7,37.3c0,0.9,0,1.9,0,2.8c0,0.7-0.3,1-0.8,1.1c-0.4,0-0.9-0.4-1-1c0-0.3,0-0.5,0-0.8c0-1.4,0-2.8,0-4.2
			c0-0.3,0-0.7,0.1-1c0.1-0.5,0.4-0.8,0.9-0.8c0.4,0,0.8,0.4,0.9,0.9c0,0.2,0,0.5,0,0.7C41.7,35.7,41.7,36.5,41.7,37.3
			C41.7,37.3,41.7,37.3,41.7,37.3z"/>
	</g>
	<g>
		<path class="st3" d="M40.9,44.2c0.5,0,0.8,0.3,0.8,0.9c0,0.6-0.4,1-0.9,0.9c-0.5,0-0.8-0.4-0.8-1C40,44.5,40.4,44.1,40.9,44.2z"/>
	</g>
	<g>
		<path class="st3" d="M41.9,52.7c0,0.4-0.3,0.8-0.8,0.8c-0.4,0-0.7-0.3-0.8-0.7c-0.1-0.5,0.2-0.9,0.7-0.9
			C41.4,51.9,41.8,52.3,41.9,52.7z"/>
	</g>
	<g>
		<path class="st3" d="M44.1,48.2c0.4,0,0.8,0.4,0.8,0.8c0,0.4-0.5,0.8-0.9,0.8c-0.4,0-0.7-0.4-0.7-0.8
			C43.3,48.5,43.6,48.2,44.1,48.2z"/>
	</g>
</g>
</svg>
