<?xml version="1.0" encoding="UTF-8"?>
<svg id="Layer_1" data-name="Layer 1" xmlns="http://www.w3.org/2000/svg" viewBox="0 0 300 300">
  <defs>
    <style>
      .cls-1 {
        fill: #fff;
      }
    </style>
  </defs>
  <path class="cls-1" d="M253.44,217.24v-12.98H109.38c0-7.93,0-15.85,0-23.78h153.91c8.67-42.11,17.33-84.22,26-126.33H79.78v-4.43h.01v-23.04H10.7v23.04h42.94c.99,2.75,1.98,5.51,2.98,8.26h.05c7.44,40.83,14.86,81.66,22.3,122.49,0,0,0,0,0,0h0c1.24,3.82,2.45,7.94,3.54,12.35,1.16,4.66,2.05,9.1,2.75,13.26v17.09c-3.5,5.14-5.54,11.35-5.54,18.03,0,17.73,14.38,32.11,32.11,32.11s32.11-14.38,32.11-32.11c0-6.64-2.02-12.82-5.48-17.94h66.99c-3.46,5.12-5.48,11.3-5.48,17.94,0,17.73,14.38,32.11,32.11,32.11s32.11-14.38,32.11-32.11c0-9.53-4.16-18.08-10.75-23.96ZM111.83,253.83h0c-6.97,0-12.62-5.65-12.62-12.62s5.65-12.62,12.62-12.62,12.62,5.65,12.62,12.62-5.65,12.62-12.62,12.62ZM232.08,253.83c-6.97,0-12.62-5.65-12.62-12.62s5.65-12.62,12.62-12.62,12.62,5.65,12.62,12.62-5.65,12.62-12.62,12.62ZM247,167.17H97.22c-5.91-32.24-11.81-64.48-17.72-96.72,62.06.04,124.11.07,186.17.11-6.22,32.2-12.44,64.41-18.67,96.61Z"/>
</svg>