<?xml version="1.0" encoding="UTF-8"?>
<svg id="Layer_1" data-name="Layer 1" xmlns="http://www.w3.org/2000/svg" viewBox="0 0 396 144">
  <defs>
    <style>
      .cls-1 {
        fill: #fff;
        opacity: 0;
      }

      .cls-2 {
        fill: none;
        stroke: #58b947;
        stroke-miterlimit: 10;
        stroke-width: 2px;
      }

      .cls-3 {
        fill: #004e38;
      }

      .cls-4 {
        fill: #58b947;
      }

      .cls-5 {
        fill: #008453;
      }
    </style>
  </defs>
  <rect class="cls-1" width="396" height="144"/>
  <g>
    <path class="cls-4" d="M275.45,55.45c1.59.98,3.91,1.79,6.35,1.79,3.62,0,5.74-1.91,5.74-4.68,0-2.56-1.47-4.03-5.17-5.46-4.48-1.59-7.25-3.91-7.25-7.78,0-4.27,3.54-7.45,8.88-7.45,2.81,0,4.84.65,6.07,1.34l-.98,2.89c-.9-.49-2.73-1.3-5.21-1.3-3.75,0-5.17,2.24-5.17,4.11,0,2.56,1.67,3.83,5.46,5.29,4.64,1.79,7,4.03,7,8.06,0,4.23-3.13,7.9-9.61,7.9-2.65,0-5.54-.77-7-1.75l.9-2.97Z"/>
    <path class="cls-4" d="M300.45,51.14l-2.85,8.63h-3.66l9.32-27.44h4.27l9.36,27.44h-3.79l-2.93-8.63h-9.73ZM309.44,48.37l-2.69-7.9c-.61-1.79-1.02-3.42-1.42-5.01h-.08c-.41,1.63-.85,3.3-1.38,4.97l-2.69,7.94h8.26Z"/>
    <path class="cls-4" d="M339.48,58.87c-1.3.65-3.91,1.3-7.25,1.3-7.73,0-13.56-4.89-13.56-13.88s5.82-14.41,14.33-14.41c3.42,0,5.58.73,6.51,1.22l-.85,2.89c-1.34-.65-3.26-1.14-5.54-1.14-6.43,0-10.71,4.11-10.71,11.32,0,6.72,3.87,11.03,10.54,11.03,2.16,0,4.36-.45,5.78-1.14l.73,2.81Z"/>
    <path class="cls-4" d="M275.45,89.47c1.59.98,3.91,1.79,6.35,1.79,3.62,0,5.74-1.91,5.74-4.68,0-2.56-1.47-4.03-5.17-5.46-4.48-1.59-7.25-3.91-7.25-7.78,0-4.27,3.54-7.45,8.88-7.45,2.81,0,4.84.65,6.07,1.34l-.98,2.89c-.9-.49-2.73-1.3-5.21-1.3-3.75,0-5.17,2.24-5.17,4.11,0,2.56,1.67,3.83,5.46,5.29,4.64,1.79,7,4.03,7,8.06,0,4.23-3.13,7.9-9.61,7.9-2.65,0-5.54-.77-7-1.75l.9-2.97Z"/>
    <path class="cls-4" d="M301.22,69.36h-8.35v-3.01h20.31v3.01h-8.39v24.43h-3.58v-24.43Z"/>
    <path class="cls-4" d="M317.62,85.16l-2.85,8.63h-3.66l9.32-27.44h4.27l9.36,27.44h-3.79l-2.93-8.63h-9.73ZM326.62,82.39l-2.69-7.9c-.61-1.79-1.02-3.42-1.43-5.01h-.08c-.41,1.63-.85,3.3-1.38,4.97l-2.69,7.94h8.26Z"/>
    <path class="cls-4" d="M340.17,69.36h-8.35v-3.01h20.31v3.01h-8.39v24.43h-3.58v-24.43Z"/>
    <path class="cls-4" d="M369.4,80.92h-10.67v9.89h11.89v2.97h-15.43v-27.44h14.82v2.97h-11.28v8.67h10.67v2.93Z"/>
  </g>
  <g>
    <path class="cls-5" d="M156.93,62.45h-29.59v32.46h33.11v4.4h-38.4V25.16h36.64v4.4h-31.35v28.49h29.59v4.4Z"/>
    <path class="cls-5" d="M162.32,25.16h36.64v4.4h-31.35v29.48h28.82v4.4h-28.82v35.87h-5.28V25.16Z"/>
    <path class="cls-5" d="M252.43,96.67c-3.74,1.87-10.89,3.74-20.02,3.74-17.93,0-35.09-11.44-35.09-37.74,0-22,14.19-38.62,37.62-38.62,9.46,0,14.96,2.09,17.16,3.19l-1.65,4.4c-3.74-1.87-9.13-3.19-15.4-3.19-20.02,0-32.23,12.98-32.23,34.32,0,20.13,11.44,33.11,31.35,33.11,6.27,0,12.43-1.32,16.72-3.41l1.54,4.18Z"/>
  </g>
  <g>
    <path class="cls-5" d="M24.27,121.93h-6.6v6.12h7.36v1.84h-9.55v-16.98h9.17v1.84h-6.98v5.37h6.6v1.81Z"/>
    <path class="cls-5" d="M27.32,129.89v-16.98h2.39l5.44,8.59c1.26,1.99,2.24,3.78,3.05,5.52l.05-.02c-.2-2.27-.25-4.33-.25-6.98v-7.1h2.07v16.98h-2.22l-5.39-8.62c-1.18-1.89-2.32-3.83-3.17-5.67l-.08.03c.13,2.14.18,4.18.18,7v7.26h-2.07Z"/>
    <path class="cls-5" d="M47.06,129.89l-5.54-16.98h2.37l2.65,8.36c.73,2.29,1.36,4.36,1.81,6.35h.05c.48-1.97,1.18-4.11,1.94-6.32l2.87-8.39h2.34l-6.07,16.98h-2.42Z"/>
    <path class="cls-5" d="M59.03,112.91v16.98h-2.19v-16.98h2.19Z"/>
    <path class="cls-5" d="M62.3,113.14c1.11-.23,2.7-.35,4.21-.35,2.34,0,3.85.43,4.91,1.39.86.76,1.34,1.92,1.34,3.22,0,2.24-1.41,3.73-3.2,4.33v.08c1.31.45,2.09,1.66,2.49,3.43.55,2.37.96,4.01,1.31,4.66h-2.27c-.28-.48-.65-1.94-1.13-4.06-.5-2.34-1.41-3.22-3.4-3.3h-2.07v7.36h-2.19v-16.75ZM64.49,120.87h2.24c2.34,0,3.83-1.28,3.83-3.22,0-2.19-1.59-3.15-3.9-3.17-1.06,0-1.81.1-2.17.2v6.2Z"/>
    <path class="cls-5" d="M89.88,121.23c0,5.84-3.55,8.94-7.89,8.94s-7.63-3.48-7.63-8.62c0-5.39,3.35-8.92,7.89-8.92s7.63,3.55,7.63,8.59ZM76.71,121.5c0,3.63,1.96,6.88,5.42,6.88s5.44-3.2,5.44-7.05c0-3.38-1.76-6.9-5.42-6.9s-5.44,3.35-5.44,7.08Z"/>
    <path class="cls-5" d="M92.17,129.89v-16.98h2.39l5.44,8.59c1.26,1.99,2.24,3.78,3.05,5.52l.05-.02c-.2-2.27-.25-4.33-.25-6.98v-7.1h2.07v16.98h-2.22l-5.39-8.62c-1.18-1.89-2.32-3.83-3.17-5.67l-.08.03c.13,2.14.18,4.18.18,7v7.26h-2.07Z"/>
    <path class="cls-5" d="M122.5,122.44c-.13-2.37-.28-5.21-.25-7.33h-.08c-.58,1.99-1.29,4.11-2.14,6.45l-3,8.24h-1.66l-2.75-8.09c-.81-2.39-1.49-4.58-1.97-6.6h-.05c-.05,2.12-.18,4.96-.33,7.51l-.45,7.28h-2.09l1.18-16.98h2.8l2.9,8.21c.71,2.09,1.28,3.96,1.71,5.72h.08c.43-1.71,1.03-3.58,1.79-5.72l3.02-8.21h2.8l1.06,16.98h-2.14l-.43-7.46Z"/>
    <path class="cls-5" d="M136.68,121.93h-6.6v6.12h7.36v1.84h-9.55v-16.98h9.17v1.84h-6.98v5.37h6.6v1.81Z"/>
    <path class="cls-5" d="M139.72,129.89v-16.98h2.39l5.44,8.59c1.26,1.99,2.24,3.78,3.05,5.52l.05-.02c-.2-2.27-.25-4.33-.25-6.98v-7.1h2.07v16.98h-2.22l-5.39-8.62c-1.18-1.89-2.32-3.83-3.17-5.67l-.08.03c.13,2.14.18,4.18.18,7v7.26h-2.07Z"/>
    <path class="cls-5" d="M158.96,114.78h-5.16v-1.86h12.57v1.86h-5.19v15.12h-2.22v-15.12Z"/>
    <path class="cls-5" d="M168.56,124.55l-1.76,5.34h-2.27l5.77-16.98h2.65l5.79,16.98h-2.34l-1.81-5.34h-6.02ZM174.13,122.84l-1.66-4.89c-.38-1.11-.63-2.12-.88-3.1h-.05c-.25,1.01-.53,2.04-.86,3.07l-1.66,4.91h5.11Z"/>
    <path class="cls-5" d="M180.67,112.91h2.19v15.14h7.26v1.84h-9.45v-16.98Z"/>
    <path class="cls-4" d="M196.54,112.91h10.38v3.15h-6.52v3.88h6.1v3.12h-6.1v6.83h-3.85v-16.98Z"/>
    <path class="cls-4" d="M213.11,112.91v16.98h-3.85v-16.98h3.85Z"/>
    <path class="cls-4" d="M215.88,129.89v-16.98h4.48l3.53,6.22c1.01,1.79,2.02,3.91,2.77,5.82h.08c-.25-2.24-.33-4.53-.33-7.08v-4.96h3.53v16.98h-4.03l-3.63-6.55c-1.01-1.81-2.12-4.01-2.95-6l-.08.03c.1,2.24.15,4.64.15,7.41v5.11h-3.53Z"/>
    <path class="cls-4" d="M236.66,125.54l-1.21,4.36h-3.98l5.19-16.98h5.04l5.27,16.98h-4.13l-1.31-4.36h-4.86ZM240.97,122.66l-1.06-3.6c-.3-1.01-.6-2.27-.86-3.28h-.05c-.25,1.01-.5,2.29-.78,3.28l-1.01,3.6h3.75Z"/>
    <path class="cls-4" d="M248.67,129.89v-16.98h4.48l3.53,6.22c1.01,1.79,2.02,3.91,2.77,5.82h.08c-.25-2.24-.33-4.53-.33-7.08v-4.96h3.53v16.98h-4.03l-3.63-6.55c-1.01-1.81-2.12-4.01-2.95-6l-.08.03c.1,2.24.15,4.64.15,7.41v5.11h-3.53Z"/>
    <path class="cls-4" d="M277.97,129.42c-.71.35-2.29.73-4.36.73-5.87,0-8.89-3.65-8.89-8.49,0-5.79,4.13-9.02,9.27-9.02,1.99,0,3.5.4,4.18.76l-.78,3.05c-.78-.33-1.86-.63-3.22-.63-3.05,0-5.42,1.84-5.42,5.62,0,3.4,2.02,5.54,5.44,5.54,1.16,0,2.44-.25,3.2-.55l.58,3Z"/>
    <path class="cls-4" d="M290.03,122.71h-6.25v4.03h6.98v3.15h-10.83v-16.98h10.48v3.15h-6.63v3.53h6.25v3.12Z"/>
    <path class="cls-5" d="M309.47,129.34c-.81.4-2.42.81-4.48.81-4.79,0-8.39-3.02-8.39-8.59s3.6-8.92,8.87-8.92c2.12,0,3.45.45,4.03.76l-.53,1.79c-.83-.4-2.02-.71-3.43-.71-3.98,0-6.63,2.54-6.63,7,0,4.16,2.39,6.83,6.52,6.83,1.33,0,2.7-.28,3.58-.71l.45,1.74Z"/>
    <path class="cls-5" d="M320.45,121.93h-6.6v6.12h7.36v1.84h-9.55v-16.98h9.17v1.84h-6.98v5.37h6.6v1.81Z"/>
    <path class="cls-5" d="M323.5,129.89v-16.98h2.39l5.44,8.59c1.26,1.99,2.24,3.78,3.05,5.52l.05-.02c-.2-2.27-.25-4.33-.25-6.98v-7.1h2.07v16.98h-2.22l-5.39-8.62c-1.18-1.89-2.32-3.83-3.17-5.67l-.08.03c.13,2.14.18,4.18.18,7v7.26h-2.07Z"/>
    <path class="cls-5" d="M342.74,114.78h-5.16v-1.86h12.57v1.86h-5.19v15.12h-2.22v-15.12Z"/>
    <path class="cls-5" d="M360.27,121.93h-6.6v6.12h7.36v1.84h-9.55v-16.98h9.17v1.84h-6.98v5.37h6.6v1.81Z"/>
    <path class="cls-5" d="M363.32,113.14c1.11-.23,2.7-.35,4.21-.35,2.34,0,3.85.43,4.91,1.39.86.76,1.34,1.92,1.34,3.22,0,2.24-1.41,3.73-3.2,4.33v.08c1.31.45,2.09,1.66,2.49,3.43.55,2.37.96,4.01,1.31,4.66h-2.27c-.28-.48-.65-1.94-1.13-4.06-.5-2.34-1.41-3.22-3.4-3.3h-2.07v7.36h-2.19v-16.75ZM365.51,120.87h2.24c2.34,0,3.83-1.28,3.83-3.22,0-2.19-1.59-3.15-3.9-3.17-1.06,0-1.81.1-2.17.2v6.2Z"/>
  </g>
  <g>
    <polygon class="cls-5" points="38.52 53.84 18.54 57.46 50.91 65.96 38.52 53.84"/>
    <polygon class="cls-5" points="14.98 71.78 34.78 98.87 70.12 98.87 14.98 65.66 14.98 71.78"/>
    <polygon class="cls-4" points="92.36 97.47 113.07 70.07 113.07 58.77 75.21 80.71 92.36 97.47"/>
    <polygon class="cls-4" points="57.02 62.92 113.07 48.21 113.07 40.31 46.29 52.43 57.02 62.92"/>
    <polygon class="cls-4" points="14.98 59.86 14.98 61.9 76.37 98.87 84.57 98.87 55.57 70.51 14.98 59.86"/>
    <polygon class="cls-5" points="113.07 98.87 113.07 75.41 95.35 98.87 113.07 98.87"/>
    <polygon class="cls-4" points="14.98 98.87 30.79 98.87 14.98 77.24 14.98 98.87"/>
    <polygon class="cls-5" points="72.82 78.37 113.07 55.05 113.07 51.54 59.7 65.54 72.82 78.37"/>
    <polygon class="cls-3" points="100.65 28.64 88.93 28.19 61.71 24.18 56.9 24.18 49.63 23.95 46.08 23.48 45.97 23.45 36.84 21.11 14.68 27.11 14.68 48.63 112.99 35.8 112.99 28.76 100.67 28.65 100.65 28.64"/>
    <polygon class="cls-3" points="98.23 18.82 90.96 18.59 87.41 18.12 87.3 18.09 78.17 15.75 60.8 20.45 61.98 20.45 62.12 20.47 89.27 24.48 100.76 24.92 112.99 25.04 112.99 20.29 103.04 18.82 98.23 18.82"/>
  </g>
  <line class="cls-2" x1="265.91" y1="23.36" x2="265.91" y2="102.27"/>
</svg>