<svg id="Layer_1" data-name="Layer 1" xmlns="http://www.w3.org/2000/svg" viewBox="0 0 396 144"><defs><style>.cls-1{fill:#fff;opacity:0;}.cls-2{fill:#008453;}.cls-3{fill:#58b947;}.cls-4{fill:#004e38;}</style></defs><title>efc-sac-state-3-color</title><rect class="cls-1" width="396" height="144"/><path class="cls-2" d="M146.7,32.2H136.4V43.4h11.5v1.5H134.6V19.3h12.7v1.5H136.4v9.9h10.3Z"/><path class="cls-2" d="M150.5,44.9V19.3h1.7l9.9,15.1a70.4,70.4,0,0,1,4.8,8.1h.1c-.3-3.4-.3-6.4-.3-10.3V19.3h1.7V44.9h-1.6L157,30a96.2,96.2,0,0,1-5-8.3h0c.2,3.1.2,5.9.2,10.1v13Z"/><path class="cls-2" d="M178.2,44.9l-8.5-25.6h1.9L176.1,33c1.2,3.7,2.3,7,3,9.8h.1a80.8,80.8,0,0,1,3.3-9.8l4.9-13.7h2l-9.5,25.6Z"/><path class="cls-2" d="M192,19.3V44.9h-1.8V19.3Z"/><path class="cls-2" d="M196.3,19.6a32.1,32.1,0,0,1,5.5-.5c3.4,0,5.5.7,6.9,2.1a6.6,6.6,0,0,1,1.8,4.6,6.7,6.7,0,0,1-5,6.7h0c2,.6,3.3,2.5,3.9,5.4s1.4,5.9,1.9,6.9h-1.8a36.9,36.9,0,0,1-1.7-6.2c-.7-3.7-2.3-5.4-5.7-5.5h-4V44.9h-1.8Zm1.8,12.1h4.1c3.9,0,6.5-2.2,6.5-5.6s-2.9-5.5-6.9-5.5a22.1,22.1,0,0,0-3.7.3Z"/><path class="cls-2" d="M223.4,45.3c-6.3,0-11.2-5-11.2-12.9s5.1-13.5,11.5-13.5,11.1,5,11.1,12.9-5.5,13.5-11.4,13.5Zm.1-1.5c6.1,0,9.4-5.5,9.4-11.9s-2.9-11.5-9.3-11.5-9.5,5.9-9.5,11.9,3.3,11.5,9.4,11.5Z"/><path class="cls-2" d="M237.5,44.9V19.3h1.7l9.9,15.1a70.4,70.4,0,0,1,4.8,8.1h.1c-.3-3.4-.3-6.4-.3-10.3V19.3h1.8V44.9h-1.7L244,30a74.6,74.6,0,0,1-4.9-8.3H239c.2,3.1.2,5.9.2,10.1v13Z"/><path class="cls-2" d="M281.3,32.8c-.2-3.9-.5-8.6-.5-11.4h-.1c-.9,2.8-1.9,5.8-3.4,9.6l-5.4,13.9h-1.3l-5-13.6a94.8,94.8,0,0,1-3.3-9.9h-.1c-.1,3-.3,7.5-.6,11.7l-.8,11.8h-1.7l1.8-25.6H263l5.5,14.8c1.2,3.2,2.1,5.8,2.8,8.3h.1c.7-2.4,1.6-4.9,2.9-8.3L280,19.3h2.2l1.7,25.6h-1.8Z"/><path class="cls-2" d="M299.4,32.2H289.2V43.4h11.4v1.5H287.4V19.3H300v1.5H289.2v9.9h10.2Z"/><path class="cls-2" d="M303.2,44.9V19.3h1.7l10,15.1c2,3.2,3.5,5.6,4.8,8.1h.1c-.3-3.4-.3-6.4-.3-10.3V19.3h1.7V44.9h-1.7L309.8,30a76.2,76.2,0,0,1-5-8.3h-.1c.2,3.1.3,5.9.3,10.1v13Z"/><path class="cls-2" d="M330.3,20.8H322V19.3h18.5v1.5h-8.3V44.9h-1.9Z"/><path class="cls-2" d="M341.4,35.9l-3.1,9h-1.9l9.3-25.6h1.7l9.3,25.6h-1.9l-3.2-9Zm9.6-1.5-3.1-8.5a41.1,41.1,0,0,1-1.3-4.5h-.1l-1.3,4.4L342,34.4Z"/><path class="cls-2" d="M358.7,19.3h1.8V43.4h11.4v1.5H358.7Z"/><path class="cls-3" d="M134.2,50.8H149v3.8H138.9v7.1h9.4v3.8h-9.4V76.4h-4.7Z"/><path class="cls-3" d="M156.3,50.8V76.4h-4.6V50.8Z"/><path class="cls-3" d="M159.8,76.4V50.8h5.3l6.6,10.9a77.9,77.9,0,0,1,4.4,8.6h.1a88.7,88.7,0,0,1-.5-10.6V50.8h4.4V76.4h-4.9l-6.6-11.3a67.2,67.2,0,0,1-4.6-8.8h-.1c.1,3.3.2,6.7.2,10.9v9.2Z"/><path class="cls-3" d="M188.7,69.1l-2.2,7.3h-4.8l8.2-25.6h5.9l8.3,25.6h-5l-2.3-7.3Zm7.3-3.5-2-6.3c-.5-1.6-.9-3.3-1.3-4.8h-.1c-.4,1.5-.7,3.3-1.2,4.8l-2,6.3Z"/><path class="cls-3" d="M205.8,76.4V50.8h5.3l6.6,10.9a77.9,77.9,0,0,1,4.4,8.6h.1c-.3-3.4-.5-6.7-.5-10.6V50.8h4.4V76.4h-4.9l-6.6-11.3a67.2,67.2,0,0,1-4.6-8.8h-.1c.2,3.3.2,6.7.2,10.9v9.2Z"/><path class="cls-3" d="M247.9,75.6a15.7,15.7,0,0,1-6.6,1.1c-8.1,0-13.1-5.1-13.1-12.8s5.9-13.6,13.7-13.6a13.9,13.9,0,0,1,6.2,1.2l-1,3.7a13,13,0,0,0-5-1c-5.2,0-9,3.3-9,9.4s3.3,9.3,9,9.3a12,12,0,0,0,5-1Z"/><path class="cls-3" d="M264.3,65h-9.6v7.5h10.7v3.9H250V50.8h14.9v3.8H254.7v6.6h9.6Z"/><path class="cls-2" d="M152,106.9a15.8,15.8,0,0,1-6.9,1.3c-6.2,0-12.1-4-12.1-13s4.8-13.4,12.9-13.4a15.3,15.3,0,0,1,6,1.1l-.6,1.6a11.6,11.6,0,0,0-5.3-1.1c-6.9,0-11.1,4.4-11.1,11.8s3.9,11.4,10.8,11.4a13.8,13.8,0,0,0,5.7-1.1Z"/><path class="cls-2" d="M166.4,95.1H156.2v11.2h11.4v1.5H154.4V82.2H167v1.5H156.2v9.9h10.2Z"/><path class="cls-2" d="M170.2,107.8V82.2h1.7l9.9,15.1a92.2,92.2,0,0,1,4.9,8.1h0c-.2-3.4-.3-6.3-.3-10.3V82.2h1.8v25.6h-1.7l-9.7-14.9a86.2,86.2,0,0,1-5-8.2h-.1c.2,3.1.2,5.9.2,10.2v12.9Z"/><path class="cls-2" d="M197.3,83.7H189V82.2h18.5v1.5h-8.3v24.1h-1.9Z"/><path class="cls-2" d="M220.3,95.1H210.1v11.2h11.4v1.5H208.2V82.2h12.7v1.5H210.1v9.9h10.2Z"/><path class="cls-2" d="M224,82.6a25.3,25.3,0,0,1,5.6-.6c3.3,0,5.4.8,6.9,2.2a6.2,6.2,0,0,1,1.8,4.5c0,3.5-2.1,5.7-5.1,6.7h0c2.1.6,3.4,2.6,4,5.4s1.4,5.9,1.9,6.9h-1.9a37.5,37.5,0,0,1-1.6-6.2c-.8-3.7-2.4-5.4-5.8-5.5h-4v11.7H224Zm1.8,12h4.1c4,0,6.5-2.2,6.5-5.6s-2.9-5.5-6.9-5.5a14.6,14.6,0,0,0-3.7.4Z"/><path class="cls-3" d="M15.7,125.4l-1.1,3.5H12.3l4-12.5h2.9l4,12.5H20.8l-1.1-3.5Zm3.6-1.8-1-3a10.5,10.5,0,0,1-.6-2.4h-.1l-.6,2.4-.9,3Z"/><path class="cls-3" d="M28,118.3H24.5v-1.9h9.4v1.9H30.3v10.6H28Z"/><path class="cls-3" d="M43.5,126.4a6.3,6.3,0,0,0,3,.8c1.5,0,2.3-.7,2.3-1.7s-.7-1.5-2.3-2.1-3.3-1.8-3.3-3.6,1.7-3.6,4.4-3.6a7.5,7.5,0,0,1,3,.6l-.6,1.9a4.5,4.5,0,0,0-2.5-.6c-1.4,0-2,.8-2,1.5s.7,1.4,2.4,2,3.2,2,3.2,3.7-1.5,3.8-4.8,3.8a7.3,7.3,0,0,1-3.3-.8Z"/><path class="cls-3" d="M57.8,125.4l-1.1,3.5H54.4l4-12.5h2.9l4,12.5H62.9l-1.1-3.5Zm3.6-1.8-1-3-.6-2.4h-.1a10.5,10.5,0,0,1-.6,2.4l-.9,3Z"/><path class="cls-3" d="M77.8,128.5a7.1,7.1,0,0,1-3.2.6c-4,0-6.4-2.5-6.4-6.3a6.3,6.3,0,0,1,6.7-6.6,5.8,5.8,0,0,1,3,.6l-.5,1.8a5.4,5.4,0,0,0-2.4-.5c-2.6,0-4.4,1.6-4.4,4.6s1.6,4.5,4.4,4.5a5.4,5.4,0,0,0,2.4-.5Z"/><path class="cls-3" d="M81.9,116.6a17.5,17.5,0,0,1,3.5-.3,5.6,5.6,0,0,1,3.8,1,3.3,3.3,0,0,1,1.1,2.5A3.5,3.5,0,0,1,88,123h0a3.1,3.1,0,0,1,1.8,2.4,20.4,20.4,0,0,0,1,3.5H88.4a14.3,14.3,0,0,1-.8-2.9c-.4-1.7-1-2.2-2.3-2.2H84.2v5.1H81.9Zm2.3,5.5h1.3c1.6,0,2.5-.8,2.5-2s-.9-2.1-2.4-2.1l-1.4.2Z"/><path class="cls-3" d="M97.3,125.4l-1.1,3.5H93.8l4-12.5h2.9l4.1,12.5h-2.4l-1.2-3.5Zm3.5-1.8-.9-3a21.7,21.7,0,0,1-.7-2.4h0l-.6,2.4-1,3Z"/><path class="cls-3" d="M119.2,123.8c-.1-1.6-.2-3.5-.2-5.2h0a42.6,42.6,0,0,1-1.5,4.7l-1.8,5.5h-1.8l-1.6-5.4a49.4,49.4,0,0,1-1.3-4.8h0c-.1,1.6-.2,3.6-.3,5.3l-.2,5h-2.2l.9-12.5h3l1.6,5c.4,1.5.8,3,1.1,4.4h.1c.3-1.4.8-2.9,1.2-4.4l1.8-5h2.9l.8,12.5h-2.3Z"/><path class="cls-3" d="M133.1,123.4h-4.7V127h5.3v1.9h-7.6V116.4h7.3v1.9h-5v3.2h4.7Z"/><path class="cls-3" d="M137.8,128.9V116.4h2.6l3.3,5.4a41.1,41.1,0,0,1,2.1,4.2h0c-.1-1.7-.2-3.3-.2-5.2v-4.4h2.1v12.5h-2.3l-3.3-5.5a34.8,34.8,0,0,1-2.2-4.3h-.1c.1,1.6.1,3.3.1,5.3v4.5Z"/><path class="cls-3" d="M154.9,118.3h-3.5v-1.9h9.4v1.9h-3.6v10.6h-2.3Z"/><path class="cls-3" d="M175,122.5c0,4.2-2.6,6.6-6,6.6s-5.7-2.7-5.7-6.3,2.4-6.6,5.9-6.6S175,119,175,122.5Zm-9.3.2c0,2.6,1.2,4.6,3.4,4.6s3.5-2.1,3.5-4.7-1.2-4.6-3.5-4.6S165.7,120.1,165.7,122.7Z"/><path class="cls-3" d="M185.1,126.4a6.3,6.3,0,0,0,3,.8c1.4,0,2.2-.7,2.2-1.7s-.6-1.5-2.2-2.1-3.3-1.8-3.3-3.6,1.7-3.6,4.4-3.6a7.5,7.5,0,0,1,3,.6l-.6,1.9a4.5,4.5,0,0,0-2.5-.6c-1.4,0-2,.8-2,1.5s.7,1.4,2.3,2,3.3,2,3.3,3.7-1.6,3.8-4.8,3.8a6.9,6.9,0,0,1-3.3-.8Z"/><path class="cls-3" d="M199.3,118.3h-3.6v-1.9h9.4v1.9h-3.5v10.6h-2.3Z"/><path class="cls-3" d="M209.9,125.4l-1,3.5h-2.4l4-12.5h2.9l4.1,12.5H215l-1.1-3.5Zm3.6-1.8-1-3-.6-2.4h0l-.6,2.4-1,3Z"/><path class="cls-3" d="M222.3,118.3h-3.6v-1.9h9.4v1.9h-3.6v10.6h-2.2Z"/><path class="cls-3" d="M238.7,123.4H234V127h5.3v1.9h-7.5V116.4H239v1.9h-5v3.2h4.7Z"/><polygon class="cls-2" points="40 55.6 17.3 59.7 54 69.3 40 55.6"/><polygon class="cls-2" points="13.3 75.9 35.7 106.6 75.8 106.6 13.3 69 13.3 75.9"/><polygon class="cls-3" points="100.9 105 124.4 74 124.4 61.2 81.5 86 100.9 105"/><polygon class="cls-3" points="60.9 65.9 124.4 49.2 124.4 40.3 48.8 54 60.9 65.9"/><polygon class="cls-3" points="13.3 62.4 13.3 64.7 82.8 106.6 92.1 106.6 59.3 74.5 13.3 62.4"/><polygon class="cls-2" points="124.4 106.6 124.4 80 104.3 106.6 124.4 106.6"/><polygon class="cls-3" points="13.3 106.6 31.2 106.6 13.3 82.1 13.3 106.6"/><polygon class="cls-2" points="78.8 83.4 124.4 57 124.4 53 64 68.9 78.8 83.4"/><polygon class="cls-4" points="110.3 27.1 97.1 26.6 66.2 22 60.8 22 52.6 21.8 48.5 21.2 48.4 21.2 38.1 18.5 13 25.3 13 49.7 124.3 35.2 124.3 27.2 110.4 27.1 110.3 27.1"/><polygon class="cls-4" points="107.6 15.9 99.4 15.7 95.3 15.2 95.2 15.1 84.9 12.5 65.2 17.8 66.5 17.8 66.7 17.8 97.5 22.4 110.5 22.9 124.3 23 124.3 17.6 113 15.9 107.6 15.9"/></svg>