<?xml version="1.0" encoding="UTF-8"?>
<svg id="Layer_1" data-name="Layer 1" xmlns="http://www.w3.org/2000/svg" viewBox="0 0 288 288">
  <defs>
    <style>
      .cls-1 {
        fill: #525252;
      }
    </style>
  </defs>
  <path class="cls-1" d="M165.03,276.43v-92.84c2.6-.02,5.17-.04,7.73-.05,2.53,0,5.07,0,7.6,0h15.6c1.98-12.88,3.93-25.61,5.92-38.58h-36.81c-.07-.7-.17-1.21-.17-1.71,0-7.87-.05-15.74.03-23.6.02-1.98.24-4,.68-5.94,1.79-7.97,6.94-12.51,14.85-14,1.95-.37,3.97-.51,5.96-.54,4.87-.08,9.74-.03,14.6-.03.72,0,1.44,0,2.27,0v-32.96c-2.97-.42-5.91-.9-8.87-1.23-8.09-.91-16.2-1.62-24.35-1.24-10.82.51-20.91,3.3-29.57,10.12-7.84,6.18-12.58,14.35-15.19,23.87-1.73,6.29-2.2,12.71-2.18,19.2.03,8.53,0,17.07,0,25.61v2.39h-33.79v38.64c5.62,0,11.19.02,16.77.02,5.59,0,11.18,0,16.89,0v92.77c-49.36-5.97-105.03-49.75-111.71-118.33C3.84,81.42,61.67,15.78,136.74,11.77c75.54-4.04,137.69,54.43,140.5,127.7,2.85,74.46-53.28,128.85-112.21,136.96Z"/>
</svg>