<?xml version="1.0" encoding="UTF-8"?>
<svg id="Layer_1" data-name="Layer 1" xmlns="http://www.w3.org/2000/svg" viewBox="0 0 288 288">
  <defs>
    <style>
      .cls-1 {
        fill: #525252;
      }
    </style>
  </defs>
  <path class="cls-1" d="M144,34.07c35.8,0,40.04.14,54.18.78,13.07.6,20.17,2.78,24.9,4.62,6.26,2.43,10.73,5.34,15.42,10.03,4.69,4.69,7.6,9.16,10.03,15.42,1.84,4.73,4.02,11.83,4.62,24.9.65,14.14.78,18.38.78,54.18s-.14,40.04-.78,54.18c-.6,13.07-2.78,20.17-4.62,24.9-2.43,6.26-5.34,10.73-10.03,15.42-4.69,4.69-9.16,7.6-15.42,10.03-4.73,1.84-11.83,4.02-24.9,4.62-14.14.65-18.38.78-54.18.78s-40.05-.14-54.18-.78c-13.07-.6-20.17-2.78-24.9-4.62-6.26-2.43-10.73-5.34-15.42-10.03s-7.6-9.16-10.03-15.42c-1.84-4.73-4.02-11.83-4.62-24.9-.65-14.14-.78-18.38-.78-54.18s.14-40.04.78-54.18c.6-13.07,2.78-20.17,4.62-24.9,2.43-6.26,5.34-10.73,10.03-15.42,4.69-4.69,9.16-7.6,15.42-10.03,4.73-1.84,11.83-4.02,24.9-4.62,14.14-.65,18.38-.78,54.18-.78M144,9.91c-36.42,0-40.98.15-55.29.81-14.27.65-24.02,2.92-32.55,6.23-8.82,3.43-16.3,8.01-23.75,15.47-7.45,7.45-12.04,14.93-15.47,23.75-3.31,8.53-5.58,18.28-6.23,32.55-.65,14.3-.81,18.87-.81,55.29s.15,40.98.81,55.29c.65,14.27,2.92,24.02,6.23,32.55,3.43,8.82,8.01,16.3,15.47,23.75,7.45,7.45,14.93,12.04,23.75,15.47,8.53,3.31,18.28,5.58,32.55,6.23,14.3.65,18.87.81,55.29.81s40.98-.15,55.29-.81c14.27-.65,24.02-2.92,32.55-6.23,8.82-3.43,16.3-8.01,23.75-15.47,7.45-7.45,12.04-14.93,15.47-23.75,3.31-8.53,5.58-18.28,6.23-32.55.65-14.3.81-18.87.81-55.29s-.15-40.98-.81-55.29c-.65-14.27-2.92-24.02-6.23-32.55-3.43-8.82-8.01-16.3-15.47-23.75-7.45-7.45-14.93-12.04-23.75-15.47-8.53-3.31-18.28-5.58-32.55-6.23-14.3-.65-18.87-.81-55.29-.81h0Z"/>
  <path class="cls-1" d="M144,75.14c-38.03,0-68.86,30.83-68.86,68.86s30.83,68.86,68.86,68.86,68.86-30.83,68.86-68.86-30.83-68.86-68.86-68.86ZM144,188.7c-24.69,0-44.7-20.01-44.7-44.7s20.01-44.7,44.7-44.7,44.7,20.01,44.7,44.7-20.01,44.7-44.7,44.7Z"/>
  <circle class="cls-1" cx="215.58" cy="72.42" r="16.09" transform="translate(11.93 173.65) rotate(-45)"/>
</svg>