<?xml version="1.0" encoding="UTF-8"?>
<svg id="Layer_1" data-name="Layer 1" xmlns="http://www.w3.org/2000/svg" viewBox="0 0 288 288">
  <defs>
    <style>
      .cls-1 {
        fill: #525252;
      }
    </style>
  </defs>
  <path class="cls-1" d="M273.41,143.91c0,36.47,0,72.95,0,109.42,0,2.09-.09,4.16-.66,6.19-2.28,8.05-9.41,13.58-17.88,13.86-.52.02-1.04,0-1.56,0-72.85,0-145.71,0-218.56,0-2.29,0-4.56-.18-6.76-.84-7.85-2.39-13.2-9.46-13.45-17.78-.02-.59,0-1.17,0-1.76,0-72.69,0-145.37,0-218.06,0-2.03.14-4.03.61-6,2.03-8.37,9.74-14.24,17.89-14.27.65,0,1.3-.01,1.95-.01,73.05,0,146.1.03,219.15-.04,8.47,0,16.25,5.45,18.55,13.7.38,1.37.53,2.81.69,4.22.1.9.04,1.82.04,2.73,0,36.21,0,72.43,0,108.64ZM115.65,111.73c-.11.3-.19.42-.19.54-.02,40.31-.03,80.62-.04,120.93,0,.45.04.91.06,1.36,0,.06.02.13.05.19.03.05.09.1.23.25.27.03.65.09,1.02.09,11.86,0,23.72,0,35.57,0,.43,0,.85-.12,1.4-.21v-2.43c0-19.08-.04-38.16.03-57.24.01-3.96.3-7.94.67-11.88.35-3.71,1.34-7.29,3.06-10.63,2.49-4.84,6.34-8,11.61-9.42,3.96-1.07,7.98-1.27,12.01-.63,5.99.95,10.25,4.24,12.69,9.81,1.02,2.34,1.65,4.79,2.08,7.3.74,4.38.84,8.81.84,13.24,0,19.08,0,38.16,0,57.24,0,1.17-.02,2.34.01,3.52.01.43.14.85.22,1.36.7,0,1.28,0,1.86,0,11.92-.02,23.84-.04,35.77-.06.05,0,.11-.06.16-.09.05-.04.1-.08.32-.25,0-.58,0-1.29,0-1.99,0-21.49.01-42.98.02-64.47,0-6.25-.13-12.5-.9-18.72-.66-5.37-1.69-10.67-3.53-15.77-1.85-5.14-4.47-9.83-8.29-13.78-5.05-5.23-11.31-8.24-18.31-9.86-5.43-1.26-10.94-1.61-16.49-1.58-7.68.03-14.78,2.06-21.31,6.1-5.18,3.21-9.39,7.4-12.69,12.52-.29.44-.44,1.07-1.31,1.28-.14-5.62.04-11.12-.1-16.69h-36.54ZM52.93,111.73c0,40.8,0,81.44,0,122.07,0,.37.1.75.15,1.06.21.1.33.2.44.2,11.73.02,23.46.03,35.19.04.71,0,1.43-.04,2.14-.07.06,0,.13-.03.18-.06.05-.04.08-.1.13-.15.32-1.94.27-121.55-.07-123.1h-38.17ZM94.39,72.75c.2-12.08-9.56-22.19-21.57-22.5-12.66-.32-22.65,9.81-22.9,21.76-.24,11.55,8.75,22.52,21.97,22.69,12.91.16,22.4-10.18,22.5-21.96Z"/>
</svg>