<svg id="Layer_1" data-name="Layer 1" xmlns="http://www.w3.org/2000/svg" viewBox="0 0 341.7 341.7"><defs><style>.cls-1{fill:#007c8a;}.cls-2{fill:#6cbe4b;}</style></defs><title>owp-symbol-2color</title><path class="cls-1" d="M248.3,9.2H111.7A102.5,102.5,0,0,0,9.2,111.7v20.6a114.9,114.9,0,0,1,22-2.4v-.2c40.8-.5,78.6,20.2,112.1,56.9s71.9,57.7,112.6,57.2c34-.4,66-15.6,94.9-42.4V111.7A102.5,102.5,0,0,0,248.3,9.2" transform="translate(-9.2 -9.2)"/><path class="cls-2" d="M205.9,274.5c-33.6-36.5-71.4-57.2-112.1-56.7,0,0-38.8-1.6-84.6,32.5A102.5,102.5,0,0,0,111.7,350.8H248.3a102.7,102.7,0,0,0,60-19.3c-36.9-2.8-71.7-23.2-102.4-57" transform="translate(-9.2 -9.2)"/></svg>