<svg id="Layer_1" data-name="Layer 1" xmlns="http://www.w3.org/2000/svg" viewBox="0 0 341.8 341.8"><defs><style>.cls-1{fill:#fff;}</style></defs><title>owp-symbol-wht</title><path class="cls-1" d="M248.4,9.1H111.6A102.5,102.5,0,0,0,9.1,111.7v20.5a115.9,115.9,0,0,1,22.1-2.3v-.2c40.7-.5,78.6,20.2,112.1,56.9s71.9,57.7,112.6,57.2c34-.4,66.1-15.6,95-42.4V111.7A102.5,102.5,0,0,0,248.4,9.1" transform="translate(-9.1 -9.1)"/><path class="cls-1" d="M205.9,274.5c-33.6-36.5-71.4-57.2-112.1-56.7,0,0-38.9-1.6-84.7,32.6A102.6,102.6,0,0,0,111.7,350.9H248.4a101.8,101.8,0,0,0,59.9-19.4c-36.9-2.8-71.7-23.2-102.4-57" transform="translate(-9.1 -9.1)"/></svg>