<?xml version="1.0" encoding="UTF-8"?>
<svg id="Layer_1" data-name="Layer 1" xmlns="http://www.w3.org/2000/svg" viewBox="0 0 565.93 175">
  <defs>
    <style>
      .cls-1 {
        fill: #01585c;
      }

      .cls-2 {
        fill: #1cb0aa;
      }

      .cls-3 {
        fill: #d77a28;
      }
    </style>
  </defs>
  <g>
    <g>
      <path class="cls-1" d="M383.14,61.18h-10.25v-3.31h24.61v3.31h-10.34v26.47h-4.02v-26.47Z"/>
      <path class="cls-1" d="M419.03,73.74h-12.9v10.65h14.36v3.27h-18.38v-29.79h17.68v3.27h-13.66v9.32h12.9v3.27Z"/>
      <path class="cls-1" d="M426.72,82.71c1.94,1.24,4.73,2.17,7.73,2.17,4.2,0,6.67-2.03,6.67-5.08,0-2.74-1.64-4.37-6.19-5.79-5.7-1.72-8.66-4.24-8.66-8.48,0-4.68,4.11-8.18,10.25-8.18,3.45,0,5.88.75,7.38,1.55l-1.15,3.23c-1.02-.58-3.27-1.55-6.32-1.55-4.46,0-6.1,2.52-6.1,4.55,0,2.7,1.9,4.11,6.45,5.57,5.52,1.81,8.4,4.11,8.4,8.84,0,4.37-3.27,8.66-11.09,8.66-3.18,0-6.63-.93-8.48-2.17l1.11-3.31Z"/>
      <path class="cls-1" d="M458.63,61.18h-10.25v-3.31h24.62v3.31h-10.34v26.47h-4.02v-26.47Z"/>
      <path class="cls-1" d="M481.62,57.87v29.79h-4.02v-29.79h4.02Z"/>
      <path class="cls-1" d="M490.1,87.66v-29.79h4.55l10.92,15.42c2.48,3.58,4.29,6.45,5.79,9.46l.13-.04c-.4-3.76-.44-7.29-.44-11.76v-13.08h3.8v29.79h-4.11l-10.74-15.33c-2.34-3.45-4.6-6.85-6.23-9.94l-.13.04c.22,3.71.27,7.25.27,11.71v13.52h-3.8Z"/>
      <path class="cls-1" d="M548.7,86.11c-1.86.71-5.7,1.86-10.43,1.86-5.17,0-9.32-1.28-12.51-4.29-2.7-2.52-4.33-6.41-4.33-10.78,0-8,6.19-15.33,17.72-15.33,3.98,0,7.12.88,8.53,1.55l-1.02,3.18c-1.86-.79-4.15-1.46-7.64-1.46-8.4,0-13.35,5.04-13.35,11.89s4.86,11.98,12.95,11.98c2.96,0,5.04-.4,6.1-.93v-8.62h-6.72v-3.14h10.69v14.1Z"/>
    </g>
    <g>
      <path class="cls-2" d="M229.92,84.45c0,2.31-.45,4.52-1.36,6.62-.9,2.11-2.18,3.94-3.83,5.51-1.65,1.57-3.63,2.79-5.92,3.66-2.3.87-4.87,1.26-7.7,1.15h-9.22v12.32h-12.94v-56.38h22.22c2.67-.15,5.13.18,7.37,1,2.24.82,4.18,1.96,5.83,3.43,1.65,1.46,2.94,3.21,3.9,5.24.95,2.03,1.51,4.15,1.66,6.35v11.09ZM211.1,90.23c1.55,0,2.92-.58,4.1-1.73,1.19-1.16,1.78-2.5,1.78-4.04v-10.17c0-1.54-.59-2.89-1.78-4.04-1.19-1.15-2.55-1.73-4.1-1.73h-9.21v21.72h9.21Z"/>
      <path class="cls-2" d="M251.74,68.51v10.78h16.09v11.17h-16.09v23.26h-12.94v-56.38h32.42v11.17h-19.48Z"/>
      <path class="cls-2" d="M307.44,113.64l-1.62-6.16h-19.64l-1.62,6.16h-13.48l15.17-56.3h19.48l15.17,56.3h-13.48ZM289.18,96.46h13.63l-6.85-25.42-6.78,25.42Z"/>
      <path class="cls-2" d="M353.94,80.75c2.13.92,4.01,2.18,5.62,3.77,1.62,1.59,2.89,3.45,3.81,5.58.93,2.13,1.39,4.43,1.39,6.89s-.46,4.7-1.39,6.86c-.92,2.16-2.19,4.03-3.81,5.62-1.62,1.59-3.49,2.85-5.62,3.77-2.13.92-4.43,1.39-6.89,1.39h-3.93c-2.47,0-4.76-.46-6.89-1.39-2.13-.93-3.99-2.18-5.58-3.77-1.59-1.59-2.85-3.47-3.77-5.62-.93-2.16-1.39-4.44-1.39-6.86h11.86c0,1.59.55,2.95,1.66,4.08,1.1,1.13,2.48,1.69,4.12,1.69h3.93c1.64,0,3.03-.56,4.16-1.69,1.13-1.13,1.69-2.49,1.69-4.08s-.57-3.03-1.69-4.16c-1.13-1.13-2.52-1.69-4.16-1.69h-3.93c-2.47,0-4.76-.42-6.89-1.27-2.13-.85-3.99-2.01-5.58-3.5-1.59-1.49-2.85-3.26-3.77-5.31-.93-2.05-1.39-4.31-1.39-6.78s.46-4.7,1.39-6.85c.92-2.16,2.18-4.03,3.77-5.62,1.59-1.59,3.45-2.85,5.58-3.77,2.13-.92,4.43-1.39,6.89-1.39h3.93c2.47,0,4.76.46,6.89,1.39,2.13.92,4.01,2.18,5.62,3.77,1.62,1.59,2.89,3.47,3.81,5.62.93,2.16,1.39,4.44,1.39,6.85h-11.86c0-1.59-.57-2.95-1.69-4.08-1.13-1.13-2.52-1.69-4.16-1.69h-3.93c-1.64,0-3.02.56-4.12,1.69-1.11,1.13-1.66,2.49-1.66,4.08s.55,2.9,1.66,3.77c1.1.87,2.48,1.31,4.12,1.31h3.93c2.47,0,4.76.46,6.89,1.39Z"/>
    </g>
    <g>
      <g>
        <path class="cls-1" d="M376.65,100.47c.79-.14,1.78-.26,3.05-.26,1.58,0,2.79.36,3.58,1.09.71.65,1.13,1.64,1.13,2.85s-.34,2.18-.99,2.87c-.87,1.01-2.31,1.52-3.88,1.52-.45,0-.85-.02-1.19-.1v5.5h-1.7v-13.47ZM378.35,107.05c.32.1.73.12,1.21.12,1.94,0,3.16-1.03,3.16-2.91,0-1.7-1.07-2.69-2.95-2.69-.65,0-1.13.06-1.42.12v5.36Z"/>
        <path class="cls-1" d="M390.24,114.15c-2.39,0-4.25-1.82-4.25-5.04,0-3.38,1.98-5.16,4.39-5.16s4.25,1.9,4.25,5.04c0,3.68-2.29,5.16-4.37,5.16h-.02ZM390.32,112.85c1.6,0,2.57-1.8,2.57-3.82,0-1.62-.67-3.78-2.57-3.78s-2.59,2.07-2.59,3.83c0,1.98.95,3.78,2.57,3.78h.02Z"/>
        <path class="cls-1" d="M397.9,104.15l1.19,4.9c.26,1.09.51,2.12.67,3.14h.06c.2-.99.51-2.08.81-3.1l1.46-4.94h1.4l1.4,4.83c.3,1.13.59,2.17.79,3.2h.06c.16-1.01.4-2.02.69-3.18l1.26-4.86h1.7l-2.95,9.79h-1.52l-1.38-4.69c-.32-1.07-.57-2.02-.77-3.16h-.04c-.22,1.17-.5,2.16-.81,3.18l-1.44,4.67h-1.54l-2.79-9.79h1.76Z"/>
        <path class="cls-1" d="M412.45,109.31c.02,2.59,1.46,3.48,3.03,3.48,1.09,0,1.82-.2,2.39-.47l.28,1.23c-.59.28-1.6.57-2.91.57-2.81,0-4.45-1.96-4.45-4.94s1.64-5.24,4.23-5.24c2.83,0,3.64,2.59,3.64,4.51,0,.39-.02.65-.06.85h-6.15ZM417.02,108.08c.02-1.38-.53-2.87-2.16-2.87s-2.27,1.6-2.39,2.87h4.55Z"/>
        <path class="cls-1" d="M421.32,107.05c0-1.05-.04-2.05-.08-2.89h1.5l.08,1.82h.06c.41-1.21,1.42-2.02,2.51-2.02.18,0,.31.02.45.04v1.66c-.14-.04-.3-.04-.5-.04-1.17,0-2.02.93-2.25,2.21-.04.24-.06.54-.06.85v5.28h-1.7v-6.9Z"/>
        <path class="cls-1" d="M428.87,109.31c.02,2.59,1.46,3.48,3.04,3.48,1.09,0,1.82-.2,2.39-.47l.28,1.23c-.59.28-1.6.57-2.91.57-2.81,0-4.45-1.96-4.45-4.94s1.64-5.24,4.23-5.24c2.83,0,3.64,2.59,3.64,4.51,0,.39-.02.65-.06.85h-6.15ZM433.44,108.08c.02-1.38-.53-2.87-2.17-2.87s-2.26,1.6-2.39,2.87h4.55Z"/>
        <path class="cls-1" d="M445.44,99.68v11.79c0,.81.04,1.82.08,2.47h-1.5l-.1-1.56h-.06c-.47.97-1.52,1.76-2.93,1.76-2.17,0-3.8-1.94-3.8-5,0-3.32,1.84-5.2,3.97-5.2,1.27,0,2.18.59,2.61,1.38h.04v-5.64h1.7ZM443.74,108.06c0-.22-.02-.5-.06-.73-.22-1.09-1.07-2-2.25-2-1.68,0-2.59,1.68-2.59,3.76s.85,3.66,2.55,3.66c.97,0,1.92-.65,2.26-2,.06-.2.08-.44.08-.73v-1.96Z"/>
        <path class="cls-1" d="M453.32,99.68h1.7v5.91h.04c.59-1.05,1.6-1.64,2.95-1.64,2.17,0,3.7,1.94,3.7,4.98,0,3.52-1.98,5.22-3.97,5.22-1.31,0-2.26-.57-2.89-1.72h-.06l-.08,1.52h-1.48c.04-.65.08-1.66.08-2.47v-11.79ZM455.02,110.16c0,.22.02.45.06.63.34,1.31,1.29,1.98,2.33,1.98,1.68,0,2.59-1.58,2.59-3.76,0-1.98-.85-3.68-2.57-3.68-1.05,0-2.04.87-2.33,2.06-.04.2-.08.45-.08.71v2.06Z"/>
        <path class="cls-1" d="M464.95,104.15l1.9,5.75c.2.67.4,1.4.55,2h.06c.14-.59.34-1.33.55-2.04l1.72-5.71h1.78l-2.35,6.76c-1.07,3.09-1.9,5.02-3.07,6.19-.83.81-1.66,1.15-2.07,1.25l-.49-1.44c.45-.18,1.01-.5,1.52-.97.45-.45.95-1.11,1.29-1.9.08-.2.14-.32.14-.45,0-.1-.04-.24-.1-.43l-3.28-9.02h1.84Z"/>
      </g>
      <g>
        <path class="cls-1" d="M484.45,100.19c-4.23,0-7.23,3.1-7.23,7.11,0,4.23,2.96,6.91,7.03,6.91,4.35,0,7.31-2.65,7.31-7.07,0-4.11-2.9-6.95-7.11-6.95ZM484.63,113.27c-3.3,0-4.17-3.97-4.17-6.44,0-3.38,1.34-5.71,3.83-5.71s4.03,2.82,4.03,6.28c0,3.28-1.03,5.87-3.69,5.87Z"/>
        <path class="cls-1" d="M518.97,100.98c-.85-.32-1.98-.53-3.71-.53s-2.84.09-4.07.08c-.45,0-1.62,0-2.32-.02-.61-.01-1.44-.02-2.09-.06-.18.1-.22.53-.06.71l.45.12c.26.08.59.16.59.36,0,.22-.38,1.3-.53,1.64-.97,2.47-2.09,5.04-3.06,7.39-.12-.28-.41-.93-.93-2.05l-.95-2.05c-.14-.32-.16-.45-.16-.51,0-.1.26-.69.45-1.05.26-.53.77-1.54,1.26-2.37.71-1.22.85-1.22,1.54-1.36l.57-.12c.18-.14.14-.63-.02-.73-.53.04-1.28.06-2.07.06-.67,0-1.4-.02-1.98-.06-.18.1-.2.57-.06.71l.73.14c.32.08.41.14.41.28,0,.12-.24.73-.59,1.5l-.18.41-.63,1.38c-.18-.36-.45-.91-.63-1.34l-.61-1.4c-.1-.22-.18-.45-.18-.61,0-.14.3-.22.55-.28l.34-.08c.14-.1.16-.65-.08-.71-.53.04-1.3.06-2.33.06-.89,0-1.68-.02-2.55-.06-.22.08-.26.55-.06.71l.2.02c.77.08.91.22,1.38,1.24l1.94,4.27c.08.2.22.63.22.75s-.06.38-.2.71l-.26.59c-.32.73-.79,1.68-1.03,2.09-.24-.49-.55-1.05-1.11-2.31l-2-4.48c-.63-1.42-1.05-2.37-1.05-2.51s.14-.24.51-.3l.36-.06c.2-.12.12-.63-.04-.71-.77.04-1.56.06-2.45.06-1.03,0-1.88-.02-2.63-.06-.22.1-.24.51-.08.71l.51.1c.67.14.79.24,1.34,1.44l3.3,7.15c.69,1.52,1.5,3.34,1.82,4.19.18.1.32.16.55.16.3,0,.59-.06.69-.16.32-.67.55-1.26.85-1.9l.93-1.96c.26-.57.51-1.05.69-1.4.18.3.45.91.73,1.56l.85,1.92c.24.57.55,1.3.77,1.78.14.1.32.16.55.16.26,0,.55-.06.67-.16.99-2.63,3.2-7.68,4.19-10.05.55-1.28.81-1.81,1.03-2.13.16-.24.55-.45.93-.5.29-.04.71-.06,1.15.04.87.19.77.72.79,2.69v6.87c0,1.88-.11,2.03-1.03,2.19l-.57.1c-.22.1-.18.57.04.69,1.09-.04,2.07-.06,3.04-.06s1.96.02,3.1.06c.22-.12.22-.59,0-.69l-.65-.1c-.91-.14-1.03-.3-1.03-2.19v-8.55c0-.81.04-1.03.79-1.03,1.82,0,2.59,1.62,2.59,3.12s-.34,2.69-2.03,3.22c-.14.12-.1.45.06.55.22.02.41.02.65.02,1.07,0,4.42-.49,4.42-3.81,0-1.96-1.24-3.04-2.47-3.5Z"/>
      </g>
    </g>
  </g>
  <g>
    <path class="cls-3" d="M146.94,88.07c-1.46-.25-2.9-.36-4.33-.36-12.45,0-23.49,9-25.62,21.68-1.15,6.85.43,13.73,4.46,19.39,4.03,5.66,10.02,9.41,16.86,10.56,6.85,1.16,13.73-.43,19.39-4.46,5.66-4.03,9.41-10.02,10.56-16.86,2.38-14.14-7.18-27.57-21.32-29.95Z"/>
    <path class="cls-2" d="M32.16,59.09c-.72-.12-1.44-.18-2.16-.18-2.64,0-5.21.82-7.4,2.38-2.79,1.98-4.63,4.93-5.2,8.31-.57,3.37.21,6.77,2.19,9.56,1.98,2.79,4.93,4.63,8.31,5.2,6.96,1.17,13.58-3.54,14.76-10.5.57-3.37-.21-6.77-2.19-9.56-1.98-2.79-4.93-4.63-8.31-5.2Z"/>
    <g>
      <path class="cls-1" d="M149.06,37.37c3.49.55,6.77-1.83,7.33-5.33.55-3.49-1.83-6.77-5.33-7.33-3.49-.55-6.77,1.83-7.33,5.33-.55,3.49,1.83,6.77,5.33,7.33Z"/>
      <path class="cls-1" d="M160.08,48.07c-.12-.07-.26-.13-.39-.2-.26-.14-.51-.28-.78-.41-.39-.18-.81-.34-1.23-.48,0,0-.01,0-.02,0,0,0,0,0,0,0-.06-.02-.11-.05-.16-.06-.28-.09-.57-.16-.85-.23-.31-.08-.62-.13-.93-.19-1.09-.4-1.85-1.43-1.97-2.6l-.27-2.62c-.08-.83-.83-1.43-1.66-1.34-.01,0-.02,0-.03,0-.83.09-1.43.82-1.34,1.64l.27,2.63c.11,1.12-.39,2.2-1.29,2.84-1.03.37-2.01.89-2.91,1.52-10.29-15.27-26.55-26.49-46.1-29.82-18.31-3.11-36.85,1.09-52.05,11.87-9.11,6.46-16.36,14.82-21.4,24.43,1.92-.35,3.9-.39,5.89-.06.37.06.73.15,1.1.24,4.49-7.62,10.57-14.29,18-19.56,13.43-9.52,29.67-13.42,45.9-11.05.51.07,1.02.15,1.52.24,18.43,3.14,33.66,13.97,42.97,28.64-1.05,1.59-2.79,2.61-4.72,2.68l-9.58.35c-2.12.08-4.6-1.22-5.76-3.07-2.58-7.36-8.98-13.12-17.21-14.51-.53-.09-1.06-.13-1.59-.19-.13-.01-.27-.04-.4-.05-.32-.02-.63-.03-.95-.04-.4-.02-.8-.03-1.19-.02-.26,0-.52.02-.78.03-.44.02-.88.06-1.32.11-.24.03-.47.05-.7.09-.48.07-.96.16-1.43.27-.18.04-.36.07-.54.11-.65.16-1.3.34-1.94.56-.02,0-.05.02-.07.03-.62.21-1.23.46-1.84.73-.09.04-.18.09-.26.13-.57.26-1.13.55-1.67.86-.03.01-.05.03-.08.04-3.88,2.22-7.11,5.58-9.06,9.77-3.76,8.09-2.24,16.98,2.81,23.26,1.77,2.2,1.89,5.3.44,7.71l-4.71,7.84c-1.61,2.69-4.89,3.89-7.85,2.87l-.05-.02c-8.01-2.68-16.28-2.66-23.81-.44-1.93.57-4.15-.4-4.96-2.25l-.14-.32c-.71-1.62-2.62-2.38-4.25-1.69l-.06.03c-1.67.71-2.43,2.64-1.71,4.3l.39.9c.78,1.78.18,3.84-1.39,4.98-2.97,2.14-5.63,4.72-7.94,7.64-1.8-5.82-2.8-11.95-2.85-18.23-2.27-.67-4.35-1.81-6.13-3.33-1.44,34.54,23.02,65.68,57.97,71.63.55.09,1.1.18,1.65.26,19.77,2.88,38.93-2.9,53.52-14.53-2.17-.79-4.22-1.84-6.14-3.1-9.37,6.8-20.57,11.05-32.47,11.96,1.36-2.32,2.5-4.81,3.39-7.47,5.09-15.19.49-31.28-10.44-41.59-2.22-2.1-2.79-5.4-1.22-8.02,0,0,3.97-8.61,7.17-10.4,2.26-1.27,3.28-1.17,4.02-1,1.16.26,2.31.39,3.47.46h.03c.62.04,1.24.05,1.86.03.24,0,.48-.01.72-.03.37-.02.75-.05,1.12-.1.47-.05.94-.11,1.41-.19,0,0,0,0,0,0,.98-.17,1.99.19,2.61.97l5.36,7.66c.95,1.21,2.7,1.41,3.9.47,1.21-.95,1.41-2.7.47-3.9l-3.53-5.33c-.94-1.19-.7-2.92.52-3.81l.05-.03c1.3-.95,3.13-.7,4.13.57l3.87,5.61c.95,1.21,2.7,1.41,3.9.47,1.21-.95,1.41-2.7.47-3.9l-4.92-6.95c-.97-1.23-1.11-2.88-.45-4.3.45-.96.83-1.96,1.14-3,1.07-2.33,3.37-3.9,5.98-4l10.84-.4c1.27-.05,2.5.61,3.06,1.75.42.85.94,1.66,1.55,2.4,0,0,0,0,0,0,.01.02.03.03.04.05,1.5,1.82,3.53,3.25,5.98,3.99,1.25,4.6,2.01,9.37,2.19,14.25,2.21.74,4.3,1.73,6.23,2.93.05-5.8-.65-11.49-1.98-16.96,0,0,0,0,0,0,3.69-.86,6.94-3.35,8.58-6.91,2.79-6.06.39-12.91-4.97-16.09ZM150.04,70.86"/>
    </g>
  </g>
</svg>