<?xml version="1.0" encoding="UTF-8"?>
<svg id="Layer_1" data-name="Layer 1" xmlns="http://www.w3.org/2000/svg" viewBox="0 0 288 288">
  <defs>
    <style>
      .cls-1 {
        fill: #525252;
      }
    </style>
  </defs>
  <path class="cls-1" d="M260.74,262.96c-.08.12.19.41-.19.39-.23-.01-.45,0-.68,0h-68.59c-.18-.34-.32-.69-.54-1-7.34-10.69-14.68-21.38-22.02-32.06-13.47-19.61-26.95-39.22-40.42-58.83-.18-.26-.38-.5-.6-.8-.27.29-.5.52-.7.76-1.48,1.72-2.96,3.44-4.44,5.16-24.65,28.66-49.31,57.32-73.96,85.98-.2.24-.35.53-.52.79-6.75,0-13.49,0-20.24-.01-.18,0-.51.24-.58-.18.24-.2.52-.36.72-.59,2.19-2.52,4.36-5.06,6.54-7.59,27.57-32.05,55.14-64.09,82.71-96.14.44-.51.87-1.03,1.32-1.55-.21-.33-.39-.6-.57-.86-3.65-5.32-7.3-10.63-10.95-15.95-23.92-34.81-47.84-69.61-71.75-104.42-2.42-3.53-4.84-7.06-7.28-10.57-.18-.27-.26-.7-.73-.68.03-.06.06-.18.1-.19.26-.02.52,0,.78,0,22.93,0,45.85,0,68.78,0,6.46,9.4,12.93,18.8,19.39,28.21,13.46,19.58,26.91,39.16,40.37,58.74.16.23.35.44.58.73.31-.35.56-.64.81-.93,7.44-8.65,14.89-17.3,22.33-25.95,17.23-20.03,34.46-40.06,51.69-60.09.18-.21.3-.47.46-.71,6.88,0,13.75,0,20.62,0-.18.26-.34.54-.54.78-7.56,8.8-15.13,17.6-22.7,26.4-20.62,23.96-41.23,47.92-61.85,71.88-.57.66-1.13,1.33-1.69,1.99.23.35.43.65.63.94,9.16,13.33,18.32,26.66,27.48,39.99,20.06,29.2,40.13,58.4,60.19,87.59,2.01,2.93,4.05,5.85,6.07,8.77ZM232.65,248.42c-.38-.56-.63-.93-.88-1.3-19.72-28.21-39.45-56.43-59.17-84.64-28.29-40.46-56.57-80.92-84.84-121.39-.51-.72-1.02-.98-1.89-.98-9.69.03-19.39.02-29.08.02h-1.35c.38.55.65.94.92,1.33,48.03,68.7,96.06,137.4,144.07,206.11.44.63.89.87,1.66.86,9.79-.03,19.58-.02,29.38-.02h1.19Z"/>
</svg>