<?xml version="1.0" encoding="UTF-8"?>
<svg id="YouTube_logo_assets" data-name="YouTube logo assets" xmlns="http://www.w3.org/2000/svg" viewBox="0 0 100 72.5">
  <defs>
    <style>
      .cls-1 {
        fill: #3c1312;
        fill-rule: evenodd;
        opacity: .12;
      }

      .cls-2 {
        fill: #fff;
      }

      .cls-3 {
        fill: #525352;
      }
    </style>
  </defs>
  <path id="Triangle" class="cls-2" d="M40.71,47.92l24.32-12.6-24.32-12.69v25.29Z"/>
  <path id="The_Sharpness" data-name="The Sharpness" class="cls-1" d="M40.71,22.64l21.33,14.24,2.99-1.55-24.32-12.69Z"/>
  <g id="Lozenge">
    <path class="cls-3" d="M94.1,18.26s-.88-6.2-3.58-8.93c-3.42-3.58-7.26-3.6-9.02-3.81-12.59-.91-31.49-.91-31.49-.91h-.04s-18.89,0-31.49.91c-1.76.21-5.59.23-9.02,3.81-2.7,2.73-3.58,8.93-3.58,8.93,0,0-.9,7.28-.9,14.57v6.83c0,7.28.9,14.57.9,14.57,0,0,.88,6.2,3.58,8.93,3.42,3.58,7.92,3.47,9.92,3.85,7.2.69,30.6.9,30.6.9,0,0,18.91-.03,31.51-.94,1.76-.21,5.6-.23,9.02-3.81,2.7-2.73,3.58-8.93,3.58-8.93,0,0,.9-7.28.9-14.57v-6.83c0-7.28-.9-14.57-.9-14.57ZM40.71,47.92v-25.29s24.31,12.69,24.31,12.69l-24.31,12.6Z"/>
  </g>
</svg>